<svg width="101" height="38" viewBox="0 0 101 38" fill="none" xmlns="http://www.w3.org/2000/svg">
<g opacity="0.6">
<path d="M31.6988 9.69873V19.8942C31.6988 22.2778 29.9364 24.0006 27.773 24.0006C25.6097 24.0006 24.2879 22.3862 24.2879 20.1145V15.1955C24.2879 12.1582 21.8248 9.69873 18.7838 9.69873V21.068C18.7838 25.5788 21.9403 28.4753 26.0503 28.4753C28.6904 28.4753 30.9657 27.8902 32.0672 25.2502C32.0672 27.2365 33.6779 28.8437 35.6643 28.8437H37.2028V15.1955C37.2028 12.1582 34.7398 9.69873 31.6988 9.69873Z" fill="white"/>
<path opacity="0.6" d="M85.3438 33.5V23.1875H87.207C87.7344 23.1875 88.1426 23.2656 88.4316 23.4219C88.7207 23.5781 88.9238 23.8262 89.041 24.166C89.1582 24.5059 89.2188 24.9531 89.2227 25.5078V25.7305C89.2227 26.3047 89.168 26.7734 89.0586 27.1367C88.9531 27.4961 88.748 27.7559 88.4434 27.916C88.6895 28.0137 88.8809 28.1836 89.0176 28.4258C89.1543 28.668 89.25 28.959 89.3047 29.2988C89.3633 29.6387 89.3926 30.0039 89.3926 30.3945V30.6113C89.3848 31.2832 89.3164 31.832 89.1875 32.2578C89.0625 32.6836 88.8535 32.998 88.5605 33.2012C88.2676 33.4004 87.8672 33.5 87.3594 33.5H85.3438ZM86.5566 32.5215H87.3008C87.5312 32.5215 87.709 32.4648 87.834 32.3516C87.959 32.2383 88.0469 32.041 88.0977 31.7598C88.1484 31.4746 88.1738 31.0801 88.1738 30.5762V30.2188C88.1738 29.582 88.123 29.125 88.0215 28.8477C87.9199 28.5664 87.7012 28.4258 87.3652 28.4258H86.5566V32.5215ZM86.5566 27.4941H87.2422C87.4062 27.4941 87.5391 27.4766 87.6406 27.4414C87.7422 27.4023 87.8203 27.3262 87.875 27.2129C87.9336 27.0996 87.9727 26.9316 87.9922 26.709C88.0117 26.4863 88.0215 26.1875 88.0215 25.8125V25.5254C88.0215 25.1348 87.9922 24.8438 87.9336 24.6523C87.875 24.4609 87.7812 24.334 87.6523 24.2715C87.5273 24.209 87.3613 24.1777 87.1543 24.1777H86.5566V27.4941ZM92.5391 33.6055C92.1172 33.6055 91.7773 33.5332 91.5195 33.3887C91.2656 33.2402 91.0723 33.0312 90.9395 32.7617C90.8066 32.4922 90.7168 32.1699 90.6699 31.7949C90.627 31.416 90.6055 30.998 90.6055 30.541V27.4355C90.6055 27.0215 90.6348 26.6426 90.6934 26.2988C90.752 25.9512 90.8535 25.6523 90.998 25.4023C91.1426 25.1484 91.3438 24.9531 91.6016 24.8164C91.8594 24.6758 92.1875 24.6055 92.5859 24.6055C92.9883 24.6055 93.3125 24.6758 93.5586 24.8164C93.8047 24.957 93.9902 25.1562 94.1152 25.4141C94.2441 25.668 94.3301 25.9727 94.373 26.3281C94.416 26.6797 94.4375 27.0664 94.4375 27.4883V29.1465H91.8125V30.8984C91.8125 31.4531 91.8496 31.877 91.9238 32.1699C92.002 32.459 92.2109 32.6035 92.5508 32.6035C92.7734 32.6035 92.9316 32.5352 93.0254 32.3984C93.123 32.2578 93.1816 32.0625 93.2012 31.8125C93.2246 31.5586 93.2363 31.2598 93.2363 30.916V30.207H94.4141V30.582C94.4141 31.0391 94.3945 31.4531 94.3555 31.8242C94.3203 32.1953 94.2422 32.5137 94.1211 32.7793C94 33.0449 93.8125 33.25 93.5586 33.3945C93.3086 33.5352 92.9688 33.6055 92.5391 33.6055ZM91.8066 28.332H93.2363V27.2129C93.2363 26.8613 93.2246 26.5664 93.2012 26.3281C93.1777 26.0859 93.1211 25.9043 93.0312 25.7832C92.9414 25.6582 92.793 25.5957 92.5859 25.5957C92.3555 25.5957 92.1836 25.666 92.0703 25.8066C91.9609 25.9473 91.8887 26.1426 91.8535 26.3926C91.8223 26.6387 91.8066 26.9258 91.8066 27.2539V28.332ZM97.707 33.6055C97.2852 33.6055 96.9453 33.5332 96.6875 33.3887C96.4336 33.2402 96.2402 33.0312 96.1074 32.7617C95.9746 32.4922 95.8848 32.1699 95.8379 31.7949C95.7949 31.416 95.7734 30.998 95.7734 30.541V27.4355C95.7734 27.0215 95.8027 26.6426 95.8613 26.2988C95.9199 25.9512 96.0215 25.6523 96.166 25.4023C96.3105 25.1484 96.5117 24.9531 96.7695 24.8164C97.0273 24.6758 97.3555 24.6055 97.7539 24.6055C98.1562 24.6055 98.4805 24.6758 98.7266 24.8164C98.9727 24.957 99.1582 25.1562 99.2832 25.4141C99.4121 25.668 99.498 25.9727 99.541 26.3281C99.584 26.6797 99.6055 27.0664 99.6055 27.4883V29.1465H96.9805V30.8984C96.9805 31.4531 97.0176 31.877 97.0918 32.1699C97.1699 32.459 97.3789 32.6035 97.7188 32.6035C97.9414 32.6035 98.0996 32.5352 98.1934 32.3984C98.291 32.2578 98.3496 32.0625 98.3691 31.8125C98.3926 31.5586 98.4043 31.2598 98.4043 30.916V30.207H99.582V30.582C99.582 31.0391 99.5625 31.4531 99.5234 31.8242C99.4883 32.1953 99.4102 32.5137 99.2891 32.7793C99.168 33.0449 98.9805 33.25 98.7266 33.3945C98.4766 33.5352 98.1367 33.6055 97.707 33.6055ZM96.9746 28.332H98.4043V27.2129C98.4043 26.8613 98.3926 26.5664 98.3691 26.3281C98.3457 26.0859 98.2891 25.9043 98.1992 25.7832C98.1094 25.6582 97.9609 25.5957 97.7539 25.5957C97.5234 25.5957 97.3516 25.666 97.2383 25.8066C97.1289 25.9473 97.0566 26.1426 97.0215 26.3926C96.9902 26.6387 96.9746 26.9258 96.9746 27.2539V28.332Z" fill="#A0A0A0"/>
<path d="M66.276 0.850098V23.2852C66.276 26.4526 68.8619 29.0204 72.0545 29.0204V6.58528C72.0545 3.41793 69.4686 0.850098 66.276 0.850098Z" fill="white"/>
<path d="M56.4598 10.7349V13.9745C55.1885 11.5548 52.9963 10.0596 50.1685 10.0596C45.3614 10.0596 41.8979 14.119 41.8979 19.8506C41.8979 25.369 45.3614 29.2154 50.1685 29.2154C52.9602 29.2154 55.1163 27.7924 56.4598 25.4774V28.6122C56.4598 31.7796 54.5529 33.6323 51.8659 33.6323C50.1793 33.6323 48.6408 32.715 47.8354 31.3281C47.4489 30.6636 46.7627 30.1399 45.9935 30.2266L42.6058 30.6094C43.1367 34.8097 47.1311 37.8723 52.079 37.8723C57.8033 37.8723 61.7616 34.4196 61.7616 28.7567V16.0187C61.7616 13.1005 59.3888 10.7349 56.4598 10.7349ZM51.9345 24.8381C49.1789 24.8381 47.1997 22.7362 47.1997 19.8542C47.1997 16.8999 49.1789 14.7257 51.9345 14.7257C54.6901 14.7257 56.6693 16.8963 56.6693 19.8542C56.6729 22.7362 54.6938 24.8381 51.9345 24.8381Z" fill="white"/>
<path d="M7.90935 6.35429V19.4751C7.90935 22.2561 6.10717 24.0835 3.53212 24.0835C2.53894 24.0835 1.10514 23.8632 0 23.5707V28.2874C1.43741 28.728 3.53573 29.0205 5.26207 29.0205C10.3363 29.0205 14.0888 25.3981 14.0888 20.0963V0.12793C10.6758 0.12793 7.90935 2.91607 7.90935 6.35429Z" fill="white"/>
<path d="M77.1107 23.2422C75.5144 23.2422 74.2214 24.5351 74.2214 26.1314V29.0207H77.1107C78.707 29.0207 80 27.7278 80 26.1314C80 24.5351 78.707 23.2422 77.1107 23.2422Z" fill="white"/>
</g>
</svg>
