<svg width="81" height="38" viewBox="0 0 81 38" fill="none" xmlns="http://www.w3.org/2000/svg">
<g opacity="0.6">
<path d="M32.4488 9.69873V19.8942C32.4488 22.2778 30.6864 24.0006 28.523 24.0006C26.3597 24.0006 25.0379 22.3862 25.0379 20.1145V15.1955C25.0379 12.1582 22.5748 9.69873 19.5338 9.69873V21.068C19.5338 25.5788 22.6903 28.4753 26.8003 28.4753C29.4404 28.4753 31.7157 27.8902 32.8172 25.2502C32.8172 27.2365 34.4279 28.8437 36.4143 28.8437H37.9528V15.1955C37.9528 12.1582 35.4898 9.69873 32.4488 9.69873Z" fill="white"/>
<path d="M67.026 0.850098V23.2852C67.026 26.4526 69.6119 29.0204 72.8045 29.0204V6.58528C72.8045 3.41793 70.2186 0.850098 67.026 0.850098Z" fill="white"/>
<path d="M57.2098 10.7349V13.9745C55.9385 11.5548 53.7463 10.0596 50.9184 10.0596C46.1114 10.0596 42.6479 14.119 42.6479 19.8506C42.6479 25.369 46.1114 29.2154 50.9184 29.2154C53.7101 29.2154 55.8663 27.7924 57.2098 25.4774V28.6122C57.2098 31.7796 55.3028 33.6323 52.6158 33.6323C50.9292 33.6323 49.3907 32.715 48.5853 31.3281C48.1989 30.6636 47.5127 30.1399 46.7434 30.2266L43.3558 30.6094C43.8867 34.8097 47.8811 37.8723 52.8289 37.8723C58.5533 37.8723 62.5116 34.4196 62.5116 28.7567V16.0187C62.5116 13.1005 60.1387 10.7349 57.2098 10.7349ZM52.6845 24.8381C49.9288 24.8381 47.9497 22.7362 47.9497 19.8542C47.9497 16.8999 49.9288 14.7257 52.6845 14.7257C55.4401 14.7257 57.4192 16.8963 57.4192 19.8542C57.4228 22.7362 55.4437 24.8381 52.6845 24.8381Z" fill="white"/>
<path d="M8.65935 6.35429V19.4751C8.65935 22.2561 6.85717 24.0835 4.28212 24.0835C3.28894 24.0835 1.85514 23.8632 0.75 23.5707V28.2874C2.18741 28.728 4.28573 29.0205 6.01207 29.0205C11.0863 29.0205 14.8388 25.3981 14.8388 20.0963V0.12793C11.4258 0.12793 8.65935 2.91607 8.65935 6.35429Z" fill="white"/>
<path d="M77.8608 23.2422C76.2644 23.2422 74.9715 24.5351 74.9715 26.1314V29.0207H77.8608C79.4571 29.0207 80.75 27.7278 80.75 26.1314C80.75 24.5351 79.4571 23.2422 77.8608 23.2422Z" fill="white"/>
</g>
</svg>
