<svg width="60" height="13" viewBox="0 0 60 13" fill="none" xmlns="http://www.w3.org/2000/svg">
<path opacity="0.6" d="M0.09375 11.25V0.9375H1.48828L3.08203 9.18164L4.59961 0.9375H6V11.25H4.96289V7.34766L5.0625 3.49219L3.50977 11.25H2.64258L1.02539 3.49219L1.125 7.34766V11.25H0.09375ZM9.5332 11.3555C9.11914 11.3555 8.7832 11.2852 8.52539 11.1445C8.26758 11 8.06836 10.7969 7.92773 10.5352C7.79102 10.2695 7.69727 9.95312 7.64648 9.58594C7.5957 9.21484 7.57031 8.80078 7.57031 8.34375V5.23242C7.57031 4.68164 7.62305 4.18945 7.72852 3.75586C7.83398 3.32227 8.02734 2.98047 8.30859 2.73047C8.59375 2.48047 9.00195 2.35547 9.5332 2.35547C9.93164 2.35547 10.2578 2.42773 10.5117 2.57227C10.7656 2.71289 10.9629 2.91406 11.1035 3.17578C11.2441 3.43359 11.3398 3.73828 11.3906 4.08984C11.4453 4.4375 11.4727 4.81836 11.4727 5.23242V8.34375C11.4727 8.79297 11.4492 9.20117 11.4023 9.56836C11.3555 9.93555 11.2637 10.2539 11.127 10.5234C10.9941 10.7891 10.7988 10.9941 10.541 11.1387C10.2871 11.2832 9.95117 11.3555 9.5332 11.3555ZM9.5332 10.3535C9.74414 10.3535 9.90039 10.2832 10.002 10.1426C10.1074 10.002 10.1777 9.80664 10.2129 9.55664C10.248 9.30273 10.2656 9.00977 10.2656 8.67773V4.99219C10.2656 4.66406 10.248 4.37891 10.2129 4.13672C10.1777 3.89062 10.1074 3.69922 10.002 3.5625C9.89648 3.42578 9.74023 3.35742 9.5332 3.35742C9.31445 3.35742 9.15039 3.42578 9.04102 3.5625C8.93164 3.69922 8.85938 3.89062 8.82422 4.13672C8.79297 4.37891 8.77734 4.66406 8.77734 4.99219V8.67773C8.77734 9.00977 8.79297 9.30273 8.82422 9.55664C8.85938 9.80664 8.93164 10.002 9.04102 10.1426C9.15039 10.2832 9.31445 10.3535 9.5332 10.3535ZM13.0605 11.25V2.46094H14.2676V3.43945C14.3691 3.09961 14.5449 2.83398 14.7949 2.64258C15.0488 2.45117 15.3711 2.35547 15.7617 2.35547C15.7695 2.35547 15.7734 2.4082 15.7734 2.51367C15.7773 2.61523 15.7793 2.73242 15.7793 2.86523C15.7793 2.99805 15.7793 3.11719 15.7793 3.22266C15.7793 3.32422 15.7793 3.375 15.7793 3.375C15.5918 3.375 15.4043 3.39844 15.2168 3.44531C15.0293 3.48828 14.8535 3.56445 14.6895 3.67383C14.5254 3.7793 14.3848 3.92383 14.2676 4.10742V11.25H13.0605ZM18.6211 11.3555C18.1992 11.3555 17.8594 11.2832 17.6016 11.1387C17.3477 10.9902 17.1543 10.7812 17.0215 10.5117C16.8887 10.2422 16.7988 9.91992 16.752 9.54492C16.709 9.16602 16.6875 8.74805 16.6875 8.29102V5.18555C16.6875 4.77148 16.7168 4.39258 16.7754 4.04883C16.834 3.70117 16.9355 3.40234 17.0801 3.15234C17.2246 2.89844 17.4258 2.70312 17.6836 2.56641C17.9414 2.42578 18.2695 2.35547 18.668 2.35547C19.0703 2.35547 19.3945 2.42578 19.6406 2.56641C19.8867 2.70703 20.0723 2.90625 20.1973 3.16406C20.3262 3.41797 20.4121 3.72266 20.4551 4.07812C20.498 4.42969 20.5195 4.81641 20.5195 5.23828V6.89648H17.8945V8.64844C17.8945 9.20312 17.9316 9.62695 18.0059 9.91992C18.084 10.209 18.293 10.3535 18.6328 10.3535C18.8555 10.3535 19.0137 10.2852 19.1074 10.1484C19.2051 10.0078 19.2637 9.8125 19.2832 9.5625C19.3066 9.30859 19.3184 9.00977 19.3184 8.66602V7.95703H20.4961V8.33203C20.4961 8.78906 20.4766 9.20312 20.4375 9.57422C20.4023 9.94531 20.3242 10.2637 20.2031 10.5293C20.082 10.7949 19.8945 11 19.6406 11.1445C19.3906 11.2852 19.0508 11.3555 18.6211 11.3555ZM17.8887 6.08203H19.3184V4.96289C19.3184 4.61133 19.3066 4.31641 19.2832 4.07812C19.2598 3.83594 19.2031 3.6543 19.1133 3.5332C19.0234 3.4082 18.875 3.3457 18.668 3.3457C18.4375 3.3457 18.2656 3.41602 18.1523 3.55664C18.043 3.69727 17.9707 3.89258 17.9355 4.14258C17.9043 4.38867 17.8887 4.67578 17.8887 5.00391V6.08203ZM24.8672 11.25V0.9375H26.9414C27.3516 0.9375 27.6836 1.00586 27.9375 1.14258C28.1953 1.2793 28.3926 1.47656 28.5293 1.73438C28.666 1.99219 28.7578 2.30273 28.8047 2.66602C28.8555 3.0293 28.8809 3.4375 28.8809 3.89062V4.04883C28.8809 4.74023 28.8262 5.32031 28.7168 5.78906C28.6113 6.25781 28.418 6.61133 28.1367 6.84961C27.8594 7.08398 27.4609 7.20117 26.9414 7.20117H26.0801V11.25H24.8672ZM26.0801 6.19336H26.8184C27.0566 6.19336 27.2363 6.12695 27.3574 5.99414C27.4785 5.85742 27.5605 5.63281 27.6035 5.32031C27.6504 5.00781 27.6738 4.58398 27.6738 4.04883V3.84961C27.6738 3.18555 27.623 2.69531 27.5215 2.37891C27.4199 2.05859 27.1953 1.89844 26.8477 1.89844H26.0801V6.19336ZM30.123 11.25V2.46094H31.3301V3.43945C31.4316 3.09961 31.6074 2.83398 31.8574 2.64258C32.1113 2.45117 32.4336 2.35547 32.8242 2.35547C32.832 2.35547 32.8359 2.4082 32.8359 2.51367C32.8398 2.61523 32.8418 2.73242 32.8418 2.86523C32.8418 2.99805 32.8418 3.11719 32.8418 3.22266C32.8418 3.32422 32.8418 3.375 32.8418 3.375C32.6543 3.375 32.4668 3.39844 32.2793 3.44531C32.0918 3.48828 31.916 3.56445 31.752 3.67383C31.5879 3.7793 31.4473 3.92383 31.3301 4.10742V11.25H30.123ZM35.7129 11.3555C35.2988 11.3555 34.9629 11.2852 34.7051 11.1445C34.4473 11 34.248 10.7969 34.1074 10.5352C33.9707 10.2695 33.877 9.95312 33.8262 9.58594C33.7754 9.21484 33.75 8.80078 33.75 8.34375V5.23242C33.75 4.68164 33.8027 4.18945 33.9082 3.75586C34.0137 3.32227 34.207 2.98047 34.4883 2.73047C34.7734 2.48047 35.1816 2.35547 35.7129 2.35547C36.1113 2.35547 36.4375 2.42773 36.6914 2.57227C36.9453 2.71289 37.1426 2.91406 37.2832 3.17578C37.4238 3.43359 37.5195 3.73828 37.5703 4.08984C37.625 4.4375 37.6523 4.81836 37.6523 5.23242V8.34375C37.6523 8.79297 37.6289 9.20117 37.582 9.56836C37.5352 9.93555 37.4434 10.2539 37.3066 10.5234C37.1738 10.7891 36.9785 10.9941 36.7207 11.1387C36.4668 11.2832 36.1309 11.3555 35.7129 11.3555ZM35.7129 10.3535C35.9238 10.3535 36.0801 10.2832 36.1816 10.1426C36.2871 10.002 36.3574 9.80664 36.3926 9.55664C36.4277 9.30273 36.4453 9.00977 36.4453 8.67773V4.99219C36.4453 4.66406 36.4277 4.37891 36.3926 4.13672C36.3574 3.89062 36.2871 3.69922 36.1816 3.5625C36.0762 3.42578 35.9199 3.35742 35.7129 3.35742C35.4941 3.35742 35.3301 3.42578 35.2207 3.5625C35.1113 3.69922 35.0391 3.89062 35.0039 4.13672C34.9727 4.37891 34.957 4.66406 34.957 4.99219V8.67773C34.957 9.00977 34.9727 9.30273 35.0039 9.55664C35.0391 9.80664 35.1113 10.002 35.2207 10.1426C35.3301 10.2832 35.4941 10.3535 35.7129 10.3535ZM39.5508 12.4863C39.3633 12.4863 39.1973 12.4785 39.0527 12.4629C38.9121 12.4473 38.8086 12.4336 38.7422 12.4219V11.5781C38.7812 11.582 38.8301 11.5859 38.8887 11.5898C38.9512 11.5938 39.0156 11.5957 39.082 11.5957C39.1953 11.5957 39.2715 11.5547 39.3105 11.4727C39.3535 11.3945 39.375 11.3008 39.375 11.1914V2.46094H40.5762V11.1328C40.5762 11.4648 40.5254 11.7305 40.4238 11.9297C40.3262 12.1289 40.1992 12.2715 40.043 12.3574C39.8867 12.4434 39.7227 12.4863 39.5508 12.4863ZM39.3809 1.65234V0.550781H40.5879V1.65234H39.3809ZM44.0859 11.3555C43.6641 11.3555 43.3242 11.2832 43.0664 11.1387C42.8125 10.9902 42.6191 10.7812 42.4863 10.5117C42.3535 10.2422 42.2637 9.91992 42.2168 9.54492C42.1738 9.16602 42.1523 8.74805 42.1523 8.29102V5.18555C42.1523 4.77148 42.1816 4.39258 42.2402 4.04883C42.2988 3.70117 42.4004 3.40234 42.5449 3.15234C42.6895 2.89844 42.8906 2.70312 43.1484 2.56641C43.4062 2.42578 43.7344 2.35547 44.1328 2.35547C44.5352 2.35547 44.8594 2.42578 45.1055 2.56641C45.3516 2.70703 45.5371 2.90625 45.6621 3.16406C45.791 3.41797 45.877 3.72266 45.9199 4.07812C45.9629 4.42969 45.9844 4.81641 45.9844 5.23828V6.89648H43.3594V8.64844C43.3594 9.20312 43.3965 9.62695 43.4707 9.91992C43.5488 10.209 43.7578 10.3535 44.0977 10.3535C44.3203 10.3535 44.4785 10.2852 44.5723 10.1484C44.6699 10.0078 44.7285 9.8125 44.748 9.5625C44.7715 9.30859 44.7832 9.00977 44.7832 8.66602V7.95703H45.9609V8.33203C45.9609 8.78906 45.9414 9.20312 45.9023 9.57422C45.8672 9.94531 45.7891 10.2637 45.668 10.5293C45.5469 10.7949 45.3594 11 45.1055 11.1445C44.8555 11.2852 44.5156 11.3555 44.0859 11.3555ZM43.3535 6.08203H44.7832V4.96289C44.7832 4.61133 44.7715 4.31641 44.748 4.07812C44.7246 3.83594 44.668 3.6543 44.5781 3.5332C44.4883 3.4082 44.3398 3.3457 44.1328 3.3457C43.9023 3.3457 43.7305 3.41602 43.6172 3.55664C43.5078 3.69727 43.4355 3.89258 43.4004 4.14258C43.3691 4.38867 43.3535 4.67578 43.3535 5.00391V6.08203ZM49.2832 11.3555C48.8574 11.3555 48.5137 11.2832 48.252 11.1387C47.9941 10.9941 47.7969 10.7871 47.6602 10.5176C47.5273 10.2441 47.4375 9.91992 47.3906 9.54492C47.3438 9.16602 47.3203 8.74609 47.3203 8.28516V5.34375C47.3203 4.75781 47.3691 4.24023 47.4668 3.79102C47.5645 3.3418 47.7559 2.99023 48.041 2.73633C48.3262 2.48242 48.75 2.35547 49.3125 2.35547C49.7031 2.35547 50.0176 2.41992 50.2559 2.54883C50.498 2.67773 50.6816 2.86328 50.8066 3.10547C50.9355 3.34766 51.0215 3.63672 51.0645 3.97266C51.1113 4.30859 51.1348 4.68164 51.1348 5.0918V5.70117H49.9512V4.92773C49.9512 4.5918 49.9395 4.31055 49.916 4.08398C49.8965 3.85352 49.8418 3.67969 49.752 3.5625C49.6621 3.44531 49.5117 3.38672 49.3008 3.38672C49.0781 3.38672 48.9121 3.45117 48.8027 3.58008C48.6934 3.70508 48.6191 3.88672 48.5801 4.125C48.5449 4.35938 48.5273 4.63867 48.5273 4.96289V8.70117C48.5273 9.06445 48.543 9.36719 48.5742 9.60938C48.6055 9.84766 48.6738 10.0273 48.7793 10.1484C48.8848 10.2656 49.0469 10.3242 49.2656 10.3242C49.4766 10.3242 49.6289 10.2617 49.7227 10.1367C49.8203 10.0078 49.8828 9.82422 49.9102 9.58594C49.9375 9.34375 49.9512 9.05664 49.9512 8.72461V7.875H51.1348V8.44336C51.1348 8.87695 51.1133 9.27148 51.0703 9.62695C51.0273 9.98242 50.9414 10.2891 50.8125 10.5469C50.6875 10.8047 50.502 11.0039 50.2559 11.1445C50.0098 11.2852 49.6855 11.3555 49.2832 11.3555ZM54.1289 11.3027C53.7539 11.3027 53.4707 11.2578 53.2793 11.168C53.0879 11.0781 52.959 10.9336 52.8926 10.7344C52.8262 10.5352 52.793 10.2715 52.793 9.94336V3.42188H51.9902V2.53125H52.793V0.9375H53.9941V2.53125H54.9434V3.42188H53.9941V9.83789C53.9941 9.98633 54.0137 10.0977 54.0527 10.1719C54.0918 10.2422 54.1797 10.2891 54.3164 10.3125C54.4531 10.3359 54.666 10.3477 54.9551 10.3477V11.3027H54.1289ZM57.7266 11.3672C57.1016 11.3672 56.627 11.1719 56.3027 10.7812C55.9785 10.3867 55.8164 9.73438 55.8164 8.82422V8.16211H56.9824V8.81836C56.9824 9.31055 57.0352 9.6875 57.1406 9.94922C57.25 10.2109 57.4277 10.3418 57.6738 10.3418C57.9199 10.3418 58.0996 10.2617 58.2129 10.1016C58.3301 9.94141 58.3887 9.6543 58.3887 9.24023C58.3887 9.0332 58.3574 8.82812 58.2949 8.625C58.2324 8.41797 58.1367 8.21484 58.0078 8.01562C57.8789 7.8125 57.7129 7.61523 57.5098 7.42383L56.8887 6.83203C56.5176 6.47656 56.2344 6.09961 56.0391 5.70117C55.8438 5.29883 55.7461 4.87305 55.7461 4.42383C55.7461 3.71289 55.9141 3.19141 56.25 2.85938C56.5859 2.52344 57.0488 2.35547 57.6387 2.35547C58.0332 2.35547 58.3652 2.44141 58.6348 2.61328C58.9043 2.78516 59.1074 3.07031 59.2441 3.46875C59.3809 3.86719 59.4492 4.41016 59.4492 5.09766V5.51953H58.3066V4.91016C58.3066 4.41797 58.2578 4.04102 58.1602 3.7793C58.0664 3.51758 57.8965 3.38672 57.6504 3.38672C57.4121 3.38672 57.2324 3.45703 57.1113 3.59766C56.9941 3.73438 56.9297 3.98633 56.918 4.35352C56.9141 4.54102 56.9375 4.73047 56.9883 4.92188C57.043 5.11328 57.1309 5.30273 57.252 5.49023C57.373 5.67773 57.5293 5.86133 57.7207 6.04102L58.3535 6.63281C58.7637 7.01172 59.0723 7.41992 59.2793 7.85742C59.4902 8.29102 59.5957 8.75 59.5957 9.23438C59.5957 9.89844 59.4434 10.4199 59.1387 10.7988C58.8379 11.1777 58.3672 11.3672 57.7266 11.3672Z" fill="white"/>
</svg>
