<svg width="141" height="40" viewBox="0 0 141 40" fill="none" xmlns="http://www.w3.org/2000/svg">
<g clip-path="url(#clip0_3259_1032)">
<path d="M30.0838 7.59096C30.0558 7.39488 29.8877 7.28284 29.7477 7.28284C29.6076 7.28284 26.8345 7.22681 26.8345 7.22681C26.8345 7.22681 24.5096 4.98592 24.2855 4.73382C24.0614 4.50973 23.6132 4.56575 23.4451 4.62177C23.4451 4.62177 22.997 4.76183 22.2687 4.98592C22.1566 4.59376 21.9605 4.11757 21.7084 3.61337C20.8961 2.04474 19.6636 1.20441 18.207 1.20441C18.095 1.20441 18.011 1.20441 17.8989 1.23242C17.8429 1.17639 17.8149 1.12037 17.7589 1.09236C17.1146 0.420092 16.3023 0.083958 15.3219 0.111969C13.4451 0.167992 11.5684 1.54054 10.0278 3.9495C8.96334 5.65819 8.15102 7.78704 7.89892 9.4397C5.74205 10.112 4.22945 10.5882 4.17343 10.5882C3.08099 10.9243 3.05298 10.9523 2.91292 11.9887C2.8569 12.773 -0.000244141 34.8739 -0.000244141 34.8739L23.9773 39.0195L34.3695 36.4425C34.3415 36.4425 30.1118 7.78704 30.0838 7.59096ZM21.0642 5.37808C20.504 5.54614 19.8877 5.74222 19.2154 5.96631C19.2154 5.01393 19.0754 3.66939 18.6552 2.54894C20.0838 2.77303 20.7841 4.39768 21.0642 5.37808ZM17.9549 6.33046C16.6944 6.72261 15.3219 7.14278 13.9493 7.56295C14.3415 6.07836 15.0698 4.62177 15.9661 3.64138C16.3023 3.27724 16.7785 2.88508 17.3107 2.66099C17.8709 3.75343 17.9829 5.29404 17.9549 6.33046ZM15.3779 1.37247C15.8261 1.37247 16.1902 1.45651 16.4984 1.6806C15.9942 1.9327 15.49 2.32485 15.0418 2.82906C13.8373 4.11757 12.9129 6.10637 12.5488 8.03914C11.4003 8.40329 10.2799 8.73942 9.27146 9.04754C9.94373 5.99432 12.4928 1.45651 15.3779 1.37247Z" fill="#A0A0A0"/>
<path d="M29.7478 7.28283C29.6078 7.28283 26.8347 7.2268 26.8347 7.2268C26.8347 7.2268 24.5098 4.98591 24.2857 4.73381C24.2016 4.64977 24.0896 4.59375 23.9775 4.59375V39.0195L34.3697 36.4425C34.3697 36.4425 30.14 7.78703 30.112 7.59095C30.056 7.39487 29.8879 7.28283 29.7478 7.28283Z" fill="#A0A0A0"/>
<path d="M18.207 12.6329L17.0025 17.1427C17.0025 17.1427 15.6579 16.5265 14.0613 16.6385C11.7084 16.7786 11.7084 18.2632 11.7084 18.6273C11.8484 20.6441 17.1425 21.0923 17.4507 25.8262C17.6747 29.5517 15.4899 32.1007 12.2966 32.2968C8.48707 32.4929 6.38623 30.252 6.38623 30.252L7.19856 26.8066C7.19856 26.8066 9.32741 28.4032 11.0081 28.2912C12.1005 28.2352 12.5207 27.3108 12.4647 26.6945C12.2966 24.0615 7.98287 24.2296 7.70276 19.8878C7.47867 16.2464 9.85962 12.5769 15.1257 12.2408C17.1705 12.1007 18.207 12.6329 18.207 12.6329Z" fill="#121212"/>
<path d="M48.4312 22.2409C47.2267 21.5966 46.6105 21.0364 46.6105 20.2801C46.6105 19.3277 47.4788 18.7115 48.8234 18.7115C50.392 18.7115 51.7926 19.3557 51.7926 19.3557L52.885 15.9944C52.885 15.9944 51.8766 15.2101 48.9074 15.2101C44.7618 15.2101 41.8766 17.591 41.8766 20.9244C41.8766 22.8291 43.2211 24.2577 45.0139 25.2941C46.4704 26.1064 46.9746 26.6947 46.9746 27.563C46.9746 28.4594 46.2464 29.1877 44.9018 29.1877C42.913 29.1877 41.0083 28.1513 41.0083 28.1513L39.8318 31.5126C39.8318 31.5126 41.5685 32.6891 44.5097 32.6891C48.7674 32.6891 51.8486 30.5882 51.8486 26.8067C51.8206 24.7619 50.28 23.3053 48.4312 22.2409ZM65.406 15.1541C63.3052 15.1541 61.6525 16.1625 60.392 17.6751L60.336 17.6471L62.1567 8.12324H57.4228L52.801 32.3809H57.5349L59.1035 24.0896C59.7197 20.9524 61.3444 19.0196 62.857 19.0196C63.9214 19.0196 64.3416 19.7479 64.3416 20.7843C64.3416 21.4286 64.2856 22.2409 64.1455 22.8851L62.3528 32.3809H67.0867L68.9354 22.577C69.1315 21.5406 69.2716 20.3081 69.2716 19.4678C69.2996 16.7787 67.899 15.1541 65.406 15.1541ZM80.0279 15.1541C74.3136 15.1541 70.5321 20.3081 70.5321 26.0504C70.5321 29.7199 72.801 32.6891 77.0587 32.6891C82.6609 32.6891 86.4424 27.6751 86.4424 21.7927C86.4704 18.4034 84.4816 15.1541 80.0279 15.1541ZM77.7029 29.0756C76.0783 29.0756 75.406 27.7031 75.406 25.9664C75.406 23.2493 76.8066 18.8235 79.3836 18.8235C81.0643 18.8235 81.6245 20.2801 81.6245 21.6807C81.6245 24.5938 80.1959 29.0756 77.7029 29.0756ZM98.5993 15.1541C95.406 15.1541 93.5853 17.9832 93.5853 17.9832H93.5293L93.8094 15.4342H89.6077C89.4116 17.1429 89.0195 19.7759 88.6553 21.7367L85.35 39.1036H90.0839L91.4004 32.0728H91.5125C91.5125 32.0728 92.4929 32.6891 94.2856 32.6891C99.8598 32.6891 103.501 26.9748 103.501 21.2045C103.501 18.0112 102.073 15.1541 98.5993 15.1541ZM94.0615 29.1316C92.829 29.1316 92.1007 28.4314 92.1007 28.4314L92.885 24.0056C93.4452 21.0364 94.9858 19.0756 96.6385 19.0756C98.0951 19.0756 98.5433 20.4202 98.5433 21.6807C98.5433 24.7619 96.7225 29.1316 94.0615 29.1316ZM110.28 8.34733C108.767 8.34733 107.563 9.55181 107.563 11.0924C107.563 12.493 108.459 13.4734 109.804 13.4734H109.86C111.344 13.4734 112.605 12.465 112.633 10.7283C112.633 9.35574 111.709 8.34733 110.28 8.34733ZM103.641 32.3529H108.375L111.596 15.5462H106.835L103.641 32.3529ZM123.669 15.5182H120.364L120.532 14.7339C120.812 13.1092 121.765 11.6807 123.361 11.6807C124.202 11.6807 124.874 11.9328 124.874 11.9328L125.798 8.20728C125.798 8.20728 124.986 7.78711 123.221 7.78711C121.54 7.78711 119.86 8.2633 118.571 9.35574C116.947 10.7283 116.19 12.7171 115.826 14.7339L115.686 15.5182H113.473L112.773 19.1036H114.986L112.465 32.3809H117.199L119.72 19.1036H122.997L123.669 15.5182ZM135.098 15.5462C135.098 15.5462 132.129 23.0252 130.812 27.1148H130.756C130.672 25.7983 129.58 15.5462 129.58 15.5462H124.594L127.451 30.9804C127.507 31.3165 127.479 31.5406 127.339 31.7647C126.779 32.8291 125.854 33.8655 124.762 34.6218C123.865 35.2661 122.857 35.6863 122.073 35.9664L123.389 40C124.342 39.8039 126.358 38.9916 128.039 37.423C130.196 35.4062 132.213 32.2689 134.258 28.0112L140.056 15.5462H135.098Z" fill="#A0A0A0"/>
</g>
<defs>
<clipPath id="clip0_3259_1032">
<rect width="140.056" height="40" fill="white"/>
</clipPath>
</defs>
</svg>
