<svg width="188" height="179" viewBox="0 0 188 179" fill="none" xmlns="http://www.w3.org/2000/svg">
<path d="M165.938 96.6928L111.258 80.1628L127.755 25.3688L85.0508 12.4668L68.5543 67.2608L13.8745 50.7298L1 93.5138L55.6615 110.054L39.2016 164.83L81.878 177.768L98.3838 122.965L153.073 139.486L165.938 96.6928Z" stroke="white" stroke-width="0.93" stroke-linecap="round" stroke-linejoin="round"/>
<path d="M153.073 139.486L174.393 128.028L187.258 85.226L132.578 68.704L149.075 13.91L106.38 1L85.0508 12.468" stroke="white" stroke-width="0.93" stroke-linecap="round" stroke-linejoin="round"/>
<path d="M13.8745 50.73L35.1944 39.272L73.4969 50.85" stroke="white" stroke-width="0.93" stroke-linecap="round" stroke-linejoin="round"/>
<path d="M81.8779 177.768L103.198 166.309L114.761 127.917" stroke="white" stroke-width="0.93" stroke-linecap="round" stroke-linejoin="round"/>
<path d="M127.755 25.3687L149.075 13.9097" stroke="white" stroke-width="0.93" stroke-linecap="round" stroke-linejoin="round"/>
<path d="M165.938 96.6926L187.258 85.2256" stroke="white" stroke-width="0.93" stroke-linecap="round" stroke-linejoin="round"/>
</svg>
