<svg width="184" height="279" viewBox="0 0 184 279" fill="none" xmlns="http://www.w3.org/2000/svg">
<path d="M151.559 123.075L114.916 79.1796L158.73 42.4605L130.111 8.17657L86.2971 44.8956L49.655 1L15.451 29.6787L52.0751 73.5743L8.29907 110.293L36.881 144.587L80.704 107.868L117.365 151.772L151.559 123.075Z" stroke="white" stroke-width="0.93" stroke-linecap="round" stroke-linejoin="round"/>
<path d="M117.365 151.772L141.463 153.923L175.667 125.225L139.024 81.3295L182.828 44.6105L154.209 10.3265L130.111 8.17627" stroke="white" stroke-width="0.93" stroke-linecap="round" stroke-linejoin="round"/>
<path d="M49.655 1L73.7531 3.15021L99.4191 33.8964" stroke="white" stroke-width="0.93" stroke-linecap="round" stroke-linejoin="round"/>
<path d="M36.8811 144.587L60.9891 146.737L91.6801 121.017" stroke="white" stroke-width="0.93" stroke-linecap="round" stroke-linejoin="round"/>
<path d="M158.73 42.4604L182.828 44.6107" stroke="white" stroke-width="0.93" stroke-linecap="round" stroke-linejoin="round"/>
<path d="M151.559 123.075L175.667 125.225" stroke="white" stroke-width="0.93" stroke-linecap="round" stroke-linejoin="round"/>
<path d="M30.71 159.353C31.256 159.353 31.7 158.909 31.7 158.361C31.7 157.813 31.256 157.368 30.71 157.368C30.163 157.368 29.719 157.813 29.719 158.361C29.719 158.909 30.163 159.353 30.71 159.353Z" fill="#DBF900"/>
<path d="M45.565 159.344C45.024 159.344 44.574 158.903 44.574 158.352C44.574 157.8 45.014 157.359 45.565 157.359C46.115 157.359 46.555 157.8 46.555 158.352C46.555 158.903 46.115 159.344 45.565 159.344Z" fill="#DBF900"/>
<path d="M60.4199 159.353C60.9669 159.353 61.4099 158.909 61.4099 158.361C61.4099 157.813 60.9669 157.368 60.4199 157.368C59.8729 157.368 59.429 157.813 59.429 158.361C59.429 158.909 59.8729 159.353 60.4199 159.353Z" fill="#DBF900"/>
<path d="M75.275 144.466C75.822 144.466 76.265 144.022 76.265 143.474C76.265 142.926 75.822 142.481 75.275 142.481C74.728 142.481 74.2849 142.926 74.2849 143.474C74.2849 144.022 74.728 144.466 75.275 144.466Z" fill="#DBF900"/>
<path d="M75.275 159.353C75.822 159.353 76.265 158.909 76.265 158.361C76.265 157.813 75.822 157.368 75.275 157.368C74.728 157.368 74.2849 157.813 74.2849 158.361C74.2849 158.909 74.728 159.353 75.275 159.353Z" fill="#DBF900"/>
<path d="M90.1299 144.466C90.6769 144.466 91.1208 144.022 91.1208 143.474C91.1208 142.926 90.6769 142.481 90.1299 142.481C89.5829 142.481 89.1399 142.926 89.1399 143.474C89.1399 144.022 89.5829 144.466 90.1299 144.466Z" fill="#DBF900"/>
<path d="M90.1299 159.353C90.6769 159.353 91.1208 158.909 91.1208 158.361C91.1208 157.813 90.6769 157.368 90.1299 157.368C89.5829 157.368 89.1399 157.813 89.1399 158.361C89.1399 158.909 89.5829 159.353 90.1299 159.353Z" fill="#DBF900"/>
<path d="M105.976 143.474C105.976 144.016 105.535 144.466 104.985 144.466C104.435 144.466 103.995 144.025 103.995 143.474C103.995 142.922 104.435 142.481 104.985 142.481C105.535 142.481 105.976 142.922 105.976 143.474Z" fill="#DBF900"/>
<path d="M104.985 159.344C104.444 159.344 103.995 158.903 103.995 158.352C103.995 157.8 104.435 157.359 104.985 157.359C105.535 157.359 105.976 157.8 105.976 158.352C105.976 158.903 105.535 159.344 104.985 159.344Z" fill="#DBF900"/>
<path d="M119.99 159.353C120.537 159.353 120.981 158.909 120.981 158.361C120.981 157.813 120.537 157.368 119.99 157.368C119.444 157.368 119 157.813 119 158.361C119 158.909 119.444 159.353 119.99 159.353Z" fill="#DBF900"/>
<path d="M30.71 174.239C31.256 174.239 31.7 173.795 31.7 173.247C31.7 172.699 31.256 172.255 30.71 172.255C30.163 172.255 29.719 172.699 29.719 173.247C29.719 173.795 30.163 174.239 30.71 174.239Z" fill="#DBF900"/>
<path d="M45.565 174.239C45.024 174.239 44.574 173.798 44.574 173.247C44.574 172.696 45.014 172.255 45.565 172.255C46.115 172.255 46.555 172.696 46.555 173.247C46.555 173.798 46.115 174.239 45.565 174.239Z" fill="#DBF900"/>
<path d="M60.4199 174.239C60.9669 174.239 61.4099 173.795 61.4099 173.247C61.4099 172.699 60.9669 172.255 60.4199 172.255C59.8729 172.255 59.429 172.699 59.429 173.247C59.429 173.795 59.8729 174.239 60.4199 174.239Z" fill="#DBF900"/>
<path d="M75.275 174.239C75.822 174.239 76.265 173.795 76.265 173.247C76.265 172.699 75.822 172.255 75.275 172.255C74.728 172.255 74.2849 172.699 74.2849 173.247C74.2849 173.795 74.728 174.239 75.275 174.239Z" fill="#DBF900"/>
<path d="M90.1299 174.239C90.6769 174.239 91.1208 173.795 91.1208 173.247C91.1208 172.699 90.6769 172.255 90.1299 172.255C89.5829 172.255 89.1399 172.699 89.1399 173.247C89.1399 173.795 89.5829 174.239 90.1299 174.239Z" fill="#DBF900"/>
<path d="M104.99 174.239C104.449 174.239 104 173.798 104 173.247C104 172.696 104.44 172.255 104.99 172.255C105.54 172.255 105.981 172.696 105.981 173.247C105.981 173.798 105.54 174.239 104.99 174.239Z" fill="#DBF900"/>
<path d="M119.99 174.239C120.537 174.239 120.981 173.795 120.981 173.247C120.981 172.699 120.537 172.255 119.99 172.255C119.444 172.255 119 172.699 119 173.247C119 173.795 119.444 174.239 119.99 174.239Z" fill="#DBF900"/>
<path d="M30.71 189.126C30.169 189.126 29.719 188.684 29.719 188.133C29.719 187.582 30.159 187.141 30.71 187.141C31.26 187.141 31.7 187.582 31.7 188.133C31.7 188.684 31.26 189.126 30.71 189.126Z" fill="#DBF900"/>
<path d="M45.565 189.126C45.024 189.126 44.574 188.684 44.574 188.133C44.574 187.582 45.014 187.141 45.565 187.141C46.115 187.141 46.555 187.582 46.555 188.133C46.555 188.684 46.115 189.126 45.565 189.126Z" fill="#DBF900"/>
<path d="M60.4199 189.126C59.8789 189.126 59.429 188.684 59.429 188.133C59.429 187.582 59.8699 187.141 60.4199 187.141C60.9699 187.141 61.4099 187.582 61.4099 188.133C61.4099 188.684 60.9699 189.126 60.4199 189.126Z" fill="#DBF900"/>
<path d="M75.275 189.126C74.734 189.126 74.2849 188.684 74.2849 188.133C74.2849 187.582 74.725 187.141 75.275 187.141C75.825 187.141 76.265 187.582 76.265 188.133C76.265 188.684 75.825 189.126 75.275 189.126Z" fill="#DBF900"/>
<path d="M90.1299 189.126C89.5889 189.126 89.1399 188.684 89.1399 188.133C89.1399 187.582 89.5799 187.141 90.1299 187.141C90.6799 187.141 91.1208 187.582 91.1208 188.133C91.1208 188.684 90.6799 189.126 90.1299 189.126Z" fill="#DBF900"/>
<path d="M104.99 189.126C104.449 189.126 104 188.684 104 188.133C104 187.582 104.44 187.141 104.99 187.141C105.54 187.141 105.981 187.582 105.981 188.133C105.981 188.684 105.54 189.126 104.99 189.126Z" fill="#DBF900"/>
<path d="M119.99 189.126C119.449 189.126 119 188.684 119 188.133C119 187.582 119.44 187.141 119.99 187.141C120.541 187.141 120.981 187.582 120.981 188.133C120.981 188.684 120.541 189.126 119.99 189.126Z" fill="#DBF900"/>
<path d="M89.99 204.012C90.537 204.012 90.981 203.567 90.981 203.019C90.981 202.471 90.537 202.027 89.99 202.027C89.443 202.027 89 202.471 89 203.019C89 203.567 89.443 204.012 89.99 204.012Z" fill="#DBF900"/>
<path d="M104.99 204.012C104.449 204.012 104 203.571 104 203.019C104 202.468 104.44 202.027 104.99 202.027C105.54 202.027 105.981 202.468 105.981 203.019C105.981 203.571 105.54 204.012 104.99 204.012Z" fill="#DBF900"/>
<path d="M119.99 204.012C120.537 204.012 120.981 203.567 120.981 203.019C120.981 202.471 120.537 202.027 119.99 202.027C119.444 202.027 119 202.471 119 203.019C119 203.567 119.444 204.012 119.99 204.012Z" fill="#DBF900"/>
<path d="M89.99 218.907C90.537 218.907 90.981 218.463 90.981 217.914C90.981 217.366 90.537 216.922 89.99 216.922C89.443 216.922 89 217.366 89 217.914C89 218.463 89.443 218.907 89.99 218.907Z" fill="#DBF900"/>
<path d="M104.99 218.898C104.449 218.898 104 218.457 104 217.905C104 217.354 104.44 216.913 104.99 216.913C105.54 216.913 105.981 217.354 105.981 217.905C105.981 218.457 105.54 218.898 104.99 218.898Z" fill="#DBF900"/>
<path d="M119.99 218.898C119.449 218.898 119 218.457 119 217.905C119 217.354 119.44 216.913 119.99 216.913C120.54 216.913 120.981 217.354 120.981 217.905C120.981 218.457 120.54 218.898 119.99 218.898Z" fill="#DBF900"/>
<path d="M0.98999 144.466C1.53699 144.466 1.97998 144.022 1.97998 143.474C1.97998 142.926 1.53699 142.481 0.98999 142.481C0.44299 142.481 0 142.926 0 143.474C0 144.022 0.44299 144.466 0.98999 144.466Z" fill="#DBF900"/>
<path d="M0.98999 159.353C1.53699 159.353 1.97998 158.909 1.97998 158.361C1.97998 157.813 1.53699 157.368 0.98999 157.368C0.44299 157.368 0 157.813 0 158.361C0 158.909 0.44299 159.353 0.98999 159.353Z" fill="#DBF900"/>
<path d="M15.845 144.466C16.392 144.466 16.836 144.022 16.836 143.474C16.836 142.926 16.392 142.481 15.845 142.481C15.298 142.481 14.855 142.926 14.855 143.474C14.855 144.022 15.298 144.466 15.845 144.466Z" fill="#DBF900"/>
<path d="M15.845 159.353C16.392 159.353 16.836 158.909 16.836 158.361C16.836 157.813 16.392 157.368 15.845 157.368C15.298 157.368 14.855 157.813 14.855 158.361C14.855 158.909 15.298 159.353 15.845 159.353Z" fill="#DBF900"/>
<path d="M0.98999 174.239C1.53699 174.239 1.97998 173.795 1.97998 173.247C1.97998 172.699 1.53699 172.255 0.98999 172.255C0.44299 172.255 0 172.699 0 173.247C0 173.795 0.44299 174.239 0.98999 174.239Z" fill="#DBF900"/>
<path d="M15.845 174.239C16.392 174.239 16.836 173.795 16.836 173.247C16.836 172.699 16.392 172.255 15.845 172.255C15.298 172.255 14.855 172.699 14.855 173.247C14.855 173.795 15.298 174.239 15.845 174.239Z" fill="#DBF900"/>
<path d="M0.98999 189.126C0.44899 189.126 0 188.684 0 188.133C0 187.582 0.43999 187.141 0.98999 187.141C1.53999 187.141 1.97998 187.582 1.97998 188.133C1.97998 188.684 1.53999 189.126 0.98999 189.126Z" fill="#DBF900"/>
<path d="M15.845 189.126C15.304 189.126 14.855 188.684 14.855 188.133C14.855 187.582 15.295 187.141 15.845 187.141C16.396 187.141 16.836 187.582 16.836 188.133C16.836 188.684 16.396 189.126 15.845 189.126Z" fill="#DBF900"/>
<path d="M30.71 204.012C31.256 204.012 31.7 203.567 31.7 203.019C31.7 202.471 31.256 202.027 30.71 202.027C30.163 202.027 29.719 202.471 29.719 203.019C29.719 203.567 30.163 204.012 30.71 204.012Z" fill="#DBF900"/>
<path d="M45.565 204.012C45.024 204.012 44.574 203.571 44.574 203.019C44.574 202.468 45.014 202.027 45.565 202.027C46.115 202.027 46.555 202.468 46.555 203.019C46.555 203.571 46.115 204.012 45.565 204.012Z" fill="#DBF900"/>
<path d="M60.4199 204.012C60.9669 204.012 61.4099 203.567 61.4099 203.019C61.4099 202.471 60.9669 202.027 60.4199 202.027C59.8729 202.027 59.429 202.471 59.429 203.019C59.429 203.567 59.8729 204.012 60.4199 204.012Z" fill="#DBF900"/>
<path d="M75.275 204.012C75.822 204.012 76.265 203.567 76.265 203.019C76.265 202.471 75.822 202.027 75.275 202.027C74.728 202.027 74.2849 202.471 74.2849 203.019C74.2849 203.567 74.728 204.012 75.275 204.012Z" fill="#DBF900"/>
<path d="M30.71 218.907C31.256 218.907 31.7 218.463 31.7 217.914C31.7 217.366 31.256 216.922 30.71 216.922C30.163 216.922 29.719 217.366 29.719 217.914C29.719 218.463 30.163 218.907 30.71 218.907Z" fill="#DBF900"/>
<path d="M45.565 218.898C45.024 218.898 44.574 218.457 44.574 217.905C44.574 217.354 45.014 216.913 45.565 216.913C46.115 216.913 46.555 217.354 46.555 217.905C46.555 218.457 46.115 218.898 45.565 218.898Z" fill="#DBF900"/>
<path d="M60.4199 218.907C60.9669 218.907 61.4099 218.463 61.4099 217.914C61.4099 217.366 60.9669 216.922 60.4199 216.922C59.8729 216.922 59.429 217.366 59.429 217.914C59.429 218.463 59.8729 218.907 60.4199 218.907Z" fill="#DBF900"/>
<path d="M75.275 218.907C75.822 218.907 76.265 218.463 76.265 217.914C76.265 217.366 75.822 216.922 75.275 216.922C74.728 216.922 74.2849 217.366 74.2849 217.914C74.2849 218.463 74.728 218.907 75.275 218.907Z" fill="#DBF900"/>
<path d="M30.71 233.793C31.256 233.793 31.7 233.349 31.7 232.801C31.7 232.252 31.256 231.808 30.71 231.808C30.163 231.808 29.719 232.252 29.719 232.801C29.719 233.349 30.163 233.793 30.71 233.793Z" fill="#DBF900"/>
<path d="M89.991 233.793C90.537 233.793 90.981 233.349 90.981 232.801C90.981 232.252 90.537 231.808 89.991 231.808C89.444 231.808 89 232.252 89 232.801C89 233.349 89.444 233.793 89.991 233.793Z" fill="#DBF900"/>
<path d="M89.991 248.985C90.537 248.985 90.981 248.541 90.981 247.993C90.981 247.444 90.537 247 89.991 247C89.444 247 89 247.444 89 247.993C89 248.541 89.444 248.985 89.991 248.985Z" fill="#DBF900"/>
<path d="M45.565 233.784C45.024 233.784 44.574 233.343 44.574 232.791C44.574 232.24 45.014 231.799 45.565 231.799C46.115 231.799 46.555 232.24 46.555 232.791C46.555 233.343 46.115 233.784 45.565 233.784Z" fill="#DBF900"/>
<path d="M104.991 233.784C104.45 233.784 104 233.343 104 232.791C104 232.24 104.44 231.799 104.991 231.799C105.541 231.799 105.981 232.24 105.981 232.791C105.981 233.343 105.541 233.784 104.991 233.784Z" fill="#DBF900"/>
<path d="M104.991 248.985C104.45 248.985 104 248.544 104 247.992C104 247.441 104.44 247 104.991 247C105.541 247 105.981 247.441 105.981 247.992C105.981 248.544 105.541 248.985 104.991 248.985Z" fill="#DBF900"/>
<path d="M60.4199 233.793C60.9669 233.793 61.4099 233.349 61.4099 232.801C61.4099 232.252 60.9669 231.808 60.4199 231.808C59.8729 231.808 59.429 232.252 59.429 232.801C59.429 233.349 59.8729 233.793 60.4199 233.793Z" fill="#DBF900"/>
<path d="M119.991 233.793C120.538 233.793 120.981 233.349 120.981 232.801C120.981 232.252 120.538 231.808 119.991 231.808C119.444 231.808 119 232.252 119 232.801C119 233.349 119.444 233.793 119.991 233.793Z" fill="#DBF900"/>
<path d="M119.991 248.985C120.538 248.985 120.981 248.541 120.981 247.993C120.981 247.444 120.538 247 119.991 247C119.444 247 119 247.444 119 247.993C119 248.541 119.444 248.985 119.991 248.985Z" fill="#DBF900"/>
<path d="M75.275 233.793C75.822 233.793 76.265 233.349 76.265 232.801C76.265 232.252 75.822 231.808 75.275 231.808C74.728 231.808 74.2849 232.252 74.2849 232.801C74.2849 233.349 74.728 233.793 75.275 233.793Z" fill="#DBF900"/>
<path d="M75.275 248.985C75.822 248.985 76.265 248.541 76.265 247.993C76.265 247.444 75.822 247 75.275 247C74.728 247 74.2849 247.444 74.2849 247.993C74.2849 248.541 74.728 248.985 75.275 248.985Z" fill="#DBF900"/>
<path d="M75.275 263.707C75.822 263.707 76.265 263.263 76.265 262.715C76.265 262.166 75.822 261.722 75.275 261.722C74.728 261.722 74.2849 262.166 74.2849 262.715C74.2849 263.263 74.728 263.707 75.275 263.707Z" fill="#DBF900"/>
<path d="M75.275 263.707C75.822 263.707 76.265 263.263 76.265 262.715C76.265 262.166 75.822 261.722 75.275 261.722C74.728 261.722 74.2849 262.166 74.2849 262.715C74.2849 263.263 74.728 263.707 75.275 263.707Z" fill="#DBF900"/>
<path d="M75.275 263.707C75.822 263.707 76.265 263.263 76.265 262.715C76.265 262.166 75.822 261.722 75.275 261.722C74.728 261.722 74.2849 262.166 74.2849 262.715C74.2849 263.263 74.728 263.707 75.275 263.707Z" fill="#DBF900"/>
<path d="M89.9901 263.707C90.5371 263.707 90.98 263.263 90.98 262.715C90.98 262.166 90.5371 261.722 89.9901 261.722C89.4431 261.722 89 262.166 89 262.715C89 263.263 89.4431 263.707 89.9901 263.707Z" fill="#DBF900"/>
<path d="M89.9901 278.985C90.5371 278.985 90.98 278.541 90.98 277.993C90.98 277.444 90.5371 277 89.9901 277C89.4431 277 89 277.444 89 277.993C89 278.541 89.4431 278.985 89.9901 278.985Z" fill="#DBF900"/>
<path d="M104.99 263.707C105.537 263.707 105.98 263.263 105.98 262.715C105.98 262.166 105.537 261.722 104.99 261.722C104.443 261.722 104 262.166 104 262.715C104 263.263 104.443 263.707 104.99 263.707Z" fill="#DBF900"/>
<path d="M104.99 278.985C105.537 278.985 105.98 278.541 105.98 277.993C105.98 277.444 105.537 277 104.99 277C104.443 277 104 277.444 104 277.993C104 278.541 104.443 278.985 104.99 278.985Z" fill="#DBF900"/>
<path d="M119.99 263.707C120.537 263.707 120.98 263.263 120.98 262.715C120.98 262.166 120.537 261.722 119.99 261.722C119.443 261.722 119 262.166 119 262.715C119 263.263 119.443 263.707 119.99 263.707Z" fill="#DBF900"/>
<path d="M119.99 278.985C120.537 278.985 120.98 278.541 120.98 277.993C120.98 277.444 120.537 277 119.99 277C119.443 277 119 277.444 119 277.993C119 278.541 119.443 278.985 119.99 278.985Z" fill="#DBF900"/>
<path d="M75.275 278.985C75.822 278.985 76.265 278.541 76.265 277.993C76.265 277.444 75.822 277 75.275 277C74.728 277 74.2849 277.444 74.2849 277.993C74.2849 278.541 74.728 278.985 75.275 278.985Z" fill="#DBF900"/>
<path d="M0.98999 204.012C1.53699 204.012 1.97998 203.567 1.97998 203.019C1.97998 202.471 1.53699 202.027 0.98999 202.027C0.44299 202.027 0 202.471 0 203.019C0 203.567 0.44299 204.012 0.98999 204.012Z" fill="#DBF900"/>
<path d="M15.845 204.012C16.392 204.012 16.836 203.567 16.836 203.019C16.836 202.471 16.392 202.027 15.845 202.027C15.298 202.027 14.855 202.471 14.855 203.019C14.855 203.567 15.298 204.012 15.845 204.012Z" fill="#DBF900"/>
<path d="M0.98999 218.907C1.53699 218.907 1.97998 218.463 1.97998 217.914C1.97998 217.366 1.53699 216.922 0.98999 216.922C0.44299 216.922 0 217.366 0 217.914C0 218.463 0.44299 218.907 0.98999 218.907Z" fill="#DBF900"/>
<path d="M15.845 218.907C16.392 218.907 16.836 218.463 16.836 217.914C16.836 217.366 16.392 216.922 15.845 216.922C15.298 216.922 14.855 217.366 14.855 217.914C14.855 218.463 15.298 218.907 15.845 218.907Z" fill="#DBF900"/>
<path d="M0.98999 233.793C1.53699 233.793 1.97998 233.349 1.97998 232.801C1.97998 232.252 1.53699 231.808 0.98999 231.808C0.44299 231.808 0 232.252 0 232.801C0 233.349 0.44299 233.793 0.98999 233.793Z" fill="#DBF900"/>
<path d="M15.845 233.793C16.392 233.793 16.836 233.349 16.836 232.801C16.836 232.252 16.392 231.808 15.845 231.808C15.298 231.808 14.855 232.252 14.855 232.801C14.855 233.349 15.298 233.793 15.845 233.793Z" fill="#DBF900"/>
<path d="M90.1299 129.572C90.6769 129.572 91.1208 129.128 91.1208 128.58C91.1208 128.031 90.6769 127.587 90.1299 127.587C89.5829 127.587 89.1399 128.031 89.1399 128.58C89.1399 129.128 89.5829 129.572 90.1299 129.572Z" fill="#DBF900"/>
<path d="M0.98999 84.9135C1.53699 84.9135 1.97998 84.4692 1.97998 83.9211C1.97998 83.373 1.53699 82.9287 0.98999 82.9287C0.44299 82.9287 0 83.373 0 83.9211C0 84.4692 0.44299 84.9135 0.98999 84.9135Z" fill="#DBF900"/>
<path d="M0.98999 99.7996C1.53699 99.7996 1.97998 99.3549 1.97998 98.8068C1.97998 98.2587 1.53699 97.8145 0.98999 97.8145C0.44299 97.8145 0 98.2587 0 98.8068C0 99.3549 0.44299 99.7996 0.98999 99.7996Z" fill="#DBF900"/>
<path d="M15.845 84.9135C16.392 84.9135 16.836 84.4692 16.836 83.9211C16.836 83.373 16.392 82.9287 15.845 82.9287C15.298 82.9287 14.855 83.373 14.855 83.9211C14.855 84.4692 15.298 84.9135 15.845 84.9135Z" fill="#DBF900"/>
<path d="M15.845 99.7996C16.392 99.7996 16.836 99.3549 16.836 98.8068C16.836 98.2587 16.392 97.8145 15.845 97.8145C15.298 97.8145 14.855 98.2587 14.855 98.8068C14.855 99.3549 15.298 99.7996 15.845 99.7996Z" fill="#DBF900"/>
<path d="M0.98999 114.686C0.44899 114.686 0 114.245 0 113.693C0 113.142 0.43999 112.701 0.98999 112.701C1.53999 112.701 1.97998 113.142 1.97998 113.693C1.97998 114.245 1.53999 114.686 0.98999 114.686Z" fill="#DBF900"/>
<path d="M0.98999 129.572C1.53699 129.572 1.97998 129.128 1.97998 128.58C1.97998 128.031 1.53699 127.587 0.98999 127.587C0.44299 127.587 0 128.031 0 128.58C0 129.128 0.44299 129.572 0.98999 129.572Z" fill="#DBF900"/>
<path d="M1.97998 39.2531C1.97998 39.7953 1.53999 40.2455 0.98999 40.2455C0.43999 40.2455 0 39.8045 0 39.2531C0 38.7018 0.43999 38.2607 0.98999 38.2607C1.53999 38.2607 1.97998 38.7018 1.97998 39.2531Z" fill="#DBF900"/>
<path d="M0.98999 55.1318C0.44899 55.1318 0 54.6908 0 54.1394C0 53.5881 0.43999 53.147 0.98999 53.147C1.53999 53.147 1.97998 53.5881 1.97998 54.1394C1.97998 54.6908 1.53999 55.1318 0.98999 55.1318Z" fill="#DBF900"/>
<path d="M0.98999 70.0273C1.53699 70.0273 1.97998 69.583 1.97998 69.0349C1.97998 68.4868 1.53699 68.0425 0.98999 68.0425C0.44299 68.0425 0 68.4868 0 69.0349C0 69.583 0.44299 70.0273 0.98999 70.0273Z" fill="#DBF900"/>
<path d="M15.845 70.0273C16.392 70.0273 16.836 69.583 16.836 69.0349C16.836 68.4868 16.392 68.0425 15.845 68.0425C15.298 68.0425 14.855 68.4868 14.855 69.0349C14.855 69.583 15.298 70.0273 15.845 70.0273Z" fill="#DBF900"/>
<path d="M15.845 129.572C16.392 129.572 16.836 129.128 16.836 128.58C16.836 128.031 16.392 127.587 15.845 127.587C15.298 127.587 14.855 128.031 14.855 128.58C14.855 129.128 15.298 129.572 15.845 129.572Z" fill="#DBF900"/>
<path d="M30.71 248.985C30.169 248.985 29.719 248.544 29.719 247.993C29.719 247.441 30.159 247 30.71 247C31.26 247 31.7 247.441 31.7 247.993C31.7 248.544 31.26 248.985 30.71 248.985Z" fill="#DBF900"/>
<path d="M45.565 248.985C45.024 248.985 44.574 248.544 44.574 247.993C44.574 247.441 45.014 247 45.565 247C46.115 247 46.555 247.441 46.555 247.993C46.555 248.544 46.115 248.985 45.565 248.985Z" fill="#DBF900"/>
<path d="M60.4199 248.985C59.8789 248.985 59.429 248.544 59.429 247.993C59.429 247.441 59.8699 247 60.4199 247C60.9699 247 61.4099 247.441 61.4099 247.993C61.4099 248.544 60.9699 248.985 60.4199 248.985Z" fill="#DBF900"/>
<path d="M60.4199 263.707C59.8789 263.707 59.429 263.266 59.429 262.715C59.429 262.163 59.8699 261.722 60.4199 261.722C60.9699 261.722 61.4099 262.163 61.4099 262.715C61.4099 263.266 60.9699 263.707 60.4199 263.707Z" fill="#DBF900"/>
<path d="M60.4199 278.985C59.8789 278.985 59.429 278.544 59.429 277.993C59.429 277.441 59.8699 277 60.4199 277C60.9699 277 61.4099 277.441 61.4099 277.993C61.4099 278.544 60.9699 278.985 60.4199 278.985Z" fill="#DBF900"/>
<path d="M30.71 263.565C31.256 263.565 31.7 263.121 31.7 262.573C31.7 262.025 31.256 261.58 30.71 261.58C30.163 261.58 29.719 262.025 29.719 262.573C29.719 263.121 30.163 263.565 30.71 263.565Z" fill="#DBF900"/>
<path d="M30.71 278.985C31.256 278.985 31.7 278.541 31.7 277.993C31.7 277.445 31.256 277 30.71 277C30.163 277 29.719 277.445 29.719 277.993C29.719 278.541 30.163 278.985 30.71 278.985Z" fill="#DBF900"/>
<path d="M45.565 263.707C45.024 263.707 44.574 263.266 44.574 262.715C44.574 262.163 45.014 261.722 45.565 261.722C46.115 261.722 46.555 262.163 46.555 262.715C46.555 263.266 46.115 263.707 45.565 263.707Z" fill="#DBF900"/>
<path d="M45.565 278.985C45.024 278.985 44.574 278.544 44.574 277.993C44.574 277.441 45.014 277 45.565 277C46.115 277 46.555 277.441 46.555 277.993C46.555 278.544 46.115 278.985 45.565 278.985Z" fill="#DBF900"/>
<path d="M0.98999 248.985C0.44899 248.985 0 248.544 0 247.993C0 247.441 0.43999 247 0.98999 247C1.53999 247 1.97998 247.441 1.97998 247.993C1.97998 248.544 1.53999 248.985 0.98999 248.985Z" fill="#DBF900"/>
<path d="M15.845 248.985C15.304 248.985 14.855 248.544 14.855 247.993C14.855 247.441 15.295 247 15.845 247C16.396 247 16.836 247.441 16.836 247.993C16.836 248.544 16.396 248.985 15.845 248.985Z" fill="#DBF900"/>
<path d="M0.98999 263.565C1.53699 263.565 1.97998 263.121 1.97998 262.573C1.97998 262.025 1.53699 261.58 0.98999 261.58C0.44299 261.58 0 262.025 0 262.573C0 263.121 0.44299 263.565 0.98999 263.565Z" fill="#DBF900"/>
<path d="M15.845 263.565C16.392 263.565 16.836 263.121 16.836 262.573C16.836 262.025 16.392 261.58 15.845 261.58C15.298 261.58 14.855 262.025 14.855 262.573C14.855 263.121 15.298 263.565 15.845 263.565Z" fill="#DBF900"/>
<path d="M0.98999 278.984C1.53699 278.984 1.97998 278.54 1.97998 277.992C1.97998 277.444 1.53699 277 0.98999 277C0.44299 277 0 277.444 0 277.992C0 278.54 0.44299 278.984 0.98999 278.984Z" fill="#DBF900"/>
<path d="M15.845 278.984C16.392 278.984 16.836 278.54 16.836 277.992C16.836 277.444 16.392 277 15.845 277C15.298 277 14.855 277.444 14.855 277.992C14.855 278.54 15.298 278.984 15.845 278.984Z" fill="#DBF900"/>
</svg>
