<svg width="184" height="279" viewBox="0 0 184 279" fill="none" xmlns="http://www.w3.org/2000/svg">
<path d="M151.611 123.353L114.968 79.4579L158.782 42.7388L130.163 8.45489L86.3491 45.1739L49.707 1.27832L15.5031 29.957L52.1271 73.8526L8.35107 110.571L36.933 144.865L80.756 108.146L117.417 152.05L151.611 123.353Z" stroke="white" stroke-width="0.93" stroke-linecap="round" stroke-linejoin="round"/>
<path d="M117.417 152.05L141.515 154.201L175.719 125.503L139.076 81.6078L182.88 44.8888L154.261 10.6048L130.163 8.45459" stroke="white" stroke-width="0.93" stroke-linecap="round" stroke-linejoin="round"/>
<path d="M49.707 1.27832L73.8051 3.42853L99.4711 34.1747" stroke="white" stroke-width="0.93" stroke-linecap="round" stroke-linejoin="round"/>
<path d="M36.9331 144.865L61.0411 147.015L91.7321 121.295" stroke="white" stroke-width="0.93" stroke-linecap="round" stroke-linejoin="round"/>
<path d="M158.782 42.7388L182.88 44.8891" stroke="white" stroke-width="0.93" stroke-linecap="round" stroke-linejoin="round"/>
<path d="M151.611 123.353L175.719 125.503" stroke="white" stroke-width="0.93" stroke-linecap="round" stroke-linejoin="round"/>
<path d="M30.762 159.631C31.308 159.631 31.752 159.187 31.752 158.639C31.752 158.091 31.308 157.646 30.762 157.646C30.215 157.646 29.771 158.091 29.771 158.639C29.771 159.187 30.215 159.631 30.762 159.631Z" fill="#DBF900"/>
<path d="M45.617 159.622C45.076 159.622 44.626 159.181 44.626 158.63C44.626 158.078 45.066 157.637 45.617 157.637C46.167 157.637 46.607 158.078 46.607 158.63C46.607 159.181 46.167 159.622 45.617 159.622Z" fill="#DBF900"/>
<path d="M60.4719 159.631C61.0189 159.631 61.4619 159.187 61.4619 158.639C61.4619 158.091 61.0189 157.646 60.4719 157.646C59.9249 157.646 59.481 158.091 59.481 158.639C59.481 159.187 59.9249 159.631 60.4719 159.631Z" fill="#DBF900"/>
<path d="M75.327 144.745C75.874 144.745 76.317 144.301 76.317 143.753C76.317 143.205 75.874 142.76 75.327 142.76C74.78 142.76 74.3369 143.205 74.3369 143.753C74.3369 144.301 74.78 144.745 75.327 144.745Z" fill="#DBF900"/>
<path d="M75.327 159.631C75.874 159.631 76.317 159.187 76.317 158.639C76.317 158.091 75.874 157.646 75.327 157.646C74.78 157.646 74.3369 158.091 74.3369 158.639C74.3369 159.187 74.78 159.631 75.327 159.631Z" fill="#DBF900"/>
<path d="M90.1819 144.745C90.7289 144.745 91.1729 144.301 91.1729 143.753C91.1729 143.205 90.7289 142.76 90.1819 142.76C89.6349 142.76 89.1919 143.205 89.1919 143.753C89.1919 144.301 89.6349 144.745 90.1819 144.745Z" fill="#DBF900"/>
<path d="M90.1819 159.631C90.7289 159.631 91.1729 159.187 91.1729 158.639C91.1729 158.091 90.7289 157.646 90.1819 157.646C89.6349 157.646 89.1919 158.091 89.1919 158.639C89.1919 159.187 89.6349 159.631 90.1819 159.631Z" fill="#DBF900"/>
<path d="M106.028 143.753C106.028 144.295 105.587 144.745 105.037 144.745C104.487 144.745 104.047 144.304 104.047 143.753C104.047 143.201 104.487 142.76 105.037 142.76C105.587 142.76 106.028 143.201 106.028 143.753Z" fill="#DBF900"/>
<path d="M105.037 159.622C104.496 159.622 104.047 159.181 104.047 158.63C104.047 158.078 104.487 157.637 105.037 157.637C105.587 157.637 106.028 158.078 106.028 158.63C106.028 159.181 105.587 159.622 105.037 159.622Z" fill="#DBF900"/>
<path d="M119.901 159.631C120.448 159.631 120.892 159.187 120.892 158.639C120.892 158.091 120.448 157.646 119.901 157.646C119.355 157.646 118.911 158.091 118.911 158.639C118.911 159.187 119.355 159.631 119.901 159.631Z" fill="#DBF900"/>
<path d="M30.762 174.517C31.308 174.517 31.752 174.073 31.752 173.525C31.752 172.977 31.308 172.533 30.762 172.533C30.215 172.533 29.771 172.977 29.771 173.525C29.771 174.073 30.215 174.517 30.762 174.517Z" fill="#DBF900"/>
<path d="M45.617 174.517C45.076 174.517 44.626 174.076 44.626 173.525C44.626 172.974 45.066 172.533 45.617 172.533C46.167 172.533 46.607 172.974 46.607 173.525C46.607 174.076 46.167 174.517 45.617 174.517Z" fill="#DBF900"/>
<path d="M60.4719 174.517C61.0189 174.517 61.4619 174.073 61.4619 173.525C61.4619 172.977 61.0189 172.533 60.4719 172.533C59.9249 172.533 59.481 172.977 59.481 173.525C59.481 174.073 59.9249 174.517 60.4719 174.517Z" fill="#DBF900"/>
<path d="M75.327 174.517C75.874 174.517 76.317 174.073 76.317 173.525C76.317 172.977 75.874 172.533 75.327 172.533C74.78 172.533 74.3369 172.977 74.3369 173.525C74.3369 174.073 74.78 174.517 75.327 174.517Z" fill="#DBF900"/>
<path d="M90.1819 174.517C90.7289 174.517 91.1729 174.073 91.1729 173.525C91.1729 172.977 90.7289 172.533 90.1819 172.533C89.6349 172.533 89.1919 172.977 89.1919 173.525C89.1919 174.073 89.6349 174.517 90.1819 174.517Z" fill="#DBF900"/>
<path d="M105.037 174.517C104.496 174.517 104.047 174.076 104.047 173.525C104.047 172.974 104.487 172.533 105.037 172.533C105.587 172.533 106.028 172.974 106.028 173.525C106.028 174.076 105.587 174.517 105.037 174.517Z" fill="#DBF900"/>
<path d="M119.901 174.517C120.448 174.517 120.892 174.073 120.892 173.525C120.892 172.977 120.448 172.533 119.901 172.533C119.355 172.533 118.911 172.977 118.911 173.525C118.911 174.073 119.355 174.517 119.901 174.517Z" fill="#DBF900"/>
<path d="M30.762 189.404C30.221 189.404 29.771 188.962 29.771 188.411C29.771 187.86 30.211 187.419 30.762 187.419C31.312 187.419 31.752 187.86 31.752 188.411C31.752 188.962 31.312 189.404 30.762 189.404Z" fill="#DBF900"/>
<path d="M45.617 189.404C45.076 189.404 44.626 188.962 44.626 188.411C44.626 187.86 45.066 187.419 45.617 187.419C46.167 187.419 46.607 187.86 46.607 188.411C46.607 188.962 46.167 189.404 45.617 189.404Z" fill="#DBF900"/>
<path d="M60.4719 189.404C59.9309 189.404 59.481 188.962 59.481 188.411C59.481 187.86 59.9219 187.419 60.4719 187.419C61.0219 187.419 61.4619 187.86 61.4619 188.411C61.4619 188.962 61.0219 189.404 60.4719 189.404Z" fill="#DBF900"/>
<path d="M75.327 189.404C74.786 189.404 74.3369 188.962 74.3369 188.411C74.3369 187.86 74.777 187.419 75.327 187.419C75.877 187.419 76.317 187.86 76.317 188.411C76.317 188.962 75.877 189.404 75.327 189.404Z" fill="#DBF900"/>
<path d="M90.1819 189.404C89.6409 189.404 89.1919 188.962 89.1919 188.411C89.1919 187.86 89.6319 187.419 90.1819 187.419C90.7319 187.419 91.1729 187.86 91.1729 188.411C91.1729 188.962 90.7319 189.404 90.1819 189.404Z" fill="#DBF900"/>
<path d="M105.037 189.404C104.496 189.404 104.047 188.962 104.047 188.411C104.047 187.86 104.487 187.419 105.037 187.419C105.587 187.419 106.028 187.86 106.028 188.411C106.028 188.962 105.587 189.404 105.037 189.404Z" fill="#DBF900"/>
<path d="M119.901 189.404C119.36 189.404 118.911 188.962 118.911 188.411C118.911 187.86 119.351 187.419 119.901 187.419C120.452 187.419 120.892 187.86 120.892 188.411C120.892 188.962 120.452 189.404 119.901 189.404Z" fill="#DBF900"/>
<path d="M90.1819 204.29C90.7289 204.29 91.1729 203.845 91.1729 203.297C91.1729 202.749 90.7289 202.305 90.1819 202.305C89.6349 202.305 89.1919 202.749 89.1919 203.297C89.1919 203.845 89.6349 204.29 90.1819 204.29Z" fill="#DBF900"/>
<path d="M105.037 204.29C104.496 204.29 104.047 203.849 104.047 203.297C104.047 202.746 104.487 202.305 105.037 202.305C105.587 202.305 106.028 202.746 106.028 203.297C106.028 203.849 105.587 204.29 105.037 204.29Z" fill="#DBF900"/>
<path d="M119.901 204.29C120.448 204.29 120.892 203.845 120.892 203.297C120.892 202.749 120.448 202.305 119.901 202.305C119.355 202.305 118.911 202.749 118.911 203.297C118.911 203.845 119.355 204.29 119.901 204.29Z" fill="#DBF900"/>
<path d="M90.1819 219.185C90.7289 219.185 91.1729 218.741 91.1729 218.192C91.1729 217.644 90.7289 217.2 90.1819 217.2C89.6349 217.2 89.1919 217.644 89.1919 218.192C89.1919 218.741 89.6349 219.185 90.1819 219.185Z" fill="#DBF900"/>
<path d="M105.037 219.176C104.496 219.176 104.047 218.735 104.047 218.183C104.047 217.632 104.487 217.191 105.037 217.191C105.587 217.191 106.028 217.632 106.028 218.183C106.028 218.735 105.587 219.176 105.037 219.176Z" fill="#DBF900"/>
<path d="M1.04199 144.745C1.58899 144.745 2.03198 144.301 2.03198 143.753C2.03198 143.205 1.58899 142.76 1.04199 142.76C0.494992 142.76 0.052002 143.205 0.052002 143.753C0.052002 144.301 0.494992 144.745 1.04199 144.745Z" fill="#DBF900"/>
<path d="M1.04199 159.631C1.58899 159.631 2.03198 159.187 2.03198 158.639C2.03198 158.091 1.58899 157.646 1.04199 157.646C0.494992 157.646 0.052002 158.091 0.052002 158.639C0.052002 159.187 0.494992 159.631 1.04199 159.631Z" fill="#DBF900"/>
<path d="M15.897 144.745C16.444 144.745 16.888 144.301 16.888 143.753C16.888 143.205 16.444 142.76 15.897 142.76C15.35 142.76 14.907 143.205 14.907 143.753C14.907 144.301 15.35 144.745 15.897 144.745Z" fill="#DBF900"/>
<path d="M15.897 159.631C16.444 159.631 16.888 159.187 16.888 158.639C16.888 158.091 16.444 157.646 15.897 157.646C15.35 157.646 14.907 158.091 14.907 158.639C14.907 159.187 15.35 159.631 15.897 159.631Z" fill="#DBF900"/>
<path d="M1.04199 174.517C1.58899 174.517 2.03198 174.073 2.03198 173.525C2.03198 172.977 1.58899 172.533 1.04199 172.533C0.494992 172.533 0.052002 172.977 0.052002 173.525C0.052002 174.073 0.494992 174.517 1.04199 174.517Z" fill="#DBF900"/>
<path d="M15.897 174.517C16.444 174.517 16.888 174.073 16.888 173.525C16.888 172.977 16.444 172.533 15.897 172.533C15.35 172.533 14.907 172.977 14.907 173.525C14.907 174.073 15.35 174.517 15.897 174.517Z" fill="#DBF900"/>
<path d="M1.04199 189.404C0.500992 189.404 0.052002 188.962 0.052002 188.411C0.052002 187.86 0.491992 187.419 1.04199 187.419C1.59199 187.419 2.03198 187.86 2.03198 188.411C2.03198 188.962 1.59199 189.404 1.04199 189.404Z" fill="#DBF900"/>
<path d="M15.897 189.404C15.356 189.404 14.907 188.962 14.907 188.411C14.907 187.86 15.347 187.419 15.897 187.419C16.448 187.419 16.888 187.86 16.888 188.411C16.888 188.962 16.448 189.404 15.897 189.404Z" fill="#DBF900"/>
<path d="M30.762 204.29C31.308 204.29 31.752 203.845 31.752 203.297C31.752 202.749 31.308 202.305 30.762 202.305C30.215 202.305 29.771 202.749 29.771 203.297C29.771 203.845 30.215 204.29 30.762 204.29Z" fill="#DBF900"/>
<path d="M45.617 204.29C45.076 204.29 44.626 203.849 44.626 203.297C44.626 202.746 45.066 202.305 45.617 202.305C46.167 202.305 46.607 202.746 46.607 203.297C46.607 203.849 46.167 204.29 45.617 204.29Z" fill="#DBF900"/>
<path d="M60.4719 204.29C61.0189 204.29 61.4619 203.845 61.4619 203.297C61.4619 202.749 61.0189 202.305 60.4719 202.305C59.9249 202.305 59.481 202.749 59.481 203.297C59.481 203.845 59.9249 204.29 60.4719 204.29Z" fill="#DBF900"/>
<path d="M75.327 204.29C75.874 204.29 76.317 203.845 76.317 203.297C76.317 202.749 75.874 202.305 75.327 202.305C74.78 202.305 74.3369 202.749 74.3369 203.297C74.3369 203.845 74.78 204.29 75.327 204.29Z" fill="#DBF900"/>
<path d="M30.762 219.185C31.308 219.185 31.752 218.741 31.752 218.192C31.752 217.644 31.308 217.2 30.762 217.2C30.215 217.2 29.771 217.644 29.771 218.192C29.771 218.741 30.215 219.185 30.762 219.185Z" fill="#DBF900"/>
<path d="M45.617 219.176C45.076 219.176 44.626 218.735 44.626 218.183C44.626 217.632 45.066 217.191 45.617 217.191C46.167 217.191 46.607 217.632 46.607 218.183C46.607 218.735 46.167 219.176 45.617 219.176Z" fill="#DBF900"/>
<path d="M60.4719 219.185C61.0189 219.185 61.4619 218.741 61.4619 218.192C61.4619 217.644 61.0189 217.2 60.4719 217.2C59.9249 217.2 59.481 217.644 59.481 218.192C59.481 218.741 59.9249 219.185 60.4719 219.185Z" fill="#DBF900"/>
<path d="M75.327 219.185C75.874 219.185 76.317 218.741 76.317 218.192C76.317 217.644 75.874 217.2 75.327 217.2C74.78 217.2 74.3369 217.644 74.3369 218.192C74.3369 218.741 74.78 219.185 75.327 219.185Z" fill="#DBF900"/>
<path d="M30.762 234.071C31.308 234.071 31.752 233.627 31.752 233.079C31.752 232.53 31.308 232.086 30.762 232.086C30.215 232.086 29.771 232.53 29.771 233.079C29.771 233.627 30.215 234.071 30.762 234.071Z" fill="#DBF900"/>
<path d="M45.617 234.062C45.076 234.062 44.626 233.621 44.626 233.069C44.626 232.518 45.066 232.077 45.617 232.077C46.167 232.077 46.607 232.518 46.607 233.069C46.607 233.621 46.167 234.062 45.617 234.062Z" fill="#DBF900"/>
<path d="M60.4719 234.071C61.0189 234.071 61.4619 233.627 61.4619 233.079C61.4619 232.53 61.0189 232.086 60.4719 232.086C59.9249 232.086 59.481 232.53 59.481 233.079C59.481 233.627 59.9249 234.071 60.4719 234.071Z" fill="#DBF900"/>
<path d="M75.327 234.071C75.874 234.071 76.317 233.627 76.317 233.079C76.317 232.53 75.874 232.086 75.327 232.086C74.78 232.086 74.3369 232.53 74.3369 233.079C74.3369 233.627 74.78 234.071 75.327 234.071Z" fill="#DBF900"/>
<path d="M75.327 247.985C75.874 247.985 76.317 247.541 76.317 246.993C76.317 246.444 75.874 246 75.327 246C74.78 246 74.3369 246.444 74.3369 246.993C74.3369 247.541 74.78 247.985 75.327 247.985Z" fill="#DBF900"/>
<path d="M75.327 263.985C75.874 263.985 76.317 263.541 76.317 262.993C76.317 262.444 75.874 262 75.327 262C74.78 262 74.3369 262.444 74.3369 262.993C74.3369 263.541 74.78 263.985 75.327 263.985Z" fill="#DBF900"/>
<path d="M75.327 263.985C75.874 263.985 76.317 263.541 76.317 262.993C76.317 262.444 75.874 262 75.327 262C74.78 262 74.3369 262.444 74.3369 262.993C74.3369 263.541 74.78 263.985 75.327 263.985Z" fill="#DBF900"/>
<path d="M75.327 277.985C75.874 277.985 76.317 277.541 76.317 276.993C76.317 276.444 75.874 276 75.327 276C74.78 276 74.3369 276.444 74.3369 276.993C74.3369 277.541 74.78 277.985 75.327 277.985Z" fill="#DBF900"/>
<path d="M1.04199 204.29C1.58899 204.29 2.03198 203.845 2.03198 203.297C2.03198 202.749 1.58899 202.305 1.04199 202.305C0.494992 202.305 0.052002 202.749 0.052002 203.297C0.052002 203.845 0.494992 204.29 1.04199 204.29Z" fill="#DBF900"/>
<path d="M15.897 204.29C16.444 204.29 16.888 203.845 16.888 203.297C16.888 202.749 16.444 202.305 15.897 202.305C15.35 202.305 14.907 202.749 14.907 203.297C14.907 203.845 15.35 204.29 15.897 204.29Z" fill="#DBF900"/>
<path d="M1.04199 219.185C1.58899 219.185 2.03198 218.741 2.03198 218.192C2.03198 217.644 1.58899 217.2 1.04199 217.2C0.494992 217.2 0.052002 217.644 0.052002 218.192C0.052002 218.741 0.494992 219.185 1.04199 219.185Z" fill="#DBF900"/>
<path d="M15.897 219.185C16.444 219.185 16.888 218.741 16.888 218.192C16.888 217.644 16.444 217.2 15.897 217.2C15.35 217.2 14.907 217.644 14.907 218.192C14.907 218.741 15.35 219.185 15.897 219.185Z" fill="#DBF900"/>
<path d="M1.04199 234.071C1.58899 234.071 2.03198 233.627 2.03198 233.079C2.03198 232.53 1.58899 232.086 1.04199 232.086C0.494992 232.086 0.052002 232.53 0.052002 233.079C0.052002 233.627 0.494992 234.071 1.04199 234.071Z" fill="#DBF900"/>
<path d="M15.897 234.071C16.444 234.071 16.888 233.627 16.888 233.079C16.888 232.53 16.444 232.086 15.897 232.086C15.35 232.086 14.907 232.53 14.907 233.079C14.907 233.627 15.35 234.071 15.897 234.071Z" fill="#DBF900"/>
<path d="M90.1819 129.85C90.7289 129.85 91.1729 129.406 91.1729 128.858C91.1729 128.309 90.7289 127.865 90.1819 127.865C89.6349 127.865 89.1919 128.309 89.1919 128.858C89.1919 129.406 89.6349 129.85 90.1819 129.85Z" fill="#DBF900"/>
<path d="M1.04199 85.1918C1.58899 85.1918 2.03198 84.7475 2.03198 84.1994C2.03198 83.6513 1.58899 83.207 1.04199 83.207C0.494992 83.207 0.052002 83.6513 0.052002 84.1994C0.052002 84.7475 0.494992 85.1918 1.04199 85.1918Z" fill="#DBF900"/>
<path d="M1.04199 100.078C1.58899 100.078 2.03198 99.6333 2.03198 99.0852C2.03198 98.5371 1.58899 98.0928 1.04199 98.0928C0.494992 98.0928 0.052002 98.5371 0.052002 99.0852C0.052002 99.6333 0.494992 100.078 1.04199 100.078Z" fill="#DBF900"/>
<path d="M15.897 85.1918C16.444 85.1918 16.888 84.7475 16.888 84.1994C16.888 83.6513 16.444 83.207 15.897 83.207C15.35 83.207 14.907 83.6513 14.907 84.1994C14.907 84.7475 15.35 85.1918 15.897 85.1918Z" fill="#DBF900"/>
<path d="M15.897 100.078C16.444 100.078 16.888 99.6333 16.888 99.0852C16.888 98.5371 16.444 98.0928 15.897 98.0928C15.35 98.0928 14.907 98.5371 14.907 99.0852C14.907 99.6333 15.35 100.078 15.897 100.078Z" fill="#DBF900"/>
<path d="M1.04199 114.964C0.500992 114.964 0.052002 114.523 0.052002 113.971C0.052002 113.42 0.491992 112.979 1.04199 112.979C1.59199 112.979 2.03198 113.42 2.03198 113.971C2.03198 114.523 1.59199 114.964 1.04199 114.964Z" fill="#DBF900"/>
<path d="M1.04199 129.85C1.58899 129.85 2.03198 129.406 2.03198 128.858C2.03198 128.309 1.58899 127.865 1.04199 127.865C0.494992 127.865 0.052002 128.309 0.052002 128.858C0.052002 129.406 0.494992 129.85 1.04199 129.85Z" fill="#DBF900"/>
<path d="M2.03198 39.5315C2.03198 40.0737 1.59199 40.5239 1.04199 40.5239C0.491992 40.5239 0.052002 40.0829 0.052002 39.5315C0.052002 38.9802 0.491992 38.5391 1.04199 38.5391C1.59199 38.5391 2.03198 38.9802 2.03198 39.5315Z" fill="#DBF900"/>
<path d="M1.04199 55.4101C0.500992 55.4101 0.052002 54.9691 0.052002 54.4177C0.052002 53.8664 0.491992 53.4253 1.04199 53.4253C1.59199 53.4253 2.03198 53.8664 2.03198 54.4177C2.03198 54.9691 1.59199 55.4101 1.04199 55.4101Z" fill="#DBF900"/>
<path d="M1.04199 70.3056C1.58899 70.3056 2.03198 69.8613 2.03198 69.3132C2.03198 68.7651 1.58899 68.3208 1.04199 68.3208C0.494992 68.3208 0.052002 68.7651 0.052002 69.3132C0.052002 69.8613 0.494992 70.3056 1.04199 70.3056Z" fill="#DBF900"/>
<path d="M15.897 70.3056C16.444 70.3056 16.888 69.8613 16.888 69.3132C16.888 68.7651 16.444 68.3208 15.897 68.3208C15.35 68.3208 14.907 68.7651 14.907 69.3132C14.907 69.8613 15.35 70.3056 15.897 70.3056Z" fill="#DBF900"/>
<path d="M15.897 129.85C16.444 129.85 16.888 129.406 16.888 128.858C16.888 128.309 16.444 127.865 15.897 127.865C15.35 127.865 14.907 128.309 14.907 128.858C14.907 129.406 15.35 129.85 15.897 129.85Z" fill="#DBF900"/>
<path d="M30.762 248.957C30.221 248.957 29.771 248.516 29.771 247.965C29.771 247.413 30.211 246.972 30.762 246.972C31.312 246.972 31.752 247.413 31.752 247.965C31.752 248.516 31.312 248.957 30.762 248.957Z" fill="#DBF900"/>
<path d="M45.617 248.957C45.076 248.957 44.626 248.516 44.626 247.965C44.626 247.413 45.066 246.972 45.617 246.972C46.167 246.972 46.607 247.413 46.607 247.965C46.607 248.516 46.167 248.957 45.617 248.957Z" fill="#DBF900"/>
<path d="M60.4719 248.957C59.9309 248.957 59.481 248.516 59.481 247.965C59.481 247.413 59.9219 246.972 60.4719 246.972C61.0219 246.972 61.4619 247.413 61.4619 247.965C61.4619 248.516 61.0219 248.957 60.4719 248.957Z" fill="#DBF900"/>
<path d="M60.4719 263.985C59.9309 263.985 59.481 263.544 59.481 262.993C59.481 262.441 59.9219 262 60.4719 262C61.0219 262 61.4619 262.441 61.4619 262.993C61.4619 263.544 61.0219 263.985 60.4719 263.985Z" fill="#DBF900"/>
<path d="M60.4719 278.985C59.9309 278.985 59.481 278.544 59.481 277.993C59.481 277.441 59.9219 277 60.4719 277C61.0219 277 61.4619 277.441 61.4619 277.993C61.4619 278.544 61.0219 278.985 60.4719 278.985Z" fill="#DBF900"/>
<path d="M30.762 263.843C31.308 263.843 31.752 263.399 31.752 262.851C31.752 262.303 31.308 261.858 30.762 261.858C30.215 261.858 29.771 262.303 29.771 262.851C29.771 263.399 30.215 263.843 30.762 263.843Z" fill="#DBF900"/>
<path d="M45.617 263.985C45.076 263.985 44.626 263.544 44.626 262.993C44.626 262.441 45.066 262 45.617 262C46.167 262 46.607 262.441 46.607 262.993C46.607 263.544 46.167 263.985 45.617 263.985Z" fill="#DBF900"/>
<path d="M45.617 278.985C45.076 278.985 44.626 278.544 44.626 277.993C44.626 277.441 45.066 277 45.617 277C46.167 277 46.607 277.441 46.607 277.993C46.607 278.544 46.167 278.985 45.617 278.985Z" fill="#DBF900"/>
<path d="M1.04199 248.957C0.500992 248.957 0.052002 248.516 0.052002 247.965C0.052002 247.413 0.491992 246.972 1.04199 246.972C1.59199 246.972 2.03198 247.413 2.03198 247.965C2.03198 248.516 1.59199 248.957 1.04199 248.957Z" fill="#DBF900"/>
<path d="M15.897 248.957C15.356 248.957 14.907 248.516 14.907 247.965C14.907 247.413 15.347 246.972 15.897 246.972C16.448 246.972 16.888 247.413 16.888 247.965C16.888 248.516 16.448 248.957 15.897 248.957Z" fill="#DBF900"/>
<path d="M1.04199 263.843C1.58899 263.843 2.03198 263.399 2.03198 262.851C2.03198 262.303 1.58899 261.858 1.04199 261.858C0.494992 261.858 0.052002 262.303 0.052002 262.851C0.052002 263.399 0.494992 263.843 1.04199 263.843Z" fill="#DBF900"/>
<path d="M15.897 263.843C16.444 263.843 16.888 263.399 16.888 262.851C16.888 262.303 16.444 261.858 15.897 261.858C15.35 261.858 14.907 262.303 14.907 262.851C14.907 263.399 15.35 263.843 15.897 263.843Z" fill="#DBF900"/>
<path d="M1.04199 278.729C1.58899 278.729 2.03198 278.285 2.03198 277.737C2.03198 277.189 1.58899 276.745 1.04199 276.745C0.494992 276.745 0.052002 277.189 0.052002 277.737C0.052002 278.285 0.494992 278.729 1.04199 278.729Z" fill="#DBF900"/>
<path d="M15.897 278.729C16.444 278.729 16.888 278.285 16.888 277.737C16.888 277.189 16.444 276.745 15.897 276.745C15.35 276.745 14.907 277.189 14.907 277.737C14.907 278.285 15.35 278.729 15.897 278.729Z" fill="#DBF900"/>
</svg>
