<svg width="217" height="184" viewBox="0 0 217 184" fill="none" xmlns="http://www.w3.org/2000/svg">
<path d="M54.6821 183.322C84.8201 183.322 109.252 158.839 109.252 128.638C109.252 98.4375 84.8201 73.9548 54.6821 73.9548C24.544 73.9548 0.112305 98.4375 0.112305 128.638C0.112305 158.839 24.544 183.322 54.6821 183.322Z" fill="#CCCCCC"/>
<path d="M98.6465 162.15V162.186L99.1966 161.47L99.2333 161.415C100.664 159.549 101.975 157.564 103.149 155.515C104.983 152.299 106.468 148.899 107.56 145.417C108.449 142.596 109.082 139.683 109.458 136.761L109.476 136.604C109.522 136.228 109.568 135.842 109.614 135.465L109.128 135.41L108.99 136.549C108.697 138.791 108.256 141.024 107.67 143.211C107.477 141.833 106.899 140.271 105.936 138.543C107.505 133.627 108.284 128.619 108.275 123.648C108.953 125.035 109.329 126.285 109.384 127.36L109.88 127.351C109.88 127.351 109.88 127.351 109.88 127.342L109.861 126.892C109.788 125.532 109.256 123.951 108.266 122.187C108.11 117.491 107.22 112.934 105.661 108.615L105.79 108.56C105.753 108.477 105.726 108.403 105.689 108.321C105.661 108.256 105.634 108.183 105.597 108.119C105.57 108.045 105.533 107.962 105.496 107.889L105.24 107.319C104.662 106.051 104.011 104.618 103.424 103.506L103.222 103.138C103.112 102.927 102.993 102.715 102.874 102.504C102.81 102.385 102.736 102.256 102.672 102.137C102.672 102.137 102.672 102.127 102.672 102.118C101.847 100.731 101.26 99.7658 100.71 98.9388C99.9669 97.7902 99.2425 96.7886 97.8578 94.9692C97.7478 94.8314 97.647 94.7119 97.5553 94.5924C97.1243 94.0503 96.8492 93.7287 96.409 93.2233C95.8863 92.5985 95.6387 92.3412 95.006 91.6612C94.9602 91.6152 94.9144 91.5601 94.8685 91.5142C94.8685 91.5142 94.8685 91.5142 94.8593 91.505C94.5475 91.165 94.1715 90.779 93.7864 90.4023C93.5388 90.1542 93.3005 89.9153 93.0896 89.7039C93.0437 89.658 92.9978 89.6212 92.952 89.5753C92.9428 89.5661 92.9245 89.5477 92.9153 89.5385L92.5943 89.2261C91.7415 88.445 90.7879 87.6364 89.7425 86.8278L89.6233 86.7359L89.4675 86.6164C87.8811 85.3943 86.1388 84.1906 84.2956 83.0328L84.1581 82.9501C84.1397 82.9409 84.1306 82.9317 84.1122 82.9225L83.5621 82.5825C82.1407 81.7279 80.6827 80.9009 79.2156 80.1382H79.243L78.3903 79.7064L78.2894 79.6512C76.4004 78.7048 74.5389 77.8777 72.7691 77.1978L72.6408 77.1518C71.2469 76.6189 69.9082 76.187 68.6794 75.8562L68.065 75.7C68.065 75.7 68.0192 75.6908 67.9917 75.6816L67.9183 75.6632L66.5703 75.3416C66.5061 75.3232 66.4328 75.314 66.3686 75.2956H66.3136V75.2773C65.9651 75.2038 65.6075 75.1302 65.259 75.0659C65.0023 75.02 64.7456 74.974 64.4796 74.9189C63.8469 74.7994 63.205 74.6892 62.6548 74.5973C60.7934 74.3492 59.8121 74.2297 58.6017 74.1562C57.538 74.0735 56.4927 74.0368 54.7871 74C54.2461 74 53.6409 74.0184 53.0265 74.046C52.1645 74.0643 51.2567 74.1011 50.5139 74.147L49.9179 74.193C49.817 74.193 49.7253 74.2114 49.6245 74.2206C49.5236 74.2297 49.4227 74.2481 49.3218 74.2573C48.9092 74.2941 48.4966 74.3492 48.0839 74.3951C47.9831 74.4043 47.8914 74.4135 47.7905 74.4319L47.4512 74.4686C47.2953 74.487 47.1303 74.4962 46.9836 74.5238C46.8185 74.5513 46.6535 74.5697 46.4976 74.5973V74.6432C46.0941 74.7076 45.6814 74.7719 45.278 74.8546C45.278 74.8546 45.2688 74.8546 45.2596 74.8546C44.6177 74.9832 43.985 75.1211 43.3523 75.2681C43.1872 75.3048 43.0222 75.36 42.8571 75.3967C42.3895 75.5162 41.9218 75.6356 41.4542 75.7643C41.2157 75.8286 40.9865 75.9113 40.7481 75.9848C40.3538 76.1043 39.9594 76.2238 39.5743 76.3524C39.3084 76.4443 39.0424 76.5454 38.7673 76.6373C38.4189 76.7659 38.0613 76.8853 37.7128 77.0232C37.4286 77.1334 37.1535 77.2529 36.8692 77.3632C36.5391 77.501 36.209 77.6297 35.8789 77.7767C35.5946 77.9053 35.3104 78.034 35.0353 78.1626C34.7143 78.3096 34.3933 78.4567 34.0724 78.6129C33.7973 78.7507 33.5222 78.8977 33.2471 79.0356C33.0087 79.1642 32.7611 79.2745 32.5227 79.4123C30.973 79.5318 29.6892 79.8534 28.7081 80.368L28.3412 80.5609C28.3412 80.5609 28.3137 80.5793 28.3046 80.5793L28.5338 81.0112L28.5705 80.9928C29.2582 80.6344 30.1019 80.3771 31.1014 80.2117C30.8354 80.368 30.5695 80.515 30.3128 80.6712C30.1294 80.7815 29.946 80.9009 29.7626 81.0204C29.35 81.2777 28.9373 81.5349 28.5338 81.8106C28.3229 81.9576 28.112 82.1047 27.9011 82.2609C27.5343 82.5182 27.1675 82.7663 26.8099 83.0328C26.5898 83.1982 26.3698 83.3727 26.1497 83.5473C25.8104 83.8046 25.4711 84.0711 25.1318 84.3376C25.1043 84.3651 25.0676 84.3835 25.0309 84.4111C24.0864 85.1738 23.1053 86.0375 22.0874 87.0208C22.0874 87.0208 22.0874 87.0208 22.0783 87.03C21.8124 87.2781 21.5556 87.5354 21.2896 87.811C21.1154 87.9856 20.9412 88.1694 20.767 88.3532C20.6845 88.4451 20.5927 88.5277 20.5102 88.6196C20.1709 88.978 19.8317 89.3456 19.4924 89.7131C17.1999 90.0163 15.21 90.3012 13.6787 91.9369L13.3669 92.286C13.1652 92.5066 12.9726 92.7271 12.7709 92.9568L12.6517 93.0855C10.4692 95.6032 8.51604 98.3691 6.84712 101.291C5.73757 103.23 4.75643 105.252 3.90364 107.31V107.347L3.73859 107.714C3.73859 107.714 3.72023 107.751 3.72023 107.779L3.19754 109.083L3.25256 109.019C1.40942 114 0.327389 119.237 0.0522941 124.613V124.751L0.0339365 124.953V125.045C0.0339365 125.054 0.0339365 125.072 0.0339365 125.081L0.00645607 125.743L0.0247577 125.725C-0.140299 131.192 0.519961 136.678 2.00548 142.044L2.08797 142.329L2.12469 142.458C2.12469 142.476 2.13382 142.504 2.14299 142.522L2.25308 142.899C3.84863 148.302 6.23278 153.448 9.35053 158.18L9.48804 158.382L9.58895 158.538C9.58895 158.538 9.59809 158.557 9.60726 158.566L9.77231 158.814C13.0643 163.657 17.0715 167.975 21.6931 171.623L21.849 171.743L22.0507 171.899C22.0507 171.899 22.0599 171.908 22.0691 171.918L22.2341 172.046C24.0773 173.461 26.0304 174.794 28.0478 175.988L28.1579 175.804L28.057 175.997C30.1844 177.128 32.4035 178.138 34.6409 178.984L34.9252 179.094C40.5646 181.198 46.4792 182.411 52.5038 182.687H52.7331C58.5101 182.926 64.2595 182.301 69.8348 180.831L70.1924 180.739L70.3483 180.693C75.8685 179.177 81.0679 176.861 85.8087 173.82L86.258 173.544L86.3497 173.48C91.0905 170.346 95.2536 166.542 98.7382 162.15H98.6465ZM98.7748 161.093C95.3911 165.494 91.3198 169.326 86.6707 172.496C86.689 171.026 86.148 169.289 85.0659 167.314C89.6784 163.85 93.7406 159.816 97.1518 155.313C98.3714 157.564 98.9124 159.512 98.7748 161.093ZM94.1074 91.459L94.4833 91.845C94.7768 92.1758 95.0702 92.5066 95.3453 92.8557C95.4278 92.9568 95.5012 93.0579 95.5837 93.159C95.7763 93.4071 95.9689 93.6552 96.1614 93.9125C96.2531 94.0411 96.3448 94.1698 96.4365 94.2984C96.6016 94.5281 96.7667 94.767 96.9225 95.006C97.0142 95.1438 97.1059 95.2908 97.1976 95.4378C97.3443 95.6676 97.491 95.9065 97.6286 96.1454C97.7203 96.2924 97.8028 96.4486 97.8945 96.5957C98.0321 96.8438 98.1696 97.0919 98.298 97.34C98.3805 97.487 98.4539 97.634 98.5364 97.7902C98.674 98.0659 98.8115 98.3507 98.9399 98.6356C98.9949 98.7643 99.0591 98.8837 99.1141 99.0123C99.2975 99.4258 99.4809 99.8577 99.646 100.29C99.646 100.29 99.646 100.308 99.6551 100.317C97.8578 98.5437 95.7305 96.6967 93.3188 94.813C92.9337 92.4239 92.2001 90.3655 91.1364 88.6748C91.5857 89.0607 91.98 89.4099 92.5852 89.952C92.8511 90.2185 93.1354 90.4942 93.4197 90.7698C93.6489 90.9996 93.8781 91.2385 94.0982 91.4682L94.1074 91.459ZM83.8738 83.6944C83.8738 83.6944 83.8738 83.7403 83.8738 83.7679C83.8738 83.8046 83.8738 83.8414 83.883 83.8781C83.883 83.9057 83.883 83.9333 83.883 83.9608C83.883 84.0068 83.883 84.0435 83.883 84.0987C83.883 84.1262 83.883 84.163 83.883 84.1906C83.883 84.2457 83.883 84.2916 83.883 84.3468C83.883 84.3743 83.883 84.4111 83.883 84.4387C83.883 84.4938 83.883 84.5581 83.8738 84.6225C83.8738 84.6592 83.8738 84.6868 83.8738 84.7235C83.8738 84.7878 83.8647 84.8614 83.8555 84.9257C83.8555 84.9624 83.8555 84.9992 83.8463 85.0359C83.8463 85.1095 83.828 85.183 83.8188 85.2657C83.8188 85.3116 83.8097 85.3484 83.8005 85.3943C83.7913 85.477 83.7729 85.5597 83.7638 85.6424C83.7638 85.6884 83.7455 85.7343 83.7363 85.7802C83.718 85.8721 83.6996 85.964 83.6813 86.0559C83.6721 86.1111 83.6629 86.157 83.6537 86.2121C83.6446 86.2764 83.6263 86.3408 83.6171 86.3959C83.5987 86.4694 83.5804 86.5521 83.5621 86.6256C83.5437 86.69 83.5346 86.7543 83.5162 86.8186C83.4979 86.9013 83.4704 86.9932 83.452 87.0851C83.4337 87.1494 83.4245 87.2137 83.4062 87.278C83.3787 87.3883 83.3511 87.4986 83.3145 87.6089C83.2961 87.664 83.287 87.7099 83.2686 87.7651C83.2686 87.7743 83.2686 87.7926 83.2594 87.811C80.2426 85.9457 77.134 84.1906 73.9796 82.5917C75.7035 81.1123 77.1248 80.3128 78.1977 80.2209C80.105 81.1858 81.994 82.2425 83.8188 83.3819C83.8188 83.3819 83.8188 83.3911 83.8188 83.4003C83.8371 83.483 83.8555 83.5841 83.8738 83.6944ZM76.6205 80.028C76.6205 80.028 76.5288 80.0647 76.4829 80.0831C76.2995 80.1658 76.107 80.2577 75.9144 80.3588C75.8777 80.3771 75.841 80.4047 75.8044 80.4231C75.6393 80.515 75.4743 80.6069 75.3092 80.7172C75.245 80.7539 75.1808 80.7998 75.1166 80.8366C74.9607 80.9377 74.7957 81.0479 74.6307 81.1674C74.5756 81.2042 74.5206 81.2409 74.4656 81.2869C74.2455 81.4431 74.0254 81.6177 73.8053 81.7922C73.7595 81.829 73.7045 81.8749 73.6586 81.9117C73.5303 82.0128 73.4019 82.1231 73.2644 82.2333C70.22 80.708 67.2214 79.3664 64.3421 78.2361C67.2214 77.2805 69.9265 77.0783 72.384 77.6204C73.9521 78.2269 75.6118 78.9529 77.3082 79.7799C77.2716 79.789 77.2257 79.8074 77.189 79.8166C77.134 79.835 77.079 79.8534 77.0331 79.8718C76.8956 79.9177 76.758 79.9637 76.6205 80.028ZM4.16037 107.861C5.20573 106.74 6.97555 106.06 9.41473 105.821C9.18548 106.382 8.96537 106.942 8.75447 107.503C8.6536 107.769 8.57107 108.045 8.4702 108.312C8.31432 108.743 8.16761 109.166 8.02089 109.598C7.92002 109.92 7.81914 110.241 7.71827 110.563C7.59906 110.949 7.47984 111.335 7.36063 111.721C7.25976 112.061 7.17725 112.41 7.08555 112.759C6.98468 113.127 6.88381 113.503 6.79211 113.871C6.70041 114.229 6.62709 114.588 6.54456 114.946C6.46203 115.314 6.37031 115.681 6.29696 116.049C6.2236 116.407 6.15943 116.775 6.08607 117.142C6.01271 117.519 5.93931 117.886 5.87512 118.263C5.81093 118.622 5.76509 118.989 5.71007 119.357C5.65505 119.733 5.59087 120.11 5.54502 120.496C5.49917 120.864 5.46248 121.222 5.41663 121.59C5.38912 121.838 5.35247 122.086 5.33413 122.334C3.22507 122.518 1.62032 123.06 0.547446 123.942C0.8959 118.383 2.10632 112.98 4.16037 107.861ZM0.492429 125.072C1.44609 124.071 3.05082 123.464 5.25158 123.262C5.19656 123.896 5.15074 124.53 5.11407 125.164C5.09573 125.458 5.09569 125.743 5.07735 126.037C5.05901 126.478 5.04068 126.928 5.03151 127.369C5.03151 127.709 5.03151 128.049 5.03151 128.38C5.03151 128.775 5.03151 129.18 5.03151 129.575C5.03151 129.924 5.04983 130.273 5.06817 130.632C5.07734 131.017 5.08655 131.403 5.10489 131.789C5.12323 132.139 5.15075 132.497 5.17826 132.846C5.20577 133.232 5.22408 133.609 5.26076 133.995C5.28827 134.344 5.33411 134.693 5.37079 135.042C5.40747 135.428 5.44416 135.814 5.49918 136.2C5.54503 136.54 5.5909 136.88 5.63675 137.229C5.69177 137.624 5.74679 138.01 5.8018 138.405C5.85682 138.745 5.92101 139.076 5.97603 139.416C6.01271 139.646 6.0494 139.876 6.09525 140.115C4.42633 140.271 3.16084 140.721 2.31722 141.438C0.877553 136.053 0.263174 130.558 0.48325 125.072H0.492429ZM2.59236 142.384C3.34429 141.631 4.58218 141.171 6.2786 141.015C6.40698 141.667 6.55371 142.32 6.70043 142.963C6.75545 143.211 6.82882 143.45 6.88384 143.689C7.00305 144.158 7.1131 144.635 7.24148 145.095C7.324 145.398 7.41567 145.692 7.4982 145.986C7.61741 146.391 7.72746 146.804 7.85584 147.208C7.95671 147.53 8.06672 147.842 8.16758 148.164C8.29596 148.541 8.4152 148.918 8.54358 149.285C8.66279 149.616 8.78196 149.938 8.91034 150.259C9.03872 150.618 9.17627 150.976 9.31381 151.334C9.44219 151.665 9.57974 151.987 9.71729 152.308C9.86401 152.657 10.0016 153.007 10.1483 153.347C10.2858 153.668 10.4417 153.99 10.5884 154.311C10.7443 154.651 10.9002 154.991 11.0561 155.331C11.212 155.644 11.3679 155.956 11.5238 156.269C11.6063 156.434 11.6888 156.6 11.7713 156.765C10.7993 156.884 10.0474 157.16 9.53394 157.592C6.46204 152.869 4.13288 147.751 2.58318 142.366L2.59236 142.384ZM10.0566 158.391C10.5426 157.969 11.2579 157.721 12.2207 157.638C12.5416 158.244 12.8717 158.842 13.2202 159.439C13.3486 159.659 13.4861 159.871 13.6145 160.082C13.8621 160.496 14.1097 160.918 14.3664 161.323C14.5315 161.58 14.7057 161.837 14.8707 162.095C15.1 162.453 15.3292 162.802 15.5768 163.151C15.7694 163.427 15.962 163.693 16.1545 163.96C16.3838 164.281 16.613 164.603 16.8515 164.925C17.0532 165.2 17.2733 165.467 17.475 165.733C17.7134 166.037 17.9427 166.34 18.1811 166.643C18.4012 166.91 18.6212 167.167 18.8413 167.433C19.0889 167.727 19.3273 168.012 19.5749 168.297C19.8041 168.554 20.0334 168.802 20.2626 169.06C20.5194 169.335 20.767 169.62 21.0329 169.896C21.2621 170.144 21.5097 170.383 21.7481 170.622C21.8582 170.732 21.9591 170.842 22.0691 170.953C21.9499 170.989 21.8398 171.035 21.7481 171.1C17.2182 167.479 13.2752 163.206 10.0474 158.41L10.0566 158.391ZM48.3682 74.9557C49.7345 74.9557 51.3025 75.1394 53.054 75.4702C52.8889 75.507 52.7239 75.5437 52.5588 75.5805C52.3663 75.6264 52.1737 75.6908 51.9811 75.7367C51.6327 75.8286 51.2842 75.9205 50.9357 76.0308C50.7065 76.1043 50.4681 76.187 50.2388 76.2605C49.9362 76.3616 49.6245 76.4535 49.3218 76.5637C49.0743 76.6556 48.8267 76.7567 48.5791 76.8486C48.2948 76.9588 48.0014 77.0599 47.7171 77.1794C47.4604 77.2805 47.2128 77.3999 46.9652 77.5102C46.6901 77.6296 46.4059 77.7491 46.1308 77.8777C45.8832 77.9972 45.6264 78.1259 45.3788 78.2453C45.1037 78.3832 44.8286 78.5118 44.5535 78.6588C44.3059 78.7875 44.0584 78.9253 43.8199 79.0631C43.5448 79.2193 43.2606 79.3664 42.9855 79.5226C42.7471 79.6604 42.5087 79.8074 42.2702 79.9545C42.0685 80.0739 41.8668 80.1934 41.6742 80.3128C38.7949 79.6788 36.2273 79.3572 34.0541 79.348C33.9532 79.348 33.8615 79.348 33.7607 79.348C38.0613 77.1518 42.6279 75.6908 47.3504 74.9832C47.6988 74.9648 48.0289 74.9557 48.3682 74.9557ZM72.7233 82.7203C72.5583 82.8674 72.4023 83.0052 72.2373 83.1614C72.1181 83.2717 71.9989 83.3911 71.8797 83.5106C71.733 83.6484 71.5954 83.7771 71.4487 83.9241C71.3111 84.0619 71.1736 84.2089 71.036 84.3468C70.9077 84.4846 70.7701 84.6133 70.6417 84.7511C70.5042 84.8981 70.3575 85.0543 70.2108 85.2105C70.0732 85.3576 69.9357 85.5046 69.7981 85.6516C69.6606 85.8078 69.523 85.964 69.3763 86.1202C69.2296 86.2856 69.0829 86.451 68.927 86.6256C68.7986 86.7727 68.6611 86.938 68.5327 87.0943C68.3676 87.2872 68.2026 87.4802 68.0375 87.6824C67.9183 87.8202 67.7991 87.9764 67.6799 88.1142C67.4965 88.344 67.3039 88.5645 67.1205 88.8034C67.0197 88.9321 66.9096 89.0607 66.8087 89.1894C66.6804 89.3456 66.552 89.511 66.4236 89.6672C62.2514 87.5813 58.1432 85.7435 54.2002 84.2181C57.318 81.6085 60.4082 79.7155 63.4068 78.5669C66.4053 79.7247 69.5414 81.1123 72.7233 82.7019V82.7203ZM32.4127 80.0647C32.8253 80.0371 33.2563 80.028 33.7148 80.028C35.7413 80.0372 38.1255 80.3312 40.7939 80.8917C40.4913 81.0939 40.1887 81.296 39.8861 81.5074C39.7852 81.5809 39.6752 81.6544 39.5743 81.7279C39.1158 82.0495 38.6665 82.3803 38.2172 82.7295C38.1622 82.7754 38.098 82.8214 38.0429 82.8674C37.8045 83.0511 37.5661 83.2349 37.3277 83.4279C37.1627 83.5565 36.9976 83.7035 36.8325 83.8322C36.7317 83.9149 36.64 83.9976 36.5391 84.0711C36.1081 84.4387 35.668 84.8154 35.2462 85.2013C35.1636 85.2748 35.0811 85.3575 34.9986 85.4311C34.6318 85.7711 34.265 86.1111 33.9073 86.4602C33.8156 86.5521 33.7239 86.644 33.6231 86.7359C33.2104 87.1402 32.7978 87.5629 32.3944 87.9856C32.3027 88.0775 32.2201 88.1694 32.1284 88.2613C31.7799 88.638 31.4315 89.0148 31.0831 89.4007C31.0005 89.4926 30.918 89.5845 30.8446 89.6764C30.542 90.0256 30.2303 90.3839 29.9368 90.7423C26.6632 90.0255 23.7563 89.658 21.2896 89.6488C20.9595 89.6488 20.6294 89.6488 20.3085 89.6672C23.8756 85.7711 27.9469 82.5457 32.4218 80.0739L32.4127 80.0647ZM34.9435 177.752C34.8152 177.55 34.6684 177.339 34.485 177.109C38.9508 177.477 43.6824 177.109 48.5608 175.988C49.6795 177.155 50.5323 178.239 51.1466 179.214C45.5805 179.535 40.1337 179.048 34.9435 177.743V177.752ZM69.1746 175.317C68.1751 173.617 66.7079 171.734 64.8006 169.731C69.5964 167.112 74.1722 163.905 78.4086 160.202C80.8386 162.747 82.7093 165.127 83.9747 167.277C79.4265 170.603 74.4472 173.305 69.1746 175.317ZM86.3038 165.485C85.7812 165.908 85.2585 166.312 84.7175 166.717C83.4337 164.539 81.5539 162.15 79.1055 159.577C83.4245 155.717 87.285 151.408 90.5953 146.767C93.3096 149.616 95.3912 152.262 96.785 154.661C96.409 155.166 96.0239 155.653 95.6296 156.149C95.492 156.324 95.3453 156.498 95.1986 156.673C94.9052 157.022 94.6209 157.381 94.3183 157.73C94.1441 157.932 93.9698 158.134 93.7864 158.336C93.5113 158.649 93.2271 158.961 92.9428 159.273C92.7502 159.476 92.5668 159.678 92.3743 159.889C92.09 160.192 91.7966 160.486 91.5123 160.78C91.3197 160.983 91.118 161.176 90.9254 161.369C90.6228 161.672 90.3111 161.966 89.9993 162.26C89.8067 162.444 89.6233 162.618 89.4307 162.802C89.0731 163.133 88.7063 163.454 88.3395 163.785C88.1836 163.914 88.0369 164.052 87.8902 164.19C87.3675 164.64 86.8449 165.081 86.3038 165.513V165.485ZM99.1966 128.509C99.0774 128.849 98.9582 129.198 98.8298 129.538C96.2256 126.956 93.6581 124.457 88.4129 120.349C90.4119 115.709 91.8608 111.252 92.7227 107.108C96.2531 109.883 99.325 112.594 101.838 115.185C101.645 117.317 101.443 119.393 100.994 121.783C100.976 121.884 100.957 121.985 100.93 122.086C100.884 122.316 100.838 122.545 100.783 122.784C100.728 123.051 100.655 123.317 100.6 123.584C100.499 124.015 100.398 124.438 100.279 124.87C100.205 125.146 100.132 125.421 100.049 125.697C99.9302 126.111 99.8111 126.524 99.6827 126.938C99.5726 127.305 99.4534 127.682 99.3342 128.049C99.2792 128.206 99.2333 128.353 99.1875 128.509H99.1966ZM49.7161 175.069C49.4777 175.134 49.2393 175.198 48.9917 175.253C47.6988 173.93 46.1491 172.552 44.361 171.136C48.1756 169.041 52.1095 166.34 56.0617 163.096C58.9227 165.338 61.4169 167.534 63.4709 169.629C62.9482 169.905 62.4256 170.181 61.8937 170.447C61.6645 170.567 61.4261 170.668 61.1968 170.787C60.8025 170.98 60.4082 171.173 60.0139 171.357C59.7388 171.486 59.4637 171.596 59.1978 171.725C58.8402 171.881 58.4917 172.046 58.1341 172.193C57.8498 172.313 57.5655 172.423 57.2813 172.542C56.9328 172.68 56.5844 172.827 56.2451 172.965C55.9608 173.075 55.6765 173.176 55.3923 173.277C55.0438 173.406 54.6954 173.535 54.347 173.663C54.0627 173.764 53.7784 173.856 53.5033 173.948C53.1548 174.068 52.8064 174.187 52.458 174.297C52.1737 174.389 51.8986 174.463 51.6143 174.546C51.2659 174.647 50.9174 174.757 50.5598 174.849C50.2755 174.922 50.0004 174.996 49.7161 175.069ZM65.6167 168.453C65.1765 168.711 64.7272 168.949 64.287 169.198C62.1963 167.057 59.6655 164.824 56.7586 162.536C60.7383 159.209 64.6355 155.405 68.3585 151.242C72.0447 154.128 75.245 156.958 77.8768 159.65C77.4274 160.045 76.9781 160.431 76.5288 160.808C76.3729 160.937 76.217 161.065 76.052 161.203C75.676 161.516 75.3001 161.819 74.9241 162.122C74.759 162.26 74.5848 162.389 74.4106 162.526C74.0163 162.83 73.6219 163.133 73.2276 163.436C73.0901 163.546 72.9434 163.647 72.8059 163.758C72.274 164.153 71.733 164.539 71.2011 164.915C71.1003 164.989 70.9994 165.053 70.9077 165.118C70.4584 165.43 70.009 165.733 69.5597 166.027C69.3763 166.147 69.2021 166.266 69.0187 166.377C68.6244 166.634 68.2393 166.882 67.8449 167.13C67.6707 167.24 67.4873 167.351 67.3131 167.461C66.8179 167.764 66.3227 168.058 65.8184 168.352C65.7542 168.389 65.69 168.426 65.6259 168.462L65.6167 168.453ZM94.0065 139.986C93.6856 140.556 93.3463 141.116 93.007 141.677C92.897 141.86 92.7778 142.044 92.6677 142.219C92.4293 142.605 92.1909 142.981 91.9433 143.367C91.7508 143.671 91.5582 143.965 91.3564 144.259C91.2556 144.415 91.1547 144.571 91.0446 144.727C90.8887 144.957 90.7329 145.178 90.577 145.407C87.6334 142.393 84.0664 139.242 79.9492 136.025C81.1412 134.188 82.2783 132.304 83.3512 130.439C85.121 127.333 86.6982 124.218 88.0461 121.185C92.0992 124.365 95.6204 127.471 98.5089 130.439C97.6378 132.561 96.7758 134.638 95.6479 136.917C95.6021 136.999 95.5654 137.091 95.5195 137.174C95.4095 137.385 95.2995 137.606 95.1894 137.817C94.8043 138.543 94.4192 139.269 94.0065 139.986ZM79.1055 158.529C78.9221 158.695 78.7479 158.86 78.5645 159.016C75.9052 156.296 72.6866 153.448 68.9728 150.535C72.7691 146.216 76.2904 141.594 79.4448 136.806C83.5529 140.023 87.12 143.174 90.0452 146.179C89.66 146.731 89.2657 147.273 88.8531 147.806C88.6972 148.008 88.5321 148.21 88.3762 148.421C88.0828 148.807 87.7893 149.193 87.4867 149.57C87.285 149.827 87.0741 150.075 86.8632 150.333C86.5973 150.654 86.3405 150.976 86.0746 151.297C85.8454 151.573 85.5977 151.84 85.3685 152.115C85.1209 152.409 84.8642 152.694 84.6074 152.979C84.3599 153.255 84.1031 153.53 83.8555 153.797C83.5988 154.073 83.3512 154.348 83.0944 154.624C82.8376 154.9 82.5717 155.157 82.315 155.433C82.0491 155.699 81.7923 155.975 81.5263 156.232C81.2604 156.489 80.9945 156.747 80.7286 157.004C80.4535 157.27 80.1784 157.537 79.9033 157.794C79.6374 158.042 79.3715 158.281 79.1055 158.529ZM35.1636 176.631C34.7601 176.604 34.3567 176.567 33.9532 176.53C33.6414 176.218 33.293 175.896 32.8895 175.566C36.1906 174.913 39.7852 173.562 43.5907 171.559C45.3055 172.901 46.791 174.215 48.0473 175.474C45.9657 175.887 43.9208 176.273 41.6925 176.503C41.5825 176.512 41.4725 176.521 41.3624 176.53C41.1332 176.549 40.9039 176.576 40.6747 176.585C40.4454 176.604 40.2254 176.613 39.9961 176.622C39.5376 176.65 39.0792 176.668 38.6298 176.677C38.3822 176.677 38.1347 176.677 37.8779 176.677C37.4561 176.677 37.0434 176.677 36.6216 176.668C36.2824 176.668 35.9431 176.65 35.6038 176.631C35.4571 176.631 35.3103 176.622 35.1636 176.613V176.631ZM44.4894 170.291C44.251 170.429 44.0125 170.558 43.7741 170.686L43.7191 170.64C41.8576 169.207 39.8311 167.801 37.6853 166.45C40.1795 163.454 42.9213 159.917 45.819 155.947C49.221 158.079 52.4396 160.312 55.374 162.572L55.4198 162.609C55.0255 162.931 54.6404 163.252 54.246 163.565C54.0627 163.712 53.8793 163.859 53.6959 163.997C53.3933 164.236 53.0815 164.474 52.7789 164.713C52.5772 164.87 52.3755 165.026 52.1737 165.173C51.8894 165.393 51.6052 165.605 51.3117 165.816C51.1008 165.972 50.8899 166.128 50.679 166.275C50.3948 166.478 50.1196 166.68 49.8354 166.873C49.6245 167.02 49.4136 167.167 49.2118 167.305C48.9184 167.507 48.6341 167.7 48.3498 167.884C48.1573 168.012 47.9555 168.15 47.763 168.269C47.4237 168.49 47.0844 168.701 46.7451 168.922C46.6076 169.014 46.4609 169.106 46.3233 169.188C45.8465 169.482 45.3788 169.758 44.9112 170.034C44.7736 170.116 44.6269 170.19 44.4894 170.273V170.291ZM57.1346 161.166C56.7953 161.46 56.456 161.745 56.1167 162.03L55.9792 161.92C53.0081 159.632 49.7712 157.39 46.3416 155.23C49.276 151.178 52.3112 146.777 55.3648 142.145C59.693 144.856 63.7735 147.695 67.5148 150.572L67.6799 150.7C65.7542 152.804 63.8744 154.854 61.6003 157.068C61.3435 157.325 61.0776 157.574 60.8117 157.822C60.5458 158.07 60.289 158.318 60.0231 158.566C59.7755 158.796 59.5187 159.035 59.2712 159.264C59.0052 159.512 58.7393 159.751 58.4734 159.99C58.1524 160.284 57.8223 160.569 57.5014 160.854C57.3822 160.955 57.2721 161.056 57.1529 161.166H57.1346ZM68.8078 149.395C68.6335 149.598 68.4594 149.8 68.276 150.011L68.0834 149.864C64.3237 146.969 60.2065 144.121 55.86 141.383C58.9869 136.595 62.068 131.679 65.0115 126.735C69.8073 129.749 74.3464 132.892 78.4911 136.081L78.7204 136.264C78.3536 136.825 77.9868 137.376 77.6108 137.937C77.4458 138.176 77.2807 138.405 77.1156 138.644C76.8589 139.021 76.593 139.398 76.3362 139.775C76.1345 140.059 75.9327 140.335 75.731 140.62C75.5017 140.942 75.2634 141.272 75.0249 141.594C74.8049 141.888 74.5848 142.182 74.3739 142.467C74.1446 142.77 73.9154 143.083 73.6861 143.386C73.4661 143.68 73.2368 143.965 73.0167 144.259C72.7783 144.562 72.5491 144.865 72.3107 145.168C72.0906 145.444 71.8614 145.729 71.6413 146.005C71.3937 146.317 71.1461 146.62 70.8985 146.924C70.6784 147.19 70.4583 147.447 70.2383 147.714C69.9815 148.026 69.7156 148.339 69.4497 148.651C69.2388 148.899 69.0278 149.147 68.8078 149.395ZM32.321 175.115C31.8075 174.72 31.2664 174.343 30.6979 173.976C32.5227 172.313 34.7051 169.988 37.1718 167.066C39.2442 168.371 41.2065 169.731 43.013 171.109C42.6187 171.32 42.2336 171.522 41.8485 171.715C41.7109 171.789 41.5734 171.844 41.4358 171.918C41.0782 172.092 40.7297 172.267 40.3721 172.432C40.1887 172.515 40.0145 172.588 39.8311 172.671C39.5285 172.809 39.2259 172.947 38.9233 173.066C38.7215 173.149 38.5198 173.232 38.3089 173.314C38.0338 173.424 37.7679 173.535 37.502 173.636C37.2819 173.719 37.071 173.792 36.8509 173.866C36.6033 173.957 36.3557 174.049 36.1081 174.123C35.8789 174.196 35.6588 174.261 35.4387 174.334C35.2095 174.408 34.9711 174.481 34.7418 174.546C34.5126 174.61 34.2925 174.665 34.0724 174.72C33.8523 174.775 33.6323 174.84 33.4122 174.886C33.1921 174.941 32.9721 174.977 32.7428 175.023C32.6053 175.051 32.4585 175.079 32.321 175.106V175.115ZM37.3919 165.715C37.291 165.834 37.1902 165.963 37.0893 166.083C34.9711 164.768 32.7795 163.537 30.5604 162.407C31.6516 158.621 33.1096 154.367 34.8885 149.754C38.3639 151.518 41.8117 153.457 45.1404 155.515C44.8195 155.965 44.4985 156.407 44.1776 156.848C43.9942 157.096 43.8199 157.335 43.6457 157.574C43.4531 157.831 43.2606 158.097 43.0772 158.355C42.9121 158.584 42.7379 158.805 42.5729 159.035C42.3803 159.301 42.1785 159.568 41.986 159.825C41.8301 160.036 41.6742 160.238 41.5183 160.45C41.3166 160.716 41.1149 160.983 40.9223 161.24C40.7756 161.433 40.6289 161.626 40.4822 161.819C40.2804 162.085 40.0787 162.352 39.8769 162.609C39.7394 162.793 39.5926 162.967 39.4551 163.151C39.2533 163.409 39.0516 163.666 38.8499 163.923C38.7032 164.107 38.5657 164.281 38.4189 164.465C38.2264 164.704 38.0429 164.943 37.8504 165.173C37.7036 165.357 37.5569 165.54 37.4102 165.724L37.3919 165.715ZM35.2095 148.945C37.0343 144.259 39.1433 139.343 41.4725 134.307C45.929 136.568 50.3397 139.049 54.6129 141.695C54.2644 142.228 53.916 142.752 53.5767 143.276C53.3566 143.606 53.1457 143.928 52.9348 144.25C52.7605 144.516 52.5772 144.792 52.403 145.058C52.1829 145.398 51.9536 145.729 51.7335 146.06C51.5685 146.308 51.3942 146.565 51.2292 146.813C51.0183 147.135 50.7982 147.447 50.5873 147.76C50.4131 148.026 50.2297 148.283 50.0554 148.55C49.8537 148.844 49.6612 149.129 49.4594 149.423C49.2669 149.699 49.0743 149.983 48.8909 150.25C48.7075 150.516 48.5241 150.783 48.3407 151.04C48.1389 151.334 47.928 151.637 47.7263 151.932C47.5612 152.17 47.3962 152.409 47.222 152.639C47.0019 152.951 46.7818 153.264 46.5617 153.576C46.4058 153.788 46.2591 154.008 46.1032 154.22C45.9565 154.422 45.8098 154.624 45.6723 154.826C42.6921 153.016 39.8219 151.288 35.2278 148.954L35.2095 148.945ZM30.2119 173.673C29.6801 173.351 29.1757 173.048 28.3963 172.653C28.6438 170.126 29.3041 166.946 30.3494 163.188C32.4677 164.263 34.5584 165.448 36.5941 166.698C36.3282 167.02 36.0714 167.332 35.8147 167.635C35.6771 167.801 35.5396 167.948 35.4112 168.113C35.237 168.325 35.0536 168.527 34.8885 168.729C34.7418 168.904 34.5951 169.06 34.4484 169.234C34.2925 169.409 34.1366 169.593 33.9899 169.758C33.8432 169.923 33.7056 170.08 33.5589 170.236C33.4122 170.401 33.2655 170.567 33.1188 170.723C32.9812 170.87 32.8437 171.017 32.7153 171.155C32.5686 171.311 32.431 171.467 32.2934 171.614C32.1651 171.752 32.0459 171.872 31.9175 172.009C31.78 172.156 31.6332 172.303 31.4957 172.441C31.3765 172.561 31.2573 172.68 31.1381 172.79C31.0005 172.928 30.863 173.057 30.7346 173.186C30.6154 173.296 30.5054 173.397 30.3953 173.507C30.3311 173.562 30.2761 173.617 30.2119 173.673ZM28.3229 175.262C28.3229 174.582 28.3229 173.93 28.3504 173.397C28.7997 173.636 29.2491 173.884 29.6801 174.15C29.6525 174.169 29.6342 174.187 29.6159 174.206C29.5792 174.233 29.5517 174.261 29.515 174.288C29.3866 174.399 29.2583 174.5 29.1299 174.619C29.1115 174.637 29.0932 174.647 29.0749 174.665C28.7998 174.895 28.5338 175.097 28.3229 175.262ZM27.8736 172.395C27.3051 172.12 26.7457 171.872 26.2047 171.66C24.8842 168.435 24.0314 164.576 23.6738 160.174C25.6362 160.937 27.6719 161.846 29.7443 162.885C29.625 163.326 29.5058 163.767 29.3958 164.19C29.3775 164.272 29.3591 164.355 29.3316 164.438C29.2307 164.842 29.1299 165.237 29.0382 165.623C29.0106 165.743 28.9832 165.862 28.9557 165.981C28.8731 166.321 28.7998 166.661 28.7264 166.992C28.6989 167.13 28.6714 167.268 28.6439 167.397C28.5797 167.7 28.5155 168.003 28.4605 168.297C28.4329 168.453 28.4055 168.591 28.378 168.738C28.3321 169.005 28.2771 169.271 28.2312 169.538C28.2037 169.694 28.1854 169.85 28.1579 169.997C28.1212 170.236 28.0845 170.475 28.0478 170.705C28.0295 170.87 28.0112 171.026 27.9837 171.182C27.9561 171.394 27.9286 171.605 27.9103 171.807C27.8919 171.973 27.8828 172.129 27.8644 172.285C27.8644 172.322 27.8644 172.349 27.8553 172.386L27.8736 172.395ZM41.0782 133.067C36.6491 130.852 32.2843 128.904 28.112 127.296C29.8268 121.792 31.9725 116.389 34.4667 111.234C39.0791 113.016 43.8933 115.157 48.7809 117.602C48.735 117.675 48.6983 117.758 48.6616 117.831C48.0381 118.998 47.4237 120.165 46.8093 121.341C46.5526 121.847 46.2958 122.352 46.0391 122.867C45.6173 123.703 45.1863 124.53 44.7736 125.366C44.4985 125.918 44.2326 126.469 43.9667 127.02C43.5724 127.82 43.1781 128.619 42.7929 129.419C42.5362 129.961 42.2794 130.512 42.0227 131.054C41.7109 131.716 41.3899 132.387 41.0873 133.048L41.0782 133.067ZM49.5969 118.024C54.5578 120.542 59.4729 123.308 64.2228 126.248C63.4984 127.461 62.7741 128.674 62.0313 129.887C61.747 130.356 61.4536 130.824 61.1693 131.293C60.6742 132.102 60.1789 132.91 59.6838 133.719C59.3445 134.261 58.996 134.803 58.6567 135.345C58.1982 136.071 57.7398 136.806 57.2813 137.523C56.9512 138.038 56.6211 138.552 56.291 139.058C55.8967 139.673 55.5023 140.289 55.0988 140.905C50.7982 138.24 46.3417 135.731 41.8485 133.453C44.2601 128.27 46.8644 123.078 49.5878 118.015L49.5969 118.024ZM23.6004 159.283C23.307 154.881 23.5088 150.057 24.1782 144.939C27.4059 146.188 30.7713 147.686 34.1916 149.405C33.9899 149.947 33.7882 150.48 33.5864 151.013C33.5314 151.178 33.4672 151.334 33.4122 151.49C33.2563 151.922 33.0912 152.363 32.9445 152.786C32.8712 152.997 32.7978 153.2 32.7245 153.411C32.5961 153.778 32.4585 154.155 32.3393 154.523C32.2568 154.762 32.1834 154.991 32.1009 155.221C31.9909 155.552 31.8717 155.892 31.7616 156.214C31.6791 156.452 31.6057 156.691 31.5232 156.93C31.4223 157.243 31.3215 157.555 31.2206 157.858C31.1381 158.106 31.0647 158.345 30.9913 158.584C30.8996 158.878 30.808 159.172 30.7163 159.457C30.6429 159.696 30.5696 159.935 30.5054 160.174C30.4228 160.459 30.3311 160.744 30.2486 161.029C30.1844 161.258 30.1202 161.479 30.056 161.699C30.0193 161.837 29.9826 161.966 29.946 162.104C27.7727 161.019 25.6453 160.073 23.5913 159.283H23.6004ZM24.2974 144.047C25.031 138.874 26.223 133.544 27.8461 128.187C31.9817 129.786 36.3007 131.707 40.7022 133.912C40.4363 134.5 40.1704 135.088 39.9045 135.667C39.8128 135.86 39.7302 136.053 39.6477 136.246C39.4368 136.705 39.235 137.174 39.0333 137.633C38.9324 137.854 38.8407 138.075 38.7399 138.304C38.5565 138.727 38.3639 139.159 38.1805 139.582C38.0705 139.839 37.9604 140.096 37.8504 140.344C37.6853 140.73 37.5203 141.125 37.3552 141.511C37.2452 141.778 37.1352 142.035 37.0251 142.301C36.8692 142.678 36.7133 143.055 36.5574 143.423C36.4474 143.698 36.3374 143.965 36.2273 144.24C36.0806 144.599 35.9339 144.957 35.7872 145.315C35.6771 145.6 35.5579 145.885 35.4479 146.17C35.3103 146.51 35.1819 146.85 35.0444 147.181C34.9252 147.475 34.8152 147.769 34.7051 148.063C34.6409 148.238 34.5676 148.421 34.5034 148.596C31.4774 147.117 28.5705 145.711 24.2974 144.057V144.047ZM31.3582 175.262C30.4137 175.363 29.5884 175.446 28.9006 175.483C29.3041 175.18 29.7259 174.84 30.1752 174.454C30.5879 174.72 30.9822 174.987 31.3673 175.262H31.3582ZM27.7819 174.83C27.3601 174.123 26.9658 173.369 26.599 172.57C26.9933 172.735 27.3968 172.919 27.8094 173.121C27.7727 173.728 27.7636 174.297 27.7819 174.83ZM43.5724 95.8881C48.1206 97.6432 52.8798 99.7566 57.7215 102.183C55.9608 104.976 54.1727 107.962 52.403 111.068C51.8344 112.07 51.2567 113.09 50.6881 114.119C50.5047 114.459 50.3214 114.799 50.1288 115.13C49.8262 115.681 49.5236 116.232 49.2302 116.784C44.3243 114.33 39.5009 112.18 34.8793 110.397C35.8422 108.449 36.86 106.529 37.9146 104.682C39.7027 101.548 41.6009 98.5896 43.5632 95.8881H43.5724ZM58.5375 102.587C63.4434 105.068 68.3034 107.806 72.9984 110.719C71.4487 113.632 69.7615 116.683 67.9825 119.807C67.4048 120.818 66.8179 121.838 66.2219 122.858C66.0751 123.106 65.9284 123.354 65.7817 123.602C65.4241 124.218 65.0665 124.824 64.6997 125.44C59.9405 122.49 55.0163 119.715 50.0371 117.188C51.0733 115.268 52.137 113.356 53.2007 111.5C54.9797 108.376 56.777 105.38 58.5284 102.587H58.5375ZM73.7779 111.206C78.5095 114.174 82.9844 117.271 87.0741 120.423L87.3309 120.616C86.3955 122.619 85.4694 124.585 84.3323 126.772C84.2681 126.901 84.204 127.02 84.1398 127.149C84.0389 127.342 83.9288 127.544 83.8188 127.746C83.4245 128.472 83.021 129.207 82.6084 129.933C82.2874 130.503 81.9574 131.063 81.6181 131.633C81.5172 131.808 81.4071 131.982 81.3063 132.157C81.0678 132.552 80.8295 132.938 80.591 133.333C80.4077 133.636 80.2151 133.94 80.0225 134.243C79.9033 134.427 79.7841 134.62 79.6649 134.813C79.5273 135.033 79.3806 135.254 79.243 135.474L79.0413 135.318C74.8782 132.111 70.3208 128.959 65.5066 125.936C66.6254 124.052 67.7258 122.15 68.7895 120.294C70.5684 117.179 72.2465 114.128 73.787 111.224L73.7779 111.206ZM24.2607 171.035C21.5189 167.36 19.309 163.05 17.6676 158.226C19.2906 158.621 21.0879 159.182 23.0044 159.908C23.0502 160.45 23.1053 160.973 23.1603 161.497C23.1787 161.69 23.2153 161.874 23.2336 162.067C23.2795 162.444 23.3254 162.82 23.3804 163.188C23.4171 163.418 23.4537 163.647 23.4904 163.868C23.5454 164.18 23.5913 164.502 23.6555 164.814C23.7013 165.053 23.7564 165.283 23.8022 165.522C23.8572 165.807 23.9214 166.101 23.9856 166.386C24.0406 166.625 24.1048 166.854 24.1598 167.093C24.224 167.36 24.2882 167.635 24.3616 167.902C24.4257 168.132 24.4899 168.352 24.5633 168.582C24.6366 168.839 24.71 169.096 24.7925 169.354C24.8659 169.574 24.9392 169.786 25.0126 169.997C25.0951 170.245 25.1777 170.493 25.2694 170.732C25.3427 170.943 25.4253 171.136 25.5078 171.339C25.517 171.366 25.5261 171.385 25.5353 171.412C25.1501 171.274 24.7467 171.146 24.2515 171.035H24.2607ZM22.9311 159.035C20.9229 158.281 19.043 157.702 17.3466 157.307C15.8152 152.51 14.8708 147.328 14.5498 141.888C17.2457 142.513 20.2351 143.45 23.4538 144.663C23.3804 145.27 23.307 145.876 23.2428 146.473C23.2153 146.767 23.1878 147.061 23.1603 147.355C23.1236 147.723 23.087 148.091 23.0595 148.449C23.0319 148.78 23.0136 149.101 22.9861 149.432C22.9677 149.754 22.9402 150.075 22.9219 150.397C22.9035 150.728 22.8944 151.049 22.876 151.38C22.8577 151.693 22.8486 152.005 22.8302 152.317C22.821 152.639 22.8119 152.951 22.8119 153.264C22.8119 153.576 22.7935 153.889 22.7935 154.192C22.7935 154.495 22.7935 154.789 22.7935 155.093C22.7935 155.405 22.7935 155.727 22.7935 156.03C22.7935 156.315 22.8119 156.6 22.821 156.884C22.8302 157.206 22.8394 157.518 22.8577 157.84C22.8669 158.106 22.8944 158.373 22.9035 158.639C22.9035 158.777 22.9219 158.906 22.9311 159.044V159.035ZM15.7786 123.409C16.8698 117.712 18.5937 112.18 20.8953 106.97C24.7467 107.852 29.0382 109.185 33.6598 110.93C33.3755 111.528 33.0912 112.116 32.8161 112.722C32.7336 112.897 32.6602 113.071 32.5777 113.255C32.3485 113.761 32.1192 114.266 31.89 114.781C31.7891 115.019 31.6883 115.258 31.5874 115.497C31.3948 115.948 31.1931 116.398 31.0097 116.857C30.8997 117.124 30.7988 117.39 30.6887 117.657C30.5145 118.089 30.3403 118.52 30.1661 118.952C30.056 119.237 29.946 119.522 29.8359 119.807C29.68 120.23 29.515 120.643 29.3591 121.066C29.2491 121.369 29.139 121.672 29.0382 121.966C28.8914 122.371 28.7447 122.775 28.598 123.188C28.488 123.501 28.3871 123.823 28.277 124.135C28.1395 124.53 28.0112 124.925 27.8736 125.33C27.7636 125.66 27.6627 125.991 27.5618 126.322C27.4885 126.552 27.4151 126.781 27.3418 127.02C23.1603 125.44 19.2814 124.227 15.7877 123.427L15.7786 123.409ZM21.2805 106.097C22.17 104.149 23.1603 102.228 24.2057 100.391C26.003 97.2481 28.002 94.3168 30.1569 91.6612C33.9532 92.5249 38.1897 93.8389 42.7563 95.5665C40.8031 98.2588 38.9141 101.181 37.1443 104.296C36.8601 104.792 36.5758 105.307 36.2915 105.812C36.1998 105.978 36.1173 106.134 36.0256 106.299C35.833 106.648 35.6404 107.007 35.4571 107.365C35.3562 107.549 35.2645 107.733 35.1636 107.926C34.9894 108.266 34.8151 108.596 34.6409 108.936C34.5401 109.139 34.4392 109.332 34.3384 109.534C34.2467 109.717 34.155 109.901 34.0633 110.085C29.4417 108.33 25.141 106.988 21.2713 106.097H21.2805ZM26.7549 174.049C26.1497 173.388 25.5536 172.699 24.9851 171.982C25.2785 172.074 25.5811 172.175 25.8929 172.285C26.1588 172.892 26.4523 173.48 26.7549 174.049ZM14.4948 140.951C14.238 135.474 14.614 129.878 15.6135 124.319C19.0705 125.118 22.9219 126.313 27.0667 127.884C26.8741 128.509 26.6907 129.143 26.5164 129.768C26.4614 129.961 26.4156 130.145 26.3606 130.328C26.223 130.843 26.0763 131.348 25.9479 131.863C25.8837 132.12 25.8195 132.368 25.7553 132.626C25.6453 133.067 25.5261 133.517 25.4252 133.958C25.3519 134.243 25.2969 134.537 25.2235 134.822C25.1318 135.226 25.031 135.64 24.9484 136.044C24.8843 136.347 24.82 136.659 24.7559 136.963C24.6733 137.349 24.5908 137.735 24.5174 138.111C24.4532 138.433 24.3982 138.745 24.334 139.067C24.2607 139.435 24.1965 139.811 24.1323 140.179C24.0773 140.5 24.0223 140.822 23.9673 141.144C23.9031 141.502 23.8481 141.87 23.793 142.228C23.7472 142.55 23.7013 142.871 23.6555 143.193C23.628 143.386 23.6005 143.579 23.573 143.772C20.767 142.752 18.071 141.778 14.504 140.951H14.4948ZM32.6419 176.392C31.8258 176.264 30.973 176.098 30.1752 175.942C30.7621 175.896 31.3673 175.823 31.9817 175.722C32.2751 175.951 32.5411 176.181 32.7887 176.402C32.7428 176.402 32.6877 176.393 32.6419 176.383V176.392ZM53.5308 84.797C57.5197 86.3316 61.692 88.1877 65.9285 90.3104C65.6717 90.6412 65.4149 90.9812 65.149 91.3304C64.9748 91.5601 64.8005 91.799 64.6171 92.0379C64.4704 92.2401 64.3145 92.4422 64.1678 92.6444C63.9844 92.8925 63.8102 93.1406 63.6268 93.3887C63.471 93.6 63.3242 93.8114 63.1683 94.0227C62.9941 94.2708 62.8107 94.5281 62.6365 94.7762C62.4714 95.006 62.3155 95.2265 62.1505 95.4654C61.9762 95.7135 61.802 95.9616 61.6369 96.2189C61.4627 96.467 61.2977 96.7151 61.1234 96.9632C60.9584 97.2113 60.7842 97.4686 60.6191 97.7167C60.4449 97.9832 60.2706 98.2405 60.0872 98.5069C59.913 98.7642 59.748 99.0307 59.5737 99.288C59.3995 99.5637 59.2161 99.8301 59.0419 100.106C58.8677 100.372 58.6935 100.648 58.5192 100.924C58.4184 101.089 58.3083 101.245 58.2074 101.411C54.0168 99.3615 50.0188 97.4226 44.1226 95.1346C47.1486 91.0547 50.3214 87.5813 53.54 84.7787L53.5308 84.797ZM66.6987 90.7055C71.0085 92.8833 75.2725 95.2908 79.3898 97.8453C79.2064 98.2497 79.023 98.6632 78.8213 99.0859C78.7571 99.2237 78.6929 99.3707 78.6287 99.5085C78.4636 99.8577 78.2986 100.216 78.1335 100.574C78.051 100.749 77.9593 100.933 77.8768 101.117C77.7209 101.447 77.565 101.769 77.4091 102.1C77.299 102.32 77.189 102.55 77.079 102.78C76.9323 103.074 76.7947 103.368 76.648 103.662C76.5196 103.919 76.382 104.186 76.2537 104.452C76.1161 104.719 75.9877 104.994 75.8502 105.27C75.7127 105.555 75.5568 105.84 75.4192 106.125C75.2817 106.391 75.1533 106.648 75.0158 106.915C74.8599 107.218 74.704 107.521 74.5481 107.825C74.4106 108.082 74.2822 108.339 74.1446 108.596C73.9796 108.918 73.8054 109.24 73.6403 109.561C73.5761 109.69 73.5027 109.819 73.4385 109.947C68.7619 107.043 63.9203 104.314 59.0327 101.843C61.7195 97.6064 64.2962 93.8665 66.7171 90.7055H66.6987ZM80.1326 98.3048C84.2773 100.905 88.1928 103.616 91.7691 106.373L92.0075 106.556C91.9066 107.043 91.7966 107.54 91.6774 108.036C91.6223 108.266 91.5582 108.495 91.5031 108.716C91.4206 109.038 91.3473 109.368 91.2556 109.699C91.1822 109.966 91.0997 110.241 91.0263 110.508C90.9438 110.802 90.8613 111.096 90.7787 111.39C90.6962 111.675 90.5954 111.96 90.5128 112.254C90.4211 112.538 90.3386 112.823 90.2377 113.117C90.146 113.411 90.036 113.705 89.9351 114C89.8343 114.284 89.7425 114.578 89.6417 114.863C89.5408 115.157 89.4216 115.461 89.3116 115.755C89.2015 116.049 89.0915 116.343 88.9814 116.637C88.8714 116.931 88.743 117.234 88.6238 117.528C88.5046 117.831 88.3854 118.135 88.257 118.438C88.1378 118.732 88.0094 119.035 87.881 119.329C87.8168 119.485 87.7527 119.642 87.6793 119.789C83.8372 116.894 80.426 114.34 74.1905 110.416C76.5196 105.987 78.5187 101.916 80.1234 98.2956L80.1326 98.3048ZM33.779 177.431C33.1096 177.229 32.3943 176.999 31.6883 176.76C31.7433 176.76 31.7891 176.778 31.8441 176.778C32.0184 176.806 32.1926 176.824 32.3576 176.852C32.4768 176.87 32.6052 176.889 32.7245 176.907C32.9537 176.944 33.1829 176.981 33.403 177.008C33.5406 177.155 33.6689 177.293 33.779 177.431ZM52.6963 84.4846C52.3754 84.7603 52.0545 85.0451 51.7335 85.3392C51.5593 85.4954 51.3851 85.67 51.2108 85.8354C50.9632 86.0651 50.7157 86.2948 50.4681 86.5429C50.2663 86.7359 50.0646 86.9473 49.8629 87.1494C49.6428 87.37 49.4227 87.5813 49.2026 87.811C48.9917 88.0316 48.79 88.2521 48.5791 88.4726C48.3682 88.6931 48.1573 88.9137 47.9556 89.1434C47.7446 89.3731 47.5337 89.612 47.332 89.8509C47.1303 90.0807 46.9194 90.3104 46.7176 90.5493C46.5067 90.7882 46.305 91.0455 46.0941 91.2844C45.8924 91.5234 45.6906 91.7623 45.4889 92.0104C45.2871 92.2585 45.0854 92.525 44.8745 92.7731C44.6728 93.0303 44.471 93.2784 44.2693 93.5357C44.0675 93.8022 43.8658 94.0687 43.6641 94.3352C43.5357 94.5006 43.4165 94.6568 43.2881 94.8222C38.7674 93.1038 34.5492 91.7898 30.7621 90.9077C34.0999 86.9381 37.7862 83.63 41.7201 81.0755C45.0304 81.829 48.7258 82.9684 52.6963 84.4662V84.4846ZM25.517 173.415C24.8476 172.846 24.1965 172.257 23.5638 171.66C23.7472 171.679 23.9397 171.715 24.1506 171.761C24.5908 172.331 25.0493 172.882 25.517 173.415ZM22.7018 170.842C18.823 167.02 15.5127 162.563 12.8534 157.601C12.9543 157.601 13.0459 157.601 13.156 157.601C14.238 157.601 15.5218 157.766 16.9615 158.079C17.1632 158.676 17.3741 159.264 17.5942 159.843C17.6859 160.073 17.7776 160.293 17.8693 160.523C18.0252 160.909 18.1719 161.304 18.337 161.69C18.447 161.957 18.5754 162.223 18.6946 162.49C18.8413 162.82 18.988 163.16 19.1347 163.482C19.2631 163.758 19.4007 164.033 19.5382 164.3C19.6849 164.603 19.8316 164.916 19.9875 165.21C20.1342 165.485 20.2809 165.752 20.4277 166.018C20.5835 166.303 20.7395 166.597 20.9045 166.882C21.0604 167.148 21.2163 167.406 21.3722 167.663C21.5372 167.939 21.7023 168.224 21.8765 168.49C22.0324 168.747 22.2067 168.986 22.3717 169.234C22.5459 169.501 22.7293 169.776 22.9127 170.043C23.0778 170.282 23.252 170.512 23.4262 170.75C23.4629 170.796 23.4904 170.842 23.5271 170.888C23.2703 170.852 23.0044 170.824 22.7201 170.833L22.7018 170.842ZM12.9726 156.719C12.7709 156.719 12.5783 156.719 12.3949 156.728C9.87322 151.812 8.03005 146.51 6.9205 140.969C7.18642 140.96 7.46154 140.951 7.74581 140.951C9.47891 140.951 11.5329 141.217 13.8345 141.713C13.8712 142.366 13.9263 143.018 13.9813 143.661C14.0088 143.919 14.0363 144.176 14.0638 144.433C14.1096 144.874 14.1555 145.325 14.2014 145.766C14.238 146.069 14.2839 146.372 14.3297 146.685C14.3848 147.071 14.4306 147.466 14.4948 147.842C14.5406 148.164 14.6048 148.476 14.6507 148.789C14.7149 149.156 14.7699 149.524 14.8433 149.882C14.9074 150.204 14.9717 150.516 15.0358 150.838C15.1092 151.196 15.1734 151.546 15.2559 151.904C15.3293 152.216 15.4026 152.529 15.476 152.841C15.5585 153.19 15.641 153.54 15.7327 153.889C15.8152 154.192 15.8978 154.495 15.9803 154.798C16.072 155.148 16.1637 155.497 16.2646 155.837C16.3471 156.131 16.448 156.425 16.5397 156.719C16.5855 156.866 16.6314 157.013 16.6772 157.151C15.2926 156.866 14.0546 156.71 12.9909 156.71L12.9726 156.719ZM6.74627 140.059C5.71008 134.491 5.44415 128.821 5.93932 123.207C6.32445 123.188 6.71874 123.179 7.13139 123.179C9.33215 123.188 11.9364 123.519 14.8524 124.153C14.7424 124.806 14.6323 125.449 14.5315 126.101C14.4948 126.34 14.4673 126.579 14.4306 126.809C14.3664 127.296 14.2931 127.783 14.2289 128.279C14.1922 128.61 14.1555 128.932 14.128 129.262C14.0821 129.667 14.0363 130.062 13.9996 130.466C13.963 130.815 13.9446 131.174 13.9171 131.523C13.8896 131.9 13.8529 132.267 13.8345 132.644C13.8162 133.002 13.7979 133.361 13.7795 133.728C13.7612 134.096 13.7428 134.463 13.7245 134.831C13.7153 135.189 13.7062 135.548 13.7062 135.906C13.7062 136.274 13.6878 136.641 13.6878 137.009C13.6878 137.358 13.6879 137.716 13.697 138.065C13.697 138.433 13.697 138.81 13.7154 139.177C13.7154 139.526 13.7429 139.876 13.752 140.216C13.752 140.418 13.7612 140.611 13.7704 140.813C11.4504 140.363 9.24045 139.949 6.72791 140.069L6.74627 140.059ZM7.1864 122.26C6.7921 122.26 6.39784 122.26 6.03105 122.288C6.62709 116.545 8.02087 110.986 10.1758 105.766C10.6251 105.739 11.0928 105.729 11.588 105.729C14.018 105.739 16.8881 106.106 20.1159 106.795C19.8592 107.383 19.6024 107.972 19.364 108.569C19.2448 108.863 19.1347 109.157 19.0247 109.442C18.8688 109.846 18.7037 110.241 18.557 110.646C18.4287 110.986 18.3094 111.335 18.1902 111.675C18.0618 112.033 17.9243 112.391 17.8051 112.759C17.6859 113.117 17.5667 113.485 17.4475 113.843C17.3374 114.192 17.2182 114.542 17.1082 114.891C16.9981 115.258 16.8881 115.635 16.7781 116.012C16.6772 116.361 16.5672 116.71 16.4755 117.059C16.3746 117.436 16.2738 117.813 16.1821 118.199C16.0904 118.548 15.9986 118.897 15.9161 119.246C15.8244 119.623 15.7419 120.009 15.6502 120.395C15.5677 120.753 15.4851 121.103 15.4118 121.461C15.3293 121.847 15.2559 122.233 15.1825 122.619C15.1367 122.83 15.1 123.041 15.0541 123.244C12.0923 122.6 9.45138 122.27 7.21394 122.26H7.1864ZM11.753 104.82C11.3404 104.82 10.9369 104.82 10.5518 104.847C11.3862 102.927 12.3307 101.034 13.3577 99.2329C15.155 96.0811 17.2458 93.1406 19.5566 90.4942C20.0151 90.4666 20.4919 90.4574 20.9962 90.4574C23.3712 90.4666 26.1772 90.8158 29.3132 91.4958C27.195 94.1146 25.2327 97 23.4629 100.097C23.1786 100.602 22.8944 101.107 22.6193 101.622C22.5367 101.778 22.4542 101.934 22.3808 102.081C22.1883 102.44 21.9957 102.807 21.8123 103.175C21.7206 103.368 21.6198 103.552 21.5281 103.745C21.363 104.075 21.198 104.406 21.0329 104.746C20.932 104.958 20.8311 105.178 20.7303 105.389C20.6478 105.573 20.5561 105.757 20.4736 105.932C17.1724 105.215 14.2289 104.838 11.7347 104.829L11.753 104.82ZM73.4477 83.0787C76.7122 84.7327 79.9399 86.5521 83.0669 88.4818C82.9935 88.7299 82.911 88.9872 82.8285 89.2445C82.801 89.3364 82.7643 89.4374 82.7276 89.5385C82.6542 89.7682 82.5717 90.0072 82.4892 90.2461C82.4434 90.3839 82.3883 90.5309 82.3333 90.6688C82.2599 90.8801 82.1866 91.0915 82.104 91.3028C82.0398 91.4682 81.9757 91.6428 81.9115 91.8082C81.8382 92.0104 81.7556 92.2125 81.6823 92.4239C81.6089 92.6076 81.5355 92.8006 81.4621 92.9844C81.3796 93.1865 81.2971 93.3887 81.2146 93.6001C81.1321 93.793 81.0495 93.9952 80.967 94.1973C80.8753 94.4087 80.7928 94.62 80.7011 94.8406C80.6186 95.0335 80.5268 95.2449 80.4443 95.4378C80.3434 95.6676 80.2426 95.8973 80.1417 96.1362C80.0592 96.3292 79.9675 96.5313 79.885 96.7335C79.8299 96.8529 79.7749 96.9724 79.7291 97.0918C75.6577 94.5649 71.4487 92.1941 67.203 90.0439C69.5138 87.0759 71.6229 84.7327 73.4569 83.0603L73.4477 83.0787ZM83.7363 88.9137C86.854 90.8709 89.7976 92.9201 92.4935 94.9876L92.6861 95.1346C92.7319 95.5113 92.7777 95.8881 92.8144 96.274C92.8236 96.4027 92.8328 96.5405 92.8419 96.6692C92.8603 96.9632 92.8878 97.2573 92.897 97.5605C92.897 97.7351 92.897 97.9097 92.897 98.0843C92.897 98.3507 92.9061 98.6172 92.897 98.8929C92.897 99.0859 92.8878 99.288 92.8786 99.4902C92.8786 99.7475 92.8695 100.005 92.8511 100.271C92.842 100.483 92.8236 100.703 92.8053 100.924C92.7869 101.181 92.7686 101.438 92.7503 101.705C92.7319 101.925 92.7044 102.164 92.6769 102.385C92.6494 102.651 92.6218 102.908 92.5852 103.175C92.5577 103.405 92.521 103.644 92.4843 103.882C92.4476 104.158 92.4018 104.425 92.3559 104.7C92.3192 104.93 92.2734 105.169 92.2276 105.408C92.2092 105.509 92.1909 105.601 92.1726 105.702L92.1358 105.674C88.5413 102.908 84.6166 100.189 80.4535 97.5789C81.9482 94.1698 83.0486 91.2661 83.7363 88.9137ZM93.4471 95.7319C96.0422 97.781 98.298 99.7934 100.169 101.705C100.334 102.192 100.48 102.688 100.627 103.184C100.682 103.368 100.719 103.561 100.774 103.745C100.866 104.075 100.948 104.415 101.031 104.755C101.086 104.985 101.122 105.215 101.168 105.445C101.232 105.748 101.297 106.051 101.352 106.363C101.397 106.612 101.425 106.86 101.471 107.108C101.517 107.402 101.562 107.705 101.608 108.008C101.645 108.266 101.663 108.523 101.691 108.789C101.718 109.093 101.755 109.387 101.783 109.69C101.801 109.956 101.819 110.214 101.828 110.48C101.847 110.783 101.865 111.087 101.883 111.399C101.893 111.666 101.893 111.932 101.902 112.198C101.902 112.511 101.911 112.823 101.911 113.145C101.911 113.411 101.902 113.678 101.893 113.944C101.893 114.018 101.893 114.082 101.893 114.156C99.3892 111.62 96.3723 108.964 92.9061 106.253C93.6489 102.348 93.8231 98.8194 93.4563 95.7227L93.4471 95.7319ZM105.166 138.819C104.057 142.136 102.589 145.417 100.792 148.578C99.756 150.397 98.6006 152.17 97.3718 153.88C95.9505 151.481 93.8598 148.835 91.1547 146.005C92.4109 144.204 93.5847 142.338 94.6576 140.464C96.4182 137.367 97.9129 134.215 99.105 131.063C101.764 133.866 103.809 136.476 105.175 138.828L105.166 138.819ZM52.1186 179.158C51.5043 178.12 50.624 176.981 49.4961 175.777C54.3286 174.582 59.2069 172.699 63.9844 170.162C65.8734 172.147 67.3223 173.976 68.3034 175.639C63.0124 177.569 57.5747 178.754 52.1186 179.158ZM62.4806 78.2361C62.288 78.3096 62.0955 78.3831 61.9029 78.4658C61.7654 78.521 61.637 78.5853 61.4994 78.6496C61.2427 78.7691 60.9859 78.8793 60.72 79.008C60.5549 79.0907 60.399 79.1734 60.234 79.2561C59.9956 79.3755 59.7663 79.495 59.5279 79.6237C59.3537 79.7156 59.1794 79.8166 59.0144 79.9177C58.7851 80.0463 58.5651 80.1842 58.3358 80.322C58.1616 80.4323 57.9782 80.5426 57.804 80.6528C57.5747 80.7907 57.3546 80.9377 57.1254 81.0939C56.9512 81.2133 56.7678 81.3328 56.5935 81.4523C56.3643 81.6085 56.135 81.7739 55.9058 81.9393C55.7316 82.0679 55.5574 82.1874 55.3832 82.316C55.1447 82.4906 54.9063 82.6744 54.6679 82.8674C54.5028 82.996 54.3378 83.1246 54.1727 83.2533C54.1361 83.2808 54.0994 83.3084 54.0627 83.336C53.8335 83.5198 53.595 83.7127 53.3658 83.9057C49.4869 82.4355 45.8648 81.296 42.6095 80.5242C46.4333 78.1718 50.4039 76.5637 54.4203 75.7551C56.8595 76.3064 59.5738 77.1426 62.4806 78.2269V78.2361ZM34.3384 178.341C33.7607 178.12 33.1829 177.881 32.6052 177.642C33.1463 177.808 33.6873 177.964 34.2283 178.102C34.2742 178.184 34.3108 178.267 34.3292 178.341H34.3384ZM24.1231 172.864C23.5913 172.487 23.0686 172.092 22.5551 171.697C22.6284 171.669 22.711 171.66 22.8027 171.642C23.2337 172.055 23.6738 172.46 24.1231 172.855V172.864ZM107.624 121.139C106.404 119.2 104.699 117.087 102.544 114.845C102.709 110.517 102.214 106.437 101.076 102.679C102.608 104.351 103.791 105.904 104.598 107.31C106.358 111.684 107.367 116.334 107.615 121.139H107.624ZM105.496 137.79C104.093 135.456 102.058 132.892 99.4351 130.154C101.187 125.311 102.204 120.505 102.489 115.865C104.772 118.291 106.514 120.533 107.688 122.554C107.798 127.627 107.055 132.745 105.496 137.79ZM85.7995 173.075C81.1779 176.098 76.107 178.414 70.7151 179.958C70.7426 178.8 70.33 177.431 69.4955 175.878C74.7682 173.875 79.7474 171.182 84.3048 167.865C85.4052 169.887 85.9096 171.642 85.7995 173.075ZM69.8073 180.215C64.3788 181.676 58.7668 182.329 53.1274 182.154C53.1274 181.456 52.8981 180.638 52.4304 179.728C57.8865 179.315 63.3334 178.129 68.6244 176.209C69.468 177.762 69.8715 179.112 69.8073 180.224V180.215ZM52.2012 182.108C46.415 181.832 40.7389 180.693 35.3104 178.708C35.3104 178.598 35.2737 178.478 35.237 178.359C40.4455 179.636 45.9015 180.114 51.4768 179.783C51.9628 180.675 52.2104 181.465 52.2012 182.108ZM4.75643 106.428C5.49919 104.728 6.33361 103.055 7.2506 101.447C8.91951 98.5253 10.8727 95.7778 13.0551 93.2601L13.5778 92.6628C13.5778 92.6628 13.6145 92.626 13.6237 92.6076C14.6415 91.4958 16.3288 90.825 18.6396 90.5677C16.4388 93.1314 14.4398 95.9616 12.7158 98.994C12.4316 99.4994 12.1473 100.005 11.8814 100.519C11.7989 100.676 11.7163 100.841 11.6338 100.997C11.4504 101.356 11.267 101.714 11.0836 102.072C10.9919 102.265 10.9002 102.458 10.8085 102.642C10.6526 102.973 10.4876 103.313 10.3317 103.653C10.24 103.864 10.1483 104.075 10.0566 104.287C9.96487 104.489 9.87319 104.691 9.79066 104.893C7.63575 105.077 5.93934 105.582 4.75643 106.428ZM84.5341 83.8322C86.2122 84.9073 87.8077 86.0192 89.2749 87.1402L89.3849 87.2229C89.5408 87.3975 89.6875 87.5721 89.8342 87.7467C89.9076 87.8386 89.9718 87.9305 90.0452 88.0224C90.1644 88.1786 90.2744 88.344 90.3844 88.5094C90.4486 88.6104 90.5128 88.7115 90.577 88.8126C90.687 88.9872 90.7971 89.171 90.8979 89.3639C90.953 89.4558 91.008 89.5477 91.0538 89.6488C91.1914 89.9061 91.3106 90.1726 91.4298 90.4482C91.439 90.4758 91.4573 90.5034 91.4665 90.5401C91.5948 90.8433 91.7141 91.165 91.8333 91.4866C91.87 91.5877 91.8975 91.6979 91.9341 91.8082C92.0075 92.0379 92.0808 92.2676 92.145 92.4974C92.1817 92.626 92.2184 92.7639 92.2459 92.8925C92.3009 93.113 92.356 93.3428 92.4018 93.5817C92.4293 93.7195 92.4568 93.8573 92.4843 93.9952C92.4935 94.0595 92.5027 94.133 92.521 94.1973C89.8709 92.1666 86.9733 90.1634 83.9197 88.2521C84.4424 86.3224 84.6441 84.843 84.5249 83.8506L84.5341 83.8322ZM102.736 155.148C101.773 156.838 100.701 158.492 99.5543 160.064C99.5084 158.474 98.9032 156.618 97.7478 154.532C99.0407 152.759 100.242 150.902 101.324 149.009C103.057 145.968 104.497 142.798 105.588 139.591C106.734 141.759 107.248 143.643 107.092 145.178C106.01 148.614 104.543 151.968 102.727 155.148H102.736ZM53.6959 74.5238C54.0627 74.5238 54.4111 74.5054 54.7321 74.4962C56.4927 74.5513 57.5747 74.5881 58.5192 74.6524C58.5651 74.6524 58.6201 74.6524 58.6659 74.6616C58.6017 74.6616 58.5284 74.6708 58.4642 74.68C57.9324 74.7076 57.4005 74.7535 56.8595 74.8178C56.6669 74.8362 56.4835 74.8638 56.291 74.8913C55.8233 74.9557 55.3648 75.02 54.8971 75.1027C54.7779 75.1211 54.6679 75.1303 54.5487 75.1578C53.4575 74.9189 52.4305 74.7351 51.4676 74.6157C51.9628 74.5881 52.4671 74.5697 52.9715 74.5513C53.2191 74.5513 53.4575 74.5422 53.6959 74.533V74.5238ZM66.2127 75.7643L67.8908 76.1594C68.7619 76.3891 69.4038 76.5821 70.0182 76.7751C69.8806 76.7751 69.734 76.7751 69.5872 76.7751C69.3855 76.7751 69.1746 76.7751 68.9728 76.7751C68.7711 76.7751 68.5694 76.7935 68.3676 76.8026C68.1384 76.821 67.9183 76.8394 67.6891 76.867C67.4965 76.8854 67.3039 76.9129 67.1114 76.9405C66.8638 76.9772 66.607 77.0232 66.3594 77.0691C66.176 77.1059 66.0018 77.1335 65.8184 77.1794C65.5433 77.2437 65.259 77.3172 64.9748 77.3907C64.8464 77.4275 64.7272 77.4459 64.5988 77.4826C64.5622 77.4918 64.5163 77.5102 64.4796 77.5194C64.3054 77.5745 64.122 77.6388 63.9386 77.694C63.7644 77.7491 63.5901 77.8042 63.4159 77.8594C60.7566 76.8486 58.2625 76.0491 55.9792 75.4702C59.4637 74.9465 62.9024 75.0384 66.2219 75.7459L66.2127 75.7643ZM98.7565 97.0183C99.325 97.7994 99.7927 98.4518 100.288 99.2053C100.838 100.051 101.397 100.979 102.25 102.385C102.415 102.679 102.58 102.982 102.745 103.285C102.929 103.625 103.103 103.965 103.268 104.305C102.525 103.34 101.654 102.339 100.645 101.291C100.123 99.7934 99.4901 98.3691 98.7565 97.0183Z" fill="#121212"/>
<path d="M136.651 159.982C180.332 159.982 215.741 124.498 215.741 80.7271C215.741 36.956 180.332 1.47241 136.651 1.47241C92.9713 1.47241 57.5615 36.956 57.5615 80.7271C57.5615 124.498 92.9713 159.982 136.651 159.982Z" fill="#121212" stroke="#DBF900" stroke-width="1.86" stroke-miterlimit="10"/>
<path d="M188.25 78.0991C186.783 77.0607 186.196 76.7667 184.94 76.4083C178.182 133.15 118.523 139.095 94.2592 107.577C83.5029 93.6008 81.0363 77.0056 86.9417 58.2785C85.2727 57.8834 84.3741 58.0396 82.7786 58.3704C83.017 54.7132 88.1154 52.8294 90.8113 55.4023C91.1139 55.6872 93.6815 58.3244 92.0034 62.7168C91.0039 61.219 90.7838 60.9157 89.8485 59.9601C75.3968 99.6196 115.148 136.807 153.331 119.348C170.589 111.455 180.116 97.0375 181.648 76.4818C180.731 76.7758 179.933 77.0239 177.705 78.6044C177.732 75.0299 179.942 72.1814 182.959 71.8322C186.031 71.8598 188.204 74.4327 188.241 78.0899" fill="#CCCCCC"/>
<path d="M121.017 50.0727C118.394 59.1974 113.443 63.9389 111.031 59.6384C107.5 53.3624 114.671 34.9294 120.503 35.2969C123.768 36.4823 122.264 45.7631 121.017 50.0727Z" fill="#CCCCCC"/>
<path d="M164.839 58.6736C163.07 67.6512 158.081 71.7127 155.514 68.322C150.993 62.3492 157.183 42.8318 161.685 42.8594C161.823 42.8594 162.006 42.9054 162.144 42.9237C165.289 44.3113 166.087 52.3424 164.839 58.6736Z" fill="#CCCCCC"/>
</svg>
