<svg xmlns="http://www.w3.org/2000/svg" width="0" heigth="0">
    <symbol id="linkedin" viewBox="0 0 26 26" fill="none">
        <path
            d="M1.00002 25.8001H5.80002V8.04007H1.00002V25.8001ZM3.40002 0.200073C1.80002 0.200073 0.52002 1.48007 0.52002 3.08007C0.52002 4.68007 1.80002 5.96007 3.40002 5.96007C5.00002 5.96007 6.28002 4.68007 6.28002 3.08007C6.28002 1.48007 5.00002 0.200073 3.40002 0.200073ZM13.96 10.7601V8.04007H9.16002V25.8001H13.96V16.6801C13.96 11.5601 20.52 11.2401 20.52 16.6801V25.8001H25.32V14.9201C25.32 6.28007 16.2 6.60007 13.96 10.7601Z"
            fill="currentColor" />
    </symbol>
    <symbol id="chevron-right" viewBox="0 0 32 32" fill="none">
        <path d="M6.66699 16H25.3337M25.3337 16L16.0003 6.66669M25.3337 16L16.0003 25.3334"
            stroke="currentColor" stroke-width="2" stroke-linecap="round" stroke-linejoin="round" />
    </symbol>
    <symbol id="hamburger" viewBox="0 0 32 33" fill="none">
        <path d="M5.33366 24.5L18.667 24.5" stroke="currentColor" stroke-width="2"
            stroke-linecap="round"
            stroke-linejoin="round" />
        <path d="M5.33366 16.5L26.667 16.5" stroke="currentColor" stroke-width="2"
            stroke-linecap="round"
            stroke-linejoin="round" />
        <path d="M5.33301 8.5L13.333 8.5" stroke="currentColor" stroke-width="2"
            stroke-linecap="round"
            stroke-linejoin="round" />
    </symbol>

    <symbol id="close" viewBox="0 0 32 32" fill="none">
        <path d="M23.542 23.5425L8.45703 8.45753" stroke="currentColor" stroke-width="2"
            stroke-linecap="round" stroke-linejoin="round" />
        <path d="M8.45705 23.5425L23.542 8.45752" stroke="currentColor" stroke-width="2"
            stroke-linecap="round" stroke-linejoin="round" />
    </symbol>
    <symbol id="indicator" viewBox="0 0 59 190" fill="none">
        <path d="M22 40H43" stroke="currentColor" stroke-width="2" />
    </symbol>

    <symbol id="ios" viewBox="0 0 24 24" fill="none">
        <path opacity="0.7"
            d="M22.5 12C22.5 17.796 17.8012 22.5 12 22.5C6.19875 22.5 1.5 17.796 1.5 12C1.5 6.19875 6.19875 1.5 12 1.5C17.8012 1.5 22.5 6.19875 22.5 12Z"
            fill="url(#paint0_linear_1212_413)" />
        <path
            d="M5.31448 15.6295H6.4613V10.3082H5.31448V15.6295ZM5.88559 9.61044C6.24022 9.61044 6.52578 9.30924 6.52578 8.93273C6.52578 8.54618 6.24022 8.25 5.88559 8.25C5.53555 8.25 5.25 8.54618 5.25 8.93273C5.25 9.30924 5.53555 9.61044 5.88559 9.61044Z"
            fill="#0D0F13" />
        <path
            d="M10.4682 8.26506C8.52925 8.26506 7.31335 9.70582 7.31335 12.01C7.31335 14.3143 8.52925 15.75 10.4682 15.75C12.4026 15.75 13.6185 14.3143 13.6185 12.01C13.6185 9.70582 12.4026 8.26506 10.4682 8.26506ZM10.4682 9.36948C11.6519 9.36948 12.4072 10.3936 12.4072 12.01C12.4072 13.6215 11.6519 14.6456 10.4682 14.6456C9.27998 14.6456 8.52925 13.6215 8.52925 12.01C8.52925 10.3936 9.27998 9.36948 10.4682 9.36948Z"
            fill="#0D0F13" />
        <path
            d="M14.2956 13.5914C14.3462 14.9267 15.3503 15.75 16.8794 15.75C18.4867 15.75 19.5 14.8865 19.5 13.511C19.5 12.4317 18.9289 11.8243 17.5794 11.488L16.8149 11.2972C15.9997 11.0863 15.6635 10.8052 15.6635 10.3233C15.6635 9.72088 16.1701 9.31928 16.9208 9.31928C17.6808 9.31928 18.2012 9.7259 18.2565 10.4036H19.3895C19.3618 9.12851 18.3946 8.26506 16.93 8.26506C15.4838 8.26506 14.4568 9.13353 14.4568 10.4187C14.4568 11.4528 15.0371 12.0954 16.2622 12.4016L17.1235 12.6225C17.9617 12.8384 18.3025 13.1396 18.3025 13.6616C18.3025 14.2641 17.7452 14.6958 16.9438 14.6958C16.1332 14.6958 15.5207 14.259 15.447 13.5914H14.2956Z"
            fill="#0D0F13" />
        <defs>
            <linearGradient id="paint0_linear_1212_413" x1="12" y1="28" x2="-9.5" y2="2"
                gradientUnits="userSpaceOnUse">
                <stop stop-color="white" />
                <stop offset="1" stop-color="white" stop-opacity="0.05" />
            </linearGradient>
        </defs>
    </symbol>

    <svg id="chrome" viewBox="0 0 24 24" fill="none">
        <path opacity="0.3"
            d="M12.0006 1.50284C12.0006 1.50284 18.1897 1.22609 21.4711 7.42489H11.474C11.474 7.42489 9.58734 7.3643 7.97572 9.64493C7.51277 10.6022 7.01514 11.5882 7.57358 13.5315C6.76912 12.1735 3.30273 6.15923 3.30273 6.15923C3.30273 6.15923 5.74773 1.7479 12.0005 1.50284H12.0006Z"
            fill="white" />
        <path opacity="0.7"
            d="M21.1498 17.2392C21.1498 17.2392 18.2939 22.7201 11.2686 22.4491C12.1366 20.9527 16.2685 13.8227 16.2685 13.8227C16.2685 13.8227 17.2667 12.2254 16.0891 9.69398C15.4901 8.81461 14.8795 7.89488 12.912 7.40468C14.4948 7.39036 21.4537 7.40468 21.4537 7.40468C21.4537 7.40468 24.0606 11.7209 21.1498 17.2392Z"
            fill="white" />
        <path opacity="0.5"
            d="M2.89473 17.2825C2.89473 17.2825 -0.4415 12.0783 3.30846 6.15051C4.17364 7.64691 8.30553 14.777 8.30553 14.777C8.30553 14.777 9.19675 16.4377 11.9832 16.6856C13.0452 16.6078 14.1504 16.5415 15.5625 15.0913C14.7841 16.4637 11.2915 22.4607 11.2915 22.4607C11.2915 22.4607 6.23375 22.553 2.89464 17.2825H2.89473Z"
            fill="white" />
        <path opacity="0.4"
            d="M11.2656 22.501L12.6718 16.6539C12.6718 16.6539 14.217 16.5328 15.5134 15.1172C14.7089 16.5271 11.2656 22.501 11.2656 22.501Z"
            fill="#0D0F13" />
        <path opacity="0.1"
            d="M7.29004 12.0667C7.29004 9.48924 9.38787 7.39893 11.9746 7.39893C14.5614 7.39893 16.6592 9.48924 16.6592 12.0667C16.6592 14.6443 14.5614 16.7345 11.9746 16.7345C9.38787 16.7317 7.29004 14.6443 7.29004 12.0667Z"
            fill="white" />
        <path
            d="M8.07422 12.0668C8.07422 9.92177 9.81905 8.1803 11.9747 8.1803C14.1275 8.1803 15.8752 9.9189 15.8752 12.0668C15.8752 14.2119 14.1304 15.9534 11.9747 15.9534C9.82193 15.9534 8.07422 14.2119 8.07422 12.0668Z"
            fill="#56575A" />
        <path opacity="0.4"
            d="M21.4507 7.40754L15.6608 9.09998C15.6608 9.09998 14.787 7.82267 12.9092 7.40754C14.5382 7.39886 21.4507 7.40754 21.4507 7.40754Z"
            fill="#0D0F13" />
        <path opacity="0.4"
            d="M7.46075 13.3182C6.64759 11.914 3.30273 6.15918 3.30273 6.15918L7.59091 10.3859C7.59091 10.3859 7.15105 11.2884 7.31605 12.58L7.46067 13.3182H7.46075Z"
            fill="#0D0F13" />
    </svg>


    <svg id="andriod" viewBox="0 0 24 24" fill="none">
        <g opacity="0.7">
            <path fill-rule="evenodd" clip-rule="evenodd"
                d="M9.44366 2.91333C10.2001 2.4908 11.072 2.25 12 2.25C12.928 2.25 13.7999 2.4908 14.5563 2.91333L15.1098 2.35984C15.2563 2.21339 15.4937 2.21339 15.6402 2.35984C15.7866 2.50628 15.7866 2.74372 15.6402 2.89016L15.1959 3.33446C16.4449 4.29419 17.25 5.80307 17.25 7.5H6.75C6.75 5.80307 7.55509 4.29419 8.80413 3.33446L8.35983 2.89016C8.21339 2.74372 8.21339 2.50628 8.35983 2.35984C8.50628 2.21339 8.74372 2.21339 8.89017 2.35984L9.44366 2.91333ZM10.5 5.25C10.5 5.66421 10.1642 6 9.75 6C9.33579 6 9 5.66421 9 5.25C9 4.83579 9.33579 4.5 9.75 4.5C10.1642 4.5 10.5 4.83579 10.5 5.25ZM14.25 6C14.6642 6 15 5.66421 15 5.25C15 4.83579 14.6642 4.5 14.25 4.5C13.8358 4.5 13.5 4.83579 13.5 5.25C13.5 5.66421 13.8358 6 14.25 6Z"
                fill="url(#paint0_linear_1212_415)" />
            <path
                d="M3.75 9.375C3.75 8.75368 4.25368 8.25 4.875 8.25C5.49632 8.25 6 8.75368 6 9.375V13.875C6 14.4963 5.49632 15 4.875 15C4.25368 15 3.75 14.4963 3.75 13.875V9.375Z"
                fill="url(#paint1_linear_1212_415)" />
            <path
                d="M9 18V20.625C9 21.2463 9.50368 21.75 10.125 21.75C10.7463 21.75 11.25 21.2463 11.25 20.625V18H12.75V20.625C12.75 21.2463 13.2537 21.75 13.875 21.75C14.4963 21.75 15 21.2463 15 20.625V18H15.75C16.5784 18 17.25 17.3284 17.25 16.5V8.25H6.75V16.5C6.75 17.3284 7.42157 18 8.25 18H9Z"
                fill="url(#paint2_linear_1212_415)" />
            <path
                d="M18 9.375C18 8.75368 18.5037 8.25 19.125 8.25C19.7463 8.25 20.25 8.75368 20.25 9.375V13.875C20.25 14.4963 19.7463 15 19.125 15C18.5037 15 18 14.4963 18 13.875V9.375Z"
                fill="url(#paint3_linear_1212_415)" />
        </g>
        <defs>
            <linearGradient id="paint0_linear_1212_415" x1="12" y1="26.8572" x2="-8.32053"
                y2="6.06406" gradientUnits="userSpaceOnUse">
                <stop stop-color="white" />
                <stop offset="1" stop-color="white" stop-opacity="0.05" />
            </linearGradient>
            <linearGradient id="paint1_linear_1212_415" x1="12" y1="26.8572" x2="-8.32053"
                y2="6.06406" gradientUnits="userSpaceOnUse">
                <stop stop-color="white" />
                <stop offset="1" stop-color="white" stop-opacity="0.05" />
            </linearGradient>
            <linearGradient id="paint2_linear_1212_415" x1="12" y1="26.8572" x2="-8.32053"
                y2="6.06406" gradientUnits="userSpaceOnUse">
                <stop stop-color="white" />
                <stop offset="1" stop-color="white" stop-opacity="0.05" />
            </linearGradient>
            <linearGradient id="paint3_linear_1212_415" x1="12" y1="26.8572" x2="-8.32053"
                y2="6.06406" gradientUnits="userSpaceOnUse">
                <stop stop-color="white" />
                <stop offset="1" stop-color="white" stop-opacity="0.05" />
            </linearGradient>
        </defs>
    </svg>

    <svg id="redirect" viewBox="0 0 48 48" fill="none">
        <path d="M14 34L34 14M34 14H14M34 14V34" stroke="currentColor" stroke-width="4" stroke-linecap="round" stroke-linejoin="round" />
    </svg>

    <svg id="arrow" viewBox="0 0 16 16" fill="none">
        <path d="M1 8L15 8M15 8L8 1M15 8L8 15" stroke="currentColor" stroke-width="2" stroke-linecap="round" stroke-linejoin="round"/>
    </svg>

</svg>