<svg width="24" height="24" viewBox="0 0 24 24" fill="none" xmlns="http://www.w3.org/2000/svg">
<path opacity="0.7" d="M22.5 12C22.5 17.796 17.8012 22.5 12 22.5C6.19875 22.5 1.5 17.796 1.5 12C1.5 6.19875 6.19875 1.5 12 1.5C17.8012 1.5 22.5 6.19875 22.5 12Z" fill="url(#paint0_linear_2210_10415)"/>
<path d="M5.31448 15.6295H6.4613V10.3082H5.31448V15.6295ZM5.88559 9.61044C6.24022 9.61044 6.52578 9.30924 6.52578 8.93273C6.52578 8.54618 6.24022 8.25 5.88559 8.25C5.53555 8.25 5.25 8.54618 5.25 8.93273C5.25 9.30924 5.53555 9.61044 5.88559 9.61044Z" fill="#0D0F13"/>
<path d="M10.4682 8.26506C8.52925 8.26506 7.31335 9.70582 7.31335 12.01C7.31335 14.3143 8.52925 15.75 10.4682 15.75C12.4026 15.75 13.6185 14.3143 13.6185 12.01C13.6185 9.70582 12.4026 8.26506 10.4682 8.26506ZM10.4682 9.36948C11.6519 9.36948 12.4072 10.3936 12.4072 12.01C12.4072 13.6215 11.6519 14.6456 10.4682 14.6456C9.27998 14.6456 8.52925 13.6215 8.52925 12.01C8.52925 10.3936 9.27998 9.36948 10.4682 9.36948Z" fill="#0D0F13"/>
<path d="M14.2956 13.5914C14.3462 14.9267 15.3503 15.75 16.8794 15.75C18.4867 15.75 19.5 14.8865 19.5 13.511C19.5 12.4317 18.9289 11.8243 17.5794 11.488L16.8149 11.2972C15.9997 11.0863 15.6635 10.8052 15.6635 10.3233C15.6635 9.72088 16.1701 9.31928 16.9208 9.31928C17.6808 9.31928 18.2012 9.7259 18.2565 10.4036H19.3895C19.3618 9.12851 18.3946 8.26506 16.93 8.26506C15.4838 8.26506 14.4568 9.13353 14.4568 10.4187C14.4568 11.4528 15.0371 12.0954 16.2622 12.4016L17.1235 12.6225C17.9617 12.8384 18.3025 13.1396 18.3025 13.6616C18.3025 14.2641 17.7452 14.6958 16.9438 14.6958C16.1332 14.6958 15.5207 14.259 15.447 13.5914H14.2956Z" fill="#0D0F13"/>
<defs>
<linearGradient id="paint0_linear_2210_10415" x1="12" y1="28" x2="-9.5" y2="2" gradientUnits="userSpaceOnUse">
<stop stop-color="white"/>
<stop offset="1" stop-color="white" stop-opacity="0.05"/>
</linearGradient>
</defs>
</svg>
