<svg width="260" height="140" viewBox="0 0 260 140" fill="none" xmlns="http://www.w3.org/2000/svg">
<rect x="128" y="46" width="86" height="86" rx="43" fill="#404040"/>
<path d="M175.625 69.4949L171.884 68.1164L170.505 64.3753C170.435 64.1849 170.308 64.0207 170.142 63.9047C169.975 63.7887 169.777 63.7265 169.574 63.7265C169.371 63.7265 169.173 63.7887 169.007 63.9047C168.841 64.0207 168.714 64.1849 168.643 64.3753L167.265 68.1164L163.524 69.4949C163.333 69.5651 163.169 69.692 163.053 69.8584C162.937 70.0248 162.875 70.2228 162.875 70.4257C162.875 70.6286 162.937 70.8266 163.053 70.9931C163.169 71.1595 163.333 71.2864 163.524 71.3566L167.265 72.735L168.643 76.4762C168.714 76.6665 168.841 76.8308 169.007 76.9468C169.173 77.0628 169.371 77.125 169.574 77.125C169.777 77.125 169.975 77.0628 170.142 76.9468C170.308 76.8308 170.435 76.6665 170.505 76.4762L171.884 72.735L175.625 71.3566C175.815 71.2864 175.979 71.1595 176.095 70.9931C176.211 70.8266 176.274 70.6286 176.274 70.4257C176.274 70.2228 176.211 70.0248 176.095 69.8584C175.979 69.692 175.815 69.5651 175.625 69.4949ZM175.329 70.554L171.403 72.0009C171.345 72.0223 171.292 72.056 171.248 72.0999C171.205 72.1437 171.171 72.1965 171.149 72.2546L169.703 76.1804C169.693 76.2066 169.675 76.2292 169.652 76.2451C169.629 76.2611 169.602 76.2696 169.574 76.2696C169.546 76.2696 169.519 76.2611 169.496 76.2451C169.473 76.2292 169.456 76.2066 169.446 76.1804L167.999 72.2546C167.978 72.1965 167.944 72.1437 167.9 72.0999C167.856 72.056 167.804 72.0223 167.745 72.0009L163.82 70.554C163.793 70.5443 163.771 70.5268 163.755 70.5039C163.739 70.4809 163.73 70.4537 163.73 70.4257C163.73 70.3978 163.739 70.3705 163.755 70.3476C163.771 70.3247 163.793 70.3072 163.82 70.2974L167.745 68.8506C167.804 68.8292 167.856 68.7954 167.9 68.7516C167.944 68.7078 167.978 68.655 167.999 68.5968L169.446 64.6711C169.456 64.6449 169.473 64.6223 169.496 64.6063C169.519 64.5904 169.546 64.5818 169.574 64.5818C169.602 64.5818 169.629 64.5904 169.652 64.6063C169.675 64.6223 169.693 64.6449 169.703 64.6711L171.149 68.5968C171.171 68.655 171.205 68.7078 171.248 68.7516C171.292 68.7954 171.345 68.8292 171.403 68.8506L175.329 70.2974C175.355 70.3072 175.378 70.3247 175.394 70.3476C175.41 70.3705 175.418 70.3978 175.418 70.4257C175.418 70.4537 175.41 70.4809 175.394 70.5039C175.378 70.5268 175.355 70.5443 175.329 70.554ZM171.998 63.0132C171.998 62.8998 172.043 62.791 172.123 62.7108C172.203 62.6306 172.312 62.5856 172.425 62.5856H173.708V61.3026C173.708 61.1892 173.753 61.0805 173.833 61.0003C173.914 60.9201 174.022 60.875 174.136 60.875C174.249 60.875 174.358 60.9201 174.438 61.0003C174.518 61.0805 174.563 61.1892 174.563 61.3026V62.5856H175.846C175.96 62.5856 176.069 62.6306 176.149 62.7108C176.229 62.791 176.274 62.8998 176.274 63.0132C176.274 63.1266 176.229 63.2354 176.149 63.3156C176.069 63.3958 175.96 63.4409 175.846 63.4409H174.563V64.7238C174.563 64.8372 174.518 64.946 174.438 65.0262C174.358 65.1064 174.249 65.1514 174.136 65.1514C174.022 65.1514 173.914 65.1064 173.833 65.0262C173.753 64.946 173.708 64.8372 173.708 64.7238V63.4409H172.425C172.312 63.4409 172.203 63.3958 172.123 63.3156C172.043 63.2354 171.998 63.1266 171.998 63.0132ZM179.125 66.4344C179.125 66.5478 179.08 66.6566 179 66.7368C178.92 66.817 178.811 66.862 178.697 66.862H177.985V67.5748C177.985 67.6882 177.94 67.797 177.859 67.8772C177.779 67.9574 177.67 68.0024 177.557 68.0024C177.444 68.0024 177.335 67.9574 177.255 67.8772C177.174 67.797 177.129 67.6882 177.129 67.5748V66.862H176.417C176.303 66.862 176.194 66.817 176.114 66.7368C176.034 66.6566 175.989 66.5478 175.989 66.4344C175.989 66.321 176.034 66.2122 176.114 66.132C176.194 66.0518 176.303 66.0067 176.417 66.0067H177.129V65.294C177.129 65.1806 177.174 65.0718 177.255 64.9916C177.335 64.9114 177.444 64.8663 177.557 64.8663C177.67 64.8663 177.779 64.9114 177.859 64.9916C177.94 65.0718 177.985 65.1806 177.985 65.294V66.0067H178.697C178.811 66.0067 178.92 66.0518 179 66.132C179.08 66.2122 179.125 66.321 179.125 66.4344Z" fill="white"/>
<path d="M168.053 93.1895V91.7246H166.74V90.9043H168.053V89.4629H168.926V90.9043H170.256V91.7246H168.926V93.1895H168.053ZM172.793 96.125V87.4355C172.699 87.5449 172.555 87.6484 172.359 87.7461C172.168 87.8398 171.967 87.916 171.756 87.9746C171.545 88.0293 171.367 88.0566 171.223 88.0566V87.0957C171.43 87.0645 171.662 86.998 171.92 86.8965C172.178 86.791 172.418 86.6484 172.641 86.4688C172.867 86.2891 173.035 86.0703 173.145 85.8125H174V96.125H172.793ZM152.607 114.125V103.812H154.547C155.086 103.812 155.506 103.926 155.807 104.152C156.107 104.375 156.318 104.695 156.439 105.113C156.561 105.531 156.621 106.031 156.621 106.613L156.627 111.143C156.627 111.838 156.557 112.406 156.416 112.848C156.279 113.285 156.055 113.607 155.742 113.814C155.434 114.021 155.021 114.125 154.506 114.125H152.607ZM153.814 113.146H154.436C154.654 113.146 154.836 113.1 154.98 113.006C155.125 112.908 155.232 112.729 155.303 112.467C155.377 112.205 155.414 111.826 155.414 111.33V106.584C155.414 105.936 155.338 105.473 155.186 105.195C155.033 104.914 154.783 104.773 154.436 104.773H153.814V113.146ZM160.014 114.23C159.592 114.23 159.252 114.158 158.994 114.014C158.74 113.865 158.547 113.656 158.414 113.387C158.281 113.117 158.191 112.795 158.145 112.42C158.102 112.041 158.08 111.623 158.08 111.166V108.061C158.08 107.646 158.109 107.268 158.168 106.924C158.227 106.576 158.328 106.277 158.473 106.027C158.617 105.773 158.818 105.578 159.076 105.441C159.334 105.301 159.662 105.23 160.061 105.23C160.463 105.23 160.787 105.301 161.033 105.441C161.279 105.582 161.465 105.781 161.59 106.039C161.719 106.293 161.805 106.598 161.848 106.953C161.891 107.305 161.912 107.691 161.912 108.113V109.771H159.287V111.523C159.287 112.078 159.324 112.502 159.398 112.795C159.477 113.084 159.686 113.229 160.025 113.229C160.248 113.229 160.406 113.16 160.5 113.023C160.598 112.883 160.656 112.688 160.676 112.438C160.699 112.184 160.711 111.885 160.711 111.541V110.832H161.889V111.207C161.889 111.664 161.869 112.078 161.83 112.449C161.795 112.82 161.717 113.139 161.596 113.404C161.475 113.67 161.287 113.875 161.033 114.02C160.783 114.16 160.443 114.23 160.014 114.23ZM159.281 108.957H160.711V107.838C160.711 107.486 160.699 107.191 160.676 106.953C160.652 106.711 160.596 106.529 160.506 106.408C160.416 106.283 160.268 106.221 160.061 106.221C159.83 106.221 159.658 106.291 159.545 106.432C159.436 106.572 159.363 106.768 159.328 107.018C159.297 107.264 159.281 107.551 159.281 107.879V108.957ZM165.018 114.242C164.393 114.242 163.918 114.047 163.594 113.656C163.27 113.262 163.107 112.609 163.107 111.699V111.037H164.273V111.693C164.273 112.186 164.326 112.562 164.432 112.824C164.541 113.086 164.719 113.217 164.965 113.217C165.211 113.217 165.391 113.137 165.504 112.977C165.621 112.816 165.68 112.529 165.68 112.115C165.68 111.908 165.648 111.703 165.586 111.5C165.523 111.293 165.428 111.09 165.299 110.891C165.17 110.688 165.004 110.49 164.801 110.299L164.18 109.707C163.809 109.352 163.525 108.975 163.33 108.576C163.135 108.174 163.037 107.748 163.037 107.299C163.037 106.588 163.205 106.066 163.541 105.734C163.877 105.398 164.34 105.23 164.93 105.23C165.324 105.23 165.656 105.316 165.926 105.488C166.195 105.66 166.398 105.945 166.535 106.344C166.672 106.742 166.74 107.285 166.74 107.973V108.395H165.598V107.785C165.598 107.293 165.549 106.916 165.451 106.654C165.357 106.393 165.188 106.262 164.941 106.262C164.703 106.262 164.523 106.332 164.402 106.473C164.285 106.609 164.221 106.861 164.209 107.229C164.205 107.416 164.229 107.605 164.279 107.797C164.334 107.988 164.422 108.178 164.543 108.365C164.664 108.553 164.82 108.736 165.012 108.916L165.645 109.508C166.055 109.887 166.363 110.295 166.57 110.732C166.781 111.166 166.887 111.625 166.887 112.109C166.887 112.773 166.734 113.295 166.43 113.674C166.129 114.053 165.658 114.242 165.018 114.242ZM168.105 114.125V105.336H169.312V114.125H168.105ZM168.105 104.527V103.426H169.312V104.527H168.105ZM172.799 115.467C172.396 115.479 172.033 115.434 171.709 115.332C171.389 115.23 171.113 115.088 170.883 114.904L171.316 114.084C171.488 114.201 171.691 114.305 171.926 114.395C172.16 114.484 172.432 114.525 172.74 114.518C173.014 114.51 173.225 114.406 173.373 114.207C173.525 114.012 173.602 113.748 173.602 113.416V112.578C173.488 112.867 173.332 113.061 173.133 113.158C172.934 113.256 172.707 113.305 172.453 113.305C172.043 113.305 171.725 113.186 171.498 112.947C171.275 112.709 171.119 112.383 171.029 111.969C170.943 111.555 170.9 111.086 170.9 110.562V108.043C170.9 107.508 170.951 107.027 171.053 106.602C171.158 106.176 171.332 105.84 171.574 105.594C171.816 105.344 172.145 105.223 172.559 105.23C172.809 105.234 173.023 105.297 173.203 105.418C173.387 105.539 173.52 105.727 173.602 105.98V105.336H174.803V113.305C174.803 113.555 174.771 113.805 174.709 114.055C174.65 114.305 174.547 114.533 174.398 114.74C174.254 114.951 174.051 115.121 173.789 115.25C173.531 115.383 173.201 115.455 172.799 115.467ZM172.916 112.35C173.072 112.35 173.201 112.303 173.303 112.209C173.404 112.115 173.479 111.941 173.525 111.688C173.576 111.43 173.602 111.061 173.602 110.58V107.867C173.602 107.332 173.553 106.926 173.455 106.648C173.361 106.371 173.162 106.232 172.857 106.232C172.635 106.232 172.469 106.303 172.359 106.443C172.254 106.58 172.186 106.77 172.154 107.012C172.123 107.254 172.107 107.535 172.107 107.855V110.592C172.107 111.174 172.16 111.613 172.266 111.91C172.371 112.203 172.588 112.35 172.916 112.35ZM176.473 114.125V105.336H177.674V106.268C177.752 105.994 177.918 105.752 178.172 105.541C178.43 105.33 178.736 105.225 179.092 105.225C179.533 105.225 179.877 105.381 180.123 105.693C180.369 106.006 180.492 106.48 180.492 107.117V114.125H179.291V107.123C179.291 106.811 179.221 106.584 179.08 106.443C178.939 106.303 178.76 106.232 178.541 106.232C178.381 106.232 178.234 106.268 178.102 106.338C177.969 106.408 177.863 106.518 177.785 106.666C177.711 106.814 177.674 107.006 177.674 107.24V114.125H176.473ZM183.967 114.23C183.545 114.23 183.205 114.158 182.947 114.014C182.693 113.865 182.5 113.656 182.367 113.387C182.234 113.117 182.145 112.795 182.098 112.42C182.055 112.041 182.033 111.623 182.033 111.166V108.061C182.033 107.646 182.062 107.268 182.121 106.924C182.18 106.576 182.281 106.277 182.426 106.027C182.57 105.773 182.771 105.578 183.029 105.441C183.287 105.301 183.615 105.23 184.014 105.23C184.416 105.23 184.74 105.301 184.986 105.441C185.232 105.582 185.418 105.781 185.543 106.039C185.672 106.293 185.758 106.598 185.801 106.953C185.844 107.305 185.865 107.691 185.865 108.113V109.771H183.24V111.523C183.24 112.078 183.277 112.502 183.352 112.795C183.43 113.084 183.639 113.229 183.979 113.229C184.201 113.229 184.359 113.16 184.453 113.023C184.551 112.883 184.609 112.688 184.629 112.438C184.652 112.184 184.664 111.885 184.664 111.541V110.832H185.842V111.207C185.842 111.664 185.822 112.078 185.783 112.449C185.748 112.82 185.67 113.139 185.549 113.404C185.428 113.67 185.24 113.875 184.986 114.02C184.736 114.16 184.396 114.23 183.967 114.23ZM183.234 108.957H184.664V107.838C184.664 107.486 184.652 107.191 184.629 106.953C184.605 106.711 184.549 106.529 184.459 106.408C184.369 106.283 184.221 106.221 184.014 106.221C183.783 106.221 183.611 106.291 183.498 106.432C183.389 106.572 183.316 106.768 183.281 107.018C183.25 107.264 183.234 107.551 183.234 107.879V108.957ZM187.336 114.125V105.336H188.543V106.314C188.645 105.975 188.82 105.709 189.07 105.518C189.324 105.326 189.646 105.23 190.037 105.23C190.045 105.23 190.049 105.283 190.049 105.389C190.053 105.49 190.055 105.607 190.055 105.74C190.055 105.873 190.055 105.992 190.055 106.098C190.055 106.199 190.055 106.25 190.055 106.25C189.867 106.25 189.68 106.273 189.492 106.32C189.305 106.363 189.129 106.439 188.965 106.549C188.801 106.654 188.66 106.799 188.543 106.982V114.125H187.336Z" fill="white"/>
<path d="M99 5.97754C129.388 5.97754 154.022 30.6118 154.022 61C154.022 91.3882 129.388 116.022 99 116.022C68.6118 116.022 43.9775 91.3882 43.9775 61C43.9775 30.6118 68.6118 5.97754 99 5.97754Z" fill="#1A1B1F"/>
<path d="M99 5.97754C129.388 5.97754 154.022 30.6118 154.022 61C154.022 91.3882 129.388 116.022 99 116.022C68.6118 116.022 43.9775 91.3882 43.9775 61C43.9775 30.6118 68.6118 5.97754 99 5.97754Z" stroke="#DBF900" stroke-width="2.04545"/>
<path d="M108.631 47.8631L104.003 42.5737C103.956 42.5205 103.899 42.4778 103.834 42.4486C103.77 42.4194 103.7 42.4043 103.629 42.4043H94.3727C94.3023 42.4038 94.2326 42.4182 94.1681 42.4467C94.1037 42.4752 94.0461 42.5171 93.9992 42.5696L89.371 47.859C89.2911 47.9512 89.2481 48.0696 89.2501 48.1916C89.252 48.3136 89.2989 48.4305 89.3817 48.5201L98.6381 58.4377C98.6845 58.4875 98.7407 58.5272 98.8031 58.5544C98.8655 58.5815 98.9328 58.5955 99.0009 58.5955C99.069 58.5955 99.1363 58.5815 99.1988 58.5544C99.2612 58.5272 99.3173 58.4875 99.3637 58.4377L108.62 48.5201C108.702 48.4308 108.748 48.3147 108.75 48.1936C108.752 48.0726 108.71 47.955 108.631 47.8631ZM94.6984 48.6854L97.5579 55.8335L90.8859 48.6854H94.6984ZM102.236 48.6854L99.0009 56.7715L95.7661 48.6854H102.236ZM96.0257 47.6937L99.0009 43.7267L101.976 47.6937H96.0257ZM103.303 48.6854H107.116L100.444 55.8335L103.303 48.6854ZM107.165 47.6937H103.216L99.9927 43.3961H103.404L107.165 47.6937ZM94.5975 43.3961H98.0092L94.786 47.6937H90.8371L94.5975 43.3961Z" fill="white"/>
<path d="M87.9121 78.5957V66.5645H89.498V77.2627H91.7607V78.5957H87.9121ZM95.0625 78.7188C94.5612 78.7188 94.1533 78.6344 93.8389 78.4658C93.529 78.2972 93.2897 78.0579 93.1211 77.748C92.957 77.4336 92.8431 77.0576 92.7793 76.6201C92.7201 76.1826 92.6904 75.6973 92.6904 75.1641V71.4521C92.6904 70.9736 92.7314 70.5361 92.8135 70.1396C92.8955 69.7432 93.0277 69.4014 93.21 69.1143C93.3968 68.8271 93.6475 68.6061 93.9619 68.4512C94.2764 68.2962 94.666 68.2188 95.1309 68.2188C95.6048 68.2188 95.9922 68.2985 96.293 68.458C96.5938 68.613 96.8239 68.8363 96.9834 69.1279C97.1475 69.415 97.2614 69.7614 97.3252 70.167C97.389 70.568 97.4209 71.0146 97.4209 71.5068V73.5508H94.2764V75.5811C94.2764 76.1644 94.3174 76.6178 94.3994 76.9414C94.486 77.265 94.7161 77.4268 95.0898 77.4268C95.3359 77.4268 95.5114 77.3516 95.6162 77.2012C95.7256 77.0462 95.7917 76.832 95.8145 76.5586C95.8372 76.2806 95.8486 75.9593 95.8486 75.5947V74.7334H97.4004V75.2188C97.4004 75.7565 97.373 76.2419 97.3184 76.6748C97.2637 77.1077 97.1566 77.4769 96.9971 77.7822C96.8421 78.083 96.6097 78.3154 96.2998 78.4795C95.9899 78.639 95.5775 78.7188 95.0625 78.7188ZM94.2695 72.5527H95.8486V71.2402C95.8486 70.862 95.8327 70.543 95.8008 70.2832C95.7734 70.0189 95.7096 69.8206 95.6094 69.6885C95.5091 69.5563 95.3473 69.4902 95.124 69.4902C94.8688 69.4902 94.6797 69.5677 94.5566 69.7227C94.4336 69.8776 94.3538 70.0895 94.3174 70.3584C94.2855 70.6273 94.2695 70.9372 94.2695 71.2881V72.5527ZM100.641 78.6914C99.9844 78.6914 99.5195 78.4453 99.2461 77.9531C98.9727 77.4564 98.8337 76.7842 98.8291 75.9365V75.082C98.8291 74.5898 98.9066 74.1865 99.0615 73.8721C99.2165 73.5531 99.4375 73.291 99.7246 73.0859C100.012 72.8809 100.351 72.6986 100.743 72.5391C101.135 72.375 101.568 72.2018 102.042 72.0195V71.1855C102.042 70.7845 102.028 70.4632 102.001 70.2217C101.974 69.9756 101.908 69.7956 101.803 69.6816C101.698 69.5677 101.532 69.5107 101.304 69.5107C101.08 69.5107 100.912 69.57 100.798 69.6885C100.688 69.8024 100.616 69.9824 100.579 70.2285C100.543 70.4701 100.524 70.7822 100.524 71.165V71.5684H98.959V71.2676C98.959 70.8164 98.9909 70.404 99.0547 70.0303C99.123 69.6566 99.2415 69.3353 99.4102 69.0664C99.5833 68.7975 99.8249 68.5902 100.135 68.4443C100.449 68.2939 100.853 68.2188 101.345 68.2188C101.8 68.2188 102.176 68.2894 102.473 68.4307C102.769 68.5674 103.001 68.7725 103.17 69.0459C103.343 69.3148 103.464 69.6497 103.532 70.0508C103.605 70.4518 103.642 70.9167 103.642 71.4453V78.5957H102.056V77.6523C102.01 77.8118 101.926 77.9736 101.803 78.1377C101.68 78.2972 101.52 78.4294 101.324 78.5342C101.128 78.639 100.9 78.6914 100.641 78.6914ZM101.133 77.4473C101.37 77.4473 101.568 77.3675 101.728 77.208C101.892 77.0485 101.996 76.8867 102.042 76.7227V72.9766C101.723 73.1224 101.459 73.2546 101.249 73.373C101.039 73.487 100.873 73.61 100.75 73.7422C100.632 73.8743 100.547 74.0339 100.497 74.2207C100.447 74.403 100.422 74.6309 100.422 74.9043V75.9434C100.422 76.472 100.472 76.8548 100.572 77.0918C100.673 77.3288 100.859 77.4473 101.133 77.4473ZM107.06 78.6914C106.531 78.6914 106.139 78.5433 105.884 78.2471C105.629 77.9463 105.46 77.543 105.378 77.0371C105.296 76.5267 105.255 75.9525 105.255 75.3145V71.3154C105.255 70.7275 105.314 70.2012 105.433 69.7363C105.556 69.2715 105.761 68.9023 106.048 68.6289C106.34 68.3555 106.738 68.2188 107.244 68.2188C107.522 68.2188 107.771 68.2939 107.989 68.4443C108.213 68.5902 108.381 68.777 108.495 69.0049V66.4482H110.074V78.5957H108.495V77.7002C108.358 78.0374 108.165 78.2881 107.914 78.4521C107.668 78.6117 107.383 78.6914 107.06 78.6914ZM107.62 77.4199C107.839 77.4199 108.012 77.363 108.14 77.249C108.267 77.1305 108.358 76.93 108.413 76.6475C108.472 76.3649 108.502 75.9798 108.502 75.4922V71.3838C108.502 70.7868 108.45 70.3265 108.345 70.0029C108.24 69.6794 108.01 69.5176 107.654 69.5176C107.326 69.5221 107.107 69.6816 106.998 69.9961C106.893 70.306 106.841 70.7777 106.841 71.4111V75.5811C106.841 75.9593 106.859 76.2874 106.896 76.5654C106.937 76.8389 107.014 77.0508 107.128 77.2012C107.242 77.347 107.406 77.4199 107.62 77.4199Z" fill="#FFFCF7"/>
</svg>
