<svg width="260" height="140" viewBox="0 0 260 140" fill="none" xmlns="http://www.w3.org/2000/svg">
<rect x="171" y="47" width="86" height="86" rx="43" fill="#404040"/>
<path d="M218.625 70.4949L214.884 69.1164L213.505 65.3753C213.435 65.1849 213.308 65.0207 213.142 64.9047C212.975 64.7887 212.777 64.7265 212.574 64.7265C212.371 64.7265 212.173 64.7887 212.007 64.9047C211.841 65.0207 211.714 65.1849 211.643 65.3753L210.265 69.1164L206.524 70.4949C206.333 70.5651 206.169 70.692 206.053 70.8584C205.937 71.0248 205.875 71.2228 205.875 71.4257C205.875 71.6286 205.937 71.8266 206.053 71.9931C206.169 72.1595 206.333 72.2864 206.524 72.3566L210.265 73.735L211.643 77.4762C211.714 77.6665 211.841 77.8308 212.007 77.9468C212.173 78.0628 212.371 78.125 212.574 78.125C212.777 78.125 212.975 78.0628 213.142 77.9468C213.308 77.8308 213.435 77.6665 213.505 77.4762L214.884 73.735L218.625 72.3566C218.815 72.2864 218.979 72.1595 219.095 71.9931C219.211 71.8266 219.274 71.6286 219.274 71.4257C219.274 71.2228 219.211 71.0248 219.095 70.8584C218.979 70.692 218.815 70.5651 218.625 70.4949ZM218.329 71.554L214.403 73.0009C214.345 73.0223 214.292 73.056 214.248 73.0999C214.205 73.1437 214.171 73.1965 214.149 73.2546L212.703 77.1804C212.693 77.2066 212.675 77.2292 212.652 77.2451C212.629 77.2611 212.602 77.2696 212.574 77.2696C212.546 77.2696 212.519 77.2611 212.496 77.2451C212.473 77.2292 212.456 77.2066 212.446 77.1804L210.999 73.2546C210.978 73.1965 210.944 73.1437 210.9 73.0999C210.856 73.056 210.804 73.0223 210.745 73.0009L206.82 71.554C206.793 71.5443 206.771 71.5268 206.755 71.5039C206.739 71.4809 206.73 71.4537 206.73 71.4257C206.73 71.3978 206.739 71.3705 206.755 71.3476C206.771 71.3247 206.793 71.3072 206.82 71.2974L210.745 69.8506C210.804 69.8292 210.856 69.7954 210.9 69.7516C210.944 69.7078 210.978 69.655 210.999 69.5968L212.446 65.6711C212.456 65.6449 212.473 65.6223 212.496 65.6063C212.519 65.5904 212.546 65.5818 212.574 65.5818C212.602 65.5818 212.629 65.5904 212.652 65.6063C212.675 65.6223 212.693 65.6449 212.703 65.6711L214.149 69.5968C214.171 69.655 214.205 69.7078 214.248 69.7516C214.292 69.7954 214.345 69.8292 214.403 69.8506L218.329 71.2974C218.355 71.3072 218.378 71.3247 218.394 71.3476C218.41 71.3705 218.418 71.3978 218.418 71.4257C218.418 71.4537 218.41 71.4809 218.394 71.5039C218.378 71.5268 218.355 71.5443 218.329 71.554ZM214.998 64.0132C214.998 63.8998 215.043 63.791 215.123 63.7108C215.203 63.6306 215.312 63.5856 215.425 63.5856H216.708V62.3026C216.708 62.1892 216.753 62.0805 216.833 62.0003C216.914 61.9201 217.022 61.875 217.136 61.875C217.249 61.875 217.358 61.9201 217.438 62.0003C217.518 62.0805 217.563 62.1892 217.563 62.3026V63.5856H218.846C218.96 63.5856 219.069 63.6306 219.149 63.7108C219.229 63.791 219.274 63.8998 219.274 64.0132C219.274 64.1266 219.229 64.2354 219.149 64.3156C219.069 64.3958 218.96 64.4409 218.846 64.4409H217.563V65.7238C217.563 65.8372 217.518 65.946 217.438 66.0262C217.358 66.1064 217.249 66.1514 217.136 66.1514C217.022 66.1514 216.914 66.1064 216.833 66.0262C216.753 65.946 216.708 65.8372 216.708 65.7238V64.4409H215.425C215.312 64.4409 215.203 64.3958 215.123 64.3156C215.043 64.2354 214.998 64.1266 214.998 64.0132ZM222.125 67.4344C222.125 67.5478 222.08 67.6566 222 67.7368C221.92 67.817 221.811 67.862 221.697 67.862H220.985V68.5748C220.985 68.6882 220.94 68.797 220.859 68.8772C220.779 68.9574 220.67 69.0024 220.557 69.0024C220.444 69.0024 220.335 68.9574 220.255 68.8772C220.174 68.797 220.129 68.6882 220.129 68.5748V67.862H219.417C219.303 67.862 219.194 67.817 219.114 67.7368C219.034 67.6566 218.989 67.5478 218.989 67.4344C218.989 67.321 219.034 67.2122 219.114 67.132C219.194 67.0518 219.303 67.0067 219.417 67.0067H220.129V66.294C220.129 66.1806 220.174 66.0718 220.255 65.9916C220.335 65.9114 220.444 65.8663 220.557 65.8663C220.67 65.8663 220.779 65.9114 220.859 65.9916C220.94 66.0718 220.985 66.1806 220.985 66.294V67.0067H221.697C221.811 67.0067 221.92 67.0518 222 67.132C222.08 67.2122 222.125 67.321 222.125 67.4344Z" fill="white"/>
<path d="M211.053 94.1895V92.7246H209.74V91.9043H211.053V90.4629H211.926V91.9043H213.256V92.7246H211.926V94.1895H211.053ZM215.793 97.125V88.4355C215.699 88.5449 215.555 88.6484 215.359 88.7461C215.168 88.8398 214.967 88.916 214.756 88.9746C214.545 89.0293 214.367 89.0566 214.223 89.0566V88.0957C214.43 88.0645 214.662 87.998 214.92 87.8965C215.178 87.791 215.418 87.6484 215.641 87.4688C215.867 87.2891 216.035 87.0703 216.145 86.8125H217V97.125H215.793ZM195.607 115.125V104.812H197.547C198.086 104.812 198.506 104.926 198.807 105.152C199.107 105.375 199.318 105.695 199.439 106.113C199.561 106.531 199.621 107.031 199.621 107.613L199.627 112.143C199.627 112.838 199.557 113.406 199.416 113.848C199.279 114.285 199.055 114.607 198.742 114.814C198.434 115.021 198.021 115.125 197.506 115.125H195.607ZM196.814 114.146H197.436C197.654 114.146 197.836 114.1 197.98 114.006C198.125 113.908 198.232 113.729 198.303 113.467C198.377 113.205 198.414 112.826 198.414 112.33V107.584C198.414 106.936 198.338 106.473 198.186 106.195C198.033 105.914 197.783 105.773 197.436 105.773H196.814V114.146ZM203.014 115.23C202.592 115.23 202.252 115.158 201.994 115.014C201.74 114.865 201.547 114.656 201.414 114.387C201.281 114.117 201.191 113.795 201.145 113.42C201.102 113.041 201.08 112.623 201.08 112.166V109.061C201.08 108.646 201.109 108.268 201.168 107.924C201.227 107.576 201.328 107.277 201.473 107.027C201.617 106.773 201.818 106.578 202.076 106.441C202.334 106.301 202.662 106.23 203.061 106.23C203.463 106.23 203.787 106.301 204.033 106.441C204.279 106.582 204.465 106.781 204.59 107.039C204.719 107.293 204.805 107.598 204.848 107.953C204.891 108.305 204.912 108.691 204.912 109.113V110.771H202.287V112.523C202.287 113.078 202.324 113.502 202.398 113.795C202.477 114.084 202.686 114.229 203.025 114.229C203.248 114.229 203.406 114.16 203.5 114.023C203.598 113.883 203.656 113.688 203.676 113.438C203.699 113.184 203.711 112.885 203.711 112.541V111.832H204.889V112.207C204.889 112.664 204.869 113.078 204.83 113.449C204.795 113.82 204.717 114.139 204.596 114.404C204.475 114.67 204.287 114.875 204.033 115.02C203.783 115.16 203.443 115.23 203.014 115.23ZM202.281 109.957H203.711V108.838C203.711 108.486 203.699 108.191 203.676 107.953C203.652 107.711 203.596 107.529 203.506 107.408C203.416 107.283 203.268 107.221 203.061 107.221C202.83 107.221 202.658 107.291 202.545 107.432C202.436 107.572 202.363 107.768 202.328 108.018C202.297 108.264 202.281 108.551 202.281 108.879V109.957ZM208.018 115.242C207.393 115.242 206.918 115.047 206.594 114.656C206.27 114.262 206.107 113.609 206.107 112.699V112.037H207.273V112.693C207.273 113.186 207.326 113.562 207.432 113.824C207.541 114.086 207.719 114.217 207.965 114.217C208.211 114.217 208.391 114.137 208.504 113.977C208.621 113.816 208.68 113.529 208.68 113.115C208.68 112.908 208.648 112.703 208.586 112.5C208.523 112.293 208.428 112.09 208.299 111.891C208.17 111.688 208.004 111.49 207.801 111.299L207.18 110.707C206.809 110.352 206.525 109.975 206.33 109.576C206.135 109.174 206.037 108.748 206.037 108.299C206.037 107.588 206.205 107.066 206.541 106.734C206.877 106.398 207.34 106.23 207.93 106.23C208.324 106.23 208.656 106.316 208.926 106.488C209.195 106.66 209.398 106.945 209.535 107.344C209.672 107.742 209.74 108.285 209.74 108.973V109.395H208.598V108.785C208.598 108.293 208.549 107.916 208.451 107.654C208.357 107.393 208.188 107.262 207.941 107.262C207.703 107.262 207.523 107.332 207.402 107.473C207.285 107.609 207.221 107.861 207.209 108.229C207.205 108.416 207.229 108.605 207.279 108.797C207.334 108.988 207.422 109.178 207.543 109.365C207.664 109.553 207.82 109.736 208.012 109.916L208.645 110.508C209.055 110.887 209.363 111.295 209.57 111.732C209.781 112.166 209.887 112.625 209.887 113.109C209.887 113.773 209.734 114.295 209.43 114.674C209.129 115.053 208.658 115.242 208.018 115.242ZM211.105 115.125V106.336H212.312V115.125H211.105ZM211.105 105.527V104.426H212.312V105.527H211.105ZM215.799 116.467C215.396 116.479 215.033 116.434 214.709 116.332C214.389 116.23 214.113 116.088 213.883 115.904L214.316 115.084C214.488 115.201 214.691 115.305 214.926 115.395C215.16 115.484 215.432 115.525 215.74 115.518C216.014 115.51 216.225 115.406 216.373 115.207C216.525 115.012 216.602 114.748 216.602 114.416V113.578C216.488 113.867 216.332 114.061 216.133 114.158C215.934 114.256 215.707 114.305 215.453 114.305C215.043 114.305 214.725 114.186 214.498 113.947C214.275 113.709 214.119 113.383 214.029 112.969C213.943 112.555 213.9 112.086 213.9 111.562V109.043C213.9 108.508 213.951 108.027 214.053 107.602C214.158 107.176 214.332 106.84 214.574 106.594C214.816 106.344 215.145 106.223 215.559 106.23C215.809 106.234 216.023 106.297 216.203 106.418C216.387 106.539 216.52 106.727 216.602 106.98V106.336H217.803V114.305C217.803 114.555 217.771 114.805 217.709 115.055C217.65 115.305 217.547 115.533 217.398 115.74C217.254 115.951 217.051 116.121 216.789 116.25C216.531 116.383 216.201 116.455 215.799 116.467ZM215.916 113.35C216.072 113.35 216.201 113.303 216.303 113.209C216.404 113.115 216.479 112.941 216.525 112.688C216.576 112.43 216.602 112.061 216.602 111.58V108.867C216.602 108.332 216.553 107.926 216.455 107.648C216.361 107.371 216.162 107.232 215.857 107.232C215.635 107.232 215.469 107.303 215.359 107.443C215.254 107.58 215.186 107.77 215.154 108.012C215.123 108.254 215.107 108.535 215.107 108.855V111.592C215.107 112.174 215.16 112.613 215.266 112.91C215.371 113.203 215.588 113.35 215.916 113.35ZM219.473 115.125V106.336H220.674V107.268C220.752 106.994 220.918 106.752 221.172 106.541C221.43 106.33 221.736 106.225 222.092 106.225C222.533 106.225 222.877 106.381 223.123 106.693C223.369 107.006 223.492 107.48 223.492 108.117V115.125H222.291V108.123C222.291 107.811 222.221 107.584 222.08 107.443C221.939 107.303 221.76 107.232 221.541 107.232C221.381 107.232 221.234 107.268 221.102 107.338C220.969 107.408 220.863 107.518 220.785 107.666C220.711 107.814 220.674 108.006 220.674 108.24V115.125H219.473ZM226.967 115.23C226.545 115.23 226.205 115.158 225.947 115.014C225.693 114.865 225.5 114.656 225.367 114.387C225.234 114.117 225.145 113.795 225.098 113.42C225.055 113.041 225.033 112.623 225.033 112.166V109.061C225.033 108.646 225.062 108.268 225.121 107.924C225.18 107.576 225.281 107.277 225.426 107.027C225.57 106.773 225.771 106.578 226.029 106.441C226.287 106.301 226.615 106.23 227.014 106.23C227.416 106.23 227.74 106.301 227.986 106.441C228.232 106.582 228.418 106.781 228.543 107.039C228.672 107.293 228.758 107.598 228.801 107.953C228.844 108.305 228.865 108.691 228.865 109.113V110.771H226.24V112.523C226.24 113.078 226.277 113.502 226.352 113.795C226.43 114.084 226.639 114.229 226.979 114.229C227.201 114.229 227.359 114.16 227.453 114.023C227.551 113.883 227.609 113.688 227.629 113.438C227.652 113.184 227.664 112.885 227.664 112.541V111.832H228.842V112.207C228.842 112.664 228.822 113.078 228.783 113.449C228.748 113.82 228.67 114.139 228.549 114.404C228.428 114.67 228.24 114.875 227.986 115.02C227.736 115.16 227.396 115.23 226.967 115.23ZM226.234 109.957H227.664V108.838C227.664 108.486 227.652 108.191 227.629 107.953C227.605 107.711 227.549 107.529 227.459 107.408C227.369 107.283 227.221 107.221 227.014 107.221C226.783 107.221 226.611 107.291 226.498 107.432C226.389 107.572 226.316 107.768 226.281 108.018C226.25 108.264 226.234 108.551 226.234 108.879V109.957ZM230.336 115.125V106.336H231.543V107.314C231.645 106.975 231.82 106.709 232.07 106.518C232.324 106.326 232.646 106.23 233.037 106.23C233.045 106.23 233.049 106.283 233.049 106.389C233.053 106.49 233.055 106.607 233.055 106.74C233.055 106.873 233.055 106.992 233.055 107.098C233.055 107.199 233.055 107.25 233.055 107.25C232.867 107.25 232.68 107.273 232.492 107.32C232.305 107.363 232.129 107.439 231.965 107.549C231.801 107.654 231.66 107.799 231.543 107.982V115.125H230.336Z" fill="white"/>
<path d="M142 6.97754C172.388 6.97754 197.022 31.6118 197.022 62C197.022 92.3882 172.388 117.022 142 117.022C111.612 117.022 86.9775 92.3882 86.9775 62C86.9775 31.6118 111.612 6.97754 142 6.97754Z" fill="#1A1B1F"/>
<path d="M142 6.97754C172.388 6.97754 197.022 31.6118 197.022 62C197.022 92.3882 172.388 117.022 142 117.022C111.612 117.022 86.9775 92.3882 86.9775 62C86.9775 31.6118 111.612 6.97754 142 6.97754Z" stroke="#DBF900" stroke-width="2.04545"/>
<path d="M151.631 48.8631L147.003 43.5737C146.956 43.5205 146.899 43.4778 146.834 43.4486C146.77 43.4194 146.7 43.4043 146.629 43.4043H137.373C137.302 43.4038 137.233 43.4182 137.168 43.4467C137.104 43.4752 137.046 43.5171 136.999 43.5696L132.371 48.859C132.291 48.9512 132.248 49.0696 132.25 49.1916C132.252 49.3136 132.299 49.4305 132.382 49.5201L141.638 59.4377C141.685 59.4875 141.741 59.5272 141.803 59.5544C141.866 59.5815 141.933 59.5955 142.001 59.5955C142.069 59.5955 142.136 59.5815 142.199 59.5544C142.261 59.5272 142.317 59.4875 142.364 59.4377L151.62 49.5201C151.702 49.4308 151.748 49.3147 151.75 49.1936C151.752 49.0726 151.71 48.955 151.631 48.8631ZM137.698 49.6854L140.558 56.8335L133.886 49.6854H137.698ZM145.236 49.6854L142.001 57.7715L138.766 49.6854H145.236ZM139.026 48.6937L142.001 44.7267L144.976 48.6937H139.026ZM146.303 49.6854H150.116L143.444 56.8335L146.303 49.6854ZM150.165 48.6937H146.216L142.993 44.3961H146.404L150.165 48.6937ZM137.598 44.3961H141.009L137.786 48.6937H133.837L137.598 44.3961Z" fill="white"/>
<path d="M130.912 79.5957V67.5645H132.498V78.2627H134.761V79.5957H130.912ZM138.062 79.7188C137.561 79.7188 137.153 79.6344 136.839 79.4658C136.529 79.2972 136.29 79.0579 136.121 78.748C135.957 78.4336 135.843 78.0576 135.779 77.6201C135.72 77.1826 135.69 76.6973 135.69 76.1641V72.4521C135.69 71.9736 135.731 71.5361 135.813 71.1396C135.896 70.7432 136.028 70.4014 136.21 70.1143C136.397 69.8271 136.647 69.6061 136.962 69.4512C137.276 69.2962 137.666 69.2188 138.131 69.2188C138.605 69.2188 138.992 69.2985 139.293 69.458C139.594 69.613 139.824 69.8363 139.983 70.1279C140.147 70.415 140.261 70.7614 140.325 71.167C140.389 71.568 140.421 72.0146 140.421 72.5068V74.5508H137.276V76.5811C137.276 77.1644 137.317 77.6178 137.399 77.9414C137.486 78.265 137.716 78.4268 138.09 78.4268C138.336 78.4268 138.511 78.3516 138.616 78.2012C138.726 78.0462 138.792 77.832 138.814 77.5586C138.837 77.2806 138.849 76.9593 138.849 76.5947V75.7334H140.4V76.2188C140.4 76.7565 140.373 77.2419 140.318 77.6748C140.264 78.1077 140.157 78.4769 139.997 78.7822C139.842 79.083 139.61 79.3154 139.3 79.4795C138.99 79.639 138.577 79.7188 138.062 79.7188ZM137.27 73.5527H138.849V72.2402C138.849 71.862 138.833 71.543 138.801 71.2832C138.773 71.0189 138.71 70.8206 138.609 70.6885C138.509 70.5563 138.347 70.4902 138.124 70.4902C137.869 70.4902 137.68 70.5677 137.557 70.7227C137.434 70.8776 137.354 71.0895 137.317 71.3584C137.285 71.6273 137.27 71.9372 137.27 72.2881V73.5527ZM143.641 79.6914C142.984 79.6914 142.52 79.4453 142.246 78.9531C141.973 78.4564 141.834 77.7842 141.829 76.9365V76.082C141.829 75.5898 141.907 75.1865 142.062 74.8721C142.216 74.5531 142.438 74.291 142.725 74.0859C143.012 73.8809 143.351 73.6986 143.743 73.5391C144.135 73.375 144.568 73.2018 145.042 73.0195V72.1855C145.042 71.7845 145.028 71.4632 145.001 71.2217C144.974 70.9756 144.908 70.7956 144.803 70.6816C144.698 70.5677 144.532 70.5107 144.304 70.5107C144.08 70.5107 143.912 70.57 143.798 70.6885C143.688 70.8024 143.616 70.9824 143.579 71.2285C143.543 71.4701 143.524 71.7822 143.524 72.165V72.5684H141.959V72.2676C141.959 71.8164 141.991 71.404 142.055 71.0303C142.123 70.6566 142.242 70.3353 142.41 70.0664C142.583 69.7975 142.825 69.5902 143.135 69.4443C143.449 69.2939 143.853 69.2188 144.345 69.2188C144.8 69.2188 145.176 69.2894 145.473 69.4307C145.769 69.5674 146.001 69.7725 146.17 70.0459C146.343 70.3148 146.464 70.6497 146.532 71.0508C146.605 71.4518 146.642 71.9167 146.642 72.4453V79.5957H145.056V78.6523C145.01 78.8118 144.926 78.9736 144.803 79.1377C144.68 79.2972 144.52 79.4294 144.324 79.5342C144.128 79.639 143.9 79.6914 143.641 79.6914ZM144.133 78.4473C144.37 78.4473 144.568 78.3675 144.728 78.208C144.892 78.0485 144.996 77.8867 145.042 77.7227V73.9766C144.723 74.1224 144.459 74.2546 144.249 74.373C144.039 74.487 143.873 74.61 143.75 74.7422C143.632 74.8743 143.547 75.0339 143.497 75.2207C143.447 75.403 143.422 75.6309 143.422 75.9043V76.9434C143.422 77.472 143.472 77.8548 143.572 78.0918C143.673 78.3288 143.859 78.4473 144.133 78.4473ZM150.06 79.6914C149.531 79.6914 149.139 79.5433 148.884 79.2471C148.629 78.9463 148.46 78.543 148.378 78.0371C148.296 77.5267 148.255 76.9525 148.255 76.3145V72.3154C148.255 71.7275 148.314 71.2012 148.433 70.7363C148.556 70.2715 148.761 69.9023 149.048 69.6289C149.34 69.3555 149.738 69.2188 150.244 69.2188C150.522 69.2188 150.771 69.2939 150.989 69.4443C151.213 69.5902 151.381 69.777 151.495 70.0049V67.4482H153.074V79.5957H151.495V78.7002C151.358 79.0374 151.165 79.2881 150.914 79.4521C150.668 79.6117 150.383 79.6914 150.06 79.6914ZM150.62 78.4199C150.839 78.4199 151.012 78.363 151.14 78.249C151.267 78.1305 151.358 77.93 151.413 77.6475C151.472 77.3649 151.502 76.9798 151.502 76.4922V72.3838C151.502 71.7868 151.45 71.3265 151.345 71.0029C151.24 70.6794 151.01 70.5176 150.654 70.5176C150.326 70.5221 150.107 70.6816 149.998 70.9961C149.893 71.306 149.841 71.7777 149.841 72.4111V76.5811C149.841 76.9593 149.859 77.2874 149.896 77.5654C149.937 77.8389 150.014 78.0508 150.128 78.2012C150.242 78.347 150.406 78.4199 150.62 78.4199Z" fill="#FFFCF7"/>
<rect x="2.97727" y="23.9773" width="110.045" height="110.045" rx="55.0227" fill="#DBF900"/>
<rect x="2.97727" y="23.9773" width="110.045" height="110.045" rx="55.0227" stroke="black" stroke-width="2.04545"/>
<path d="M67.7003 63.4233C67.6389 63.2316 67.5217 63.0625 67.3637 62.9377C67.2057 62.8129 67.0141 62.738 66.8134 62.7226L63.4289 62.4565L62.1251 59.3709C62.0467 59.1867 61.9158 59.0297 61.7488 58.9193C61.5818 58.8089 61.386 58.75 61.1859 58.75C60.9857 58.75 60.7899 58.8089 60.6229 58.9193C60.4559 59.0297 60.325 59.1867 60.2466 59.3709L58.9446 62.4556L55.561 62.7217C55.3607 62.7362 55.1693 62.81 55.0112 62.9338C54.853 63.0576 54.7354 63.2257 54.6732 63.4166C54.6111 63.6075 54.6073 63.8127 54.6622 64.0058C54.7172 64.1989 54.8284 64.3713 54.9818 64.5009L57.5539 66.6721L56.7681 69.9173C56.7214 70.1107 56.733 70.3135 56.8016 70.5003C56.8701 70.687 56.9924 70.8493 57.153 70.9666C57.3156 71.0863 57.5102 71.1551 57.7119 71.1643C57.9137 71.1734 58.1137 71.1225 58.2865 71.018L61.1859 69.2743L64.0852 71.0189C64.2579 71.1233 64.4577 71.1742 64.6593 71.165C64.8609 71.1559 65.0553 71.0871 65.2178 70.9674C65.3786 70.8503 65.5011 70.6881 65.5696 70.5013C65.6381 70.3145 65.6497 70.1116 65.6027 69.9182L64.8222 66.673L67.3943 64.5018C67.5468 64.3728 67.6574 64.2013 67.7119 64.0092C67.7664 63.8171 67.7624 63.6131 67.7003 63.4233ZM63.8794 66.0725C63.8033 66.1359 63.7463 66.2193 63.7149 66.3133C63.6836 66.4073 63.6791 66.5082 63.7021 66.6047L64.5367 70.0513L61.4608 68.1976C61.3779 68.1477 61.283 68.1213 61.1863 68.1213C61.0896 68.1213 60.9947 68.1477 60.9118 68.1976L57.8324 70.0504L58.667 66.6038C58.6899 66.5074 58.6854 66.4065 58.6541 66.3124C58.6228 66.2184 58.5658 66.135 58.4896 66.0716L55.7703 63.7745L59.3508 63.4916C59.4481 63.484 59.5414 63.4497 59.6206 63.3926C59.6997 63.3355 59.7617 63.2578 59.7996 63.1678L61.1859 59.8862L62.5721 63.1678C62.61 63.2578 62.672 63.3355 62.7511 63.3926C62.8303 63.4497 62.9236 63.484 63.0209 63.4916L66.6014 63.7745L63.8794 66.0725ZM54.329 67.9555L49.1449 73.1395C49.0441 73.2335 48.9106 73.2847 48.7728 73.2823C48.6349 73.2798 48.5034 73.224 48.4059 73.1265C48.3084 73.029 48.2525 72.8974 48.2501 72.7596C48.2477 72.6217 48.2988 72.4883 48.3928 72.3874L53.5769 67.2033C53.6778 67.1093 53.8112 67.0582 53.9491 67.0606C54.0869 67.063 54.2185 67.1189 54.316 67.2164C54.4135 67.3139 54.4693 67.4454 54.4718 67.5833C54.4742 67.7211 54.423 67.8546 54.329 67.9555ZM55.2887 72.6295C55.3382 72.679 55.3774 72.7377 55.4042 72.8023C55.431 72.8669 55.4448 72.9361 55.4448 73.006C55.4448 73.076 55.431 73.1452 55.4042 73.2098C55.3774 73.2744 55.3382 73.3331 55.2887 73.3825L50.564 78.1063C50.4631 78.2003 50.3297 78.2515 50.1919 78.249C50.054 78.2466 49.9224 78.1907 49.8249 78.0932C49.7274 77.9957 49.6716 77.8642 49.6692 77.7263C49.6667 77.5885 49.7179 77.4551 49.8119 77.3542L54.5339 72.6295C54.5834 72.5798 54.6422 72.5403 54.7069 72.5134C54.7717 72.4864 54.8411 72.4726 54.9113 72.4726C54.9814 72.4726 55.0509 72.4864 55.1157 72.5134C55.1804 72.5403 55.2392 72.5798 55.2887 72.6295ZM61.7632 72.5408C61.8629 72.6406 61.9189 72.7759 61.9189 72.9169C61.9189 73.0579 61.8629 73.1932 61.7632 73.293L56.9481 78.1072C56.8472 78.2012 56.7138 78.2523 56.5759 78.2499C56.4381 78.2475 56.3065 78.1916 56.209 78.0941C56.1115 77.9966 56.0557 77.8651 56.0533 77.7272C56.0508 77.5894 56.102 77.4559 56.196 77.3551L61.0085 72.54C61.058 72.4899 61.1169 72.4502 61.1818 72.4232C61.2467 72.3961 61.3164 72.3821 61.3867 72.3821C61.4571 72.3821 61.5268 72.3961 61.5917 72.4232C61.6566 72.4502 61.7155 72.4899 61.765 72.54L61.7632 72.5408Z" fill="black"/>
<path d="M51.2188 98.25V86.2188H53.7822C54.2608 86.2188 54.6527 86.2962 54.958 86.4512C55.2634 86.6016 55.5003 86.8249 55.669 87.1211C55.8376 87.4173 55.9538 87.7773 56.0176 88.2012C56.0859 88.625 56.1201 89.1058 56.1201 89.6436V89.8555C56.1201 90.6484 56.054 91.3184 55.9219 91.8652C55.7943 92.4076 55.5641 92.82 55.2315 93.1025C54.8988 93.3805 54.4248 93.5195 53.8096 93.5195H52.8047V98.25H51.2188ZM52.8047 92.2002H53.5703C53.8438 92.2002 54.0488 92.1273 54.1856 91.9814C54.3268 91.8311 54.4203 91.585 54.4658 91.2432C54.516 90.8968 54.541 90.432 54.541 89.8486V89.6162C54.541 88.8916 54.4818 88.3516 54.3633 87.9961C54.2494 87.6406 53.9942 87.4629 53.5977 87.4629H52.8047V92.2002ZM57.4668 98.25V86.2188H59.3672L61.1582 95.4951L62.8604 86.2188H64.7676V98.25H63.3867V93.7246L63.4824 89.3906L61.7461 98.2295H60.5498L58.7451 89.3906L58.8408 93.7246V98.25H57.4668Z" fill="black"/>
</svg>
