<svg width="189" height="187" viewBox="0 0 189 187" fill="none" xmlns="http://www.w3.org/2000/svg">
<path d="M187.938 85.2259L133.258 68.695L149.755 13.9013L107.051 1L90.5542 55.7938L35.8745 39.2628L23 82.0466L77.6614 98.5867L61.2016 153.362L103.878 166.3L120.384 111.497L175.073 128.019L187.938 85.2259Z" stroke="white" stroke-width="0.93" stroke-linecap="round" stroke-linejoin="round"/>
<path d="M138.073 147.487L159.393 136.028L172.258 93.2259L117.578 76.7042L134.075 21.9105L91.3798 9L70.0508 20.4678" stroke="white" stroke-width="0.93" stroke-linecap="round" stroke-linejoin="round"/>
<path d="M1 60.4586L22.3199 49L60.6223 60.5781" stroke="white" stroke-width="0.93" stroke-linecap="round" stroke-linejoin="round"/>
<path d="M66.8779 185.768L88.1978 174.309L99.761 135.918" stroke="white" stroke-width="0.93" stroke-linecap="round" stroke-linejoin="round"/>
<path d="M112.755 33.369L134.075 21.9104" stroke="white" stroke-width="0.93" stroke-linecap="round" stroke-linejoin="round"/>
<path d="M150.938 104.694L172.258 93.2261" stroke="white" stroke-width="0.93" stroke-linecap="round" stroke-linejoin="round"/>
</svg>
