<svg width="80" height="77" viewBox="0 0 80 77" fill="none" xmlns="http://www.w3.org/2000/svg">
<path d="M75.6022 61.9245L57.895 40.7124L79.0674 22.9683L65.2375 6.40095L44.0651 24.145L26.3579 2.93295L9.8294 16.7916L27.5277 38.0037L6.37305 55.7478L20.1852 72.3196L41.362 54.5755L59.0781 75.7921L75.6022 61.9245Z" stroke="white" stroke-width="0.93" stroke-linecap="round" stroke-linejoin="round"/>
<path d="M39.8926 73.8591L51.5379 74.8982L68.0663 61.0306L50.3591 39.8185L71.5271 22.0744L57.6973 5.50706L46.052 4.46799" stroke="white" stroke-width="0.93" stroke-linecap="round" stroke-linejoin="round"/>
<path d="M7.17285 1L18.8181 2.03907L31.2211 16.8969" stroke="white" stroke-width="0.93" stroke-linecap="round" stroke-linejoin="round"/>
<path d="M1 70.3867L12.6497 71.4257L27.481 58.9969" stroke="white" stroke-width="0.93" stroke-linecap="round" stroke-linejoin="round"/>
<path d="M59.8818 21.0354L71.5271 22.0744" stroke="white" stroke-width="0.93" stroke-linecap="round" stroke-linejoin="round"/>
<path d="M56.417 59.9915L68.0667 61.0306" stroke="white" stroke-width="0.93" stroke-linecap="round" stroke-linejoin="round"/>
</svg>
