<svg width="184" height="279" viewBox="0 0 184 279" fill="none" xmlns="http://www.w3.org/2000/svg">
<path d="M151.611 123.353L114.968 79.4577L158.782 42.7386L130.163 8.45465L86.3493 45.1737L49.7066 1.27808L15.5031 29.9568L52.1274 73.8524L8.35059 110.571L36.933 144.865L80.7557 108.146L117.417 152.05L151.611 123.353Z" stroke="white" stroke-width="0.93" stroke-linecap="round" stroke-linejoin="round"/>
<path d="M117.417 152.05L141.515 154.201L175.719 125.504L139.076 81.6079L182.88 44.8888L154.261 10.6049L130.163 8.45465" stroke="white" stroke-width="0.93" stroke-linecap="round" stroke-linejoin="round"/>
<path d="M49.7065 1.27808L73.8049 3.42829L99.4712 34.1745" stroke="white" stroke-width="0.93" stroke-linecap="round" stroke-linejoin="round"/>
<path d="M36.9331 144.865L61.0406 147.015L91.732 121.295" stroke="white" stroke-width="0.93" stroke-linecap="round" stroke-linejoin="round"/>
<path d="M158.782 42.7386L182.88 44.8889" stroke="white" stroke-width="0.93" stroke-linecap="round" stroke-linejoin="round"/>
<path d="M151.611 123.353L175.719 125.503" stroke="white" stroke-width="0.93" stroke-linecap="round" stroke-linejoin="round"/>
<path d="M30.7615 159.631C31.3085 159.631 31.7519 159.187 31.7519 158.639C31.7519 158.091 31.3085 157.646 30.7615 157.646C30.2146 157.646 29.7712 158.091 29.7712 158.639C29.7712 159.187 30.2146 159.631 30.7615 159.631Z" fill="#DBF900"/>
<path d="M45.6166 159.622C45.0756 159.622 44.6262 159.181 44.6262 158.63C44.6262 158.078 45.0664 157.637 45.6166 157.637C46.1668 157.637 46.6069 158.078 46.6069 158.63C46.6069 159.181 46.1668 159.622 45.6166 159.622Z" fill="#DBF900"/>
<path d="M60.4718 159.631C61.0188 159.631 61.4622 159.187 61.4622 158.639C61.4622 158.091 61.0188 157.646 60.4718 157.646C59.9249 157.646 59.4814 158.091 59.4814 158.639C59.4814 159.187 59.9249 159.631 60.4718 159.631Z" fill="#DBF900"/>
<path d="M75.327 144.745C75.874 144.745 76.3173 144.301 76.3173 143.753C76.3173 143.205 75.874 142.76 75.327 142.76C74.7801 142.76 74.3367 143.205 74.3367 143.753C74.3367 144.301 74.7801 144.745 75.327 144.745Z" fill="#DBF900"/>
<path d="M75.327 159.631C75.874 159.631 76.3173 159.187 76.3173 158.639C76.3173 158.091 75.874 157.646 75.327 157.646C74.7801 157.646 74.3367 158.091 74.3367 158.639C74.3367 159.187 74.7801 159.631 75.327 159.631Z" fill="#DBF900"/>
<path d="M90.1822 144.745C90.7291 144.745 91.1726 144.301 91.1726 143.753C91.1726 143.205 90.7291 142.76 90.1822 142.76C89.6352 142.76 89.1919 143.205 89.1919 143.753C89.1919 144.301 89.6352 144.745 90.1822 144.745Z" fill="#DBF900"/>
<path d="M90.1822 159.631C90.7291 159.631 91.1726 159.187 91.1726 158.639C91.1726 158.091 90.7291 157.646 90.1822 157.646C89.6352 157.646 89.1919 158.091 89.1919 158.639C89.1919 159.187 89.6352 159.631 90.1822 159.631Z" fill="#DBF900"/>
<path d="M106.028 143.753C106.028 144.295 105.587 144.745 105.037 144.745C104.487 144.745 104.047 144.304 104.047 143.753C104.047 143.201 104.487 142.76 105.037 142.76C105.587 142.76 106.028 143.201 106.028 143.753Z" fill="#DBF900"/>
<path d="M105.037 159.622C104.496 159.622 104.047 159.181 104.047 158.63C104.047 158.078 104.487 157.637 105.037 157.637C105.587 157.637 106.028 158.078 106.028 158.63C106.028 159.181 105.587 159.622 105.037 159.622Z" fill="#DBF900"/>
<path d="M119.901 159.631C120.448 159.631 120.892 159.187 120.892 158.639C120.892 158.091 120.448 157.646 119.901 157.646C119.355 157.646 118.911 158.091 118.911 158.639C118.911 159.187 119.355 159.631 119.901 159.631Z" fill="#DBF900"/>
<path d="M30.7615 174.517C31.3085 174.517 31.7519 174.073 31.7519 173.525C31.7519 172.977 31.3085 172.533 30.7615 172.533C30.2146 172.533 29.7712 172.977 29.7712 173.525C29.7712 174.073 30.2146 174.517 30.7615 174.517Z" fill="#DBF900"/>
<path d="M45.6166 174.517C45.0756 174.517 44.6262 174.076 44.6262 173.525C44.6262 172.974 45.0664 172.533 45.6166 172.533C46.1668 172.533 46.6069 172.974 46.6069 173.525C46.6069 174.076 46.1668 174.517 45.6166 174.517Z" fill="#DBF900"/>
<path d="M60.4718 174.517C61.0188 174.517 61.4622 174.073 61.4622 173.525C61.4622 172.977 61.0188 172.533 60.4718 172.533C59.9249 172.533 59.4814 172.977 59.4814 173.525C59.4814 174.073 59.9249 174.517 60.4718 174.517Z" fill="#DBF900"/>
<path d="M75.327 174.517C75.874 174.517 76.3173 174.073 76.3173 173.525C76.3173 172.977 75.874 172.533 75.327 172.533C74.7801 172.533 74.3367 172.977 74.3367 173.525C74.3367 174.073 74.7801 174.517 75.327 174.517Z" fill="#DBF900"/>
<path d="M90.1822 174.517C90.7291 174.517 91.1726 174.073 91.1726 173.525C91.1726 172.977 90.7291 172.533 90.1822 172.533C89.6352 172.533 89.1919 172.977 89.1919 173.525C89.1919 174.073 89.6352 174.517 90.1822 174.517Z" fill="#DBF900"/>
<path d="M105.037 174.517C104.496 174.517 104.047 174.076 104.047 173.525C104.047 172.974 104.487 172.533 105.037 172.533C105.587 172.533 106.028 172.974 106.028 173.525C106.028 174.076 105.587 174.517 105.037 174.517Z" fill="#DBF900"/>
<path d="M119.901 174.517C120.448 174.517 120.892 174.073 120.892 173.525C120.892 172.977 120.448 172.533 119.901 172.533C119.355 172.533 118.911 172.977 118.911 173.525C118.911 174.073 119.355 174.517 119.901 174.517Z" fill="#DBF900"/>
<path d="M30.7615 189.404C30.2205 189.404 29.7712 188.962 29.7712 188.411C29.7712 187.86 30.2114 187.419 30.7615 187.419C31.3117 187.419 31.7519 187.86 31.7519 188.411C31.7519 188.962 31.3117 189.404 30.7615 189.404Z" fill="#DBF900"/>
<path d="M45.6166 189.404C45.0756 189.404 44.6262 188.962 44.6262 188.411C44.6262 187.86 45.0664 187.419 45.6166 187.419C46.1668 187.419 46.6069 187.86 46.6069 188.411C46.6069 188.962 46.1668 189.404 45.6166 189.404Z" fill="#DBF900"/>
<path d="M60.4718 189.404C59.9308 189.404 59.4814 188.962 59.4814 188.411C59.4814 187.86 59.9216 187.419 60.4718 187.419C61.022 187.419 61.4622 187.86 61.4622 188.411C61.4622 188.962 61.022 189.404 60.4718 189.404Z" fill="#DBF900"/>
<path d="M75.327 189.404C74.786 189.404 74.3367 188.962 74.3367 188.411C74.3367 187.86 74.7768 187.419 75.327 187.419C75.8772 187.419 76.3173 187.86 76.3173 188.411C76.3173 188.962 75.8772 189.404 75.327 189.404Z" fill="#DBF900"/>
<path d="M90.1822 189.404C89.6412 189.404 89.1919 188.962 89.1919 188.411C89.1919 187.86 89.632 187.419 90.1822 187.419C90.7324 187.419 91.1726 187.86 91.1726 188.411C91.1726 188.962 90.7324 189.404 90.1822 189.404Z" fill="#DBF900"/>
<path d="M105.037 189.404C104.496 189.404 104.047 188.962 104.047 188.411C104.047 187.86 104.487 187.419 105.037 187.419C105.587 187.419 106.028 187.86 106.028 188.411C106.028 188.962 105.587 189.404 105.037 189.404Z" fill="#DBF900"/>
<path d="M119.901 189.404C119.36 189.404 118.911 188.962 118.911 188.411C118.911 187.86 119.351 187.419 119.901 187.419C120.452 187.419 120.892 187.86 120.892 188.411C120.892 188.962 120.452 189.404 119.901 189.404Z" fill="#DBF900"/>
<path d="M90.1822 204.29C90.7291 204.29 91.1726 203.845 91.1726 203.297C91.1726 202.749 90.7291 202.305 90.1822 202.305C89.6352 202.305 89.1919 202.749 89.1919 203.297C89.1919 203.845 89.6352 204.29 90.1822 204.29Z" fill="#DBF900"/>
<path d="M105.037 204.29C104.496 204.29 104.047 203.849 104.047 203.297C104.047 202.746 104.487 202.305 105.037 202.305C105.587 202.305 106.028 202.746 106.028 203.297C106.028 203.849 105.587 204.29 105.037 204.29Z" fill="#DBF900"/>
<path d="M119.901 204.29C120.448 204.29 120.892 203.845 120.892 203.297C120.892 202.749 120.448 202.305 119.901 202.305C119.355 202.305 118.911 202.749 118.911 203.297C118.911 203.845 119.355 204.29 119.901 204.29Z" fill="#DBF900"/>
<path d="M90.1822 219.185C90.7291 219.185 91.1726 218.741 91.1726 218.192C91.1726 217.644 90.7291 217.2 90.1822 217.2C89.6352 217.2 89.1919 217.644 89.1919 218.192C89.1919 218.741 89.6352 219.185 90.1822 219.185Z" fill="#DBF900"/>
<path d="M105.037 219.176C104.496 219.176 104.047 218.735 104.047 218.183C104.047 217.632 104.487 217.191 105.037 217.191C105.587 217.191 106.028 217.632 106.028 218.183C106.028 218.735 105.587 219.176 105.037 219.176Z" fill="#DBF900"/>
<path d="M1.04212 144.745C1.58907 144.745 2.03248 144.301 2.03248 143.753C2.03248 143.205 1.58907 142.76 1.04212 142.76C0.495165 142.76 0.0517578 143.205 0.0517578 143.753C0.0517578 144.301 0.495165 144.745 1.04212 144.745Z" fill="#DBF900"/>
<path d="M1.04212 159.631C1.58907 159.631 2.03248 159.187 2.03248 158.639C2.03248 158.091 1.58907 157.646 1.04212 157.646C0.495165 157.646 0.0517578 158.091 0.0517578 158.639C0.0517578 159.187 0.495165 159.631 1.04212 159.631Z" fill="#DBF900"/>
<path d="M15.8973 144.745C16.4443 144.745 16.8876 144.301 16.8876 143.753C16.8876 143.205 16.4443 142.76 15.8973 142.76C15.3504 142.76 14.907 143.205 14.907 143.753C14.907 144.301 15.3504 144.745 15.8973 144.745Z" fill="#DBF900"/>
<path d="M15.8973 159.631C16.4443 159.631 16.8876 159.187 16.8876 158.639C16.8876 158.091 16.4443 157.646 15.8973 157.646C15.3504 157.646 14.907 158.091 14.907 158.639C14.907 159.187 15.3504 159.631 15.8973 159.631Z" fill="#DBF900"/>
<path d="M1.04212 174.517C1.58907 174.517 2.03248 174.073 2.03248 173.525C2.03248 172.977 1.58907 172.533 1.04212 172.533C0.495165 172.533 0.0517578 172.977 0.0517578 173.525C0.0517578 174.073 0.495165 174.517 1.04212 174.517Z" fill="#DBF900"/>
<path d="M15.8973 174.517C16.4443 174.517 16.8876 174.073 16.8876 173.525C16.8876 172.977 16.4443 172.533 15.8973 172.533C15.3504 172.533 14.907 172.977 14.907 173.525C14.907 174.073 15.3504 174.517 15.8973 174.517Z" fill="#DBF900"/>
<path d="M1.04212 189.404C0.501096 189.404 0.0517578 188.962 0.0517578 188.411C0.0517578 187.86 0.491926 187.419 1.04212 187.419C1.59231 187.419 2.03248 187.86 2.03248 188.411C2.03248 188.962 1.59231 189.404 1.04212 189.404Z" fill="#DBF900"/>
<path d="M15.8973 189.404C15.3563 189.404 14.907 188.962 14.907 188.411C14.907 187.86 15.3472 187.419 15.8973 187.419C16.4475 187.419 16.8876 187.86 16.8876 188.411C16.8876 188.962 16.4475 189.404 15.8973 189.404Z" fill="#DBF900"/>
<path d="M30.7615 204.29C31.3085 204.29 31.7519 203.845 31.7519 203.297C31.7519 202.749 31.3085 202.305 30.7615 202.305C30.2146 202.305 29.7712 202.749 29.7712 203.297C29.7712 203.845 30.2146 204.29 30.7615 204.29Z" fill="#DBF900"/>
<path d="M45.6166 204.29C45.0756 204.29 44.6262 203.849 44.6262 203.297C44.6262 202.746 45.0664 202.305 45.6166 202.305C46.1668 202.305 46.6069 202.746 46.6069 203.297C46.6069 203.849 46.1668 204.29 45.6166 204.29Z" fill="#DBF900"/>
<path d="M60.4718 204.29C61.0188 204.29 61.4622 203.845 61.4622 203.297C61.4622 202.749 61.0188 202.305 60.4718 202.305C59.9249 202.305 59.4814 202.749 59.4814 203.297C59.4814 203.845 59.9249 204.29 60.4718 204.29Z" fill="#DBF900"/>
<path d="M75.327 204.29C75.874 204.29 76.3173 203.845 76.3173 203.297C76.3173 202.749 75.874 202.305 75.327 202.305C74.7801 202.305 74.3367 202.749 74.3367 203.297C74.3367 203.845 74.7801 204.29 75.327 204.29Z" fill="#DBF900"/>
<path d="M30.7615 219.185C31.3085 219.185 31.7519 218.741 31.7519 218.192C31.7519 217.644 31.3085 217.2 30.7615 217.2C30.2146 217.2 29.7712 217.644 29.7712 218.192C29.7712 218.741 30.2146 219.185 30.7615 219.185Z" fill="#DBF900"/>
<path d="M45.6166 219.176C45.0756 219.176 44.6262 218.735 44.6262 218.183C44.6262 217.632 45.0664 217.191 45.6166 217.191C46.1668 217.191 46.6069 217.632 46.6069 218.183C46.6069 218.735 46.1668 219.176 45.6166 219.176Z" fill="#DBF900"/>
<path d="M60.4718 219.185C61.0188 219.185 61.4622 218.741 61.4622 218.192C61.4622 217.644 61.0188 217.2 60.4718 217.2C59.9249 217.2 59.4814 217.644 59.4814 218.192C59.4814 218.741 59.9249 219.185 60.4718 219.185Z" fill="#DBF900"/>
<path d="M75.327 219.185C75.874 219.185 76.3173 218.741 76.3173 218.192C76.3173 217.644 75.874 217.2 75.327 217.2C74.7801 217.2 74.3367 217.644 74.3367 218.192C74.3367 218.741 74.7801 219.185 75.327 219.185Z" fill="#DBF900"/>
<path d="M30.7615 234.071C31.3085 234.071 31.7519 233.627 31.7519 233.079C31.7519 232.53 31.3085 232.086 30.7615 232.086C30.2146 232.086 29.7712 232.53 29.7712 233.079C29.7712 233.627 30.2146 234.071 30.7615 234.071Z" fill="#DBF900"/>
<path d="M45.6166 234.062C45.0756 234.062 44.6262 233.621 44.6262 233.069C44.6262 232.518 45.0664 232.077 45.6166 232.077C46.1668 232.077 46.6069 232.518 46.6069 233.069C46.6069 233.621 46.1668 234.062 45.6166 234.062Z" fill="#DBF900"/>
<path d="M60.4718 234.071C61.0188 234.071 61.4622 233.627 61.4622 233.079C61.4622 232.53 61.0188 232.086 60.4718 232.086C59.9249 232.086 59.4814 232.53 59.4814 233.079C59.4814 233.627 59.9249 234.071 60.4718 234.071Z" fill="#DBF900"/>
<path d="M75.327 234.071C75.874 234.071 76.3173 233.627 76.3173 233.079C76.3173 232.53 75.874 232.086 75.327 232.086C74.7801 232.086 74.3367 232.53 74.3367 233.079C74.3367 233.627 74.7801 234.071 75.327 234.071Z" fill="#DBF900"/>
<path d="M1.04212 204.29C1.58907 204.29 2.03248 203.845 2.03248 203.297C2.03248 202.749 1.58907 202.305 1.04212 202.305C0.495165 202.305 0.0517578 202.749 0.0517578 203.297C0.0517578 203.845 0.495165 204.29 1.04212 204.29Z" fill="#DBF900"/>
<path d="M15.8973 204.29C16.4443 204.29 16.8876 203.845 16.8876 203.297C16.8876 202.749 16.4443 202.305 15.8973 202.305C15.3504 202.305 14.907 202.749 14.907 203.297C14.907 203.845 15.3504 204.29 15.8973 204.29Z" fill="#DBF900"/>
<path d="M1.04212 219.185C1.58907 219.185 2.03248 218.741 2.03248 218.192C2.03248 217.644 1.58907 217.2 1.04212 217.2C0.495165 217.2 0.0517578 217.644 0.0517578 218.192C0.0517578 218.741 0.495165 219.185 1.04212 219.185Z" fill="#DBF900"/>
<path d="M15.8973 219.185C16.4443 219.185 16.8876 218.741 16.8876 218.192C16.8876 217.644 16.4443 217.2 15.8973 217.2C15.3504 217.2 14.907 217.644 14.907 218.192C14.907 218.741 15.3504 219.185 15.8973 219.185Z" fill="#DBF900"/>
<path d="M1.04212 234.071C1.58907 234.071 2.03248 233.627 2.03248 233.079C2.03248 232.53 1.58907 232.086 1.04212 232.086C0.495165 232.086 0.0517578 232.53 0.0517578 233.079C0.0517578 233.627 0.495165 234.071 1.04212 234.071Z" fill="#DBF900"/>
<path d="M15.8973 234.071C16.4443 234.071 16.8876 233.627 16.8876 233.079C16.8876 232.53 16.4443 232.086 15.8973 232.086C15.3504 232.086 14.907 232.53 14.907 233.079C14.907 233.627 15.3504 234.071 15.8973 234.071Z" fill="#DBF900"/>
<path d="M90.1822 129.85C90.7291 129.85 91.1726 129.406 91.1726 128.858C91.1726 128.309 90.7291 127.865 90.1822 127.865C89.6352 127.865 89.1919 128.309 89.1919 128.858C89.1919 129.406 89.6352 129.85 90.1822 129.85Z" fill="#DBF900"/>
<path d="M1.04212 85.1916C1.58907 85.1916 2.03248 84.7473 2.03248 84.1992C2.03248 83.6511 1.58907 83.2068 1.04212 83.2068C0.495165 83.2068 0.0517578 83.6511 0.0517578 84.1992C0.0517578 84.7473 0.495165 85.1916 1.04212 85.1916Z" fill="#DBF900"/>
<path d="M1.04212 100.078C1.58907 100.078 2.03248 99.6334 2.03248 99.0853C2.03248 98.5372 1.58907 98.0929 1.04212 98.0929C0.495165 98.0929 0.0517578 98.5372 0.0517578 99.0853C0.0517578 99.6334 0.495165 100.078 1.04212 100.078Z" fill="#DBF900"/>
<path d="M15.8973 85.1916C16.4443 85.1916 16.8876 84.7473 16.8876 84.1992C16.8876 83.6511 16.4443 83.2068 15.8973 83.2068C15.3504 83.2068 14.907 83.6511 14.907 84.1992C14.907 84.7473 15.3504 85.1916 15.8973 85.1916Z" fill="#DBF900"/>
<path d="M15.8973 100.078C16.4443 100.078 16.8876 99.6334 16.8876 99.0853C16.8876 98.5372 16.4443 98.0929 15.8973 98.0929C15.3504 98.0929 14.907 98.5372 14.907 99.0853C14.907 99.6334 15.3504 100.078 15.8973 100.078Z" fill="#DBF900"/>
<path d="M1.04212 114.964C0.501096 114.964 0.0517578 114.523 0.0517578 113.971C0.0517578 113.42 0.491926 112.979 1.04212 112.979C1.59231 112.979 2.03248 113.42 2.03248 113.971C2.03248 114.523 1.59231 114.964 1.04212 114.964Z" fill="#DBF900"/>
<path d="M1.04212 129.85C1.58907 129.85 2.03248 129.406 2.03248 128.858C2.03248 128.309 1.58907 127.865 1.04212 127.865C0.495165 127.865 0.0517578 128.309 0.0517578 128.858C0.0517578 129.406 0.495165 129.85 1.04212 129.85Z" fill="#DBF900"/>
<path d="M2.03248 39.5317C2.03248 40.0739 1.59231 40.5241 1.04212 40.5241C0.491926 40.5241 0.0517578 40.0831 0.0517578 39.5317C0.0517578 38.9804 0.491926 38.5393 1.04212 38.5393C1.59231 38.5393 2.03248 38.9804 2.03248 39.5317Z" fill="#DBF900"/>
<path d="M1.04212 55.4102C0.501096 55.4102 0.0517578 54.9692 0.0517578 54.4178C0.0517578 53.8665 0.491926 53.4254 1.04212 53.4254C1.59231 53.4254 2.03248 53.8665 2.03248 54.4178C2.03248 54.9692 1.59231 55.4102 1.04212 55.4102Z" fill="#DBF900"/>
<path d="M1.04212 70.3055C1.58907 70.3055 2.03248 69.8612 2.03248 69.3131C2.03248 68.765 1.58907 68.3207 1.04212 68.3207C0.495165 68.3207 0.0517578 68.765 0.0517578 69.3131C0.0517578 69.8612 0.495165 70.3055 1.04212 70.3055Z" fill="#DBF900"/>
<path d="M15.8973 70.3055C16.4443 70.3055 16.8876 69.8612 16.8876 69.3131C16.8876 68.765 16.4443 68.3207 15.8973 68.3207C15.3504 68.3207 14.907 68.765 14.907 69.3131C14.907 69.8612 15.3504 70.3055 15.8973 70.3055Z" fill="#DBF900"/>
<path d="M15.8973 129.85C16.4443 129.85 16.8876 129.406 16.8876 128.858C16.8876 128.309 16.4443 127.865 15.8973 127.865C15.3504 127.865 14.907 128.309 14.907 128.858C14.907 129.406 15.3504 129.85 15.8973 129.85Z" fill="#DBF900"/>
<path d="M30.7615 248.957C30.2205 248.957 29.7712 248.516 29.7712 247.965C29.7712 247.413 30.2114 246.972 30.7615 246.972C31.3117 246.972 31.7519 247.413 31.7519 247.965C31.7519 248.516 31.3117 248.957 30.7615 248.957Z" fill="#DBF900"/>
<path d="M45.6166 248.957C45.0756 248.957 44.6262 248.516 44.6262 247.965C44.6262 247.413 45.0664 246.972 45.6166 246.972C46.1668 246.972 46.6069 247.413 46.6069 247.965C46.6069 248.516 46.1668 248.957 45.6166 248.957Z" fill="#DBF900"/>
<path d="M60.4718 248.957C59.9308 248.957 59.4814 248.516 59.4814 247.965C59.4814 247.413 59.9216 246.972 60.4718 246.972C61.022 246.972 61.4622 247.413 61.4622 247.965C61.4622 248.516 61.022 248.957 60.4718 248.957Z" fill="#DBF900"/>
<path d="M30.7615 263.843C31.3085 263.843 31.7519 263.399 31.7519 262.851C31.7519 262.303 31.3085 261.858 30.7615 261.858C30.2146 261.858 29.7712 262.303 29.7712 262.851C29.7712 263.399 30.2146 263.843 30.7615 263.843Z" fill="#DBF900"/>
<path d="M45.6166 263.843C45.0756 263.843 44.6262 263.402 44.6262 262.851C44.6262 262.299 45.0664 261.858 45.6166 261.858C46.1668 261.858 46.6069 262.299 46.6069 262.851C46.6069 263.402 46.1668 263.843 45.6166 263.843Z" fill="#DBF900"/>
<path d="M1.04212 248.957C0.501096 248.957 0.0517578 248.516 0.0517578 247.965C0.0517578 247.413 0.491926 246.972 1.04212 246.972C1.59231 246.972 2.03248 247.413 2.03248 247.965C2.03248 248.516 1.59231 248.957 1.04212 248.957Z" fill="#DBF900"/>
<path d="M15.8973 248.957C15.3563 248.957 14.907 248.516 14.907 247.965C14.907 247.413 15.3472 246.972 15.8973 246.972C16.4475 246.972 16.8876 247.413 16.8876 247.965C16.8876 248.516 16.4475 248.957 15.8973 248.957Z" fill="#DBF900"/>
<path d="M1.04212 263.843C1.58907 263.843 2.03248 263.399 2.03248 262.851C2.03248 262.303 1.58907 261.858 1.04212 261.858C0.495165 261.858 0.0517578 262.303 0.0517578 262.851C0.0517578 263.399 0.495165 263.843 1.04212 263.843Z" fill="#DBF900"/>
<path d="M15.8973 263.843C16.4443 263.843 16.8876 263.399 16.8876 262.851C16.8876 262.303 16.4443 261.858 15.8973 261.858C15.3504 261.858 14.907 262.303 14.907 262.851C14.907 263.399 15.3504 263.843 15.8973 263.843Z" fill="#DBF900"/>
<path d="M1.04212 278.729C1.58907 278.729 2.03248 278.285 2.03248 277.737C2.03248 277.189 1.58907 276.745 1.04212 276.745C0.495165 276.745 0.0517578 277.189 0.0517578 277.737C0.0517578 278.285 0.495165 278.729 1.04212 278.729Z" fill="#DBF900"/>
<path d="M15.8973 278.729C16.4443 278.729 16.8876 278.285 16.8876 277.737C16.8876 277.189 16.4443 276.745 15.8973 276.745C15.3504 276.745 14.907 277.189 14.907 277.737C14.907 278.285 15.3504 278.729 15.8973 278.729Z" fill="#DBF900"/>
</svg>
