<svg width="275" height="217" viewBox="0 0 275 217" fill="none" xmlns="http://www.w3.org/2000/svg">
<path d="M214.173 129.316C246.478 129.316 272.667 103.127 272.667 70.8221C272.667 38.517 246.478 12.3286 214.173 12.3286C181.868 12.3286 155.68 38.517 155.68 70.8221C155.68 103.127 181.868 129.316 214.173 129.316Z" fill="#0B1014" stroke="#DBF900" stroke-width="4" stroke-miterlimit="10"/>
<path d="M232.19 106.427C234.504 97.8138 224.86 87.7342 210.653 83.9166C196.443 80.0991 183.051 83.9859 180.732 92.5988" stroke="#DBF900" stroke-width="5.49" stroke-miterlimit="10" stroke-linecap="round"/>
<path d="M208.22 54.0211C210.64 45.016 209.267 36.8198 205.153 35.7145C201.039 34.6092 195.743 41.0133 193.324 50.0184C190.904 59.0235 192.277 67.2196 196.391 68.3249C200.504 69.4303 205.8 63.0262 208.22 54.0211Z" fill="#DBF900"/>
<path d="M242.624 63.2669C245.044 54.2618 243.671 46.0657 239.557 44.9604C235.444 43.8551 230.148 50.2591 227.728 59.2642C225.308 68.2694 226.681 76.4655 230.795 77.5708C234.909 78.6761 240.205 72.2721 242.624 63.2669Z" fill="#DBF900"/>
<path d="M207.158 175.639C230.001 152.796 230.001 115.76 207.158 92.9164C184.315 70.0733 147.279 70.0733 124.435 92.9164C101.592 115.76 101.592 152.796 124.435 175.639C147.279 198.482 184.315 198.482 207.158 175.639Z" fill="#DBF900"/>
<path d="M107.526 129.01C130.057 122.3 146.891 102.381 149.055 78.2332C125.514 85.2571 109.625 105.848 107.526 129.01Z" fill="#728100"/>
<path d="M113.067 108.961C107.103 121.375 105.465 135.928 109.515 150.225C111.417 156.943 114.424 163.05 118.274 168.412C127.408 149.402 125.673 126.484 113.067 108.961Z" fill="#728100"/>
<path d="M127.226 145.205C133.26 166.505 155.419 178.883 176.719 172.845C198.019 166.811 210.397 144.651 204.359 123.351" stroke="#0B1014" stroke-width="5.49" stroke-miterlimit="10" stroke-linecap="round"/>
<path d="M149.271 141.257C153.369 140.095 154.631 131.881 152.089 122.91C149.547 113.939 144.164 107.607 140.066 108.768C135.968 109.93 134.706 118.144 137.248 127.115C139.79 136.086 145.173 142.418 149.271 141.257Z" fill="#0B1014"/>
<path d="M183.55 131.543C187.648 130.382 188.909 122.168 186.367 113.196C183.825 104.225 178.442 97.8935 174.344 99.0547C170.246 100.216 168.985 108.43 171.527 117.401C174.069 126.373 179.451 132.704 183.55 131.543Z" fill="#0B1014"/>
<path d="M93.4613 116.987C125.766 116.987 151.955 90.7986 151.955 58.4935C151.955 26.1885 125.766 0 93.4613 0C61.1562 0 34.9678 26.1885 34.9678 58.4935C34.9678 90.7986 61.1562 116.987 93.4613 116.987Z" fill="#DBF900"/>
<path d="M40.4434 83.2282C49.7611 103.167 69.9977 116.987 93.4612 116.987C101.927 116.987 109.97 115.186 117.234 111.951C114.427 105.934 110.54 100.295 105.574 95.3286C87.961 77.7157 61.9186 73.6863 40.4434 83.2322V83.2282Z" fill="#728100"/>
<path d="M53.375 58.4936C53.375 80.6329 71.3219 98.5798 93.4612 98.5798C115.601 98.5798 133.547 80.6329 133.547 58.4936" stroke="#0B1014" stroke-width="5.49" stroke-miterlimit="10" stroke-linecap="round"/>
<path d="M75.6451 60.7099C79.9046 60.7099 83.3576 53.1509 83.3576 43.8264C83.3576 34.5018 79.9046 26.9428 75.6451 26.9428C71.3856 26.9428 67.9326 34.5018 67.9326 43.8264C67.9326 53.1509 71.3856 60.7099 75.6451 60.7099Z" fill="#0B1014"/>
<path d="M111.274 60.7099C115.534 60.7099 118.987 53.1508 118.987 43.8263C118.987 34.5018 115.534 26.9427 111.274 26.9427C107.015 26.9427 103.562 34.5018 103.562 43.8263C103.562 53.1508 107.015 60.7099 111.274 60.7099Z" fill="#0B1014"/>
<path d="M60.4935 195.709C92.7986 195.709 118.987 169.521 118.987 137.216C118.987 104.911 92.7986 78.7221 60.4935 78.7221C28.1885 78.7221 2 104.911 2 137.216C2 169.521 28.1885 195.709 60.4935 195.709Z" fill="#0B1014" stroke="#DBF900" stroke-width="4" stroke-miterlimit="10"/>
<path d="M88.8377 108.871C73.1846 93.2182 47.8022 93.2182 32.149 108.871C16.4959 124.524 16.4959 149.907 32.149 165.56" stroke="#DBF900" stroke-width="5.49" stroke-miterlimit="10" stroke-linecap="round"/>
<path d="M95.3969 146.932C98.4088 143.92 95.5054 136.133 88.912 129.54C82.3186 122.946 74.5319 120.043 71.52 123.055C68.5081 126.067 71.4114 133.853 78.0049 140.447C84.5983 147.04 92.385 149.944 95.3969 146.932Z" fill="#DBF900"/>
<path d="M70.2055 172.122C73.2174 169.11 70.3141 161.323 63.7206 154.73C57.1272 148.136 49.3405 145.233 46.3286 148.245C43.3166 151.257 46.2201 159.043 52.8135 165.637C59.4069 172.23 67.1936 175.134 70.2055 172.122Z" fill="#DBF900"/>
</svg>
