<svg width="297" height="431" viewBox="0 0 297 431" fill="none" xmlns="http://www.w3.org/2000/svg">
<path d="M91.3354 41.7013L64.912 33.7129L72.8837 7.23441L52.2475 1L44.2757 27.4785L17.8523 19.4901L11.6309 40.1649L38.0454 48.1577L30.0914 74.6273L50.7143 80.8795L58.6905 54.3966L85.1184 62.3805L91.3354 41.7013Z" stroke="white" stroke-width="0.93" stroke-linecap="round" stroke-linejoin="round"/>
<path d="M67.239 71.7881L77.5416 66.2509L83.7586 45.5672L57.3352 37.5832L65.307 11.1047L44.6752 4.8659L34.3682 10.4076" stroke="white" stroke-width="0.93" stroke-linecap="round" stroke-linejoin="round"/>
<path d="M1 29.7327L11.3026 24.1955L29.8119 29.7905" stroke="white" stroke-width="0.93" stroke-linecap="round" stroke-linejoin="round"/>
<path d="M32.835 90.2871L43.1376 84.7498L48.7253 66.1976" stroke="white" stroke-width="0.93" stroke-linecap="round" stroke-linejoin="round"/>
<path d="M55.0039 16.642L65.3065 11.1047" stroke="white" stroke-width="0.93" stroke-linecap="round" stroke-linejoin="round"/>
<path d="M73.4561 51.1089L83.7587 45.5672" stroke="white" stroke-width="0.93" stroke-linecap="round" stroke-linejoin="round"/>
<path d="M34.8399 82.5955C35.1042 82.5955 35.3185 82.3808 35.3185 82.116C35.3185 81.8511 35.1042 81.6364 34.8399 81.6364C34.5756 81.6364 34.3613 81.8511 34.3613 82.116C34.3613 82.3808 34.5756 82.5955 34.8399 82.5955Z" fill="#DBF900"/>
<path d="M42.0186 82.5911C41.7572 82.5911 41.54 82.3779 41.54 82.1115C41.54 81.8451 41.7527 81.6319 42.0186 81.6319C42.2845 81.6319 42.4972 81.8451 42.4972 82.1115C42.4972 82.3779 42.2845 82.5911 42.0186 82.5911Z" fill="#DBF900"/>
<path d="M49.1973 82.5955C49.4616 82.5955 49.6759 82.3808 49.6759 82.1159C49.6759 81.8511 49.4616 81.6364 49.1973 81.6364C48.933 81.6364 48.7188 81.8511 48.7188 82.1159C48.7188 82.3808 48.933 82.5955 49.1973 82.5955Z" fill="#DBF900"/>
<path d="M56.376 75.402C56.6403 75.402 56.8546 75.1873 56.8546 74.9224C56.8546 74.6575 56.6403 74.4428 56.376 74.4428C56.1117 74.4428 55.8975 74.6575 55.8975 74.9224C55.8975 75.1873 56.1117 75.402 56.376 75.402Z" fill="#DBF900"/>
<path d="M56.376 82.5955C56.6403 82.5955 56.8546 82.3808 56.8546 82.1159C56.8546 81.8511 56.6403 81.6364 56.376 81.6364C56.1117 81.6364 55.8975 81.8511 55.8975 82.1159C55.8975 82.3808 56.1117 82.5955 56.376 82.5955Z" fill="#DBF900"/>
<path d="M63.5547 75.402C63.819 75.402 64.0333 75.1872 64.0333 74.9224C64.0333 74.6575 63.819 74.4428 63.5547 74.4428C63.2904 74.4428 63.0762 74.6575 63.0762 74.9224C63.0762 75.1872 63.2904 75.402 63.5547 75.402Z" fill="#DBF900"/>
<path d="M63.5547 82.5955C63.819 82.5955 64.0333 82.3808 64.0333 82.116C64.0333 81.8511 63.819 81.6364 63.5547 81.6364C63.2904 81.6364 63.0762 81.8511 63.0762 82.116C63.0762 82.3808 63.2904 82.5955 63.5547 82.5955Z" fill="#DBF900"/>
<path d="M71.212 74.9224C71.212 75.1844 70.9993 75.402 70.7334 75.402C70.4676 75.402 70.2549 75.1888 70.2549 74.9224C70.2549 74.656 70.4676 74.4428 70.7334 74.4428C70.9993 74.4428 71.212 74.656 71.212 74.9224Z" fill="#DBF900"/>
<path d="M70.7334 82.5911C70.472 82.5911 70.2549 82.3779 70.2549 82.1115C70.2549 81.8451 70.4676 81.6319 70.7334 81.6319C70.9993 81.6319 71.212 81.8451 71.212 82.1115C71.212 82.3779 70.9993 82.5911 70.7334 82.5911Z" fill="#DBF900"/>
<path d="M77.9161 82.5955C78.1804 82.5955 78.3947 82.3808 78.3947 82.1159C78.3947 81.8511 78.1804 81.6364 77.9161 81.6364C77.6518 81.6364 77.4375 81.8511 77.4375 82.1159C77.4375 82.3808 77.6518 82.5955 77.9161 82.5955Z" fill="#DBF900"/>
<path d="M34.8399 89.7891C35.1042 89.7891 35.3185 89.5744 35.3185 89.3095C35.3185 89.0446 35.1042 88.8299 34.8399 88.8299C34.5756 88.8299 34.3613 89.0446 34.3613 89.3095C34.3613 89.5744 34.5756 89.7891 34.8399 89.7891Z" fill="#DBF900"/>
<path d="M42.0186 89.7891C41.7572 89.7891 41.54 89.5759 41.54 89.3095C41.54 89.0431 41.7527 88.8299 42.0186 88.8299C42.2845 88.8299 42.4972 89.0431 42.4972 89.3095C42.4972 89.5759 42.2845 89.7891 42.0186 89.7891Z" fill="#DBF900"/>
<path d="M49.1973 89.7891C49.4616 89.7891 49.6759 89.5743 49.6759 89.3095C49.6759 89.0446 49.4616 88.8299 49.1973 88.8299C48.933 88.8299 48.7188 89.0446 48.7188 89.3095C48.7188 89.5743 48.933 89.7891 49.1973 89.7891Z" fill="#DBF900"/>
<path d="M56.376 89.7891C56.6403 89.7891 56.8546 89.5743 56.8546 89.3095C56.8546 89.0446 56.6403 88.8299 56.376 88.8299C56.1117 88.8299 55.8975 89.0446 55.8975 89.3095C55.8975 89.5743 56.1117 89.7891 56.376 89.7891Z" fill="#DBF900"/>
<path d="M63.5547 89.7891C63.819 89.7891 64.0333 89.5744 64.0333 89.3095C64.0333 89.0446 63.819 88.8299 63.5547 88.8299C63.2904 88.8299 63.0762 89.0446 63.0762 89.3095C63.0762 89.5744 63.2904 89.7891 63.5547 89.7891Z" fill="#DBF900"/>
<path d="M70.7334 89.7891C70.472 89.7891 70.2549 89.5759 70.2549 89.3095C70.2549 89.0431 70.4676 88.8299 70.7334 88.8299C70.9993 88.8299 71.212 89.0431 71.212 89.3095C71.212 89.5759 70.9993 89.7891 70.7334 89.7891Z" fill="#DBF900"/>
<path d="M77.9161 89.7891C78.1804 89.7891 78.3947 89.5743 78.3947 89.3095C78.3947 89.0446 78.1804 88.8299 77.9161 88.8299C77.6518 88.8299 77.4375 89.0446 77.4375 89.3095C77.4375 89.5743 77.6518 89.7891 77.9161 89.7891Z" fill="#DBF900"/>
<path d="M34.8399 96.9826C34.5784 96.9826 34.3613 96.7695 34.3613 96.503C34.3613 96.2366 34.574 96.0235 34.8399 96.0235C35.1058 96.0235 35.3185 96.2366 35.3185 96.503C35.3185 96.7695 35.1058 96.9826 34.8399 96.9826Z" fill="#DBF900"/>
<path d="M42.0186 96.9826C41.7572 96.9826 41.54 96.7695 41.54 96.503C41.54 96.2366 41.7527 96.0235 42.0186 96.0235C42.2845 96.0235 42.4972 96.2366 42.4972 96.503C42.4972 96.7695 42.2845 96.9826 42.0186 96.9826Z" fill="#DBF900"/>
<path d="M49.1973 96.9826C48.9359 96.9826 48.7188 96.7695 48.7188 96.503C48.7188 96.2366 48.9315 96.0235 49.1973 96.0235C49.4632 96.0235 49.6759 96.2366 49.6759 96.503C49.6759 96.7695 49.4632 96.9826 49.1973 96.9826Z" fill="#DBF900"/>
<path d="M56.376 96.9826C56.1146 96.9826 55.8975 96.7695 55.8975 96.503C55.8975 96.2366 56.1102 96.0235 56.376 96.0235C56.6419 96.0235 56.8546 96.2366 56.8546 96.503C56.8546 96.7695 56.6419 96.9826 56.376 96.9826Z" fill="#DBF900"/>
<path d="M63.5547 96.9826C63.2933 96.9826 63.0762 96.7695 63.0762 96.503C63.0762 96.2366 63.2889 96.0235 63.5547 96.0235C63.8206 96.0235 64.0333 96.2366 64.0333 96.503C64.0333 96.7695 63.8206 96.9826 63.5547 96.9826Z" fill="#DBF900"/>
<path d="M70.7334 96.9826C70.472 96.9826 70.2549 96.7695 70.2549 96.503C70.2549 96.2366 70.4676 96.0235 70.7334 96.0235C70.9993 96.0235 71.212 96.2366 71.212 96.503C71.212 96.7695 70.9993 96.9826 70.7334 96.9826Z" fill="#DBF900"/>
<path d="M77.9161 96.9826C77.6546 96.9826 77.4375 96.7695 77.4375 96.503C77.4375 96.2366 77.6502 96.0235 77.9161 96.0235C78.182 96.0235 78.3947 96.2366 78.3947 96.503C78.3947 96.7695 78.182 96.9826 77.9161 96.9826Z" fill="#DBF900"/>
<path d="M63.5547 104.176C63.819 104.176 64.0333 103.961 64.0333 103.697C64.0333 103.432 63.819 103.217 63.5547 103.217C63.2904 103.217 63.0762 103.432 63.0762 103.697C63.0762 103.961 63.2904 104.176 63.5547 104.176Z" fill="#DBF900"/>
<path d="M70.7334 104.176C70.472 104.176 70.2549 103.963 70.2549 103.697C70.2549 103.43 70.4676 103.217 70.7334 103.217C70.9993 103.217 71.212 103.43 71.212 103.697C71.212 103.963 70.9993 104.176 70.7334 104.176Z" fill="#DBF900"/>
<path d="M77.9161 104.176C78.1804 104.176 78.3947 103.961 78.3947 103.697C78.3947 103.432 78.1804 103.217 77.9161 103.217C77.6518 103.217 77.4375 103.432 77.4375 103.697C77.4375 103.961 77.6518 104.176 77.9161 104.176Z" fill="#DBF900"/>
<path d="M63.5547 111.374C63.819 111.374 64.0333 111.159 64.0333 110.895C64.0333 110.63 63.819 110.415 63.5547 110.415C63.2904 110.415 63.0762 110.63 63.0762 110.895C63.0762 111.159 63.2904 111.374 63.5547 111.374Z" fill="#DBF900"/>
<path d="M70.7334 111.37C70.472 111.37 70.2549 111.157 70.2549 110.89C70.2549 110.624 70.4676 110.411 70.7334 110.411C70.9993 110.411 71.212 110.624 71.212 110.89C71.212 111.157 70.9993 111.37 70.7334 111.37Z" fill="#DBF900"/>
<path d="M20.4786 75.402C20.7429 75.402 20.9572 75.1873 20.9572 74.9224C20.9572 74.6575 20.7429 74.4428 20.4786 74.4428C20.2143 74.4428 20 74.6575 20 74.9224C20 75.1873 20.2143 75.402 20.4786 75.402Z" fill="#DBF900"/>
<path d="M20.4786 82.5955C20.7429 82.5955 20.9572 82.3808 20.9572 82.1159C20.9572 81.8511 20.7429 81.6364 20.4786 81.6364C20.2143 81.6364 20 81.8511 20 82.1159C20 82.3808 20.2143 82.5955 20.4786 82.5955Z" fill="#DBF900"/>
<path d="M27.6573 75.402C27.9216 75.402 28.1358 75.1873 28.1358 74.9224C28.1358 74.6575 27.9216 74.4428 27.6573 74.4428C27.393 74.4428 27.1787 74.6575 27.1787 74.9224C27.1787 75.1873 27.393 75.402 27.6573 75.402Z" fill="#DBF900"/>
<path d="M27.6573 82.5955C27.9216 82.5955 28.1358 82.3808 28.1358 82.1159C28.1358 81.8511 27.9216 81.6364 27.6573 81.6364C27.393 81.6364 27.1787 81.8511 27.1787 82.1159C27.1787 82.3808 27.393 82.5955 27.6573 82.5955Z" fill="#DBF900"/>
<path d="M20.4786 89.7891C20.7429 89.7891 20.9572 89.5743 20.9572 89.3095C20.9572 89.0446 20.7429 88.8299 20.4786 88.8299C20.2143 88.8299 20 89.0446 20 89.3095C20 89.5743 20.2143 89.7891 20.4786 89.7891Z" fill="#DBF900"/>
<path d="M27.6573 89.7891C27.9216 89.7891 28.1358 89.5743 28.1358 89.3095C28.1358 89.0446 27.9216 88.8299 27.6573 88.8299C27.393 88.8299 27.1787 89.0446 27.1787 89.3095C27.1787 89.5743 27.393 89.7891 27.6573 89.7891Z" fill="#DBF900"/>
<path d="M20.4786 96.9826C20.2171 96.9826 20 96.7695 20 96.503C20 96.2366 20.2127 96.0235 20.4786 96.0235C20.7445 96.0235 20.9572 96.2366 20.9572 96.503C20.9572 96.7695 20.7445 96.9826 20.4786 96.9826Z" fill="#DBF900"/>
<path d="M27.6573 96.9826C27.3958 96.9826 27.1787 96.7695 27.1787 96.503C27.1787 96.2366 27.3914 96.0235 27.6573 96.0235C27.9232 96.0235 28.1358 96.2366 28.1358 96.503C28.1358 96.7695 27.9232 96.9826 27.6573 96.9826Z" fill="#DBF900"/>
<path d="M34.8399 104.176C35.1042 104.176 35.3185 103.961 35.3185 103.697C35.3185 103.432 35.1042 103.217 34.8399 103.217C34.5756 103.217 34.3613 103.432 34.3613 103.697C34.3613 103.961 34.5756 104.176 34.8399 104.176Z" fill="#DBF900"/>
<path d="M42.0186 104.176C41.7572 104.176 41.54 103.963 41.54 103.697C41.54 103.43 41.7527 103.217 42.0186 103.217C42.2845 103.217 42.4972 103.43 42.4972 103.697C42.4972 103.963 42.2845 104.176 42.0186 104.176Z" fill="#DBF900"/>
<path d="M49.1973 104.176C49.4616 104.176 49.6759 103.961 49.6759 103.697C49.6759 103.432 49.4616 103.217 49.1973 103.217C48.933 103.217 48.7188 103.432 48.7188 103.697C48.7188 103.961 48.933 104.176 49.1973 104.176Z" fill="#DBF900"/>
<path d="M56.376 104.176C56.6403 104.176 56.8546 103.961 56.8546 103.697C56.8546 103.432 56.6403 103.217 56.376 103.217C56.1117 103.217 55.8975 103.432 55.8975 103.697C55.8975 103.961 56.1117 104.176 56.376 104.176Z" fill="#DBF900"/>
<path d="M34.8399 111.374C35.1042 111.374 35.3185 111.159 35.3185 110.895C35.3185 110.63 35.1042 110.415 34.8399 110.415C34.5756 110.415 34.3613 110.63 34.3613 110.895C34.3613 111.159 34.5756 111.374 34.8399 111.374Z" fill="#DBF900"/>
<path d="M42.0186 111.37C41.7572 111.37 41.54 111.157 41.54 110.89C41.54 110.624 41.7527 110.411 42.0186 110.411C42.2845 110.411 42.4972 110.624 42.4972 110.89C42.4972 111.157 42.2845 111.37 42.0186 111.37Z" fill="#DBF900"/>
<path d="M49.1973 111.374C49.4616 111.374 49.6759 111.159 49.6759 110.895C49.6759 110.63 49.4616 110.415 49.1973 110.415C48.933 110.415 48.7188 110.63 48.7188 110.895C48.7188 111.159 48.933 111.374 49.1973 111.374Z" fill="#DBF900"/>
<path d="M56.376 111.374C56.6403 111.374 56.8546 111.159 56.8546 110.895C56.8546 110.63 56.6403 110.415 56.376 110.415C56.1117 110.415 55.8975 110.63 55.8975 110.895C55.8975 111.159 56.1117 111.374 56.376 111.374Z" fill="#DBF900"/>
<path d="M34.8399 118.568C35.1042 118.568 35.3185 118.353 35.3185 118.088C35.3185 117.823 35.1042 117.609 34.8399 117.609C34.5756 117.609 34.3613 117.823 34.3613 118.088C34.3613 118.353 34.5756 118.568 34.8399 118.568Z" fill="#DBF900"/>
<path d="M42.0186 118.563C41.7572 118.563 41.54 118.35 41.54 118.084C41.54 117.817 41.7527 117.604 42.0186 117.604C42.2845 117.604 42.4972 117.817 42.4972 118.084C42.4972 118.35 42.2845 118.563 42.0186 118.563Z" fill="#DBF900"/>
<path d="M49.1973 118.568C49.4616 118.568 49.6759 118.353 49.6759 118.088C49.6759 117.823 49.4616 117.609 49.1973 117.609C48.933 117.609 48.7188 117.823 48.7188 118.088C48.7188 118.353 48.933 118.568 49.1973 118.568Z" fill="#DBF900"/>
<path d="M56.376 118.568C56.6403 118.568 56.8546 118.353 56.8546 118.088C56.8546 117.823 56.6403 117.609 56.376 117.609C56.1117 117.609 55.8975 117.823 55.8975 118.088C55.8975 118.353 56.1117 118.568 56.376 118.568Z" fill="#DBF900"/>
<path d="M20.4786 104.176C20.7429 104.176 20.9572 103.961 20.9572 103.697C20.9572 103.432 20.7429 103.217 20.4786 103.217C20.2143 103.217 20 103.432 20 103.697C20 103.961 20.2143 104.176 20.4786 104.176Z" fill="#DBF900"/>
<path d="M27.6573 104.176C27.9216 104.176 28.1358 103.961 28.1358 103.697C28.1358 103.432 27.9216 103.217 27.6573 103.217C27.393 103.217 27.1787 103.432 27.1787 103.697C27.1787 103.961 27.393 104.176 27.6573 104.176Z" fill="#DBF900"/>
<path d="M20.4786 111.374C20.7429 111.374 20.9572 111.159 20.9572 110.895C20.9572 110.63 20.7429 110.415 20.4786 110.415C20.2143 110.415 20 110.63 20 110.895C20 111.159 20.2143 111.374 20.4786 111.374Z" fill="#DBF900"/>
<path d="M27.6573 111.374C27.9216 111.374 28.1358 111.159 28.1358 110.895C28.1358 110.63 27.9216 110.415 27.6573 110.415C27.393 110.415 27.1787 110.63 27.1787 110.895C27.1787 111.159 27.393 111.374 27.6573 111.374Z" fill="#DBF900"/>
<path d="M20.4786 118.568C20.7429 118.568 20.9572 118.353 20.9572 118.088C20.9572 117.823 20.7429 117.609 20.4786 117.609C20.2143 117.609 20 117.823 20 118.088C20 118.353 20.2143 118.568 20.4786 118.568Z" fill="#DBF900"/>
<path d="M27.6573 118.568C27.9216 118.568 28.1358 118.353 28.1358 118.088C28.1358 117.823 27.9216 117.609 27.6573 117.609C27.393 117.609 27.1787 117.823 27.1787 118.088C27.1787 118.353 27.393 118.568 27.6573 118.568Z" fill="#DBF900"/>
<path d="M63.5547 68.204C63.819 68.204 64.0333 67.9893 64.0333 67.7244C64.0333 67.4596 63.819 67.2448 63.5547 67.2448C63.2904 67.2448 63.0762 67.4596 63.0762 67.7244C63.0762 67.9893 63.2904 68.204 63.5547 68.204Z" fill="#DBF900"/>
<path d="M20.4786 46.6233C20.7429 46.6233 20.9572 46.4086 20.9572 46.1438C20.9572 45.8789 20.7429 45.6642 20.4786 45.6642C20.2143 45.6642 20 45.8789 20 46.1438C20 46.4086 20.2143 46.6233 20.4786 46.6233Z" fill="#DBF900"/>
<path d="M20.4786 53.8169C20.7429 53.8169 20.9572 53.6022 20.9572 53.3373C20.9572 53.0724 20.7429 52.8577 20.4786 52.8577C20.2143 52.8577 20 53.0724 20 53.3373C20 53.6022 20.2143 53.8169 20.4786 53.8169Z" fill="#DBF900"/>
<path d="M27.6573 46.6233C27.9216 46.6233 28.1358 46.4086 28.1358 46.1438C28.1358 45.8789 27.9216 45.6642 27.6573 45.6642C27.393 45.6642 27.1787 45.8789 27.1787 46.1438C27.1787 46.4086 27.393 46.6233 27.6573 46.6233Z" fill="#DBF900"/>
<path d="M27.6573 53.8169C27.9216 53.8169 28.1358 53.6022 28.1358 53.3373C28.1358 53.0724 27.9216 52.8577 27.6573 52.8577C27.393 52.8577 27.1787 53.0724 27.1787 53.3373C27.1787 53.6022 27.393 53.8169 27.6573 53.8169Z" fill="#DBF900"/>
<path d="M20.4786 61.0104C20.2171 61.0104 20 60.7973 20 60.5308C20 60.2644 20.2127 60.0513 20.4786 60.0513C20.7445 60.0513 20.9572 60.2644 20.9572 60.5308C20.9572 60.7973 20.7445 61.0104 20.4786 61.0104Z" fill="#DBF900"/>
<path d="M20.4786 68.204C20.7429 68.204 20.9572 67.9893 20.9572 67.7244C20.9572 67.4595 20.7429 67.2448 20.4786 67.2448C20.2143 67.2448 20 67.4595 20 67.7244C20 67.9893 20.2143 68.204 20.4786 68.204Z" fill="#DBF900"/>
<path d="M20.9572 24.5587C20.9572 24.8207 20.7445 25.0382 20.4786 25.0382C20.2127 25.0382 20 24.8251 20 24.5587C20 24.2922 20.2127 24.0791 20.4786 24.0791C20.7445 24.0791 20.9572 24.2922 20.9572 24.5587Z" fill="#DBF900"/>
<path d="M20.4786 32.2318C20.2171 32.2318 20 32.0186 20 31.7522C20 31.4858 20.2127 31.2726 20.4786 31.2726C20.7445 31.2726 20.9572 31.4858 20.9572 31.7522C20.9572 32.0186 20.7445 32.2318 20.4786 32.2318Z" fill="#DBF900"/>
<path d="M20.4786 39.4298C20.7429 39.4298 20.9572 39.2151 20.9572 38.9502C20.9572 38.6853 20.7429 38.4706 20.4786 38.4706C20.2143 38.4706 20 38.6853 20 38.9502C20 39.2151 20.2143 39.4298 20.4786 39.4298Z" fill="#DBF900"/>
<path d="M27.6573 39.4298C27.9216 39.4298 28.1358 39.2151 28.1358 38.9502C28.1358 38.6853 27.9216 38.4706 27.6573 38.4706C27.393 38.4706 27.1787 38.6853 27.1787 38.9502C27.1787 39.2151 27.393 39.4298 27.6573 39.4298Z" fill="#DBF900"/>
<path d="M27.6573 68.204C27.9216 68.204 28.1358 67.9893 28.1358 67.7244C28.1358 67.4595 27.9216 67.2448 27.6573 67.2448C27.393 67.2448 27.1787 67.4595 27.1787 67.7244C27.1787 67.9893 27.393 68.204 27.6573 68.204Z" fill="#DBF900"/>
<path d="M34.8399 125.761C34.5784 125.761 34.3613 125.548 34.3613 125.282C34.3613 125.015 34.574 124.802 34.8399 124.802C35.1058 124.802 35.3185 125.015 35.3185 125.282C35.3185 125.548 35.1058 125.761 34.8399 125.761Z" fill="#DBF900"/>
<path d="M42.0186 125.761C41.7572 125.761 41.54 125.548 41.54 125.282C41.54 125.015 41.7527 124.802 42.0186 124.802C42.2845 124.802 42.4972 125.015 42.4972 125.282C42.4972 125.548 42.2845 125.761 42.0186 125.761Z" fill="#DBF900"/>
<path d="M49.1973 125.761C48.9359 125.761 48.7188 125.548 48.7188 125.282C48.7188 125.015 48.9315 124.802 49.1973 124.802C49.4632 124.802 49.6759 125.015 49.6759 125.282C49.6759 125.548 49.4632 125.761 49.1973 125.761Z" fill="#DBF900"/>
<path d="M34.8399 132.955C35.1042 132.955 35.3185 132.74 35.3185 132.475C35.3185 132.21 35.1042 131.996 34.8399 131.996C34.5756 131.996 34.3613 132.21 34.3613 132.475C34.3613 132.74 34.5756 132.955 34.8399 132.955Z" fill="#DBF900"/>
<path d="M42.0186 132.955C41.7572 132.955 41.54 132.742 41.54 132.475C41.54 132.209 41.7527 131.996 42.0186 131.996C42.2845 131.996 42.4972 132.209 42.4972 132.475C42.4972 132.742 42.2845 132.955 42.0186 132.955Z" fill="#DBF900"/>
<path d="M20.4786 125.761C20.2171 125.761 20 125.548 20 125.282C20 125.015 20.2127 124.802 20.4786 124.802C20.7445 124.802 20.9572 125.015 20.9572 125.282C20.9572 125.548 20.7445 125.761 20.4786 125.761Z" fill="#DBF900"/>
<path d="M27.6573 125.761C27.3958 125.761 27.1787 125.548 27.1787 125.282C27.1787 125.015 27.3914 124.802 27.6573 124.802C27.9232 124.802 28.1358 125.015 28.1358 125.282C28.1358 125.548 27.9232 125.761 27.6573 125.761Z" fill="#DBF900"/>
<path d="M20.4786 132.955C20.7429 132.955 20.9572 132.74 20.9572 132.475C20.9572 132.21 20.7429 131.996 20.4786 131.996C20.2143 131.996 20 132.21 20 132.475C20 132.74 20.2143 132.955 20.4786 132.955Z" fill="#DBF900"/>
<path d="M27.6573 132.955C27.9216 132.955 28.1358 132.74 28.1358 132.475C28.1358 132.21 27.9216 131.996 27.6573 131.996C27.393 131.996 27.1787 132.21 27.1787 132.475C27.1787 132.74 27.393 132.955 27.6573 132.955Z" fill="#DBF900"/>
<path d="M20.4786 140.148C20.7429 140.148 20.9572 139.934 20.9572 139.669C20.9572 139.404 20.7429 139.189 20.4786 139.189C20.2143 139.189 20 139.404 20 139.669C20 139.934 20.2143 140.148 20.4786 140.148Z" fill="#DBF900"/>
<path d="M27.6573 140.148C27.9216 140.148 28.1358 139.934 28.1358 139.669C28.1358 139.404 27.9216 139.189 27.6573 139.189C27.393 139.189 27.1787 139.404 27.1787 139.669C27.1787 139.934 27.393 140.148 27.6573 140.148Z" fill="#DBF900"/>
</svg>
