<svg width="722" height="577" viewBox="0 0 722 577" fill="none" xmlns="http://www.w3.org/2000/svg">
<path d="M165.794 132.996L125.71 85.5334L173.638 45.8301L142.331 8.75982L94.4027 48.4631L54.3185 1L16.9025 32.0095L56.9667 79.4726L9.07825 119.176L40.3452 156.256L88.2838 116.553L128.388 164.026L165.794 132.996Z" stroke="white" stroke-width="0.93" stroke-linecap="round" stroke-linejoin="round"/>
<path d="M128.388 164.026L154.75 166.351L192.166 135.321L152.081 87.8583L200 48.155L168.693 11.0847L142.331 8.75977" stroke="white" stroke-width="0.93" stroke-linecap="round" stroke-linejoin="round"/>
<path d="M54.3185 1L80.6802 3.32497L108.757 36.57" stroke="white" stroke-width="0.93" stroke-linecap="round" stroke-linejoin="round"/>
<path d="M40.3452 156.256L66.7169 158.581L100.291 130.771" stroke="white" stroke-width="0.93" stroke-linecap="round" stroke-linejoin="round"/>
<path d="M173.638 45.8301L200 48.155" stroke="white" stroke-width="0.93" stroke-linecap="round" stroke-linejoin="round"/>
<path d="M165.794 132.996L192.166 135.321" stroke="white" stroke-width="0.93" stroke-linecap="round" stroke-linejoin="round"/>
<path d="M33.5941 172.223C34.1924 172.223 34.6774 171.742 34.6774 171.15C34.6774 170.557 34.1924 170.077 33.5941 170.077C32.9957 170.077 32.5107 170.557 32.5107 171.15C32.5107 171.742 32.9957 172.223 33.5941 172.223Z" fill="#DBF900"/>
<path d="M49.8445 172.213C49.2526 172.213 48.7611 171.736 48.7611 171.14C48.7611 170.544 49.2426 170.067 49.8445 170.067C50.4463 170.067 50.9279 170.544 50.9279 171.14C50.9279 171.736 50.4463 172.213 49.8445 172.213Z" fill="#DBF900"/>
<path d="M66.0948 172.223C66.6932 172.223 67.1782 171.742 67.1782 171.15C67.1782 170.557 66.6932 170.077 66.0948 170.077C65.4965 170.077 65.0115 170.557 65.0115 171.15C65.0115 171.742 65.4965 172.223 66.0948 172.223Z" fill="#DBF900"/>
<path d="M82.3452 156.127C82.9435 156.127 83.4285 155.646 83.4285 155.054C83.4285 154.461 82.9435 153.981 82.3452 153.981C81.7469 153.981 81.2618 154.461 81.2618 155.054C81.2618 155.646 81.7469 156.127 82.3452 156.127Z" fill="#DBF900"/>
<path d="M82.3452 172.223C82.9435 172.223 83.4285 171.742 83.4285 171.15C83.4285 170.557 82.9435 170.077 82.3452 170.077C81.7469 170.077 81.2618 170.557 81.2618 171.15C81.2618 171.742 81.7469 172.223 82.3452 172.223Z" fill="#DBF900"/>
<path d="M98.5955 156.127C99.1938 156.127 99.6789 155.646 99.6789 155.054C99.6789 154.461 99.1938 153.981 98.5955 153.981C97.9972 153.981 97.5122 154.461 97.5122 155.054C97.5122 155.646 97.9972 156.127 98.5955 156.127Z" fill="#DBF900"/>
<path d="M98.5955 172.223C99.1938 172.223 99.6789 171.742 99.6789 171.15C99.6789 170.557 99.1938 170.077 98.5955 170.077C97.9972 170.077 97.5122 170.557 97.5122 171.15C97.5122 171.742 97.9972 172.223 98.5955 172.223Z" fill="#DBF900"/>
<path d="M115.929 155.054C115.929 155.64 115.448 156.127 114.846 156.127C114.244 156.127 113.763 155.65 113.763 155.054C113.763 154.458 114.244 153.981 114.846 153.981C115.448 153.981 115.929 154.458 115.929 155.054Z" fill="#DBF900"/>
<path d="M114.846 172.213C114.254 172.213 113.763 171.736 113.763 171.14C113.763 170.544 114.244 170.067 114.846 170.067C115.448 170.067 115.929 170.544 115.929 171.14C115.929 171.736 115.448 172.213 114.846 172.213Z" fill="#DBF900"/>
<path d="M131.106 172.223C131.705 172.223 132.19 171.742 132.19 171.15C132.19 170.557 131.705 170.077 131.106 170.077C130.508 170.077 130.023 170.557 130.023 171.15C130.023 171.742 130.508 172.223 131.106 172.223Z" fill="#DBF900"/>
<path d="M33.5941 188.319C34.1924 188.319 34.6774 187.838 34.6774 187.246C34.6774 186.653 34.1924 186.173 33.5941 186.173C32.9957 186.173 32.5107 186.653 32.5107 187.246C32.5107 187.838 32.9957 188.319 33.5941 188.319Z" fill="#DBF900"/>
<path d="M49.8445 188.319C49.2526 188.319 48.7611 187.842 48.7611 187.246C48.7611 186.65 49.2426 186.173 49.8445 186.173C50.4463 186.173 50.9279 186.65 50.9279 187.246C50.9279 187.842 50.4463 188.319 49.8445 188.319Z" fill="#DBF900"/>
<path d="M66.0948 188.319C66.6932 188.319 67.1782 187.838 67.1782 187.246C67.1782 186.653 66.6932 186.173 66.0948 186.173C65.4965 186.173 65.0115 186.653 65.0115 187.246C65.0115 187.838 65.4965 188.319 66.0948 188.319Z" fill="#DBF900"/>
<path d="M82.3452 188.319C82.9435 188.319 83.4285 187.838 83.4285 187.246C83.4285 186.653 82.9435 186.173 82.3452 186.173C81.7469 186.173 81.2618 186.653 81.2618 187.246C81.2618 187.838 81.7469 188.319 82.3452 188.319Z" fill="#DBF900"/>
<path d="M98.5955 188.319C99.1938 188.319 99.6789 187.838 99.6789 187.246C99.6789 186.653 99.1938 186.173 98.5955 186.173C97.9972 186.173 97.5122 186.653 97.5122 187.246C97.5122 187.838 97.9972 188.319 98.5955 188.319Z" fill="#DBF900"/>
<path d="M114.846 188.319C114.254 188.319 113.763 187.842 113.763 187.246C113.763 186.65 114.244 186.173 114.846 186.173C115.448 186.173 115.929 186.65 115.929 187.246C115.929 187.842 115.448 188.319 114.846 188.319Z" fill="#DBF900"/>
<path d="M131.106 188.319C131.705 188.319 132.19 187.838 132.19 187.246C132.19 186.653 131.705 186.173 131.106 186.173C130.508 186.173 130.023 186.653 130.023 187.246C130.023 187.838 130.508 188.319 131.106 188.319Z" fill="#DBF900"/>
<path d="M33.5941 204.415C33.0022 204.415 32.5107 203.938 32.5107 203.342C32.5107 202.745 32.9922 202.269 33.5941 202.269C34.1959 202.269 34.6774 202.745 34.6774 203.342C34.6774 203.938 34.1959 204.415 33.5941 204.415Z" fill="#DBF900"/>
<path d="M49.8445 204.415C49.2526 204.415 48.7611 203.938 48.7611 203.342C48.7611 202.745 49.2426 202.269 49.8445 202.269C50.4463 202.269 50.9279 202.745 50.9279 203.342C50.9279 203.938 50.4463 204.415 49.8445 204.415Z" fill="#DBF900"/>
<path d="M66.0948 204.415C65.503 204.415 65.0115 203.938 65.0115 203.342C65.0115 202.745 65.493 202.269 66.0948 202.269C66.6967 202.269 67.1782 202.745 67.1782 203.342C67.1782 203.938 66.6967 204.415 66.0948 204.415Z" fill="#DBF900"/>
<path d="M82.3452 204.415C81.7534 204.415 81.2618 203.938 81.2618 203.342C81.2618 202.745 81.7434 202.269 82.3452 202.269C82.9471 202.269 83.4285 202.745 83.4285 203.342C83.4285 203.938 82.9471 204.415 82.3452 204.415Z" fill="#DBF900"/>
<path d="M98.5955 204.415C98.0037 204.415 97.5122 203.938 97.5122 203.342C97.5122 202.745 97.9937 202.269 98.5955 202.269C99.1974 202.269 99.6789 202.745 99.6789 203.342C99.6789 203.938 99.1974 204.415 98.5955 204.415Z" fill="#DBF900"/>
<path d="M114.846 204.415C114.254 204.415 113.763 203.938 113.763 203.342C113.763 202.745 114.244 202.269 114.846 202.269C115.448 202.269 115.929 202.745 115.929 203.342C115.929 203.938 115.448 204.415 114.846 204.415Z" fill="#DBF900"/>
<path d="M131.106 204.415C130.514 204.415 130.023 203.938 130.023 203.342C130.023 202.745 130.504 202.269 131.106 202.269C131.708 202.269 132.19 202.745 132.19 203.342C132.19 203.938 131.708 204.415 131.106 204.415Z" fill="#DBF900"/>
<path d="M98.5955 220.511C99.1938 220.511 99.6789 220.03 99.6789 219.438C99.6789 218.845 99.1938 218.365 98.5955 218.365C97.9972 218.365 97.5122 218.845 97.5122 219.438C97.5122 220.03 97.9972 220.511 98.5955 220.511Z" fill="#DBF900"/>
<path d="M114.846 220.511C114.254 220.511 113.763 220.034 113.763 219.438C113.763 218.841 114.244 218.365 114.846 218.365C115.448 218.365 115.929 218.841 115.929 219.438C115.929 220.034 115.448 220.511 114.846 220.511Z" fill="#DBF900"/>
<path d="M131.106 220.511C131.705 220.511 132.19 220.03 132.19 219.438C132.19 218.845 131.705 218.365 131.106 218.365C130.508 218.365 130.023 218.845 130.023 219.438C130.023 220.03 130.508 220.511 131.106 220.511Z" fill="#DBF900"/>
<path d="M98.5955 236.616C99.1938 236.616 99.6789 236.136 99.6789 235.543C99.6789 234.951 99.1938 234.47 98.5955 234.47C97.9972 234.47 97.5122 234.951 97.5122 235.543C97.5122 236.136 97.9972 236.616 98.5955 236.616Z" fill="#DBF900"/>
<path d="M114.846 236.607C114.254 236.607 113.763 236.13 113.763 235.534C113.763 234.937 114.244 234.46 114.846 234.46C115.448 234.46 115.929 234.937 115.929 235.534C115.929 236.13 115.448 236.607 114.846 236.607Z" fill="#DBF900"/>
<path d="M1.08337 156.127C1.6817 156.127 2.16675 155.646 2.16675 155.054C2.16675 154.461 1.6817 153.981 1.08337 153.981C0.485053 153.981 0 154.461 0 155.054C0 155.646 0.485053 156.127 1.08337 156.127Z" fill="#DBF900"/>
<path d="M1.08337 172.223C1.6817 172.223 2.16675 171.742 2.16675 171.15C2.16675 170.557 1.6817 170.077 1.08337 170.077C0.485053 170.077 0 170.557 0 171.15C0 171.742 0.485053 172.223 1.08337 172.223Z" fill="#DBF900"/>
<path d="M17.3337 156.127C17.9321 156.127 18.4171 155.646 18.4171 155.054C18.4171 154.461 17.9321 153.981 17.3337 153.981C16.7354 153.981 16.2504 154.461 16.2504 155.054C16.2504 155.646 16.7354 156.127 17.3337 156.127Z" fill="#DBF900"/>
<path d="M17.3337 172.223C17.9321 172.223 18.4171 171.742 18.4171 171.15C18.4171 170.557 17.9321 170.077 17.3337 170.077C16.7354 170.077 16.2504 170.557 16.2504 171.15C16.2504 171.742 16.7354 172.223 17.3337 172.223Z" fill="#DBF900"/>
<path d="M1.08337 188.319C1.6817 188.319 2.16675 187.838 2.16675 187.246C2.16675 186.653 1.6817 186.173 1.08337 186.173C0.485053 186.173 0 186.653 0 187.246C0 187.838 0.485053 188.319 1.08337 188.319Z" fill="#DBF900"/>
<path d="M17.3337 188.319C17.9321 188.319 18.4171 187.838 18.4171 187.246C18.4171 186.653 17.9321 186.173 17.3337 186.173C16.7354 186.173 16.2504 186.653 16.2504 187.246C16.2504 187.838 16.7354 188.319 17.3337 188.319Z" fill="#DBF900"/>
<path d="M1.08337 204.415C0.491541 204.415 0 203.938 0 203.342C0 202.745 0.481509 202.269 1.08337 202.269C1.68524 202.269 2.16675 202.745 2.16675 203.342C2.16675 203.938 1.68524 204.415 1.08337 204.415Z" fill="#DBF900"/>
<path d="M17.3337 204.415C16.7419 204.415 16.2504 203.938 16.2504 203.342C16.2504 202.745 16.7319 202.269 17.3337 202.269C17.9356 202.269 18.4171 202.745 18.4171 203.342C18.4171 203.938 17.9356 204.415 17.3337 204.415Z" fill="#DBF900"/>
<path d="M33.5941 220.511C34.1924 220.511 34.6774 220.03 34.6774 219.438C34.6774 218.845 34.1924 218.365 33.5941 218.365C32.9957 218.365 32.5107 218.845 32.5107 219.438C32.5107 220.03 32.9957 220.511 33.5941 220.511Z" fill="#DBF900"/>
<path d="M49.8445 220.511C49.2526 220.511 48.7611 220.034 48.7611 219.438C48.7611 218.841 49.2426 218.365 49.8445 218.365C50.4463 218.365 50.9279 218.841 50.9279 219.438C50.9279 220.034 50.4463 220.511 49.8445 220.511Z" fill="#DBF900"/>
<path d="M66.0948 220.511C66.6932 220.511 67.1782 220.03 67.1782 219.438C67.1782 218.845 66.6932 218.365 66.0948 218.365C65.4965 218.365 65.0115 218.845 65.0115 219.438C65.0115 220.03 65.4965 220.511 66.0948 220.511Z" fill="#DBF900"/>
<path d="M82.3452 220.511C82.9435 220.511 83.4285 220.03 83.4285 219.438C83.4285 218.845 82.9435 218.365 82.3452 218.365C81.7469 218.365 81.2618 218.845 81.2618 219.438C81.2618 220.03 81.7469 220.511 82.3452 220.511Z" fill="#DBF900"/>
<path d="M33.5941 236.616C34.1924 236.616 34.6774 236.136 34.6774 235.543C34.6774 234.951 34.1924 234.47 33.5941 234.47C32.9957 234.47 32.5107 234.951 32.5107 235.543C32.5107 236.136 32.9957 236.616 33.5941 236.616Z" fill="#DBF900"/>
<path d="M49.8445 236.607C49.2526 236.607 48.7611 236.13 48.7611 235.534C48.7611 234.937 49.2426 234.46 49.8445 234.46C50.4463 234.46 50.9279 234.937 50.9279 235.534C50.9279 236.13 50.4463 236.607 49.8445 236.607Z" fill="#DBF900"/>
<path d="M66.0948 236.616C66.6932 236.616 67.1782 236.136 67.1782 235.543C67.1782 234.951 66.6932 234.47 66.0948 234.47C65.4965 234.47 65.0115 234.951 65.0115 235.543C65.0115 236.136 65.4965 236.616 66.0948 236.616Z" fill="#DBF900"/>
<path d="M82.3452 236.616C82.9435 236.616 83.4285 236.136 83.4285 235.543C83.4285 234.951 82.9435 234.47 82.3452 234.47C81.7469 234.47 81.2618 234.951 81.2618 235.543C81.2618 236.136 81.7469 236.616 82.3452 236.616Z" fill="#DBF900"/>
<path d="M33.5941 252.712C34.1924 252.712 34.6774 252.232 34.6774 251.639C34.6774 251.047 34.1924 250.566 33.5941 250.566C32.9957 250.566 32.5107 251.047 32.5107 251.639C32.5107 252.232 32.9957 252.712 33.5941 252.712Z" fill="#DBF900"/>
<path d="M49.8445 252.703C49.2526 252.703 48.7611 252.226 48.7611 251.629C48.7611 251.033 49.2426 250.556 49.8445 250.556C50.4463 250.556 50.9279 251.033 50.9279 251.629C50.9279 252.226 50.4463 252.703 49.8445 252.703Z" fill="#DBF900"/>
<path d="M66.0948 252.712C66.6932 252.712 67.1782 252.232 67.1782 251.639C67.1782 251.047 66.6932 250.566 66.0948 250.566C65.4965 250.566 65.0115 251.047 65.0115 251.639C65.0115 252.232 65.4965 252.712 66.0948 252.712Z" fill="#DBF900"/>
<path d="M82.3452 252.712C82.9435 252.712 83.4285 252.232 83.4285 251.639C83.4285 251.047 82.9435 250.566 82.3452 250.566C81.7469 250.566 81.2618 251.047 81.2618 251.639C81.2618 252.232 81.7469 252.712 82.3452 252.712Z" fill="#DBF900"/>
<path d="M1.08337 220.511C1.6817 220.511 2.16675 220.03 2.16675 219.438C2.16675 218.845 1.6817 218.365 1.08337 218.365C0.485053 218.365 0 218.845 0 219.438C0 220.03 0.485053 220.511 1.08337 220.511Z" fill="#DBF900"/>
<path d="M17.3337 220.511C17.9321 220.511 18.4171 220.03 18.4171 219.438C18.4171 218.845 17.9321 218.365 17.3337 218.365C16.7354 218.365 16.2504 218.845 16.2504 219.438C16.2504 220.03 16.7354 220.511 17.3337 220.511Z" fill="#DBF900"/>
<path d="M1.08337 236.616C1.6817 236.616 2.16675 236.136 2.16675 235.543C2.16675 234.951 1.6817 234.47 1.08337 234.47C0.485053 234.47 0 234.951 0 235.543C0 236.136 0.485053 236.616 1.08337 236.616Z" fill="#DBF900"/>
<path d="M17.3337 236.616C17.9321 236.616 18.4171 236.136 18.4171 235.543C18.4171 234.951 17.9321 234.47 17.3337 234.47C16.7354 234.47 16.2504 234.951 16.2504 235.543C16.2504 236.136 16.7354 236.616 17.3337 236.616Z" fill="#DBF900"/>
<path d="M1.08337 252.712C1.6817 252.712 2.16675 252.232 2.16675 251.639C2.16675 251.047 1.6817 250.566 1.08337 250.566C0.485053 250.566 0 251.047 0 251.639C0 252.232 0.485053 252.712 1.08337 252.712Z" fill="#DBF900"/>
<path d="M17.3337 252.712C17.9321 252.712 18.4171 252.232 18.4171 251.639C18.4171 251.047 17.9321 250.566 17.3337 250.566C16.7354 250.566 16.2504 251.047 16.2504 251.639C16.2504 252.232 16.7354 252.712 17.3337 252.712Z" fill="#DBF900"/>
<path d="M98.5955 140.021C99.1938 140.021 99.6789 139.541 99.6789 138.948C99.6789 138.355 99.1938 137.875 98.5955 137.875C97.9972 137.875 97.5122 138.355 97.5122 138.948C97.5122 139.541 97.9972 140.021 98.5955 140.021Z" fill="#DBF900"/>
<path d="M1.08337 91.7333C1.6817 91.7333 2.16675 91.2529 2.16675 90.6602C2.16675 90.0676 1.6817 89.5872 1.08337 89.5872C0.485053 89.5872 0 90.0676 0 90.6602C0 91.2529 0.485053 91.7333 1.08337 91.7333Z" fill="#DBF900"/>
<path d="M1.08337 107.829C1.6817 107.829 2.16675 107.349 2.16675 106.756C2.16675 106.164 1.6817 105.683 1.08337 105.683C0.485053 105.683 0 106.164 0 106.756C0 107.349 0.485053 107.829 1.08337 107.829Z" fill="#DBF900"/>
<path d="M17.3337 91.7333C17.9321 91.7333 18.4171 91.2529 18.4171 90.6602C18.4171 90.0676 17.9321 89.5872 17.3337 89.5872C16.7354 89.5872 16.2504 90.0676 16.2504 90.6602C16.2504 91.2529 16.7354 91.7333 17.3337 91.7333Z" fill="#DBF900"/>
<path d="M17.3337 107.829C17.9321 107.829 18.4171 107.349 18.4171 106.756C18.4171 106.164 17.9321 105.683 17.3337 105.683C16.7354 105.683 16.2504 106.164 16.2504 106.756C16.2504 107.349 16.7354 107.829 17.3337 107.829Z" fill="#DBF900"/>
<path d="M1.08337 123.925C0.491541 123.925 0 123.448 0 122.852C0 122.256 0.481509 121.779 1.08337 121.779C1.68524 121.779 2.16675 122.256 2.16675 122.852C2.16675 123.448 1.68524 123.925 1.08337 123.925Z" fill="#DBF900"/>
<path d="M1.08337 140.021C1.6817 140.021 2.16675 139.541 2.16675 138.948C2.16675 138.355 1.6817 137.875 1.08337 137.875C0.485053 137.875 0 138.355 0 138.948C0 139.541 0.485053 140.021 1.08337 140.021Z" fill="#DBF900"/>
<path d="M2.16675 42.3626C2.16675 42.9488 1.68524 43.4357 1.08337 43.4357C0.481509 43.4357 0 42.9588 0 42.3626C0 41.7665 0.481509 41.2896 1.08337 41.2896C1.68524 41.2896 2.16675 41.7665 2.16675 42.3626Z" fill="#DBF900"/>
<path d="M1.08337 59.5316C0.491541 59.5316 0 59.0547 0 58.4586C0 57.8624 0.481509 57.3855 1.08337 57.3855C1.68524 57.3855 2.16675 57.8624 2.16675 58.4586C2.16675 59.0547 1.68524 59.5316 1.08337 59.5316Z" fill="#DBF900"/>
<path d="M1.08337 75.6373C1.6817 75.6373 2.16675 75.1569 2.16675 74.5643C2.16675 73.9716 1.6817 73.4912 1.08337 73.4912C0.485053 73.4912 0 73.9716 0 74.5643C0 75.1569 0.485053 75.6373 1.08337 75.6373Z" fill="#DBF900"/>
<path d="M17.3337 75.6373C17.9321 75.6373 18.4171 75.1569 18.4171 74.5643C18.4171 73.9716 17.9321 73.4912 17.3337 73.4912C16.7354 73.4912 16.2504 73.9716 16.2504 74.5643C16.2504 75.1569 16.7354 75.6373 17.3337 75.6373Z" fill="#DBF900"/>
<path d="M17.3337 140.021C17.9321 140.021 18.4171 139.541 18.4171 138.948C18.4171 138.355 17.9321 137.875 17.3337 137.875C16.7354 137.875 16.2504 138.355 16.2504 138.948C16.2504 139.541 16.7354 140.021 17.3337 140.021Z" fill="#DBF900"/>
<path d="M33.5941 268.808C33.0022 268.808 32.5107 268.331 32.5107 267.735C32.5107 267.139 32.9922 266.662 33.5941 266.662C34.1959 266.662 34.6774 267.139 34.6774 267.735C34.6774 268.331 34.1959 268.808 33.5941 268.808Z" fill="#DBF900"/>
<path d="M49.8445 268.808C49.2526 268.808 48.7611 268.331 48.7611 267.735C48.7611 267.139 49.2426 266.662 49.8445 266.662C50.4463 266.662 50.9279 267.139 50.9279 267.735C50.9279 268.331 50.4463 268.808 49.8445 268.808Z" fill="#DBF900"/>
<path d="M66.0948 268.808C65.503 268.808 65.0115 268.331 65.0115 267.735C65.0115 267.139 65.493 266.662 66.0948 266.662C66.6967 266.662 67.1782 267.139 67.1782 267.735C67.1782 268.331 66.6967 268.808 66.0948 268.808Z" fill="#DBF900"/>
<path d="M33.5941 284.904C34.1924 284.904 34.6774 284.424 34.6774 283.831C34.6774 283.238 34.1924 282.758 33.5941 282.758C32.9957 282.758 32.5107 283.238 32.5107 283.831C32.5107 284.424 32.9957 284.904 33.5941 284.904Z" fill="#DBF900"/>
<path d="M49.8445 284.904C49.2526 284.904 48.7611 284.427 48.7611 283.831C48.7611 283.235 49.2426 282.758 49.8445 282.758C50.4463 282.758 50.9279 283.235 50.9279 283.831C50.9279 284.427 50.4463 284.904 49.8445 284.904Z" fill="#DBF900"/>
<path d="M1.08337 268.808C0.491541 268.808 0 268.331 0 267.735C0 267.139 0.481509 266.662 1.08337 266.662C1.68524 266.662 2.16675 267.139 2.16675 267.735C2.16675 268.331 1.68524 268.808 1.08337 268.808Z" fill="#DBF900"/>
<path d="M17.3337 268.808C16.7419 268.808 16.2504 268.331 16.2504 267.735C16.2504 267.139 16.7319 266.662 17.3337 266.662C17.9356 266.662 18.4171 267.139 18.4171 267.735C18.4171 268.331 17.9356 268.808 17.3337 268.808Z" fill="#DBF900"/>
<path d="M1.08337 284.904C1.6817 284.904 2.16675 284.424 2.16675 283.831C2.16675 283.238 1.6817 282.758 1.08337 282.758C0.485053 282.758 0 283.238 0 283.831C0 284.424 0.485053 284.904 1.08337 284.904Z" fill="#DBF900"/>
<path d="M17.3337 284.904C17.9321 284.904 18.4171 284.424 18.4171 283.831C18.4171 283.238 17.9321 282.758 17.3337 282.758C16.7354 282.758 16.2504 283.238 16.2504 283.831C16.2504 284.424 16.7354 284.904 17.3337 284.904Z" fill="#DBF900"/>
<path d="M1.08337 301C1.6817 301 2.16675 300.52 2.16675 299.927C2.16675 299.334 1.6817 298.854 1.08337 298.854C0.485053 298.854 0 299.334 0 299.927C0 300.52 0.485053 301 1.08337 301Z" fill="#DBF900"/>
<path d="M17.3337 301C17.9321 301 18.4171 300.52 18.4171 299.927C18.4171 299.334 17.9321 298.854 17.3337 298.854C16.7354 298.854 16.2504 299.334 16.2504 299.927C16.2504 300.52 16.7354 301 17.3337 301Z" fill="#DBF900"/>
<path d="M592.928 400.191C663.108 400.191 720 347.498 720 282.499C720 217.499 663.108 164.806 592.928 164.806C522.748 164.806 465.855 217.499 465.855 282.499C465.855 347.498 522.748 400.191 592.928 400.191Z" fill="#0B1014" stroke="#DBF900" stroke-width="4" stroke-miterlimit="10"/>
<path d="M632.066 354.137C637.093 336.808 616.143 316.527 585.28 308.846C554.408 301.165 525.315 308.985 520.279 326.315" stroke="#DBF900" stroke-width="5.49" stroke-miterlimit="10" stroke-linecap="round"/>
<path d="M579.995 248.694C585.252 230.575 582.268 214.084 573.332 211.86C564.396 209.636 552.89 222.522 547.634 240.64C542.377 258.759 545.36 275.25 554.297 277.474C563.233 279.698 574.739 266.813 579.995 248.694Z" fill="#DBF900"/>
<path d="M654.738 267.297C659.994 249.178 657.011 232.687 648.075 230.463C639.138 228.239 627.633 241.125 622.376 259.243C617.12 277.362 620.103 293.853 629.039 296.077C637.976 298.301 649.481 285.416 654.738 267.297Z" fill="#DBF900"/>
<path d="M577.687 493.396C627.311 447.434 627.311 372.915 577.687 326.954C528.062 280.992 447.604 280.992 397.979 326.954C348.355 372.915 348.355 447.434 397.979 493.396C447.604 539.358 528.062 539.358 577.687 493.396Z" fill="#DBF900"/>
<path d="M361.247 399.577C410.192 386.075 446.764 345.997 451.464 297.41C400.324 311.543 365.805 352.973 361.247 399.577Z" fill="#728100"/>
<path d="M373.284 359.236C360.327 384.214 356.769 413.496 365.566 442.261C369.7 455.779 376.232 468.067 384.596 478.855C404.44 440.605 400.669 394.494 373.284 359.236Z" fill="#728100"/>
<path d="M404.041 432.162C417.149 475.019 465.289 499.923 511.562 487.774C557.834 475.634 584.723 431.047 571.606 388.19" stroke="#0B1014" stroke-width="5.49" stroke-miterlimit="10" stroke-linecap="round"/>
<path d="M451.933 424.217C460.836 421.881 463.577 405.353 458.055 387.302C452.532 369.252 440.838 356.512 431.935 358.849C423.033 361.185 420.292 377.713 425.814 395.763C431.337 413.814 443.031 426.553 451.933 424.217Z" fill="#0B1014"/>
<path d="M526.4 404.672C535.303 402.336 538.043 385.808 532.521 367.758C526.998 349.707 515.304 336.968 506.402 339.304C497.499 341.64 494.758 358.168 500.281 376.218C505.803 394.269 517.497 407.009 526.4 404.672Z" fill="#0B1014"/>
<path d="M330.693 375.385C400.874 375.385 457.766 322.693 457.766 257.693C457.766 192.693 400.874 140 330.693 140C260.513 140 203.621 192.693 203.621 257.693C203.621 322.693 260.513 375.385 330.693 375.385Z" fill="#DBF900"/>
<path d="M215.517 307.46C235.759 347.579 279.721 375.386 330.693 375.386C349.085 375.386 366.557 371.762 382.338 365.253C376.24 353.146 367.796 341.8 357.007 331.807C318.745 296.369 262.17 288.262 215.517 307.469V307.46Z" fill="#728100"/>
<path d="M243.609 257.693C243.609 302.238 282.598 338.349 330.693 338.349C378.789 338.349 417.777 302.238 417.777 257.693" stroke="#0B1014" stroke-width="5.49" stroke-miterlimit="10" stroke-linecap="round"/>
<path d="M291.988 262.152C301.242 262.152 308.743 246.943 308.743 228.181C308.743 209.42 301.242 194.211 291.988 194.211C282.735 194.211 275.233 209.42 275.233 228.181C275.233 246.943 282.735 262.152 291.988 262.152Z" fill="#0B1014"/>
<path d="M369.389 262.152C378.643 262.152 386.144 246.943 386.144 228.181C386.144 209.42 378.643 194.211 369.389 194.211C360.136 194.211 352.635 209.42 352.635 228.181C352.635 246.943 360.136 262.152 369.389 262.152Z" fill="#0B1014"/>
<path d="M259.072 533.779C329.252 533.779 386.144 481.086 386.144 416.086C386.144 351.087 329.252 298.394 259.072 298.394C188.892 298.394 132 351.087 132 416.086C132 481.086 188.892 533.779 259.072 533.779Z" fill="#0B1014" stroke="#DBF900" stroke-width="4" stroke-miterlimit="10"/>
<path d="M320.648 359.056C286.643 327.561 231.502 327.561 197.496 359.056C163.491 390.551 163.491 441.622 197.496 473.117" stroke="#DBF900" stroke-width="5.49" stroke-miterlimit="10" stroke-linecap="round"/>
<path d="M334.899 435.636C341.442 429.576 335.135 413.909 320.811 400.642C306.488 387.376 289.572 381.534 283.029 387.594C276.485 393.654 282.793 409.322 297.116 422.588C311.44 435.855 328.356 441.696 334.899 435.636Z" fill="#DBF900"/>
<path d="M280.171 486.32C286.715 480.26 280.407 464.592 266.084 451.326C251.76 438.06 234.844 432.218 228.301 438.278C221.758 444.338 228.065 460.005 242.389 473.272C256.712 486.538 273.628 492.38 280.171 486.32Z" fill="#DBF900"/>
</svg>
