<svg width="688" height="588" viewBox="0 0 688 588" fill="none" xmlns="http://www.w3.org/2000/svg">
<path d="M155.261 127.075L118.618 83.1796L162.431 46.4606L133.812 12.1766L89.9987 48.8956L53.356 5L19.1525 33.6787L55.7768 77.5744L12 114.293L40.5824 148.587L84.4051 111.868L121.066 155.772L155.261 127.075Z" stroke="white" stroke-width="0.93" stroke-linecap="round" stroke-linejoin="round"/>
<path d="M81.365 151.772L105.463 153.922L139.667 125.225L103.024 81.3298L146.829 44.6107L118.209 10.3267L94.1111 8.17651" stroke="white" stroke-width="0.93" stroke-linecap="round" stroke-linejoin="round"/>
<path d="M13.6548 1L37.7531 3.15022L63.4195 33.8964" stroke="white" stroke-width="0.93" stroke-linecap="round" stroke-linejoin="round"/>
<path d="M0.881226 144.587L24.9887 146.737L55.6802 121.017" stroke="white" stroke-width="0.93" stroke-linecap="round" stroke-linejoin="round"/>
<path d="M122.73 42.4604L146.828 44.6107" stroke="white" stroke-width="0.93" stroke-linecap="round" stroke-linejoin="round"/>
<path d="M115.559 123.075L139.667 125.225" stroke="white" stroke-width="0.93" stroke-linecap="round" stroke-linejoin="round"/>
<path d="M686.938 486.226L632.258 469.695L648.755 414.901L606.051 402L589.554 456.794L534.874 440.263L522 483.047L576.661 499.587L560.202 554.362L602.878 567.3L619.384 512.497L674.073 529.019L686.938 486.226Z" stroke="white" stroke-width="0.93" stroke-linecap="round" stroke-linejoin="round"/>
<path d="M637.073 548.487L658.393 537.028L671.258 494.226L616.578 477.704L633.075 422.91L590.38 410L569.051 421.468" stroke="white" stroke-width="0.93" stroke-linecap="round" stroke-linejoin="round"/>
<path d="M500 461.459L521.32 450L559.622 461.578" stroke="white" stroke-width="0.93" stroke-linecap="round" stroke-linejoin="round"/>
<path d="M565.878 586.768L587.198 575.309L598.761 536.918" stroke="white" stroke-width="0.93" stroke-linecap="round" stroke-linejoin="round"/>
<path d="M611.755 434.369L633.075 422.91" stroke="white" stroke-width="0.93" stroke-linecap="round" stroke-linejoin="round"/>
<path d="M649.938 505.694L671.258 494.226" stroke="white" stroke-width="0.93" stroke-linecap="round" stroke-linejoin="round"/>
<path d="M37.7098 122.092C38.2567 122.092 38.7001 121.648 38.7001 121.1C38.7001 120.551 38.2567 120.107 37.7098 120.107C37.1628 120.107 36.7195 120.551 36.7195 121.1C36.7195 121.648 37.1628 122.092 37.7098 122.092Z" fill="#DBF900"/>
<path d="M52.5649 122.083C52.0239 122.083 51.5746 121.642 51.5746 121.09C51.5746 120.539 52.0148 120.098 52.5649 120.098C53.1151 120.098 53.5553 120.539 53.5553 121.09C53.5553 121.642 53.1151 122.083 52.5649 122.083Z" fill="#DBF900"/>
<path d="M67.42 122.092C67.967 122.092 68.4104 121.648 68.4104 121.1C68.4104 120.551 67.967 120.107 67.42 120.107C66.8731 120.107 66.4297 120.551 66.4297 121.1C66.4297 121.648 66.8731 122.092 67.42 122.092Z" fill="#DBF900"/>
<path d="M82.2753 107.206C82.8222 107.206 83.2656 106.762 83.2656 106.214C83.2656 105.666 82.8222 105.221 82.2753 105.221C81.7283 105.221 81.2849 105.666 81.2849 106.214C81.2849 106.762 81.7283 107.206 82.2753 107.206Z" fill="#DBF900"/>
<path d="M82.2753 122.092C82.8222 122.092 83.2656 121.648 83.2656 121.1C83.2656 120.551 82.8222 120.107 82.2753 120.107C81.7283 120.107 81.2849 120.551 81.2849 121.1C81.2849 121.648 81.7283 122.092 82.2753 122.092Z" fill="#DBF900"/>
<path d="M97.1303 107.206C97.6773 107.206 98.1207 106.762 98.1207 106.214C98.1207 105.666 97.6773 105.221 97.1303 105.221C96.5834 105.221 96.14 105.666 96.14 106.214C96.14 106.762 96.5834 107.206 97.1303 107.206Z" fill="#DBF900"/>
<path d="M97.1303 122.092C97.6773 122.092 98.1207 121.648 98.1207 121.1C98.1207 120.551 97.6773 120.107 97.1303 120.107C96.5834 120.107 96.14 120.551 96.14 121.1C96.14 121.648 96.5834 122.092 97.1303 122.092Z" fill="#DBF900"/>
<path d="M112.976 106.214C112.976 106.756 112.536 107.206 111.986 107.206C111.435 107.206 110.995 106.765 110.995 106.214C110.995 105.662 111.435 105.221 111.986 105.221C112.536 105.221 112.976 105.662 112.976 106.214Z" fill="#DBF900"/>
<path d="M111.986 122.083C111.445 122.083 110.995 121.642 110.995 121.09C110.995 120.539 111.435 120.098 111.986 120.098C112.536 120.098 112.976 120.539 112.976 121.09C112.976 121.642 112.536 122.083 111.986 122.083Z" fill="#DBF900"/>
<path d="M126.85 122.092C127.397 122.092 127.84 121.648 127.84 121.1C127.84 120.551 127.397 120.107 126.85 120.107C126.303 120.107 125.859 120.551 125.859 121.1C125.859 121.648 126.303 122.092 126.85 122.092Z" fill="#DBF900"/>
<path d="M37.7098 136.978C38.2567 136.978 38.7001 136.534 38.7001 135.986C38.7001 135.438 38.2567 134.993 37.7098 134.993C37.1628 134.993 36.7195 135.438 36.7195 135.986C36.7195 136.534 37.1628 136.978 37.7098 136.978Z" fill="#DBF900"/>
<path d="M52.5649 136.978C52.0239 136.978 51.5746 136.537 51.5746 135.986C51.5746 135.434 52.0148 134.993 52.5649 134.993C53.1151 134.993 53.5553 135.434 53.5553 135.986C53.5553 136.537 53.1151 136.978 52.5649 136.978Z" fill="#DBF900"/>
<path d="M67.42 136.978C67.967 136.978 68.4104 136.534 68.4104 135.986C68.4104 135.438 67.967 134.993 67.42 134.993C66.8731 134.993 66.4297 135.438 66.4297 135.986C66.4297 136.534 66.8731 136.978 67.42 136.978Z" fill="#DBF900"/>
<path d="M82.2753 136.978C82.8222 136.978 83.2656 136.534 83.2656 135.986C83.2656 135.438 82.8222 134.993 82.2753 134.993C81.7283 134.993 81.2849 135.438 81.2849 135.986C81.2849 136.534 81.7283 136.978 82.2753 136.978Z" fill="#DBF900"/>
<path d="M97.1303 136.978C97.6773 136.978 98.1207 136.534 98.1207 135.986C98.1207 135.438 97.6773 134.993 97.1303 134.993C96.5834 134.993 96.14 135.438 96.14 135.986C96.14 136.534 96.5834 136.978 97.1303 136.978Z" fill="#DBF900"/>
<path d="M111.986 136.978C111.445 136.978 110.995 136.537 110.995 135.986C110.995 135.434 111.435 134.993 111.986 134.993C112.536 134.993 112.976 135.434 112.976 135.986C112.976 136.537 112.536 136.978 111.986 136.978Z" fill="#DBF900"/>
<path d="M126.85 136.978C127.397 136.978 127.84 136.534 127.84 135.986C127.84 135.438 127.397 134.993 126.85 134.993C126.303 134.993 125.859 135.438 125.859 135.986C125.859 136.534 126.303 136.978 126.85 136.978Z" fill="#DBF900"/>
<path d="M37.7098 151.864C37.1688 151.864 36.7195 151.423 36.7195 150.872C36.7195 150.32 37.1596 149.879 37.7098 149.879C38.26 149.879 38.7001 150.32 38.7001 150.872C38.7001 151.423 38.26 151.864 37.7098 151.864Z" fill="#DBF900"/>
<path d="M52.5649 151.864C52.0239 151.864 51.5746 151.423 51.5746 150.872C51.5746 150.32 52.0148 149.879 52.5649 149.879C53.1151 149.879 53.5553 150.32 53.5553 150.872C53.5553 151.423 53.1151 151.864 52.5649 151.864Z" fill="#DBF900"/>
<path d="M67.42 151.864C66.879 151.864 66.4297 151.423 66.4297 150.872C66.4297 150.32 66.8699 149.879 67.42 149.879C67.9702 149.879 68.4104 150.32 68.4104 150.872C68.4104 151.423 67.9702 151.864 67.42 151.864Z" fill="#DBF900"/>
<path d="M82.2753 151.864C81.7343 151.864 81.2849 151.423 81.2849 150.872C81.2849 150.32 81.7251 149.879 82.2753 149.879C82.8255 149.879 83.2656 150.32 83.2656 150.872C83.2656 151.423 82.8255 151.864 82.2753 151.864Z" fill="#DBF900"/>
<path d="M97.1303 151.864C96.5893 151.864 96.14 151.423 96.14 150.872C96.14 150.32 96.5801 149.879 97.1303 149.879C97.6805 149.879 98.1207 150.32 98.1207 150.872C98.1207 151.423 97.6805 151.864 97.1303 151.864Z" fill="#DBF900"/>
<path d="M111.986 151.864C111.445 151.864 110.995 151.423 110.995 150.872C110.995 150.32 111.435 149.879 111.986 149.879C112.536 149.879 112.976 150.32 112.976 150.872C112.976 151.423 112.536 151.864 111.986 151.864Z" fill="#DBF900"/>
<path d="M126.85 151.864C126.309 151.864 125.859 151.423 125.859 150.872C125.859 150.32 126.3 149.879 126.85 149.879C127.4 149.879 127.84 150.32 127.84 150.872C127.84 151.423 127.4 151.864 126.85 151.864Z" fill="#DBF900"/>
<path d="M97.1303 166.75C97.6773 166.75 98.1207 166.306 98.1207 165.758C98.1207 165.21 97.6773 164.766 97.1303 164.766C96.5834 164.766 96.14 165.21 96.14 165.758C96.14 166.306 96.5834 166.75 97.1303 166.75Z" fill="#DBF900"/>
<path d="M111.986 166.75C111.445 166.75 110.995 166.309 110.995 165.758C110.995 165.207 111.435 164.766 111.986 164.766C112.536 164.766 112.976 165.207 112.976 165.758C112.976 166.309 112.536 166.75 111.986 166.75Z" fill="#DBF900"/>
<path d="M126.85 166.75C127.397 166.75 127.84 166.306 127.84 165.758C127.84 165.21 127.397 164.766 126.85 164.766C126.303 164.766 125.859 165.21 125.859 165.758C125.859 166.306 126.303 166.75 126.85 166.75Z" fill="#DBF900"/>
<path d="M97.1303 181.646C97.6773 181.646 98.1207 181.201 98.1207 180.653C98.1207 180.105 97.6773 179.661 97.1303 179.661C96.5834 179.661 96.14 180.105 96.14 180.653C96.14 181.201 96.5834 181.646 97.1303 181.646Z" fill="#DBF900"/>
<path d="M111.986 181.636C111.445 181.636 110.995 181.195 110.995 180.644C110.995 180.093 111.435 179.652 111.986 179.652C112.536 179.652 112.976 180.093 112.976 180.644C112.976 181.195 112.536 181.636 111.986 181.636Z" fill="#DBF900"/>
<path d="M7.99036 107.206C8.53731 107.206 8.98072 106.762 8.98072 106.214C8.98072 105.666 8.53731 105.221 7.99036 105.221C7.44341 105.221 7 105.666 7 106.214C7 106.762 7.44341 107.206 7.99036 107.206Z" fill="#DBF900"/>
<path d="M7.99036 122.092C8.53731 122.092 8.98072 121.648 8.98072 121.1C8.98072 120.551 8.53731 120.107 7.99036 120.107C7.44341 120.107 7 120.551 7 121.1C7 121.648 7.44341 122.092 7.99036 122.092Z" fill="#DBF900"/>
<path d="M22.8455 107.206C23.3924 107.206 23.8358 106.762 23.8358 106.214C23.8358 105.666 23.3924 105.221 22.8455 105.221C22.2985 105.221 21.8551 105.666 21.8551 106.214C21.8551 106.762 22.2985 107.206 22.8455 107.206Z" fill="#DBF900"/>
<path d="M22.8455 122.092C23.3924 122.092 23.8358 121.648 23.8358 121.1C23.8358 120.551 23.3924 120.107 22.8455 120.107C22.2985 120.107 21.8551 120.551 21.8551 121.1C21.8551 121.648 22.2985 122.092 22.8455 122.092Z" fill="#DBF900"/>
<path d="M7.99036 136.978C8.53731 136.978 8.98072 136.534 8.98072 135.986C8.98072 135.438 8.53731 134.993 7.99036 134.993C7.44341 134.993 7 135.438 7 135.986C7 136.534 7.44341 136.978 7.99036 136.978Z" fill="#DBF900"/>
<path d="M22.8455 136.978C23.3924 136.978 23.8358 136.534 23.8358 135.986C23.8358 135.438 23.3924 134.993 22.8455 134.993C22.2985 134.993 21.8551 135.438 21.8551 135.986C21.8551 136.534 22.2985 136.978 22.8455 136.978Z" fill="#DBF900"/>
<path d="M7.99036 151.864C7.44934 151.864 7 151.423 7 150.872C7 150.32 7.44017 149.879 7.99036 149.879C8.54055 149.879 8.98072 150.32 8.98072 150.872C8.98072 151.423 8.54055 151.864 7.99036 151.864Z" fill="#DBF900"/>
<path d="M22.8455 151.864C22.3044 151.864 21.8551 151.423 21.8551 150.872C21.8551 150.32 22.2953 149.879 22.8455 149.879C23.3957 149.879 23.8358 150.32 23.8358 150.872C23.8358 151.423 23.3957 151.864 22.8455 151.864Z" fill="#DBF900"/>
<path d="M37.7098 166.75C38.2567 166.75 38.7001 166.306 38.7001 165.758C38.7001 165.21 38.2567 164.766 37.7098 164.766C37.1628 164.766 36.7195 165.21 36.7195 165.758C36.7195 166.306 37.1628 166.75 37.7098 166.75Z" fill="#DBF900"/>
<path d="M52.5649 166.75C52.0239 166.75 51.5746 166.309 51.5746 165.758C51.5746 165.207 52.0148 164.766 52.5649 164.766C53.1151 164.766 53.5553 165.207 53.5553 165.758C53.5553 166.309 53.1151 166.75 52.5649 166.75Z" fill="#DBF900"/>
<path d="M67.42 166.75C67.967 166.75 68.4104 166.306 68.4104 165.758C68.4104 165.21 67.967 164.766 67.42 164.766C66.8731 164.766 66.4297 165.21 66.4297 165.758C66.4297 166.306 66.8731 166.75 67.42 166.75Z" fill="#DBF900"/>
<path d="M82.2753 166.75C82.8222 166.75 83.2656 166.306 83.2656 165.758C83.2656 165.21 82.8222 164.766 82.2753 164.766C81.7283 164.766 81.2849 165.21 81.2849 165.758C81.2849 166.306 81.7283 166.75 82.2753 166.75Z" fill="#DBF900"/>
<path d="M37.7098 181.646C38.2567 181.646 38.7001 181.201 38.7001 180.653C38.7001 180.105 38.2567 179.661 37.7098 179.661C37.1628 179.661 36.7195 180.105 36.7195 180.653C36.7195 181.201 37.1628 181.646 37.7098 181.646Z" fill="#DBF900"/>
<path d="M52.5649 181.636C52.0239 181.636 51.5746 181.195 51.5746 180.644C51.5746 180.093 52.0148 179.652 52.5649 179.652C53.1151 179.652 53.5553 180.093 53.5553 180.644C53.5553 181.195 53.1151 181.636 52.5649 181.636Z" fill="#DBF900"/>
<path d="M67.42 181.646C67.967 181.646 68.4104 181.201 68.4104 180.653C68.4104 180.105 67.967 179.661 67.42 179.661C66.8731 179.661 66.4297 180.105 66.4297 180.653C66.4297 181.201 66.8731 181.646 67.42 181.646Z" fill="#DBF900"/>
<path d="M82.2753 181.646C82.8222 181.646 83.2656 181.201 83.2656 180.653C83.2656 180.105 82.8222 179.661 82.2753 179.661C81.7283 179.661 81.2849 180.105 81.2849 180.653C81.2849 181.201 81.7283 181.646 82.2753 181.646Z" fill="#DBF900"/>
<path d="M37.7098 196.532C38.2567 196.532 38.7001 196.087 38.7001 195.539C38.7001 194.991 38.2567 194.547 37.7098 194.547C37.1628 194.547 36.7195 194.991 36.7195 195.539C36.7195 196.087 37.1628 196.532 37.7098 196.532Z" fill="#DBF900"/>
<path d="M52.5649 196.522C52.0239 196.522 51.5746 196.081 51.5746 195.53C51.5746 194.979 52.0148 194.538 52.5649 194.538C53.1151 194.538 53.5553 194.979 53.5553 195.53C53.5553 196.081 53.1151 196.522 52.5649 196.522Z" fill="#DBF900"/>
<path d="M67.42 196.532C67.967 196.532 68.4104 196.087 68.4104 195.539C68.4104 194.991 67.967 194.547 67.42 194.547C66.8731 194.547 66.4297 194.991 66.4297 195.539C66.4297 196.087 66.8731 196.532 67.42 196.532Z" fill="#DBF900"/>
<path d="M82.2753 196.532C82.8222 196.532 83.2656 196.087 83.2656 195.539C83.2656 194.991 82.8222 194.547 82.2753 194.547C81.7283 194.547 81.2849 194.991 81.2849 195.539C81.2849 196.087 81.7283 196.532 82.2753 196.532Z" fill="#DBF900"/>
<path d="M7.99036 166.75C8.53731 166.75 8.98072 166.306 8.98072 165.758C8.98072 165.21 8.53731 164.766 7.99036 164.766C7.44341 164.766 7 165.21 7 165.758C7 166.306 7.44341 166.75 7.99036 166.75Z" fill="#DBF900"/>
<path d="M22.8455 166.75C23.3924 166.75 23.8358 166.306 23.8358 165.758C23.8358 165.21 23.3924 164.766 22.8455 164.766C22.2985 164.766 21.8551 165.21 21.8551 165.758C21.8551 166.306 22.2985 166.75 22.8455 166.75Z" fill="#DBF900"/>
<path d="M7.99036 181.646C8.53731 181.646 8.98072 181.201 8.98072 180.653C8.98072 180.105 8.53731 179.661 7.99036 179.661C7.44341 179.661 7 180.105 7 180.653C7 181.201 7.44341 181.646 7.99036 181.646Z" fill="#DBF900"/>
<path d="M22.8455 181.646C23.3924 181.646 23.8358 181.201 23.8358 180.653C23.8358 180.105 23.3924 179.661 22.8455 179.661C22.2985 179.661 21.8551 180.105 21.8551 180.653C21.8551 181.201 22.2985 181.646 22.8455 181.646Z" fill="#DBF900"/>
<path d="M7.99036 196.532C8.53731 196.532 8.98072 196.087 8.98072 195.539C8.98072 194.991 8.53731 194.547 7.99036 194.547C7.44341 194.547 7 194.991 7 195.539C7 196.087 7.44341 196.532 7.99036 196.532Z" fill="#DBF900"/>
<path d="M22.8455 196.532C23.3924 196.532 23.8358 196.087 23.8358 195.539C23.8358 194.991 23.3924 194.547 22.8455 194.547C22.2985 194.547 21.8551 194.991 21.8551 195.539C21.8551 196.087 22.2985 196.532 22.8455 196.532Z" fill="#DBF900"/>
<path d="M97.1303 92.3105C97.6773 92.3105 98.1207 91.8662 98.1207 91.3181C98.1207 90.77 97.6773 90.3257 97.1303 90.3257C96.5834 90.3257 96.14 90.77 96.14 91.3181C96.14 91.8662 96.5834 92.3105 97.1303 92.3105Z" fill="#DBF900"/>
<path d="M7.99036 47.6523C8.53731 47.6523 8.98072 47.208 8.98072 46.6599C8.98072 46.1118 8.53731 45.6675 7.99036 45.6675C7.44341 45.6675 7 46.1118 7 46.6599C7 47.208 7.44341 47.6523 7.99036 47.6523Z" fill="#DBF900"/>
<path d="M7.99036 62.5385C8.53731 62.5385 8.98072 62.0942 8.98072 61.5461C8.98072 60.998 8.53731 60.5537 7.99036 60.5537C7.44341 60.5537 7 60.998 7 61.5461C7 62.0942 7.44341 62.5385 7.99036 62.5385Z" fill="#DBF900"/>
<path d="M22.8455 47.6523C23.3924 47.6523 23.8358 47.208 23.8358 46.6599C23.8358 46.1118 23.3924 45.6675 22.8455 45.6675C22.2985 45.6675 21.8551 46.1118 21.8551 46.6599C21.8551 47.208 22.2985 47.6523 22.8455 47.6523Z" fill="#DBF900"/>
<path d="M22.8455 62.5385C23.3924 62.5385 23.8358 62.0942 23.8358 61.5461C23.8358 60.998 23.3924 60.5537 22.8455 60.5537C22.2985 60.5537 21.8551 60.998 21.8551 61.5461C21.8551 62.0942 22.2985 62.5385 22.8455 62.5385Z" fill="#DBF900"/>
<path d="M7.99036 77.4245C7.44934 77.4245 7 76.9834 7 76.4321C7 75.8808 7.44017 75.4397 7.99036 75.4397C8.54055 75.4397 8.98072 75.8808 8.98072 76.4321C8.98072 76.9834 8.54055 77.4245 7.99036 77.4245Z" fill="#DBF900"/>
<path d="M7.99036 92.3105C8.53731 92.3105 8.98072 91.8662 8.98072 91.3181C8.98072 90.77 8.53731 90.3257 7.99036 90.3257C7.44341 90.3257 7 90.77 7 91.3181C7 91.8662 7.44341 92.3105 7.99036 92.3105Z" fill="#DBF900"/>
<path d="M8.98072 1.99241C8.98072 2.53455 8.54055 2.98482 7.99036 2.98482C7.44017 2.98482 7 2.54374 7 1.99241C7 1.44107 7.44017 1 7.99036 1C8.54055 1 8.98072 1.44107 8.98072 1.99241Z" fill="#DBF900"/>
<path d="M7.99036 17.8708C7.44934 17.8708 7 17.4297 7 16.8784C7 16.3271 7.44017 15.886 7.99036 15.886C8.54055 15.886 8.98072 16.3271 8.98072 16.8784C8.98072 17.4297 8.54055 17.8708 7.99036 17.8708Z" fill="#DBF900"/>
<path d="M7.99036 32.7663C8.53731 32.7663 8.98072 32.322 8.98072 31.7739C8.98072 31.2258 8.53731 30.7815 7.99036 30.7815C7.44341 30.7815 7 31.2258 7 31.7739C7 32.322 7.44341 32.7663 7.99036 32.7663Z" fill="#DBF900"/>
<path d="M22.8455 32.7663C23.3924 32.7663 23.8358 32.322 23.8358 31.7739C23.8358 31.2258 23.3924 30.7815 22.8455 30.7815C22.2985 30.7815 21.8551 31.2258 21.8551 31.7739C21.8551 32.322 22.2985 32.7663 22.8455 32.7663Z" fill="#DBF900"/>
<path d="M22.8455 92.3105C23.3924 92.3105 23.8358 91.8662 23.8358 91.3181C23.8358 90.77 23.3924 90.3257 22.8455 90.3257C22.2985 90.3257 21.8551 90.77 21.8551 91.3181C21.8551 91.8662 22.2985 92.3105 22.8455 92.3105Z" fill="#DBF900"/>
<path d="M37.7098 211.418C37.1688 211.418 36.7195 210.977 36.7195 210.426C36.7195 209.874 37.1596 209.433 37.7098 209.433C38.26 209.433 38.7001 209.874 38.7001 210.426C38.7001 210.977 38.26 211.418 37.7098 211.418Z" fill="#DBF900"/>
<path d="M52.5649 211.418C52.0239 211.418 51.5746 210.977 51.5746 210.426C51.5746 209.874 52.0148 209.433 52.5649 209.433C53.1151 209.433 53.5553 209.874 53.5553 210.426C53.5553 210.977 53.1151 211.418 52.5649 211.418Z" fill="#DBF900"/>
<path d="M67.42 211.418C66.879 211.418 66.4297 210.977 66.4297 210.426C66.4297 209.874 66.8699 209.433 67.42 209.433C67.9702 209.433 68.4104 209.874 68.4104 210.426C68.4104 210.977 67.9702 211.418 67.42 211.418Z" fill="#DBF900"/>
<path d="M37.7098 226.304C38.2567 226.304 38.7001 225.86 38.7001 225.311C38.7001 224.763 38.2567 224.319 37.7098 224.319C37.1628 224.319 36.7195 224.763 36.7195 225.311C36.7195 225.86 37.1628 226.304 37.7098 226.304Z" fill="#DBF900"/>
<path d="M52.5649 226.304C52.0239 226.304 51.5746 225.863 51.5746 225.311C51.5746 224.76 52.0148 224.319 52.5649 224.319C53.1151 224.319 53.5553 224.76 53.5553 225.311C53.5553 225.863 53.1151 226.304 52.5649 226.304Z" fill="#DBF900"/>
<path d="M7.99036 211.418C7.44934 211.418 7 210.977 7 210.426C7 209.874 7.44017 209.433 7.99036 209.433C8.54055 209.433 8.98072 209.874 8.98072 210.426C8.98072 210.977 8.54055 211.418 7.99036 211.418Z" fill="#DBF900"/>
<path d="M22.8455 211.418C22.3044 211.418 21.8551 210.977 21.8551 210.426C21.8551 209.874 22.2953 209.433 22.8455 209.433C23.3957 209.433 23.8358 209.874 23.8358 210.426C23.8358 210.977 23.3957 211.418 22.8455 211.418Z" fill="#DBF900"/>
<path d="M7.99036 226.304C8.53731 226.304 8.98072 225.86 8.98072 225.311C8.98072 224.763 8.53731 224.319 7.99036 224.319C7.44341 224.319 7 224.763 7 225.311C7 225.86 7.44341 226.304 7.99036 226.304Z" fill="#DBF900"/>
<path d="M22.8455 226.304C23.3924 226.304 23.8358 225.86 23.8358 225.311C23.8358 224.763 23.3924 224.319 22.8455 224.319C22.2985 224.319 21.8551 224.763 21.8551 225.311C21.8551 225.86 22.2985 226.304 22.8455 226.304Z" fill="#DBF900"/>
<path d="M7.99036 241.19C8.53731 241.19 8.98072 240.746 8.98072 240.198C8.98072 239.65 8.53731 239.205 7.99036 239.205C7.44341 239.205 7 239.65 7 240.198C7 240.746 7.44341 241.19 7.99036 241.19Z" fill="#DBF900"/>
<path d="M22.8455 241.19C23.3924 241.19 23.8358 240.746 23.8358 240.198C23.8358 239.65 23.3924 239.205 22.8455 239.205C22.2985 239.205 21.8551 239.65 21.8551 240.198C21.8551 240.746 22.2985 241.19 22.8455 241.19Z" fill="#DBF900"/>
<path d="M439.817 384.758C498.713 384.758 546.458 337.014 546.458 278.117C546.458 219.221 498.713 171.477 439.817 171.477C380.921 171.477 333.176 219.221 333.176 278.117C333.176 337.014 380.921 384.758 439.817 384.758Z" fill="#0B1014" stroke="#DBF900" stroke-width="4" stroke-miterlimit="10"/>
<path d="M472.663 343.029C476.882 327.327 459.3 308.95 433.399 301.991C407.491 295.031 383.076 302.117 378.85 317.819" stroke="#DBF900" stroke-width="5.49" stroke-miterlimit="10" stroke-linecap="round"/>
<path d="M428.964 247.487C433.376 231.07 430.872 216.127 423.372 214.112C415.873 212.097 406.217 223.772 401.806 240.19C397.395 256.607 399.898 271.55 407.398 273.565C414.897 275.58 424.553 263.905 428.964 247.487Z" fill="#DBF900"/>
<path d="M491.689 264.343C496.101 247.926 493.597 232.983 486.098 230.968C478.598 228.953 468.942 240.629 464.531 257.046C460.12 273.463 462.623 288.406 470.123 290.421C477.622 292.436 487.278 280.761 491.689 264.343Z" fill="#DBF900"/>
<path d="M427.027 469.211C468.673 427.565 468.673 360.044 427.027 318.398C385.381 276.752 317.86 276.752 276.214 318.398C234.568 360.044 234.568 427.565 276.214 469.211C317.86 510.857 385.381 510.857 427.027 469.211Z" fill="#DBF900"/>
<path d="M245.388 384.201C286.463 371.968 317.155 335.653 321.099 291.629C278.181 304.434 249.213 341.974 245.388 384.201Z" fill="#728100"/>
<path d="M255.489 347.649C244.615 370.281 241.629 396.813 249.012 422.878C252.481 435.126 257.963 446.26 264.982 456.035C281.635 421.377 278.471 379.596 255.489 347.649Z" fill="#728100"/>
<path d="M281.301 413.727C292.301 452.559 332.701 475.125 371.534 464.117C410.366 453.116 432.932 412.717 421.924 373.884" stroke="#0B1014" stroke-width="5.49" stroke-miterlimit="10" stroke-linecap="round"/>
<path d="M321.493 406.528C328.964 404.411 331.264 389.436 326.63 373.08C321.995 356.724 312.182 345.181 304.71 347.298C297.239 349.415 294.939 364.39 299.573 380.746C304.208 397.102 314.021 408.645 321.493 406.528Z" fill="#0B1014"/>
<path d="M383.986 388.818C391.458 386.701 393.757 371.726 389.123 355.37C384.489 339.015 374.675 327.472 367.203 329.589C359.732 331.706 357.432 346.681 362.067 363.037C366.701 379.393 376.515 390.936 383.986 388.818Z" fill="#0B1014"/>
<path d="M219.746 362.282C278.643 362.282 326.387 314.537 326.387 255.641C326.387 196.745 278.643 149 219.746 149C160.85 149 113.106 196.745 113.106 255.641C113.106 314.537 160.85 362.282 219.746 362.282Z" fill="#DBF900"/>
<path d="M123.088 300.735C140.076 337.087 176.97 362.282 219.746 362.282C235.181 362.282 249.844 358.999 263.088 353.101C257.97 342.13 250.884 331.85 241.829 322.796C209.719 290.685 162.24 283.339 123.088 300.743V300.735Z" fill="#728100"/>
<path d="M146.664 255.641C146.664 296.004 179.384 328.723 219.746 328.723C260.109 328.723 292.829 296.004 292.829 255.641" stroke="#0B1014" stroke-width="5.49" stroke-miterlimit="10" stroke-linecap="round"/>
<path d="M187.264 259.682C195.03 259.682 201.325 245.901 201.325 228.901C201.325 211.901 195.03 198.12 187.264 198.12C179.499 198.12 173.204 211.901 173.204 228.901C173.204 245.901 179.499 259.682 187.264 259.682Z" fill="#0B1014"/>
<path d="M252.221 259.682C259.986 259.682 266.282 245.901 266.282 228.901C266.282 211.901 259.986 198.12 252.221 198.12C244.455 198.12 238.16 211.901 238.16 228.901C238.16 245.901 244.455 259.682 252.221 259.682Z" fill="#0B1014"/>
<path d="M159.641 505.802C218.537 505.802 266.282 458.057 266.282 399.161C266.282 340.265 218.537 292.52 159.641 292.52C100.745 292.52 53 340.265 53 399.161C53 458.057 100.745 505.802 159.641 505.802Z" fill="#0B1014" stroke="#DBF900" stroke-width="4" stroke-miterlimit="10"/>
<path d="M211.316 347.486C182.778 318.948 136.503 318.948 107.966 347.486C79.428 376.023 79.428 422.298 107.966 450.836" stroke="#DBF900" stroke-width="5.49" stroke-miterlimit="10" stroke-linecap="round"/>
<path d="M223.276 416.875C228.767 411.384 223.474 397.188 211.453 385.167C199.433 373.146 185.236 367.853 179.745 373.344C174.254 378.835 179.548 393.031 191.568 405.052C203.589 417.073 217.785 422.366 223.276 416.875Z" fill="#DBF900"/>
<path d="M177.348 462.799C182.839 457.308 177.546 443.112 165.525 431.091C153.504 419.071 139.308 413.777 133.817 419.268C128.326 424.76 133.619 438.956 145.64 450.976C157.661 462.997 171.857 468.29 177.348 462.799Z" fill="#DBF900"/>
</svg>
