<svg width="402" height="500" viewBox="0 0 402 500" fill="none" xmlns="http://www.w3.org/2000/svg">
<path d="M159.1 121.52C155.45 133.63 162.32 146.41 174.43 150.06C186.54 153.71 199.32 146.84 202.97 134.73C206.62 122.62 199.75 109.84 187.64 106.19C175.53 102.54 162.75 109.41 159.1 121.52Z" fill="url(#paint0_radial_2469_1524)"/>
<path d="M214.77 125.74C211.12 137.85 217.99 150.63 230.1 154.28C242.21 157.93 254.99 151.06 258.64 138.95C262.29 126.84 255.42 114.06 243.31 110.41C231.2 106.76 218.42 113.63 214.77 125.74Z" fill="url(#paint1_radial_2469_1524)"/>
<path d="M379.22 249.54C376.82 249.54 372.88 247.45 372.88 247.45L378.41 253.71C380.62 257.04 377.66 259.76 377.66 259.76C379.34 262.46 377.66 264.77 377.66 264.77C374.12 267.05 369.96 263.7 369.96 263.7C364.92 259.62 360.06 255.39 354.81 251.58C353.1 250.35 345.13 244.51 346.4 251.13C346.89 253.66 349.32 255.47 350.77 257.46C352.54 259.9 356.94 265.96 354.61 269.08C353.64 270.36 351.71 270.57 350.23 269.96C347.78 268.93 346.38 266.35 344.73 264.43C341.61 260.79 338.48 257.16 335.36 253.51C335.89 254.22 336.41 254.94 336.93 255.65C332.41 249.56 327.34 243.63 323.25 237.24C316.58 226.81 226.55 170.74 226.55 170.74L229.97 185.9L232.34 196.38C213.78 207.22 167.7 204.72 167.7 204.72C166.86 200.19 166.71 193.13 166.89 186.02C167.17 173.78 168.33 161.36 168.33 161.36L157.07 154.43C149.98 150.47 142.7 145.54 138.14 138.66C122.67 115.19 143.54 80.19 168.42 73.74C177.84 71.32 187.8 69.42 197.37 67.75C203.07 66.74 209.44 66.63 215.03 64.9C218.13 63.93 221.08 61.49 221.08 61.49L227.95 55.85C234.84 50.85 236.93 51.05 236.93 51.05C240.26 52.52 238.17 56.89 238.17 56.89L232.55 63.15C229.83 68.16 233.8 67.12 233.8 67.12C236.93 65.85 238.58 61.9 238.58 61.9C240.26 59.81 243.59 49.6 243.59 49.6C244.22 47.51 245.67 47.51 245.67 47.51C248.39 46.67 248.8 48.98 248.8 48.98C248.4 52.6 246.44 57.03 246.32 57.31C247.6 56.22 254.22 48.14 254.22 48.14C257.35 45.22 261.95 47.73 261.95 47.73C264.03 45.44 265.28 46.18 265.28 46.18C269.04 47.13 267.76 51.68 267.76 51.68C265.39 59.19 250.96 69.19 250.96 69.19H260.14C262.42 69.19 266.6 69.23 267.61 71.88C268.68 74.7 265.57 76.24 263.25 76.57C256.44 77.53 250.02 76.2 243.25 78.2C242.69 78.37 242.13 78.55 241.57 78.73C235.75 80.7 230.34 83.75 224.96 86.7C217.13 90.96 208.95 94.61 200.67 97.94C194.32 100.48 187.71 102.5 181.18 104.67C176.88 106.1 171.8 107.35 170.4 112.34C169.31 116.24 169.73 122.77 173.46 125.25C174.93 126.22 176.66 126.66 178.34 127.14C179.43 127.45 180.54 127.78 181.64 128.14C185.65 129.46 189.61 131.19 192.86 133.87C193.55 134.44 194.15 135.02 194.71 135.59L198.52 123.96L216.54 129.86L216.39 141.24C216.54 141.24 216.7 141.24 216.84 141.25C220.53 141.4 224.43 142.52 227.99 143.47C257.39 151.42 283.57 171.17 306.5 190.54C325.36 206.47 341.6 226.98 364.13 237.71C365.81 238.52 367.54 239.27 369.3 239.96C378.89 243.72 381.4 246.22 381.4 246.22C382.64 249.96 379.19 249.55 379.19 249.55L379.22 249.54Z" fill="url(#paint2_linear_2469_1524)"/>
<path style="mix-blend-mode:multiply" opacity="0.4" d="M379.22 249.54C376.82 249.54 372.88 247.45 372.88 247.45L378.41 253.71C380.62 257.04 377.66 259.76 377.66 259.76C372.86 255.83 362.27 248.38 362.27 248.38C362.27 248.38 363.18 243.04 364.16 237.7C365.84 238.51 367.57 239.26 369.33 239.95C378.92 243.71 381.43 246.21 381.43 246.21C382.67 249.95 379.22 249.54 379.22 249.54Z" fill="url(#paint3_linear_2469_1524)"/>
<path d="M229.98 185.89C218 184.84 182.59 185.6 166.89 186.01C167.17 173.77 168.34 161.35 168.34 161.35C182.72 154.26 181.66 128.14 181.66 128.14C185.68 129.45 189.63 131.19 192.88 133.87C193.57 134.44 194.18 135.01 194.74 135.58C187.16 157.64 200.02 157.18 200.02 157.18C212.22 157.87 215.17 147.35 215.86 141.22C216.2 141.22 216.54 141.22 216.88 141.24C220.57 141.4 224.48 142.51 228.03 143.47C222.88 146.02 226.55 170.73 226.55 170.73L229.98 185.9V185.89Z" fill="url(#paint4_radial_2469_1524)"/>
<path d="M328.36 342.57L373.19 398.66L344.76 421.39L297.65 367.12L328.36 342.57Z" fill="url(#paint5_linear_2469_1524)"/>
<path opacity="0.2" d="M328.36 342.57L373.19 398.66L344.76 421.39L297.65 367.12L328.36 342.57Z" fill="url(#paint6_linear_2469_1524)"/>
<path d="M370.14 386.81L334.25 415.5C334.25 415.5 351.52 438.15 340.05 454.36C340.05 454.36 336.66 459.97 331.91 463.35C331.91 463.35 320.44 456.78 309.12 471.63C309.12 471.63 298.96 484.31 314.97 499.68L373.35 453.01C373.35 453.01 368.65 445.58 375.38 438.96C375.38 438.96 382.71 433.1 389.53 440.08L399.77 431.9C399.77 431.9 404.34 429.07 400.05 424.22L370.15 386.81H370.14Z" fill="url(#paint7_radial_2469_1524)"/>
<path d="M356.65 428C356.65 428 347.39 424.11 342.33 431.42" stroke="white" stroke-width="2.58" stroke-miterlimit="10" stroke-linecap="round"/>
<path d="M358.47 437.01C358.47 437.01 349.21 433.12 344.15 440.43" stroke="white" stroke-width="2.58" stroke-miterlimit="10" stroke-linecap="round"/>
<path d="M361.36 382.92C360.24 383.89 358.62 384.59 356.82 384.93C354.62 385.34 352.35 385.17 350.12 384.95C341.6 384.12 333.16 382.72 324.73 381.24C317.64 380 310.12 381.31 303.25 383.33C288.57 387.64 275.38 396.19 263.24 405.29C258.16 409.1 257.4 403.22 257.4 403.22C238.64 376.78 225.16 345.96 215.55 317.04C197.61 263 193.18 215.56 193.18 215.56C213.19 199.71 242.03 222.05 242.03 222.05L251.42 234.72L338.28 351.92C342.87 358.17 361.22 376.27 361.22 376.27C363.74 378.88 363.26 381.28 361.35 382.93L361.36 382.92Z" fill="url(#paint8_linear_2469_1524)"/>
<path d="M251.43 234.72C244.96 238.43 232.85 248.29 223.72 272.84C223.72 272.84 216.97 295.69 215.55 317.04C197.61 263 193.18 215.56 193.18 215.56C213.19 199.71 242.03 222.05 242.03 222.05L251.42 234.72H251.43Z" fill="url(#paint9_linear_2469_1524)"/>
<path d="M184.44 307.25L219.28 341.04L193.93 367.17L157.06 335.46L184.44 307.25Z" fill="url(#paint10_linear_2469_1524)"/>
<path opacity="0.2" d="M184.44 307.25L219.28 341.04L193.93 367.17L157.06 335.46L184.44 307.25Z" fill="url(#paint11_linear_2469_1524)"/>
<path d="M214.76 329.67L182.77 362.65C182.77 362.65 202.76 382.94 193.41 400.47C193.41 400.47 190.75 406.46 186.47 410.41C186.47 410.41 174.27 405.33 164.9 421.49C164.9 421.49 156.41 435.35 174.23 448.58L226.28 394.93C226.28 394.93 220.69 388.15 226.52 380.74C226.52 380.74 233.05 374 240.7 380.07L249.83 370.66C249.83 370.66 254.01 367.28 249.14 363L214.77 329.65L214.76 329.67Z" fill="url(#paint12_radial_2469_1524)"/>
<path d="M206.56 372.24C206.56 372.24 196.89 369.55 192.78 377.44" stroke="white" stroke-width="2.58" stroke-miterlimit="10" stroke-linecap="round"/>
<path d="M209.5 380.94C209.5 380.94 199.83 378.25 195.72 386.14" stroke="white" stroke-width="2.58" stroke-miterlimit="10" stroke-linecap="round"/>
<path d="M183.35 260.76C182.55 260.75 181.9 260.64 181.5 260.39C182.14 260.83 192.32 267.68 192.32 267.68L195.57 270.37C201.75 275.48 207.93 280.59 214.1 285.69C218.67 289.47 223.25 293.23 227.81 297.02C229.44 298.38 244.22 312.14 240.69 313.13C233.07 315.26 225.45 316.8 217.59 317.7C210.09 318.56 202.44 318.27 195.31 320.98C181.9 326.07 170.91 336.33 160.63 346C152.71 353.42 150.62 346 150.62 346C138.8 330.86 126.98 315.72 115.16 300.57C105.43 288.1 91.2199 272.89 93.7899 255.72C96.0699 240.47 110.98 230.52 123.42 223.55C134.91 217.1 147.15 211.96 159.54 207.51C162.25 206.54 164.97 205.58 167.72 204.72L232.35 196.38C243.85 203.66 247.86 220.61 241.66 232.42C235.69 243.78 223.18 251.68 211.32 255.67C204.52 257.95 197.41 259.32 190.27 259.98C189.04 260.1 185.65 260.82 183.36 260.77L183.35 260.76Z" fill="url(#paint13_linear_2469_1524)"/>
<path d="M195.57 270.37C176.67 271.78 153.12 259.19 153.12 259.19C170.64 261.95 181.48 260.37 181.48 260.37L183.36 260.76C182.56 260.75 181.91 260.64 181.51 260.39C182.15 260.83 192.33 267.68 192.33 267.68L195.58 270.37H195.57Z" fill="url(#paint14_radial_2469_1524)"/>
<path d="M212.83 150.54C212.83 150.54 212.7 146.58 212.71 146.34C212.87 143.16 213.53 139.95 214.92 137.08C218.7 129.25 228.51 125.39 236.84 126.99C244.43 128.45 248.86 135.2 250.68 142.26C250.57 141.82 256.84 140.78 257.23 140.74C266.94 139.9 276.24 146.85 276.86 156.77C276.78 155.53 286.35 153.09 287.58 152.86C291.61 152.1 295.91 152.25 299.56 154.3C306.09 157.97 308.61 165.56 307.88 172.71C308 171.49 313.2 169.31 314.09 168.9C321.29 165.54 330.76 165.09 337.49 169.75C343.89 174.17 347.76 181.66 349.17 189.17C351.72 202.8 349.17 218.55 341.95 230.45C332.61 245.85 308.06 257.45 292.23 244.14C292.23 244.14 280.28 237.59 281.56 217.11C281.56 217.11 263.49 223.66 253.82 211.7C253.82 211.7 245.57 204.49 249.84 188.17C249.84 188.17 243.01 188.78 237.89 186.65C239.23 187.21 234.34 194.13 233.89 194.55C229.12 199.01 220.87 199.55 214.85 197.87C206.47 195.54 201.55 185.58 204.23 177.44C204.54 176.5 208.12 170.96 208.01 170.71C208.01 170.71 200.9 154.27 212.85 150.54H212.83Z" fill="#FF4E21"/>
<g opacity="0.15">
<mask id="mask0_2469_1524" style="mask-type:luminance" maskUnits="userSpaceOnUse" x="203" y="126" width="148" height="124">
<path d="M212.83 150.54C212.83 150.54 212.7 146.58 212.71 146.34C212.87 143.16 213.53 139.95 214.92 137.08C218.7 129.25 228.51 125.39 236.84 126.99C244.43 128.45 248.86 135.2 250.68 142.26C250.57 141.82 256.84 140.78 257.23 140.74C266.94 139.9 276.24 146.85 276.86 156.77C276.78 155.53 286.35 153.09 287.58 152.86C291.61 152.1 295.91 152.25 299.56 154.3C306.09 157.97 308.61 165.56 307.88 172.71C308 171.49 313.2 169.31 314.09 168.9C321.29 165.54 330.76 165.09 337.49 169.75C343.89 174.17 347.76 181.66 349.17 189.17C351.72 202.8 349.17 218.55 341.95 230.45C332.61 245.85 308.06 257.45 292.23 244.14C292.23 244.14 280.28 237.59 281.56 217.11C281.56 217.11 263.49 223.66 253.82 211.7C253.82 211.7 245.57 204.49 249.84 188.17C249.84 188.17 243.01 188.78 237.89 186.65C239.23 187.21 234.34 194.13 233.89 194.55C229.12 199.01 220.87 199.55 214.85 197.87C206.47 195.54 201.55 185.58 204.23 177.44C204.54 176.5 208.12 170.96 208.01 170.71C208.01 170.71 200.9 154.27 212.85 150.54H212.83Z" fill="white"/>
</mask>
<g mask="url(#mask0_2469_1524)">
<path d="M212.19 140.02C219.12 142.31 225.36 147.65 225.82 155.35C226.37 164.43 219.14 171.03 217.19 179.43C216.18 183.77 217 188.57 218.94 192.7C221 197.08 223.92 200.93 222.15 206.04" stroke="white" stroke-width="3.02" stroke-miterlimit="10" stroke-linecap="round"/>
<path d="M248.62 127.78C237.15 130.66 229.6 142.14 229.55 153.72C229.53 157.39 231.36 160.76 234.15 163.16C238.76 167.12 246.11 166.39 248.38 160.2C248.83 158.96 248.99 157.56 248.5 156.33C248.02 155.1 246.78 154.12 245.47 154.2C244.66 154.25 243.91 154.68 243.26 155.17C241.19 156.72 239.68 159 239.07 161.52C238.48 163.95 238.75 166.62 240.06 168.75C242.1 172.08 246.32 173.57 250.22 173.38C266.66 172.59 272.52 157.06 272.52 142.87" stroke="white" stroke-width="3.02" stroke-miterlimit="10" stroke-linecap="round"/>
<path d="M232.11 206.04C229.96 201.57 228.13 195.99 228.97 190.99C229.61 187.2 231.9 184.56 235.57 183.37C240.04 181.92 243.09 184.79 246.45 187.23C252.77 191.83 264.06 191.21 267.53 183.15C268.58 180.71 267.72 177.26 265.18 176.52C263.71 176.09 262.12 176.65 260.82 177.47C255.3 180.93 253.62 188.83 256.22 194.8C258.82 200.77 264.9 204.74 271.29 206.04C273.7 206.53 276.38 206.63 278.41 205.26C281.04 203.49 281.08 199.25 278.19 197.7C272.96 194.91 268.74 201.92 268.68 206.36C268.46 222.66 287.01 239.21 302.53 228.58C306.46 225.89 309.26 221.61 310.26 216.95C311.19 212.58 310.62 205 305.2 203.87C293.18 201.37 294.39 219.88 296.31 226.66C297.41 230.54 299.47 234.23 302.61 236.76C308.54 241.52 316.36 239.79 321.9 235.22C325.21 232.48 328.09 228.73 329.86 224.82C331.13 222.03 331.74 218.84 330.97 215.87C330.37 213.52 328.75 211.29 326.42 210.61C324.82 210.14 323.06 210.46 321.6 211.25C314.9 214.88 317.56 223.53 321.33 228.22C328.54 237.18 340.3 239.14 350.77 235.37" stroke="white" stroke-width="3.02" stroke-miterlimit="10" stroke-linecap="round"/>
<path d="M289.77 150.59C284.65 157.31 280.38 165.65 279.31 174.11C277.69 186.95 290.48 199.25 301.95 189.39C310.56 181.99 312.63 169.74 315.49 159.37" stroke="white" stroke-width="3.02" stroke-miterlimit="10" stroke-linecap="round"/>
<path d="M325.74 165.63C325.74 167.3 323.53 170.05 322.82 171.5C319.48 178.26 312.11 191.75 318.15 198.94C323.09 204.82 332.41 200.4 338.36 198.94C346.24 197 353.96 201.63 356.47 209.46" stroke="white" stroke-width="3.02" stroke-miterlimit="10" stroke-linecap="round"/>
</g>
</g>
<path d="M210.38 106.59C209.88 106.57 201.44 104.99 201.76 104.27C199.04 110.41 193.3 113.26 193.3 113.26C183.41 115.73 175.46 111.34 175.08 111.13H175.07C177.47 115.88 175.27 121.59 175.08 122.05C175.64 120.92 180.85 122.37 181.73 122.6C191.83 125.16 194.68 136.11 192.94 145.19C192.44 147.8 191.17 149.44 191.71 151.94C191.77 152.22 191.85 152.51 191.96 152.81C192.72 154.93 194.34 156.8 195.05 158.84C196.14 161.95 196.37 165.32 195.07 168.4C193.81 171.35 191.13 174.09 188.15 175.37C188.69 175.37 189.34 183.98 189.38 184.64C189.72 189.88 186.82 194.98 182.31 197.61C175.27 201.73 166.29 200.42 160.49 195.12C159.43 194.16 158.49 193.07 157.68 191.85C154.7 187.39 154.7 182.26 155.21 177.06C155.48 174.36 156.03 166.76 160.05 166.76C152.23 166.76 151.99 160.09 151.99 160.09C140.71 161.4 127.72 152.02 131.33 139.78C131.68 138.6 132.58 137.25 132.73 135.93C132.78 135.53 132.76 135.13 132.63 134.75C132.11 133.15 130.1 131.75 129.16 130.28C128.13 128.66 127.25 126.96 126.55 125.18C125.13 121.55 124.35 117.66 124.22 113.76C123.99 106.47 126.17 98.4 132.42 94.02C132.96 93.64 139.63 89.66 139.63 89.41C138.2 84.55 142.37 77.41 145.79 74.24C150.55 69.83 157.94 67.13 164.41 67.75C165.19 67.82 171.45 68.81 171.45 70.19C171.45 57.99 181.24 50.58 192.86 51.25C201.13 51.73 208.74 55.66 214.59 61.34C216.77 63.45 218.7 65.81 220.33 68.33C223.25 72.83 225.66 79.2 226.5 85.45C227.99 96.55 224.56 107.29 210.38 106.58V106.59Z" fill="#FF4E21"/>
<path d="M210.38 106.59C209.88 106.57 201.44 104.99 201.76 104.27C199.04 110.41 193.3 113.26 193.3 113.26C183.41 115.73 175.46 111.34 175.08 111.13H175.07C177.47 115.88 175.27 121.59 175.08 122.05C175.64 120.92 180.85 122.37 181.73 122.6C191.83 125.16 194.68 136.11 192.94 145.19C192.44 147.8 191.17 149.44 191.71 151.94C191.77 152.22 191.85 152.51 191.96 152.81C192.72 154.93 194.34 156.8 195.05 158.84C196.14 161.95 196.37 165.32 195.07 168.4C193.81 171.35 191.13 174.09 188.15 175.37C188.69 175.37 189.34 183.98 189.38 184.64C189.72 189.88 186.82 194.98 182.31 197.61C175.27 201.73 166.29 200.42 160.49 195.12C159.43 194.16 158.49 193.07 157.68 191.85C154.7 187.39 154.7 182.26 155.21 177.06C155.48 174.36 156.03 166.76 160.05 166.76C152.23 166.76 151.99 160.09 151.99 160.09C140.71 161.4 127.72 152.02 131.33 139.78C131.68 138.6 132.58 137.25 132.73 135.93C132.78 135.53 132.76 135.13 132.63 134.75C132.11 133.15 130.1 131.75 129.16 130.28C128.13 128.66 127.25 126.96 126.55 125.18C125.13 121.55 124.35 117.66 124.22 113.76C123.99 106.47 126.17 98.4 132.42 94.02C132.96 93.64 139.63 89.66 139.63 89.41C138.2 84.55 142.37 77.41 145.79 74.24C150.55 69.83 157.94 67.13 164.41 67.75C165.19 67.82 171.45 68.81 171.45 70.19C171.45 57.99 181.24 50.58 192.86 51.25C201.13 51.73 208.74 55.66 214.59 61.34C216.77 63.45 218.7 65.81 220.33 68.33C223.25 72.83 225.66 79.2 226.5 85.45C227.99 96.55 224.56 107.29 210.38 106.58V106.59Z" fill="#FF4E21"/>
<g opacity="0.2">
<mask id="mask1_2469_1524" style="mask-type:luminance" maskUnits="userSpaceOnUse" x="124" y="51" width="103" height="150">
<path d="M191.71 151.94C191.17 149.44 192.44 147.8 192.94 145.19C194.68 136.11 191.84 125.17 181.73 122.61C180.84 122.39 175.55 120.9 175.08 122.09C175.08 122.09 177.58 116.09 175.08 111.13C175.08 111.13 183.17 115.79 193.32 113.27C193.32 113.27 199.04 110.41 201.77 104.27C201.45 104.99 209.89 106.57 210.39 106.59C232.55 107.68 228.46 80.85 220.34 68.34C214.33 59.07 204.21 51.92 192.87 51.26C181.25 50.59 171.46 58 171.46 70.2C171.46 68.82 165.2 67.83 164.42 67.76C157.95 67.14 150.55 69.85 145.8 74.25C142.38 77.42 138.22 84.56 139.64 89.42C139.7 89.63 132.98 93.64 132.43 94.02C126.18 98.4 124 106.47 124.23 113.76C124.35 117.65 125.13 121.55 126.56 125.18C127.26 126.97 128.14 128.66 129.17 130.28C130.11 131.75 132.12 133.15 132.64 134.75C133.18 136.4 131.8 138.24 131.34 139.78C127.73 152.02 140.72 161.4 152 160.09C152 160.09 152.24 166.76 160.06 166.76C156.04 166.76 155.49 174.36 155.22 177.06C154.7 182.26 154.71 187.39 157.68 191.85C162.96 199.77 173.99 202.48 182.32 197.61C186.82 194.98 189.73 189.87 189.39 184.64C189.35 183.97 188.68 175.15 188.14 175.38C191.13 174.11 193.82 171.36 195.08 168.4C196.39 165.32 196.15 161.94 195.06 158.84C194.35 156.79 192.73 154.93 191.96 152.81C191.85 152.51 191.77 152.22 191.71 151.94Z" fill="white"/>
</mask>
<g mask="url(#mask1_2469_1524)">
<path d="M113.64 96.83C120.46 104.61 132.07 112.93 142.92 108.95C147.34 107.33 149.26 102.81 147.12 98.5C146.41 97.08 144.93 95.92 143.35 96.11C139.22 96.6 139.07 102.28 140.8 105.11C143.94 110.27 150.09 108.31 154.25 105.68C159.54 102.35 162.76 97.1 162.73 90.75C162.73 88.46 162.3 86.11 161.11 84.15C159.92 82.19 157.86 80.6801 155.57 80.5201C152.38 80.3001 149.94 82.8201 150.13 86.0101C150.7 95.5301 163.95 94.4401 169.31 89.9801C173.67 86.3601 175.5 80.37 175.38 74.7C175.26 69.03 173.46 63.55 171.68 58.17C173.5 62.84 175.5 67.5 178.42 71.58C182.05 76.64 188.9 80.47 195.09 81.04C198.87 81.39 202.43 79.67 204.17 76.23C205.66 73.3 206.3 66.08 201.41 65.97C192.57 65.76 199 79.9 201.92 82.7C213.03 93.33 228.85 94.7601 243.33 96.5401" stroke="white" stroke-width="2.95" stroke-miterlimit="10" stroke-linecap="round"/>
<path d="M187.03 40.39C187.03 40.39 185.09 65.69 218.72 60.68" stroke="white" stroke-width="2.95" stroke-miterlimit="10" stroke-linecap="round"/>
<path d="M121.7 125.18C127.04 121.92 139.75 115.9 144.7 122.69C145.23 123.41 145.49 124.29 145.68 125.16C148.21 136.79 140.86 150.09 135.05 159.65" stroke="white" stroke-width="2.95" stroke-miterlimit="10" stroke-linecap="round"/>
<path d="M146.11 174.94C152.85 180.54 162.53 183.84 171.03 180.42C174.98 178.83 179.37 174.66 178.9 170.02C178.64 167.43 175.85 164.83 173.17 165.82C170.21 166.91 170.1 171.21 170.27 173.83C170.92 184.11 181.63 185.45 189.82 184.39" stroke="white" stroke-width="2.95" stroke-miterlimit="10" stroke-linecap="round"/>
<path d="M150.05 163.27C150.05 163.27 168.95 136.3 197.03 163.27" stroke="white" stroke-width="2.95" stroke-miterlimit="10" stroke-linecap="round"/>
</g>
</g>
<mask id="mask2_2469_1524" style="mask-type:luminance" maskUnits="userSpaceOnUse" x="191" y="123" width="26" height="27">
<path d="M216.57 129.84L216.33 147.8C216.33 147.8 203.63 153.7 191.34 145.97L198.55 123.94L216.58 129.84H216.57Z" fill="white"/>
</mask>
<g mask="url(#mask2_2469_1524)">
<path style="mix-blend-mode:multiply" d="M228.199 123.892C230.215 112.656 223.115 101.98 212.34 100.047C201.566 98.1143 191.198 105.656 189.182 116.893C187.166 128.129 194.267 138.805 205.041 140.738C215.815 142.67 226.184 135.128 228.199 123.892Z" fill="url(#paint15_radial_2469_1524)"/>
</g>
<path d="M193.18 109.08L193.16 109.14C190.24 118.08 195.11 127.69 204.04 130.61C212.98 133.53 222.59 128.66 225.51 119.72C225.9 118.52 226.15 117.32 226.27 116.12C227.05 108.33 222.36 100.78 214.62 98.25C214.34 98.16 214.06 98.08 213.78 98C210.63 97.14 207.42 97.24 204.48 98.12C199.33 99.65 194.99 103.6 193.17 109.08H193.18Z" fill="url(#paint16_radial_2469_1524)"/>
<g filter="url(#filter0_d_2469_1524)">
<path d="M200.03 116.73C200.03 116.73 199.94 118.02 200.3 119.63C200.82 121.88 202.26 124.73 206.19 125.45C206.19 125.45 211.05 126.8 213.87 122.1C214.31 121.37 214.71 120.5 215.02 119.46L200.02 116.74L200.03 116.73Z" fill="url(#paint17_linear_2469_1524)"/>
<path d="M200.03 116.73C200.03 116.73 199.94 118.02 200.3 119.63L213.88 122.09C214.32 121.36 214.72 120.49 215.03 119.45L200.03 116.73Z" fill="white"/>
</g>
<path d="M193.18 109.08C194.17 109.7 195.26 110.19 196.43 110.55C203.57 112.7 211.08 108.65 213.23 101.53C213.58 100.36 213.77 99.18 213.8 98.01C210.65 97.15 207.44 97.25 204.5 98.13C199.35 99.66 195.01 103.61 193.19 109.09L193.18 109.08Z" fill="url(#paint18_radial_2469_1524)"/>
<path d="M204.49 98.13C203.18 106.12 207.98 114.03 215.94 116.43C219.46 117.49 223.07 117.31 226.28 116.14C227.06 108.35 222.37 100.8 214.63 98.27C211.21 97.15 207.7 97.18 204.49 98.13Z" fill="url(#paint19_radial_2469_1524)"/>
<path d="M211.02 82C208.38 90.76 213.35 100 222.11 102.64C230.87 105.28 240.11 100.31 242.75 91.55C245.39 82.79 240.42 73.55 231.66 70.91C222.9 68.27 213.66 73.24 211.02 82Z" fill="url(#paint20_radial_2469_1524)"/>
<path opacity="0.4" d="M267.62 71.8699C268.69 74.6899 265.58 76.2299 263.26 76.5599C256.45 77.5199 250.03 76.19 243.26 78.19C242.7 78.36 242.14 78.54 241.58 78.72L238.57 75.0599L252.93 58.06L261.95 47.72C264.03 45.43 265.28 46.17 265.28 46.17C269.04 47.12 267.76 51.67 267.76 51.67C265.39 59.18 250.96 69.1799 250.96 69.1799H260.14C262.42 69.1799 266.6 69.2199 267.61 71.8699H267.62Z" fill="url(#paint21_linear_2469_1524)"/>
<path d="M257.54 136.85C314.76 125.99 357.01 125.96 360.5 138.6C365.16 155.44 299.17 188.42 213.1 212.25C127.03 236.08 53.48 241.75 48.81 224.9C44.95 210.96 89.47 185.98 153.72 164.27" stroke="white" stroke-width="1.12" stroke-miterlimit="10"/>
<path d="M340.19 171.93C358.85 172.05 370.63 175.2 372.41 181.62C377.07 198.46 311.08 231.44 225.01 255.27C138.94 279.1 65.39 284.77 60.72 267.92C57.8 257.39 82.49 240.56 122.43 223.6" stroke="white" stroke-width="1.12" stroke-miterlimit="10"/>
<path d="M350.13 214.95C369.94 214.86 382.49 218 384.33 224.64C388.99 241.48 323 274.46 236.93 298.29C150.86 322.12 77.31 327.79 72.64 310.94C70.65 303.74 81.56 293.59 101.44 282.47" stroke="white" stroke-width="1.12" stroke-miterlimit="10"/>
<path d="M247.99 230.08C259.6 227.3 270.84 224.89 281.55 222.86" stroke="white" stroke-width="1.12" stroke-miterlimit="10"/>
<path d="M316.03 0L317.53 15.68C318.21 22.77 323.82 28.39 330.92 29.07L346.6 30.57L330.92 32.07C323.83 32.75 318.21 38.36 317.53 45.46L316.03 61.14L314.53 45.46C313.85 38.37 308.24 32.75 301.14 32.07L285.46 30.57L301.14 29.07C308.23 28.39 313.85 22.78 314.53 15.68L316.03 0Z" fill="white"/>
<path d="M68.47 323.88L69.25 332.1C69.61 335.82 72.55 338.77 76.27 339.12L84.49 339.9L76.27 340.68C72.55 341.04 69.6 343.98 69.25 347.7L68.47 355.92L67.69 347.7C67.33 343.98 64.39 341.03 60.67 340.68L52.45 339.9L60.67 339.12C64.39 338.76 67.34 335.82 67.69 332.1L68.47 323.88Z" fill="white"/>
<path d="M16.02 148.43L16.8 156.65C17.16 160.37 20.1 163.32 23.82 163.67L32.04 164.45L23.82 165.23C20.1 165.59 17.15 168.53 16.8 172.25L16.02 180.47L15.24 172.25C14.88 168.53 11.94 165.58 8.22 165.23L0 164.45L8.22 163.67C11.94 163.31 14.89 160.37 15.24 156.65L16.02 148.43Z" fill="white"/>
<defs>
<filter id="filter0_d_2469_1524" x="195.06" y="111.77" width="24.93" height="18.8198" filterUnits="userSpaceOnUse" color-interpolation-filters="sRGB">
<feFlood flood-opacity="0" result="BackgroundImageFix"/>
<feColorMatrix in="SourceAlpha" type="matrix" values="0 0 0 0 0 0 0 0 0 0 0 0 0 0 0 0 0 0 127 0" result="hardAlpha"/>
<feOffset/>
<feGaussianBlur stdDeviation="2.48"/>
<feColorMatrix type="matrix" values="0 0 0 0 0.717647 0 0 0 0 0.192157 0 0 0 0 0.964706 0 0 0 0.85 0"/>
<feBlend mode="normal" in2="BackgroundImageFix" result="effect1_dropShadow_2469_1524"/>
<feBlend mode="normal" in="SourceGraphic" in2="effect1_dropShadow_2469_1524" result="shape"/>
</filter>
<radialGradient id="paint0_radial_2469_1524" cx="0" cy="0" r="1" gradientUnits="userSpaceOnUse" gradientTransform="translate(182.452 120.677) rotate(-163.25) scale(30.92)">
<stop/>
<stop offset="0.37" stop-color="#020100"/>
<stop offset="0.57" stop-color="#0A0500"/>
<stop offset="0.73" stop-color="#180D00"/>
<stop offset="0.88" stop-color="#2B1800"/>
<stop offset="1" stop-color="#442600"/>
</radialGradient>
<radialGradient id="paint1_radial_2469_1524" cx="0" cy="0" r="1" gradientUnits="userSpaceOnUse" gradientTransform="translate(228.788 134.487) rotate(-163.25) scale(30.92 30.92)">
<stop/>
<stop offset="0.37" stop-color="#020100"/>
<stop offset="0.57" stop-color="#0A0500"/>
<stop offset="0.73" stop-color="#180D00"/>
<stop offset="0.88" stop-color="#2B1800"/>
<stop offset="1" stop-color="#442600"/>
</radialGradient>
<linearGradient id="paint2_linear_2469_1524" x1="341.76" y1="145.88" x2="171.29" y2="203.93" gradientUnits="userSpaceOnUse">
<stop offset="0.12" stop-color="#F190F2"/>
<stop offset="0.41" stop-color="#EF8DF2"/>
<stop offset="0.57" stop-color="#EA85F2"/>
<stop offset="0.7" stop-color="#E277F3"/>
<stop offset="0.82" stop-color="#D664F3"/>
<stop offset="0.92" stop-color="#C64BF4"/>
<stop offset="1" stop-color="#B731F6"/>
</linearGradient>
<linearGradient id="paint3_linear_2469_1524" x1="368.11" y1="254.46" x2="370.24" y2="250.33" gradientUnits="userSpaceOnUse">
<stop offset="0.3" stop-color="#B731F6"/>
<stop offset="0.35" stop-color="#B833F5" stop-opacity="0.98"/>
<stop offset="0.42" stop-color="#BB39F5" stop-opacity="0.91"/>
<stop offset="0.5" stop-color="#C243F5" stop-opacity="0.81"/>
<stop offset="0.58" stop-color="#CA50F4" stop-opacity="0.66"/>
<stop offset="0.67" stop-color="#D562F3" stop-opacity="0.48"/>
<stop offset="0.75" stop-color="#E278F3" stop-opacity="0.25"/>
<stop offset="0.84" stop-color="#F190F2" stop-opacity="0"/>
</linearGradient>
<radialGradient id="paint4_radial_2469_1524" cx="0" cy="0" r="1" gradientUnits="userSpaceOnUse" gradientTransform="translate(198.43 157.07) scale(30.27 30.27)">
<stop/>
<stop offset="0.37" stop-color="#020100"/>
<stop offset="0.57" stop-color="#0A0500"/>
<stop offset="0.73" stop-color="#180D00"/>
<stop offset="0.88" stop-color="#2B1800"/>
<stop offset="1" stop-color="#442600"/>
</radialGradient>
<linearGradient id="paint5_linear_2469_1524" x1="317.854" y1="396.576" x2="348.52" y2="374.167" gradientUnits="userSpaceOnUse">
<stop offset="0.12" stop-color="#F190F2"/>
<stop offset="0.27" stop-color="#EC87F2"/>
<stop offset="0.51" stop-color="#DE71F3"/>
<stop offset="0.8" stop-color="#C84DF4"/>
<stop offset="1" stop-color="#B731F6"/>
</linearGradient>
<linearGradient id="paint6_linear_2469_1524" x1="314.351" y1="356.288" x2="359.209" y2="412.401" gradientUnits="userSpaceOnUse">
<stop/>
<stop offset="1" stop-opacity="0"/>
</linearGradient>
<radialGradient id="paint7_radial_2469_1524" cx="0" cy="0" r="1" gradientUnits="userSpaceOnUse" gradientTransform="translate(338.489 429.445) rotate(141.29) scale(67.47 41.1567)">
<stop stop-color="#442600"/>
<stop offset="0.12" stop-color="#2B1800"/>
<stop offset="0.27" stop-color="#180D00"/>
<stop offset="0.43" stop-color="#0A0500"/>
<stop offset="0.63" stop-color="#020100"/>
<stop offset="1"/>
</radialGradient>
<linearGradient id="paint8_linear_2469_1524" x1="303.9" y1="285.59" x2="224.68" y2="325.63" gradientUnits="userSpaceOnUse">
<stop stop-color="#004497"/>
<stop offset="1" stop-color="#002D5C"/>
</linearGradient>
<linearGradient id="paint9_linear_2469_1524" x1="188.26" y1="218.05" x2="219.12" y2="257.25" gradientUnits="userSpaceOnUse">
<stop/>
<stop offset="1" stop-opacity="0"/>
</linearGradient>
<linearGradient id="paint10_linear_2469_1524" x1="171.631" y1="352.668" x2="199.729" y2="327.178" gradientUnits="userSpaceOnUse">
<stop offset="0.12" stop-color="#F190F2"/>
<stop offset="0.27" stop-color="#EC87F2"/>
<stop offset="0.51" stop-color="#DE71F3"/>
<stop offset="0.8" stop-color="#C84DF4"/>
<stop offset="1" stop-color="#B731F6"/>
</linearGradient>
<linearGradient id="paint11_linear_2469_1524" x1="170.927" y1="320.735" x2="205.767" y2="354.533" gradientUnits="userSpaceOnUse">
<stop/>
<stop offset="1" stop-opacity="0"/>
</linearGradient>
<radialGradient id="paint12_radial_2469_1524" cx="0" cy="0" r="1" gradientUnits="userSpaceOnUse" gradientTransform="translate(189.093 376.46) rotate(134.07) scale(67.47 41.1567)">
<stop stop-color="#442600"/>
<stop offset="0.12" stop-color="#2B1800"/>
<stop offset="0.27" stop-color="#180D00"/>
<stop offset="0.43" stop-color="#0A0500"/>
<stop offset="0.63" stop-color="#020100"/>
<stop offset="1"/>
</radialGradient>
<linearGradient id="paint13_linear_2469_1524" x1="161.45" y1="322.55" x2="181.88" y2="192.86" gradientUnits="userSpaceOnUse">
<stop stop-color="#004497"/>
<stop offset="1" stop-color="#002D5C"/>
</linearGradient>
<radialGradient id="paint14_radial_2469_1524" cx="0" cy="0" r="1" gradientUnits="userSpaceOnUse" gradientTransform="translate(180.887 261.169) rotate(10.12) scale(26.66 6.9316)">
<stop/>
<stop offset="1" stop-opacity="0"/>
</radialGradient>
<radialGradient id="paint15_radial_2469_1524" cx="0" cy="0" r="1" gradientUnits="userSpaceOnUse" gradientTransform="translate(207.96 112.635) rotate(-169.83) scale(19.8129 20.6358)">
<stop offset="0.3" stop-color="#B731F6"/>
<stop offset="0.35" stop-color="#B833F5" stop-opacity="0.98"/>
<stop offset="0.42" stop-color="#BB39F5" stop-opacity="0.91"/>
<stop offset="0.5" stop-color="#C243F5" stop-opacity="0.81"/>
<stop offset="0.58" stop-color="#CA50F4" stop-opacity="0.66"/>
<stop offset="0.67" stop-color="#D562F3" stop-opacity="0.48"/>
<stop offset="0.75" stop-color="#E278F3" stop-opacity="0.25"/>
<stop offset="0.84" stop-color="#F190F2" stop-opacity="0"/>
</radialGradient>
<radialGradient id="paint16_radial_2469_1524" cx="0" cy="0" r="1" gradientUnits="userSpaceOnUse" gradientTransform="translate(210.329 108.902) rotate(-163.25) scale(22.98 22.98)">
<stop offset="0.52" stop-color="#F190F2"/>
<stop offset="0.68" stop-color="#EF8DF2"/>
<stop offset="0.77" stop-color="#EA85F2"/>
<stop offset="0.84" stop-color="#E277F3"/>
<stop offset="0.9" stop-color="#D664F3"/>
<stop offset="0.96" stop-color="#C64BF4"/>
<stop offset="1" stop-color="#B731F6"/>
</radialGradient>
<linearGradient id="paint17_linear_2469_1524" x1="207.427" y1="118.481" x2="206.383" y2="124.7" gradientUnits="userSpaceOnUse">
<stop offset="0.12" stop-color="#CA79CB"/>
<stop offset="1" stop-color="#9119C9"/>
</linearGradient>
<radialGradient id="paint18_radial_2469_1524" cx="0" cy="0" r="1" gradientUnits="userSpaceOnUse" gradientTransform="translate(203.406 103.832) rotate(-163.25) scale(8.51 8.50999)">
<stop/>
<stop offset="0.37" stop-color="#020100"/>
<stop offset="0.57" stop-color="#0A0500"/>
<stop offset="0.73" stop-color="#180D00"/>
<stop offset="0.88" stop-color="#2B1800"/>
<stop offset="1" stop-color="#442600"/>
</radialGradient>
<radialGradient id="paint19_radial_2469_1524" cx="0" cy="0" r="1" gradientUnits="userSpaceOnUse" gradientTransform="translate(219.282 102.887) rotate(-163.25) scale(13.92 13.92)">
<stop/>
<stop offset="0.37" stop-color="#020100"/>
<stop offset="0.57" stop-color="#0A0500"/>
<stop offset="0.73" stop-color="#180D00"/>
<stop offset="0.88" stop-color="#2B1800"/>
<stop offset="1" stop-color="#442600"/>
</radialGradient>
<radialGradient id="paint20_radial_2469_1524" cx="0" cy="0" r="1" gradientUnits="userSpaceOnUse" gradientTransform="translate(227.84 81.3913) rotate(-163.25) scale(22.36 22.36)">
<stop/>
<stop offset="0.37" stop-color="#020100"/>
<stop offset="0.57" stop-color="#0A0500"/>
<stop offset="0.73" stop-color="#180D00"/>
<stop offset="0.88" stop-color="#2B1800"/>
<stop offset="1" stop-color="#442600"/>
</radialGradient>
<linearGradient id="paint21_linear_2469_1524" x1="259.91" y1="81.37" x2="250.05" y2="52.68" gradientUnits="userSpaceOnUse">
<stop offset="0.12" stop-color="#F190F2"/>
<stop offset="0.41" stop-color="#EF8DF2"/>
<stop offset="0.57" stop-color="#EA85F2"/>
<stop offset="0.7" stop-color="#E277F3"/>
<stop offset="0.82" stop-color="#D664F3"/>
<stop offset="0.92" stop-color="#C64BF4"/>
<stop offset="1" stop-color="#B731F6"/>
</linearGradient>
</defs>
</svg>
